<svg xmlns="http://www.w3.org/2000/svg" viewBox="0 0 80 80" width="30px" height="30px"><path fill="#ffeea3" d="M40,65.5C18.22,65.5,0.5,54.061,0.5,40S18.22,14.5,40,14.5S79.5,25.939,79.5,40S61.78,65.5,40,65.5z"/><path fill="#66798f" d="M40,15c21.505,0,39,11.215,39,25S61.505,65,40,65S1,53.785,1,40S18.495,15,40,15 M40,14 C17.833,14,0,25.613,0,40s17.833,26,40,26s40-11.613,40-26C80,25.787,62.167,14,40,14L40,14z"/><g><path fill="#839cb2" d="M40.007,58.742c-1.862-6.33-4.679-10.184-7.525-10.184c-0.932,0-2.551,0.449-3.616,3.239 c-3.183-5.142-5.883-6.257-7.626-6.257c-1.374,0-2.605,0.717-3.466,2.018c-1.387,2.097-1.627,5.344-0.688,8.395 C9.727,51.89,4.5,45.305,4.5,39.945c0-7.634,7.63-15.421,18.555-18.938c0.252-0.068,0.508-0.137,0.767-0.205 c-3.401,5.161-2.478,8.886-1.567,10.708c1.219,2.439,3.652,4.016,6.201,4.016c0,0,0,0,0.001,0c2.483,0,4.528-1.537,5.472-4.11 l0.018-0.047l1.356-9.015l1.431,2.146h6.535l1.431-2.146l1.35,8.965c0.93,2.686,2.956,4.235,5.444,4.235c0,0,0,0,0.001,0 c2.557,0,5.003-1.59,6.23-4.05c0.911-1.825,1.84-5.549-1.535-10.686c0.365,0.099,0.728,0.2,1.085,0.305 C67.998,24.659,75.5,32.401,75.5,39.945c0,5.806-4.472,11.853-11.491,15.662c0.908-3.056,0.676-6.148-0.669-8.133 c-0.854-1.261-2.109-1.956-3.535-1.956c-1.849,0-4.813,1.13-8.621,6.358c-0.753-2.111-2.019-3.299-3.559-3.299 C44.763,48.576,41.911,52.424,40.007,58.742z"/><path fill="#66798f" d="M22.721,21.642c-2.718,4.797-1.806,8.306-0.914,10.092c1.302,2.608,3.912,4.293,6.649,4.293 c2.702,0,4.923-1.659,5.941-4.438l0.035-0.095l0.015-0.1l1.157-7.686l0.564,0.847L36.465,25H37h6h0.535l0.297-0.445l0.564-0.847 l1.157,7.686l0.014,0.093l0.031,0.088c0.981,2.805,3.184,4.479,5.894,4.479c2.745,0,5.366-1.698,6.678-4.326 c0.893-1.788,1.808-5.296-0.887-10.073C67.725,25.155,75,32.656,75,39.945c0,5.343-3.945,10.915-10.222,14.649 c0.58-2.809,0.23-5.549-1.023-7.401c-0.95-1.403-2.353-2.176-3.95-2.176c-1.875,0-4.808,1.062-8.494,5.855 c-0.854-1.799-2.143-2.796-3.685-2.796c-2.846,0-5.644,3.384-7.613,9.033c-1.93-5.661-4.698-9.052-7.531-9.052 c-1.509,0-2.798,0.96-3.691,2.695c-3.095-4.671-5.775-5.713-7.55-5.713c-1.548,0-2.927,0.797-3.884,2.244 c-1.286,1.946-1.645,4.813-1.05,7.643C9.641,50.927,5,44.885,5,39.945C5,32.629,12.281,25.145,22.721,21.642 M55,20 c6.543,8.704,1.29,15.054-3.507,15.054c-2.055,0-4.026-1.165-4.951-3.809L45,21l-2,3h-6l-2-3l-1.542,10.245 c-0.961,2.624-2.946,3.782-5.002,3.782c-4.805,0-10.001-6.32-3.456-15.027c-0.714,0.162-1.41,0.344-2.099,0.531 C11.721,24.13,4,32.158,4,39.945C4,46.082,10.219,53.095,18,57c-2.251-5.292-0.408-10.959,3.239-10.96 C23.364,46.04,26.101,47.962,29,53c0.715-2.61,1.995-3.942,3.481-3.942c2.499,0,5.579,3.77,7.519,11.573 c1.988-7.773,5.13-11.555,7.625-11.555c1.476,0,2.724,1.322,3.375,3.924c3.475-5.048,6.527-6.983,8.804-6.983 c3.784,0,5.428,5.34,3.321,10.608C71.018,52.75,76,46.259,76,39.945c0-7.711-7.579-15.673-18.586-19.301 C56.627,20.414,55.822,20.198,55,20L55,20z"/></g></svg>