<svg xmlns="http://www.w3.org/2000/svg" viewBox="0 0 80 80" width="30px" height="30px"><path fill="#f5c276" d="M17.442,49.921c-2.395-0.386-11.85-2.588-15.302-14.852C4.745,37.627,10.067,42,16,42h0.053	C16.021,41.351,16,40.688,16,40c-7.361,0-14-8-14-8H0c0,21.754,18.667,26.667,18.667,26.667l6.633,1.843	C22.179,58.445,19.156,55.155,17.442,49.921z"/><path fill="#c2e8ff" d="M76.475,33.5c-0.365-3.478-4.601-4.391-9.47-5.441C60.206,26.592,52.5,24.929,52.5,16 c-0.001-0.038-0.028-2.712,2.045-4.826C56.285,9.399,58.98,8.5,62.556,8.5c2.993,0,5.297,0.801,6.846,2.38 c2.129,2.169,2.1,5.082,2.099,5.11c0,0.04-0.001,2.694-1.588,4.291c-0.804,0.809-1.896,1.219-3.245,1.219 c-1.378,0-2.434-0.408-3.138-1.214c-1.375-1.575-1.037-4.191-1.034-4.218l0.075-0.55l-0.684-0.02c-2.12,0-4.387,0.657-4.387,2.501 c0,4.313,4.599,5.792,9.468,7.358c5.01,1.612,10.186,3.277,10.516,8.142H76.475z"/><path fill="#8bb7f0" d="M62.556,9c2.842,0,5.02,0.744,6.472,2.212C71.007,13.214,71,15.958,71,16.009 c0,0.024-0.017,2.481-1.439,3.915C68.844,20.648,67.898,21,66.667,21c-1.243,0-2.145-0.34-2.758-1.04 c-1.224-1.398-0.921-3.801-0.918-3.823l0.151-1.102L62.03,15l-0.143-0.002C58.872,14.999,57,16.149,57,18 c0,4.677,4.989,6.282,9.815,7.835C71.678,27.4,76.291,28.883,76.926,33h-0.022c-0.7-3.469-5.128-4.424-9.794-5.431 C60.496,26.142,53,24.525,53,15.98c0-0.025-0.014-2.513,1.914-4.468C56.557,9.845,59.128,9,62.556,9 M62.556,8 C51.805,8,52,16,52,16c0,16.056,24,9.667,24,18h2c0-10.611-20-7.611-20-16c0-1.905,3.235-2.001,3.887-2.001 C61.96,15.999,62,16,62,16s-0.833,6,4.667,6C72.056,22,72,16,72,16S72.15,8,62.556,8L62.556,8z"/><path fill="#ffeea3" d="M34,31.5c-1.93,0-3.5-1.57-3.5-3.5s1.57-3.5,3.5-3.5s3.5,1.57,3.5,3.5S35.93,31.5,34,31.5z"/><path fill="#f5c276" d="M34,25c1.654,0,3,1.346,3,3s-1.346,3-3,3s-3-1.346-3-3S32.346,25,34,25 M34,24 c-2.209,0-4,1.791-4,4s1.791,4,4,4s4-1.791,4-4S36.209,24,34,24L34,24z"/><path fill="#ffeea3" d="M20.268,42.167C21.937,39.763,27.521,32.5,34,32.5c6.484,0,12.064,7.263,13.733,9.667H20.268z"/><path fill="#f5c276" d="M34,33c5.653,0,10.654,5.823,12.759,8.667H21.241C23.346,38.823,28.347,33,34,33 M34,32 c-8.1,0-14.667,10.667-14.667,10.667h29.333C48.667,42.667,42.1,32,34,32L34,32z"/><g><path fill="#ffeea3" d="M22.615,71.5c0.607-1.39,3.561-3.195,7.603-3.955l0.316-0.06l0.076-0.313 C30.994,65.599,32.388,64.5,34,64.5s3.006,1.099,3.39,2.672l0.076,0.313l0.316,0.06c4.042,0.76,6.995,2.565,7.603,3.955H22.615z"/><path fill="#f5c276" d="M34,65c1.381,0,2.575,0.942,2.904,2.29l0.153,0.627l0.634,0.119 c3.395,0.638,5.682,1.949,6.703,2.964H23.607c1.021-1.015,3.308-2.326,6.703-2.964l0.634-0.119l0.153-0.627 C31.425,65.942,32.619,65,34,65 M34,64c-1.881,0-3.449,1.304-3.875,3.054C25.41,67.939,22,70.246,22,72h24 c0-1.754-3.41-4.061-8.125-4.946C37.449,65.304,35.881,64,34,64L34,64z"/></g><g><path fill="#ffeea3" d="M33.998,63.5c-0.86-0.007-19.228-0.443-19.495-23H46c0.838-0.019,20.169-0.506,26.197-6h6.853 C59.394,62.77,34.43,63.492,33.998,63.5z"/><path fill="#f5c276" d="M78.087,35C58.611,62.363,34.237,62.997,34.007,63c-0.765-0.007-18.466-0.408-18.995-22l31.01,0 c0.828-0.018,20.035-0.503,26.365-6H78.087 M80,34h-8c-5.778,5.556-26,6-26,6H14c0,23.889,20,24,20,24S59.799,63.724,80,34L80,34z"/></g><g><path fill="#ffeea3" d="M33.998,63.5c-0.86-0.007-19.228-0.443-19.495-23H46c0.838-0.019,20.169-0.506,26.197-6h6.853 C59.394,62.77,34.43,63.492,33.998,63.5z"/><path fill="#f5c276" d="M78.087,35C58.611,62.363,34.237,62.997,34.007,63c-0.765-0.007-18.466-0.408-18.995-22l31.01,0 c0.828-0.018,20.035-0.503,26.365-6H78.087 M80,34h-8c-5.778,5.556-26,6-26,6H14c0,23.889,20,24,20,24S59.799,63.724,80,34L80,34z"/></g></svg>