<svg xmlns="http://www.w3.org/2000/svg" viewBox="0 0 80 80" width="30px" height="30px"><path fill="#f76d6d" d="M22.5 40.5H57.5V77.58500000000001H22.5z"/><path fill="#c74343" d="M57,41v36.085H23V41H57 M58,40H22v38.085h36V40L58,40z"/><path fill="#f7a3a3" d="M12,47.5c-1.93,0-3.5-1.57-3.5-3.5v-7l5.922-34.5h51.156l5.929,34.585L71.5,44 c0,1.93-1.57,3.5-3.5,3.5H12z"/><path fill="#c74343" d="M65.157,3L71,37.085V44c0,1.654-1.346,3-3,3H12c-1.654,0-3-1.346-3-3v-6.915L14.843,3H65.157 M66,2 H14L8,37v7c0,2.209,1.791,4,4,4h56c2.209,0,4-1.791,4-4v-7L66,2L66,2z"/><path fill="#c74343" d="M71.357,36.212C62.409,32.464,60.5,23.257,60.5,16.085c0-6.313,3.644-11.213,5.18-12.996 L71.357,36.212z M14.329,3.042c1.526,1.657,5.171,6.32,5.171,13.043c0,7.172-1.909,16.379-10.857,20.127L14.329,3.042z"/><path fill="#c74343" d="M14.643,4.168C16.315,6.219,19,10.396,19,16.085c0,6.783-1.734,15.423-9.706,19.284L14.643,4.168 M65.373,4.259l5.333,31.111C62.734,31.507,61,22.868,61,16.085C61,10.754,63.689,6.438,65.373,4.259 M66,2c0,0-6,5.824-6,14.085 C60,24.066,62.327,33.471,72,37L66,2L66,2z M14,2L8,37c9.673-3.529,12-12.934,12-20.915C20,7.282,14,2,14,2L14,2z"/><path fill="#66798f" d="M65.886,33.198c-3.082-3.021-4.678-7.105-5.392-11.198H19.506c-0.714,4.093-2.31,8.177-5.392,11.198 c-0.488,0.508-1.005,0.994-1.579,1.432L36,40.085h8l23.464-5.454C66.891,34.192,66.373,33.707,65.886,33.198z"/><path fill="#f7a3a3" d="M32 40H48V59H32zM32 60H48V77H32z"/><path fill="#ffcaca" d="M38 30L34 50.085 46 50.085 42 30z"/><path fill="#ffeea3" d="M52 26A6 3 0 1 0 52 32 6 3 0 1 0 52 26zM28 26A6 3 0 1 0 28 32 6 3 0 1 0 28 26z"/></svg>