<svg xmlns="http://www.w3.org/2000/svg" viewBox="0 0 80 80" width="30px" height="30px"><path fill="#f78f8f" d="M79.359,39.332C77.582,34.324,74.242,31.5,70,31.5h-3.5v-7H70c5.504,0,9.5,5.41,9.5,12.867	C79.5,38.012,79.453,38.656,79.359,39.332z"/><path fill="#c74343" d="M70,25c5.172,0,8.937,5.117,9,12.191C77.023,33.211,73.871,31,70,31h-3v-6H70 M70,24h-4v8h4	c4.863,0,8.078,3.883,9.457,9.398C79.777,40.117,80,38.781,80,37.367C80,29.871,75.996,24,70,24z"/><path fill="#c74343" d="M72.5,42.355c3.078-1.125,5.492-3.664,6.832-7.129c0.113,0.738,0.168,1.449,0.168,2.141	c0,5.598-2.727,10.195-7,11.918V42.355z"/><path fill="#c74343" d="M78.996,37.148C79,37.223,79,37.293,79,37.367c0,5.082-2.313,9.297-6,11.145v-5.813	C75.523,41.684,77.594,39.746,78.996,37.148 M79.437,33.254C78.309,37.66,75.594,40.824,72,42v8c4.676-1.516,8-6.316,8-12.633	C80,35.922,79.77,34.559,79.437,33.254z"/><path fill="#f78f8f" d="M0.641,39.332C0.547,38.656,0.5,38.012,0.5,37.367C0.5,29.91,4.496,24.5,10,24.5h3.5v7H10	C5.758,31.5,2.418,34.324,0.641,39.332z"/><path fill="#c74343" d="M13,25v6h-3c-3.871,0-7.023,2.211-9,6.191C1.062,30.117,4.828,25,10,25H13 M14,24h-4	C4.004,24,0,29.871,0,37.367c0,1.414,0.223,2.75,0.543,4.031C1.922,35.883,5.137,32,10,32h4V24z"/><path fill="#c74343" d="M7.5,49.285c-4.273-1.723-7-6.32-7-11.918c0-0.691,0.055-1.402,0.168-2.141	c1.34,3.465,3.754,6,6.832,7.129V49.285z"/><path fill="#c74343" d="M1.004,37.148C2.406,39.746,4.477,41.684,7,42.699v5.813c-3.688-1.848-6-6.063-6-11.145	C1,37.293,1,37.223,1.004,37.148 M0.562,33.254C0.23,34.559,0,35.922,0,37.367C0,43.684,3.324,48.484,8,50v-8	C4.406,40.824,1.691,37.66,0.562,33.254z"/><path fill="#ffeea3" d="M40,77.5c-8.113,0-29.5-16.395-29.5-29.5V10.258C12.035,9.191,22.398,2.5,40,2.5	c17.625,0,27.969,6.691,29.5,7.758V48C69.5,61.105,48.113,77.5,40,77.5z"/><path fill="#ba9b48" d="M40,3c16.789,0,26.926,6.137,29,7.523V48c0,5.703-4.234,12.758-11.621,19.359	C51.133,72.945,43.824,77,40,77c-7.766,0-29-16.441-29-29V10.523C13.074,9.137,23.211,3,40,3 M40,2c-19.441,0-30,8-30,8	s0,24.648,0,38s21.875,30,30,30s30-16.383,30-30s0-38,0-38S59.441,2,40,2z"/><path fill="#94a1b1" d="M20.107,32.465c0.755-1.209,2.914-4,6.758-4s6.003,2.791,6.758,4H20.107z"/><path fill="#66798f" d="M34.525,32.965h-15.32l0.478-0.765c0.795-1.273,3.087-4.235,7.182-4.235 c4.096,0,6.387,2.962,7.183,4.235L34.525,32.965z M21.068,31.965h11.594c-0.984-1.259-2.874-3-5.797-3 C23.942,28.965,22.052,30.706,21.068,31.965z"/><path fill="#94a1b1" d="M46.377,32.465c0.755-1.209,2.914-4,6.758-4s6.003,2.791,6.758,4H46.377z"/><path fill="#66798f" d="M60.795,32.965h-15.32l0.478-0.765c0.795-1.273,3.087-4.235,7.183-4.235 c4.095,0,6.387,2.962,7.182,4.235L60.795,32.965z M47.338,31.965h11.594c-0.984-1.259-2.874-3-5.797-3 C50.212,28.965,48.322,30.706,47.338,31.965z"/><path fill="#94a1b1" d="M52.857,15.577c-5.525,0-8.349,4.94-8.937,5.527c-0.942,0.942-0.942,2.469,0,3.409 c0.942,0.942,2.469,0.942,3.409,0c0.665-0.659,2.817-5.721,7.136-5.721c2.229,0,4.897,1.029,8.036,3.214 C59.519,16.987,56.065,15.577,52.857,15.577z M27.143,15.577c-3.208,0-6.662,1.409-9.643,6.429 c3.139-2.186,5.807-3.214,8.036-3.214c4.32,0,6.47,5.063,7.134,5.723c0.94,0.942,2.467,0.942,3.409,0 c0.942-0.94,0.942-2.467,0-3.409C35.492,20.518,32.668,15.577,27.143,15.577z"/><path fill="#66798f" d="M34.374,25.721c-0.778,0-1.508-0.303-2.058-0.853c-0.167-0.167-0.35-0.457-0.626-0.896 c-0.956-1.519-2.945-4.68-6.154-4.68c-2.166,0-4.773,1.051-7.75,3.124l-1.297,0.931c0.12-0.487,0.32-1.023,0.582-1.596 c2.667-4.491,5.962-6.674,10.073-6.674c5.006,0,7.878,3.817,8.959,5.255c0.15,0.199,0.273,0.335,0.33,0.42 c0.441,0.661,0.853,1.281,0.853,2.059c0,0.778-0.303,1.509-0.853,2.058C35.882,25.418,35.151,25.721,34.374,25.721z M25.536,18.292 c3.761,0,5.949,3.477,7,5.147c0.196,0.312,0.398,0.633,0.486,0.721c0.723,0.725,1.981,0.722,2.703,0.001 c0.361-0.36,0.56-0.84,0.56-1.351c0-0.51-0.281-0.921-0.56-1.352c-0.07-0.109-0.233-0.274-0.422-0.525 c-0.999-1.328-3.653-4.856-8.16-4.856c-3.083,0-5.678,1.384-7.882,4.217C21.586,18.964,23.689,18.292,25.536,18.292z M45.625,25.72 c-0.778,0-1.509-0.304-2.059-0.854c-0.549-0.548-0.853-1.278-0.853-2.056c0-0.778,0.329-1.426,0.853-2.06 c0.066-0.08,0.182-0.223,0.333-0.423c1.082-1.437,3.955-5.251,8.958-5.251c4.111,0,7.406,2.183,10.073,6.674 c0.248,0.489,0.435,0.992,0.554,1.512l-1.269-0.847c-2.977-2.073-5.584-3.124-7.75-3.124c-3.204,0-5.122,3.041-6.152,4.676 c-0.278,0.44-0.462,0.732-0.632,0.9C47.133,25.416,46.402,25.72,45.625,25.72z M52.857,16.077c-4.504,0-7.159,3.525-8.159,4.853 c-0.191,0.253-0.346,0.426-0.425,0.528c-0.333,0.431-0.56,0.842-0.56,1.353c0,0.51,0.199,0.988,0.56,1.348 c0.723,0.724,1.98,0.724,2.702,0.001c0.091-0.09,0.294-0.412,0.492-0.725c1.052-1.67,3.242-5.143,6.998-5.143 c1.846,0,3.95,0.672,6.274,2.002C58.535,17.461,55.94,16.077,52.857,16.077z"/><g><path fill="#94a1b1" d="M18.89,44.437L25.429,55.5h11.555L40,52.734l3.016,2.766h11.555l6.539-11.063L51,52.5h-5.031 l-4.237-5h-3.016l-4.811,5h-5.031L18.89,44.437z"/><path fill="#66798f" d="M54.856,56H42.821L40,53.413L37.179,56H25.144l-8.092-13.689L29.051,52h4.642l4.811-5h3.46l4.237,5 h4.625l12.099-9.648L54.856,56z M43.21,55h11.076l5.01-8.477L51.175,53h-5.438L41.5,48h-2.571l-4.811,5h-5.421l-7.969-6.436 L25.714,55H36.79L40,52.056L43.21,55z"/></g><g><path fill="#94a1b1" d="M43.5,76.78c-1.149,0.466-2.384,0.704-3.5,0.72c-1.211-0.029-2.386-0.277-3.5-0.72v-6.16V65.5h7 v5.12V76.78z"/><path fill="#66798f" d="M39.998,78h-0.01c-1.251-0.03-2.487-0.284-3.672-0.755L36,77.12V65h8v12.117l-0.312,0.126 c-1.161,0.472-2.468,0.74-3.681,0.757H39.998z M37,76.435c0.975,0.35,1.983,0.54,3.002,0.565c0.982-0.015,2.034-0.214,2.998-0.563 V66h-6V76.435z"/></g></svg>