<svg xmlns="http://www.w3.org/2000/svg" viewBox="0 0 80 80" width="30px" height="30px"><path fill="#ffeea3" d="M16.529,77.5c0.894-15.51,2.73-28.753,5.459-39.366C25.56,25.092,31.615,13.208,39.987,2.81 c7.012,9.305,12.819,20.577,16.813,32.643c4.1,12.015,5.549,24.382,6.651,36.047h-0.156c-5.009-9.054-10.079-16.334-14.16-22.195 c-0.941-1.173-1.58-1.662-2.155-1.662c-0.863,0-1.66,0.42-2.981,1.116l-0.738,0.387c-8.396,5.474-19.75,14.8-26.569,28.354H16.529z"/><path fill="#66798f" d="M39.974,3.627c6.806,9.161,12.448,20.191,16.354,31.991c3.844,11.265,5.35,22.865,6.43,33.901 c-4.701-8.278-9.39-15.011-13.213-20.501l-0.02-0.028l-0.021-0.027c-1.039-1.294-1.771-1.821-2.524-1.821 c-0.986,0-1.825,0.442-3.214,1.174c-0.227,0.12-0.472,0.249-0.736,0.386l-0.044,0.023l-0.042,0.027 c-8.046,5.248-18.861,14.075-25.795,26.797c0.931-14.628,2.72-27.162,5.32-37.276C25.966,25.502,31.853,13.852,39.974,3.627 M40,2 c-7.678,9.41-14.483,21.352-18.496,36.01C18.712,48.867,16.872,62.438,16,78h1c5.768-11.621,15.671-21.352,26.49-28.41 c1.745-0.905,2.617-1.448,3.49-1.448c0.349,0,0.872,0.362,1.745,1.448C53.261,56.105,58.114,63.133,63,72h1 c-1.221-13.029-2.712-24.943-6.725-36.705C53.261,23.171,47.329,11.59,40,2L40,2z"/><g><path fill="#4b6477" d="M43.49,36L44,42l-4-4l-4,4l0.859-6l-6.456-3.096L38,32l2-20l2,20l7.597,0.904L43.49,36z"/></g></svg>