<svg xmlns="http://www.w3.org/2000/svg" viewBox="0 0 80 80" width="30px" height="30px"><path fill="#839cb2" d="M40,77.5c-14.336,0-29.5-28.157-29.5-43.3C10.5,19.091,25.939,2.5,40,2.5 c14.915,0,29.5,18.152,29.5,31.7C69.5,47.811,54.691,77.5,40,77.5z"/><path fill="#66798f" d="M40,3c6.592,0,13.811,3.834,19.806,10.518C65.563,19.937,69,27.669,69,34.2 c0,6.866-3.738,17.567-9.302,26.627C53.386,71.105,46.206,77,40,77c-6.255,0-13.436-5.787-19.7-15.877 C14.737,52.164,11,41.344,11,34.2c0-6.821,3.435-14.662,9.189-20.976C26.11,6.726,33.331,3,40,3 M40,2C25.2,2,10,19.4,10,34.2 S25.2,78,40,78s30-29.8,30-43.8S54.8,2,40,2L40,2z"/><path fill="#f2faff" d="M64,33.333c0-4.216-2.813-7.737-6.651-8.895C55.494,15.314,47.367,8,40,8	c-7.37,0-15.886,6.934-17.36,16.442c-3.832,1.162-6.64,4.68-6.64,8.892c0,4.639,3.394,8.458,7.828,9.182	c0.058,0.053,0.114,0.097,0.172,0.152c1.369,1.572,3.875,6.961,5.049,9.909C32.764,61.614,33.742,72,40,72	c8.416,0,7.828-21.304,16-29.333c0.057-0.056,0.114-0.099,0.171-0.152C60.606,41.792,64,37.972,64,33.333z"/><path fill="#839cb2" d="M43.45,39.5c-1.027,0-1.652-0.453-2.204-0.852c-0.402-0.291-0.781-0.565-1.238-0.565 c-0.56,0-0.979,0.315-1.385,0.62c-0.521,0.392-1.061,0.796-2.059,0.796c-0.173-0.189-0.074-1.445,0.919-3.565 c1.035-2.212,2.149-3.435,2.524-3.435c0.298,0,1.309,0.943,2.405,3.214c1.069,2.213,1.199,3.589,1.03,3.802L43.45,39.5z"/><path fill="#66798f" d="M40.007,33.038c0.97,0.598,2.89,4.46,3.002,5.926c-0.617-0.104-1.049-0.417-1.47-0.721 c-0.448-0.324-0.912-0.66-1.531-0.66c-0.726,0-1.235,0.383-1.685,0.72c-0.405,0.304-0.765,0.575-1.333,0.665 C37.089,37.515,39.026,33.637,40.007,33.038 M40.008,32c-1.711,0-5.418,8-3.443,8c1.976,0,2.486-1.417,3.443-1.417 c0.765,0,1.506,1.417,3.443,1.417S41.719,32,40.008,32L40.008,32z"/><path fill="#839cb2" d="M26,37.5c-1.93,0-3.5-1.57-3.5-3.5s1.57-3.5,3.5-3.5c2.51,0,6.302-2.63,7.149-5.701 c0.444-1.612,1.098-2.299,2.184-2.299c1.195,0,2.167,0.972,2.167,2.167C37.5,29.459,36.006,37.5,26,37.5z"/><path fill="#66798f" d="M35.333,23C36.252,23,37,23.748,37,24.667C37,29.273,35.571,37,26,37c-1.654,0-3-1.346-3-3 s1.346-3,3-3c2.681,0,6.729-2.8,7.631-6.067C34.099,23.234,34.726,23,35.333,23 M35.333,22c-1.473,0-2.222,1.056-2.667,2.667 C31.869,27.559,28.209,30,26,30s-4,1.791-4,4s1.791,4,4,4c8.556,0,12-5.833,12-13.333C38,23.194,36.806,22,35.333,22L35.333,22z"/><g><path fill="#839cb2" d="M54,37.5c-10.006,0-11.5-8.041-11.5-12.833c0-1.195,0.972-2.167,2.167-2.167 c1.086,0,1.739,0.688,2.184,2.299C47.698,27.87,51.49,30.5,54,30.5c1.93,0,3.5,1.57,3.5,3.5S55.93,37.5,54,37.5z"/><path fill="#66798f" d="M44.667,23c0.607,0,1.234,0.234,1.703,1.933C47.271,28.2,51.319,31,54,31c1.654,0,3,1.346,3,3 s-1.346,3-3,3c-9.571,0-11-7.727-11-12.333C43,23.748,43.748,23,44.667,23 M44.667,22C43.194,22,42,23.194,42,24.667 C42,32.167,45.444,38,54,38c2.209,0,4-1.791,4-4s-1.791-4-4-4s-5.869-2.441-6.667-5.333C46.889,23.056,46.139,22,44.667,22 L44.667,22z"/></g><g><path fill="#839cb2" d="M40,67.5c-1.379,0-2.5-0.972-2.5-2.167c0-5.3-1.317-11.154-2.189-15.027 C34.857,48.294,34.5,46.706,34.5,46c0-1.93,2.468-3.5,5.5-3.5s5.5,1.57,5.5,3.5c0,0.711-0.362,2.334-0.82,4.389 c-0.868,3.892-2.18,9.773-2.18,14.944C42.5,66.528,41.379,67.5,40,67.5z"/><path fill="#66798f" d="M40,43c2.71,0,5,1.374,5,3c0,0.656-0.375,2.336-0.808,4.281C43.319,54.194,42,60.107,42,65.333 C42,66.252,41.103,67,40,67s-2-0.748-2-1.667c0-5.355-1.325-11.242-2.202-15.137C35.37,48.293,35,46.65,35,46 C35,44.374,37.29,43,40,43 M40,42c-3.314,0-6,1.791-6,4s3,11.333,3,19.333C37,66.806,38.343,68,40,68s3-1.194,3-2.667 C43,57.5,46,48.209,46,46S43.314,42,40,42L40,42z"/></g></svg>