<svg xmlns="http://www.w3.org/2000/svg" viewBox="0 0 80 80" width="30px" height="30px"><path fill="#ffeea3" d="M59.695,52.279c-0.333,0-0.658-0.068-0.965-0.203L34.833,41.635 c-1.131-0.494-1.687-1.775-1.265-2.916L47.263,4.044c0.344-0.927,1.24-1.544,2.235-1.544c0.255,0,0.509,0.041,0.754,0.121 l23.59,9.812c0.644,0.212,1.133,0.632,1.415,1.196c0.275,0.55,0.318,1.174,0.121,1.755L61.956,50.668 C61.626,51.638,60.72,52.279,59.695,52.279z"/><path fill="#c29653" d="M49.499,3L49.499,3c0.191,0,0.38,0.029,0.564,0.085l23.586,9.809l0.036,0.015l0.037,0.012 c0.48,0.157,0.866,0.488,1.087,0.931c0.215,0.43,0.249,0.917,0.107,1.337L61.476,50.524c-0.254,0.75-0.97,1.254-1.781,1.254 c-0.263,0-0.521-0.054-0.765-0.161L35.033,41.177c-0.889-0.388-1.326-1.392-1.004-2.263L47.736,4.207 C48.003,3.485,48.712,3,49.499,3 M49.499,2c-1.176,0-2.277,0.715-2.701,1.86l-13.7,34.686c-0.516,1.395,0.154,2.944,1.534,3.547 l23.897,10.441c0.381,0.166,0.777,0.245,1.166,0.245c1.195,0,2.323-0.739,2.728-1.933l13.429-35.301 c0.502-1.48-0.312-3.08-1.818-3.574L50.408,2.146C50.107,2.047,49.801,2,49.499,2L49.499,2z"/><path fill="#b0c1d4" d="M32.407,77.5c-0.407,0-0.81-0.104-1.165-0.3L6.725,64.115c-0.846-0.467-1.305-1.368-1.191-2.35 l0.065-0.558H5.5v-4.778l57-7.134v5.601l-0.011,0.088c-0.061,0.639-0.376,1.214-0.888,1.62L33.92,76.967 C33.482,77.315,32.95,77.5,32.407,77.5z"/><path fill="#a3b7cc" d="M62,49.862v4.986l-0.009,0.089c-0.048,0.502-0.297,0.955-0.672,1.253L33.594,76.587 C33.259,76.853,32.837,77,32.406,77c-0.322,0-0.642-0.082-0.936-0.244L6.973,63.68c-0.802-0.442-1.012-1.25-0.942-1.858 l0.092-1.115H6v-3.837L62,49.862 M63,48.729L5,55.988v5.719h0.038c-0.127,1.094,0.355,2.244,1.452,2.849L31,77.638 C31.44,77.881,31.924,78,32.406,78c0.644,0,1.285-0.213,1.81-0.63l27.696-20.374c0.654-0.519,1.005-1.233,1.074-1.964v-0.001H63 V48.729L63,48.729z"/><path fill="#839cb2" d="M32.407,71.516c-0.407,0-0.81-0.104-1.165-0.3L6.725,58.131c-0.72-0.397-1.179-1.128-1.222-1.951 c-0.042-0.821,0.338-1.594,1.018-2.066l28.303-19.181c0.41-0.285,0.886-0.434,1.381-0.434c0.337,0,0.666,0.069,0.974,0.205 l23.877,11.883c0.792,0.35,1.317,1.049,1.424,1.879c0.106,0.827-0.222,1.633-0.879,2.154L33.92,70.983 C33.482,71.331,32.95,71.516,32.407,71.516z"/><path fill="#66798f" d="M36.205,35L36.205,35c0.268,0,0.528,0.055,0.73,0.143l23.94,11.912 c0.61,0.269,1.024,0.821,1.109,1.476c0.085,0.662-0.168,1.281-0.665,1.676L33.594,70.603c-0.336,0.266-0.757,0.413-1.188,0.413 c-0.322,0-0.642-0.082-0.935-0.244L6.973,57.697c-0.583-0.321-0.936-0.883-0.97-1.542c-0.034-0.657,0.259-1.251,0.794-1.623 l28.317-19.19C35.435,35.118,35.812,35,36.205,35 M36.205,34c-0.585,0-1.167,0.176-1.661,0.52L6.236,53.703 c-1.753,1.218-1.616,3.837,0.254,4.869L31,71.654c0.44,0.243,0.924,0.362,1.406,0.362c0.644,0,1.285-0.213,1.81-0.63 l27.696-20.374c1.695-1.346,1.351-3.997-0.633-4.873L37.381,34.248C37.005,34.082,36.604,34,36.205,34L36.205,34z"/><path fill="#ffeea3" d="M25 47.922A2.5 2.5 0 1 0 25 52.922A2.5 2.5 0 1 0 25 47.922Z"/><path fill="#66798f" d="M25,48.422c1.105,0,2,0.895,2,2c0,1.105-0.895,2-2,2s-2-0.895-2-2 C23,49.318,23.895,48.422,25,48.422 M25,47.422c-1.654,0-3,1.346-3,3s1.346,3,3,3s3-1.346,3-3S26.654,47.422,25,47.422L25,47.422z"/><path fill="#f78f8f" d="M31 51.157A2.5 2.5 0 1 0 31 56.157A2.5 2.5 0 1 0 31 51.157Z"/><path fill="#66798f" d="M31,51.656c1.105,0,2,0.895,2,2c0,1.105-0.895,2-2,2s-2-0.895-2-2 C29,52.552,29.895,51.656,31,51.656 M31,50.656c-1.654,0-3,1.346-3,3s1.346,3,3,3s3-1.346,3-3S32.654,50.656,31,50.656L31,50.656z"/><path fill="#8bb7f0" d="M37 54.5A2.5 2.5 0 1 0 37 59.5A2.5 2.5 0 1 0 37 54.5Z"/><path fill="#66798f" d="M37,55c1.105,0,2,0.895,2,2c0,1.105-0.895,2-2,2s-2-0.895-2-2C35,55.895,35.895,55,37,55 M37,54 c-1.654,0-3,1.346-3,3s1.346,3,3,3s3-1.346,3-3S38.654,54,37,54L37,54z"/><path fill="#e1ebf2" d="M42 42A7 4 0 1 0 42 50 7 4 0 1 0 42 42zM32.117 65.941L36.316 62.831 17.42 52.44 13.063 55.467z"/><path fill="#c29653" d="M44 25.842A1 1 0 1 0 44 27.842 1 1 0 1 0 44 25.842zM48 27.842A1 1 0 1 0 48 29.842 1 1 0 1 0 48 27.842zM52 29.842A1 1 0 1 0 52 31.842 1 1 0 1 0 52 29.842zM56 31.842A1 1 0 1 0 56 33.842 1 1 0 1 0 56 31.842zM56 27.842A1 1 0 1 0 56 29.842 1 1 0 1 0 56 27.842zM52 25.842A1 1 0 1 0 52 27.842 1 1 0 1 0 52 25.842zM48 23.842A1 1 0 1 0 48 25.842 1 1 0 1 0 48 23.842zM44 21.842A1 1 0 1 0 44 23.842 1 1 0 1 0 44 21.842zM60 29.842A1 1 0 1 0 60 31.842 1 1 0 1 0 60 29.842zM60 25.842A1 1 0 1 0 60 27.842 1 1 0 1 0 60 25.842zM56 23.842A1 1 0 1 0 56 25.842 1 1 0 1 0 56 23.842zM52 21.842A1 1 0 1 0 52 23.842 1 1 0 1 0 52 21.842zM48 19.842A1 1 0 1 0 48 21.842 1 1 0 1 0 48 19.842zM44 17.842A1 1 0 1 0 44 19.842 1 1 0 1 0 44 17.842zM48 15.841999999999999A1 1 0 1 0 48 17.842 1 1 0 1 0 48 15.841999999999999zM52 17.842A1 1 0 1 0 52 19.842 1 1 0 1 0 52 17.842zM56 19.842A1 1 0 1 0 56 21.842 1 1 0 1 0 56 19.842zM60 21.842A1 1 0 1 0 60 23.842 1 1 0 1 0 60 21.842zM60 17.842A1 1 0 1 0 60 19.842 1 1 0 1 0 60 17.842zM64 19.842A1 1 0 1 0 64 21.842 1 1 0 1 0 64 19.842zM56 15.841999999999999A1 1 0 1 0 56 17.842 1 1 0 1 0 56 15.841999999999999zM52 13.842A1 1 0 1 0 52 15.842 1 1 0 1 0 52 13.842zM48 11.842A1 1 0 1 0 48 13.842 1 1 0 1 0 48 11.842zM48 7.8420000000000005A1 1 0 1 0 48 9.842 1 1 0 1 0 48 7.8420000000000005zM52 9.842A1 1 0 1 0 52 11.842 1 1 0 1 0 52 9.842zM56 11.842A1 1 0 1 0 56 13.842 1 1 0 1 0 56 11.842zM60 13.842A1 1 0 1 0 60 15.842 1 1 0 1 0 60 13.842zM64 15.841999999999999A1 1 0 1 0 64 17.842 1 1 0 1 0 64 15.841999999999999zM64 11.842A1 1 0 1 0 64 13.842 1 1 0 1 0 64 11.842zM64 31.842A1 1 0 1 0 64 33.842 1 1 0 1 0 64 31.842zM64 27.842A1 1 0 1 0 64 29.842 1 1 0 1 0 64 27.842zM72 15.841999999999999A1 1 0 1 0 72 17.842 1 1 0 1 0 72 15.841999999999999zM72 11.842A1 1 0 1 0 72 13.842 1 1 0 1 0 72 11.842zM68 9.842A1 1 0 1 0 68 11.842 1 1 0 1 0 68 9.842zM64 7.8420000000000005A1 1 0 1 0 64 9.842 1 1 0 1 0 64 7.8420000000000005zM68 25.842A1 1 0 1 0 68 27.842 1 1 0 1 0 68 25.842zM72 19.842A1 1 0 1 0 72 21.842 1 1 0 1 0 72 19.842zM64 23.842A1 1 0 1 0 64 25.842 1 1 0 1 0 64 23.842zM68 21.842A1 1 0 1 0 68 23.842 1 1 0 1 0 68 21.842zM68 17.842A1 1 0 1 0 68 19.842 1 1 0 1 0 68 17.842zM68 13.842A1 1 0 1 0 68 15.842 1 1 0 1 0 68 13.842zM60 41.842A1 1 0 1 0 60 43.842 1 1 0 1 0 60 41.842zM60 37.842A1 1 0 1 0 60 39.842 1 1 0 1 0 60 37.842zM60 33.842A1 1 0 1 0 60 35.842 1 1 0 1 0 60 33.842zM60 9.842A1 1 0 1 0 60 11.842 1 1 0 1 0 60 9.842zM56 7.8420000000000005A1 1 0 1 0 56 9.842 1 1 0 1 0 56 7.8420000000000005zM52 5.842A1 1 0 1 0 52 7.842 1 1 0 1 0 52 5.842zM68 29.842A1 1 0 1 0 68 31.842 1 1 0 1 0 68 29.842zM64 35.842A1 1 0 1 0 64 37.842 1 1 0 1 0 64 35.842zM64 39.842A1 1 0 1 0 64 41.842 1 1 0 1 0 64 39.842zM59 7c0 .552.448 1 1 1s1-.448 1-1c0-.194-.07-.365-.166-.518l-1.052-.438C59.338 6.146 59 6.525 59 7zM55 5c0 .552.448 1 1 1s1-.448 1-1c0-.044-.019-.081-.025-.123l-1.576-.655C55.162 4.404 55 4.678 55 5zM64 44c-.552 0-1 .448-1 1 0 .552.448 1 1 1 .102 0 .195-.03.288-.058l.552-1.451C64.665 44.202 64.362 44 64 44zM52 4c.479 0 .861-.344.958-.794l-1.782-.741C51.074 2.622 51 2.799 51 3 51 3.552 51.448 4 52 4zM72 24c-.552 0-1 .448-1 1 0 .511.389.916.883.976l.678-1.782C72.399 24.081 72.213 24 72 24zM68 34c-.552 0-1 .448-1 1 0 .552.448 1 1 1 .027 0 .05-.013.076-.015l.639-1.68C68.533 34.118 68.281 34 68 34zM56 35.842A1 1 0 1 0 56 37.842 1 1 0 1 0 56 35.842zM56 39.842A1 1 0 1 0 56 41.842 1 1 0 1 0 56 39.842z"/><g><path fill="#c29653" d="M52 37.842A1 1 0 1 0 52 39.842A1 1 0 1 0 52 37.842Z"/></g><g><path fill="#c29653" d="M52 33.842A1 1 0 1 0 52 35.842A1 1 0 1 0 52 33.842Z"/></g><g><path fill="#c29653" d="M48 31.842A1 1 0 1 0 48 33.842A1 1 0 1 0 48 31.842Z"/></g><g><path fill="#c29653" d="M48 35.842A1 1 0 1 0 48 37.842A1 1 0 1 0 48 35.842Z"/></g><g><path fill="#c29653" d="M44 29.842A1 1 0 1 0 44 31.842A1 1 0 1 0 44 29.842Z"/></g><g><path fill="#c29653" d="M44 33.842A1 1 0 1 0 44 35.842A1 1 0 1 0 44 33.842Z"/></g><g><path fill="#c29653" d="M40 27.842A1 1 0 1 0 40 29.842A1 1 0 1 0 40 27.842Z"/></g><g><path fill="#c29653" d="M40 31.842A1 1 0 1 0 40 33.842A1 1 0 1 0 40 31.842Z"/></g><g><path fill="#c29653" d="M44 13.842A1 1 0 1 0 44 15.842A1 1 0 1 0 44 13.842Z"/></g><g><path fill="#c29653" d="M48 3.8419999999999996A1 1 0 1 0 48 5.842A1 1 0 1 0 48 3.8419999999999996Z"/></g><g><path fill="#c29653" d="M40 23.842A1 1 0 1 0 40 25.842A1 1 0 1 0 40 23.842Z"/></g></svg>