<svg xmlns="http://www.w3.org/2000/svg" viewBox="0 0 80 80" width="30px" height="30px"><path fill="#788b9c" d="M27.7,65.1L16,53.8l5.5-14.4l0.2-0.2l23.5-23.5l1.4,1.4L37,26.8V41l-7.8,9.7l7.8,6v2.1L27.7,65.1z M18.3,53.3l9.6,9.2l7.1-4.8v-0.1L26.4,51L35,40.3V28.8L23.2,40.6L18.3,53.3z"/><path fill="#788b9c" d="M29 64L27 63.2 33.5 55.7 37 58z"/><path fill="#66798f" d="M27 64H29V72H27z"/><path fill="#b0c1d4" d="M11.5,77.5V74c0-1.9,1.6-3.5,3.5-3.5h26c1.9,0,3.5,1.6,3.5,3.5v3.5H11.5z"/><path fill="#8499ad" d="M41,71c1.7,0,3,1.3,3,3v3H12v-3c0-1.7,1.3-3,3-3H41 M41,70H15c-2.2,0-4,1.8-4,4v4h34v-4 C45,71.8,43.2,70,41,70L41,70z"/><path fill="#788b9c" d="M23 48L23 40 17 52 17 54 19 54 29 50 29 48z"/><path fill="#788b9c" d="M33.9 42L23 42 23 40 37 40z"/><path fill="#b0c1d4" d="M47,32.3c-4-4.2-4-7.2-4-10.5c0-3.6,0-7.3-5.2-12.5c-0.7-0.7-0.2-2.9,1.7-4.8c1.2-1.2,2.7-2,3.8-2 c0.4,0,0.7,0.1,1,0.3C49.1,7.6,52.6,8,55.5,8c0.5,0,0.9,0,1.4,0c0.5,0,0.9,0,1.4,0c2.5,0,5.2,0.3,8.7,3.7l-9,11.8L47,32.3z"/><path fill="#8499ad" d="M43.4,3L43.4,3c0.2,0,0.5,0,0.6,0.2c4.9,4.9,8.5,5.3,11.5,5.3c0.5,0,1,0,1.4,0c0.5,0,0.9,0,1.4,0 c2.3,0,4.8,0.3,8,3.2L57.6,23L47,31.6c-3.6-3.8-3.5-6.6-3.5-9.8c0-3.5,0-7.5-5.3-12.9c-0.2-0.2-0.2-0.8,0-1.4 c0.3-0.9,0.9-1.9,1.7-2.7C41.3,3.5,42.6,3,43.4,3 M43.4,2c-1.2,0-2.8,0.8-4.2,2.2c-2,2-2.7,4.5-1.7,5.5c9.9,9.9,0.3,14.2,9.4,23.3 l11.4-9.3l9.3-12.2c-3.7-3.7-6.5-4.1-9.3-4.1c-0.9,0-1.8,0-2.8,0c-3.1,0-6.4-0.5-10.8-5C44.4,2.2,43.9,2,43.4,2L43.4,2z"/><path fill="#ffeea3" d="M50.3,33.5c-1.5,0-2.7-0.4-3.5-1.3c-1.4-1.4-1.6-3.7-0.7-6.6c0.9-3,3-6.2,5.7-8.9 c3.8-3.8,8.4-6.2,12-6.2c1.5,0,2.7,0.4,3.5,1.3c1.4,1.4,1.6,3.7,0.7,6.6c-0.9,3-2.9,6.2-5.7,8.9C58.4,31.1,53.8,33.5,50.3,33.5z"/><path fill="#8499ad" d="M63.7,11L63.7,11c1.4,0,2.4,0.4,3.2,1.1c1.2,1.2,1.4,3.4,0.6,6.1c-0.9,2.9-2.9,6-5.6,8.7 c-3.8,3.8-8.2,6.1-11.7,6.1c-1.4,0-2.4-0.4-3.2-1.1c-1.2-1.2-1.4-3.4-0.6-6.1c0.9-2.9,2.9-6,5.6-8.7C55.8,13.3,60.3,11,63.7,11 M63.7,10c-3.6,0-8.3,2.3-12.4,6.4c-5.9,5.9-8.1,13.1-5,16.2c1,1,2.3,1.4,3.9,1.4c3.6,0,8.3-2.3,12.4-6.4c5.9-5.9,8.1-13.1,5-16.2 C66.6,10.4,65.3,10,63.7,10L63.7,10z"/><path fill="#fff" d="M49.1,22.5c1.1,0.9,2.4,1.5,3.9,1.5c3.3,0,6-2.7,6-6c0-1.5-0.6-2.9-1.5-3.9c-1.6,1-3.2,2.2-4.7,3.7 C51.3,19.3,50.1,20.9,49.1,22.5z"/><g><path fill="#f5c276" d="M47.8,22.7c1.3,1.4,3.1,2.3,5.2,2.3c3.9,0,7-3.1,7-7c0-2.1-0.9-3.9-2.3-5.2c-1.9,1-3.8,2.5-5.6,4.3 C50.3,18.8,48.9,20.8,47.8,22.7z"/></g><g><path fill="#fff" d="M48.4,21.8c1.1,1.3,2.8,2.2,4.6,2.2c3.3,0,6-2.7,6-6c0-1.9-0.9-3.5-2.2-4.6c-1.6,1-3.2,2.2-4.7,3.7 C50.6,18.6,49.3,20.2,48.4,21.8z"/></g></svg>