<svg xmlns="http://www.w3.org/2000/svg" viewBox="0 0 80 80" width="30px" height="30px"><path fill="#a16a4a" d="M54.598,13.506l-0.939-0.34c1.171-3.239-0.595-8.137-4.625-9.596 c-4.066-1.472-8.793,0.031-9.922,3.149l-0.939-0.34c1.307-3.611,6.648-5.398,11.201-3.749C53.934,4.28,55.927,9.832,54.598,13.506z"/><path fill="#ffeea3" d="M58.061,47.5h-0.54l6.225-19.6c2.675-8.422-1.984-17.418-10.406-20.092l-8.037-2.553 C36.88,2.58,27.884,7.239,25.209,15.661l-2.785,8.77c-1.672,0.377-2.924,1.866-2.924,3.652c0,1.152,0.531,2.17,1.349,2.858 c-0.497,7.193,3.928,14.063,11.105,16.342l0.681,0.216h-7.407c4.916,8.935,7.279,19.142,8.333,30h30.833 c-4.178-5.418-7.808-11.538-7.894-19.167C56.463,55.016,57.137,51.429,58.061,47.5z"/><path fill="#ba9b48" d="M65.41,78H33.106l-0.044-0.452c-1.172-12.068-3.878-21.818-8.273-29.807L24.382,47h5.463 c-6.069-2.808-9.881-9.035-9.51-15.848C19.483,30.347,19,29.242,19,28.083c0-1.899,1.232-3.531,3.03-4.065l2.702-8.508 C26.919,8.625,33.237,4,40.455,4c1.69,0,3.372,0.262,4.998,0.778l8.037,2.553c8.671,2.754,13.485,12.049,10.731,20.721L58.204,47 h0.487l-0.145,0.614C57.721,51.13,56.961,54.86,57,58.327c0.088,7.837,3.987,13.936,7.789,18.867L65.41,78z M34.014,77h29.37 C59.686,72.08,56.087,66.044,56,58.339c-0.038-3.37,0.647-6.943,1.431-10.339h-0.594l6.432-20.251 c2.587-8.146-1.936-16.878-10.081-19.465L45.15,5.731C43.622,5.246,42.042,5,40.455,5c-6.78,0-12.716,4.345-14.77,10.813 l-2.872,9.044l-0.279,0.063C21.042,25.256,20,26.557,20,28.083c0,0.947,0.427,1.851,1.171,2.476l0.194,0.164l-0.018,0.253 c-0.494,7.153,3.929,13.663,10.757,15.831L35.856,48h-9.791C30.238,55.866,32.842,65.369,34.014,77z"/><path fill="#ffc49c" d="M39,49.5c-0.46,0-0.914,0.029-1.361,0.077C35.315,46.781,31.813,45,27.894,45 c-6.748,0-12.247,5.28-12.63,11.932c-0.986,0.079-1.764,0.895-1.764,1.901c0,1.058,0.858,1.917,1.917,1.917 c0.09,0,0.176-0.015,0.263-0.027c0.036,0.126,0.066,0.246,0.106,0.376c2.12,1.002,4.383,1.804,6.738,2.384 c0.125,2.789,2.407,5.017,5.227,5.017c0.19,0,0.369-0.036,0.554-0.056C30.492,72.069,34.457,74.5,39,74.5 c6.904,0,12.5-5.596,12.5-12.5S45.904,49.5,39,49.5z"/><path fill="#a16a4a" d="M64.212,43.217l-0.959-0.287c0.015-0.048,1.255-4.214,1.604-6.927 c-0.167,0.271-0.342,0.564-0.503,0.834c-1.802,3.015-3.3,5.297-4.745,4.924c-1.465-0.368-1.503-3.264-1.541-6.063 c-0.01-0.758-0.023-1.717-0.089-2.297c-0.902,1.518-1.949,5.81-2.291,7.409l-0.979-0.209c0.055-0.255,1.347-6.257,2.588-7.985 c0.124-0.172,0.507-0.7,1.028-0.533c0.67,0.21,0.71,1.195,0.742,3.603c0.021,1.599,0.066,4.926,0.785,5.106 c0.852,0.226,2.806-3.067,3.643-4.467c1.096-1.832,1.414-2.385,2-2.224c0.307,0.088,0.458,0.361,0.451,0.814 C65.905,37.526,64.28,42.985,64.212,43.217z"/><path fill="#a16a4a" d="M44.001,63.856c-0.12-2.597-0.922-4.558-2.523-6.171l0.711-0.705 c1.785,1.801,2.679,3.971,2.811,6.829L44.001,63.856z"/><path fill="#a16a4a" d="M31.531,65c-5.658,0-11.327-1.279-17.172-4l0.422-0.906c10.159,4.729,19.679,5.168,29.86,1.507 c0,0,0.176,0.999,0.095,1.028C40.24,64.218,35.875,65,31.531,65z"/><polygon fill="#ffeea3" points="33.853,75.514 34.108,78 64.109,78 62.797,76.203 48.139,76.062"/><path fill="#a16a4a" d="M54.598,13.506l-0.939-0.34c1.171-3.239-0.595-8.137-4.625-9.596 c-2.182-0.789-4.606-0.762-6.653,0.072l-0.377-0.926c2.271-0.927,4.96-0.96,7.37-0.086C53.934,4.28,55.927,9.832,54.598,13.506z"/><path fill="#ba9b48" d="M57.502,55.001c-0.177,0-0.355-0.011-0.536-0.032c-0.206-0.025-0.405-0.063-0.598-0.113l0.252-0.967 c0.151,0.039,0.308,0.068,0.467,0.088c1.905,0.225,3.659-1.146,3.889-3.062c0.229-1.915-1.145-3.661-3.062-3.891 c-1.068-0.128-2.117,0.234-2.881,0.993l-0.705-0.711c0.982-0.973,2.33-1.435,3.705-1.274c2.464,0.295,4.229,2.539,3.935,5.002 C61.694,53.317,59.747,55.001,57.502,55.001z"/><circle cx="57.479" cy="50.528" r="3.539" fill="#ffeea3"/><path fill="#a16a4a" d="M39,49c-0.37,0-0.756,0.018-1.149,0.054c-2.508-2.897-6.121-4.554-9.957-4.554	c-6.83,0-12.509,5.243-13.1,12.009C13.76,56.786,13,57.736,13,58.834c0,1.296,1.026,2.356,2.309,2.414l0.064,0.209	c0,0,4.589,1.182,6.657,1.745c0.175,0.048,0.02,0.393,0.022,0.679C22.369,66.78,24.803,69,27.75,69c0.102,0,0.2-0.008,0.298-0.02	C30.454,72.757,34.524,75,39,75c7.168,0,13-5.832,13-13S46.168,49,39,49z M39,74c-4.231,0-8.069-2.174-10.269-5.814l-0.164-0.271	l-0.505,0.057C27.96,67.984,27.856,68,27.75,68c-2.536,0-4.613-1.994-4.728-4.539l-0.017-0.374l-0.363-0.089	c-2.24-0.552-4.405-1.311-6.438-2.255L16.2,60.732c-0.427-0.177-0.907-0.39-1.419-0.638l0.001-0.003	C14.328,59.857,14,59.381,14,58.834c0-0.74,0.561-1.344,1.305-1.403l0.435-0.034l0.024-0.436c0.369-6.427,5.697-11.461,12.13-11.461	c3.627,0,6.931,1.494,9.252,4.288l0.172,0.207L37.585,50c0.54,0,0.993,0,1.415,0c6.617,0,12,5.383,12,12S45.617,74,39,74z"/><circle cx="25" cy="37" r="8.5" fill="#fff"/><path fill="#788b9c" d="M25,46c-4.963,0-9-4.037-9-9s4.037-9,9-9s9,4.037,9,9S29.963,46,25,46z M25,29c-4.411,0-8,3.589-8,8 s3.589,8,8,8s8-3.589,8-8S29.411,29,25,29z"/><circle cx="25" cy="37" r="1.5" fill="#36404d"/><path fill="#ffeea3" d="M38.242,49.5H23.337c-2.11,0-3.837-1.727-3.837-3.837v-0.326c0-2.11,1.727-3.837,3.837-3.837h14.905	V49.5z"/><path fill="#ba9b48" d="M37.741,49h-2.22H23.337C21.497,49,20,47.503,20,45.663v-0.326C20,43.497,21.497,42,23.337,42h14.404	v3.933h1V41H23.337C20.945,41,19,42.945,19,45.337v0.326C19,48.055,20.945,50,23.337,50h15.404v-1H37.741z"/><g><circle cx="41.5" cy="37.5" r="10" fill="#fff"/><path fill="#788b9c" d="M41.5,48C35.71,48,31,43.29,31,37.5S35.71,27,41.5,27S52,31.71,52,37.5S47.29,48,41.5,48z M41.5,28 c-5.238,0-9.5,4.262-9.5,9.5s4.262,9.5,9.5,9.5s9.5-4.262,9.5-9.5S46.738,28,41.5,28z"/></g><circle cx="44" cy="37" r="1.5" fill="#36404d"/></svg>