<svg xmlns="http://www.w3.org/2000/svg" viewBox="0 0 80 80" width="30px" height="30px"><path fill="#4e7ab5" d="M32.538,49.5c0.16-2.479,0.566-12.509-3.012-16.409c-0.613-0.669-1.315-1.129-2.096-1.376 C28.815,31.096,31.01,30.5,32,30.5c4.634,0,7.142,4.67,7.5,5.39V49.5H32.538z"/><path fill="#4e7ab5" d="M32,31c4.166,0,6.526,4.097,7,5.009V49h-5.932c0.165-3.191,0.314-12.446-3.172-16.247 c-0.37-0.403-0.769-0.737-1.195-1.002C29.907,31.337,31.314,31,32,31 M32,30c-1.357,0-5.087,1.087-6,2c7.557,0,6,18,6,18h8V35.775 C40,35.775,37.389,30,32,30L32,30z"/><path fill="#8bb7f0" d="M12.857,59.5c-9.698,0-10.321-12.386-10.355-13.437l0.01,0.046c0.02,0.084,1.983,8.391,10.346,8.391 c8.397,0,9.627-8.349,9.638-8.433c0.002-0.279,0.004-0.563,0.005-0.851V46c0.003,0.091,0.229,7.197-3.474,11.044 C17.457,58.674,15.382,59.5,12.857,59.5z M2.5,45.994c0-5.268,1.921-8.935,3.955-12.816c0.597-1.14,1.2-2.291,1.752-3.492 c-0.551,1.211-1.152,2.374-1.748,3.526C4.513,36.977,2.501,40.869,2.5,45.997C2.5,45.995,2.5,45.994,2.5,45.994z M22.5,29.998 c0,0.001-0.007-4.691,0-5.995c0.041-7.418,2.687-11.503,7.451-11.503c7.688,0,9.456,6.951,9.545,13h-1.002 c-0.071-2.511-0.788-4.468-2.134-5.82c-1.438-1.446-3.578-2.18-6.36-2.18c-5.975,0-7.438,11.934-7.497,12.442v1.006 C22.501,30.358,22.5,29.998,22.5,29.998z M10.016,19.5c-1.693-0.053-4.937-1.542-5.654-1.882C3.382,15.677,2.779,8.707,2.56,5.063 c2.151,1.767,7.699,7.027,7.933,14.453L10.016,19.5z"/><path fill="#4e7ab5" d="M3.134 6.215c2.369 2.15 6.423 6.681 6.833 12.782-1.384-.075-4.003-1.181-5.229-1.754C3.99 15.535 3.419 10.32 3.134 6.215M30 13c7.025 0 8.808 6.304 8.985 12h-.013c-.151-2.412-.908-4.317-2.257-5.673C35.179 17.783 32.919 17 30 17c-3.871 0-5.944 4.358-7.003 8.029 0-.423.001-.782.003-1.023C23.039 16.908 25.508 13 30 13M3.413 49.501C4.877 51.995 7.709 55 12.857 55c4.955 0 7.536-2.764 8.849-5.205-.372 2.232-1.201 4.989-3.039 6.9C17.196 58.224 15.241 59 12.857 59 6.424 59 4.189 53.356 3.413 49.501M2 4c0 0 .558 11.54 2 14 0 0 3.969 1.936 6 2 0 10.688-8 15.228-8 26 0 0 .17 14 10.857 14S23 46 23 46s0-5.313 0-16c0 0 1.402-12 7-12s8.026 3.037 8 8h2c0-6.616-1.897-14-10-14-.016 0-.032 0-.048 0-4.724 0-7.907 3.836-7.952 12-.007 1.305 0 6 0 6s.036 9.39 0 16c0 0-1.085 8-9.143 8C4.799 54 3 46 3 46c0-10.179 8-15.143 8-26C11 10.161 2 4 2 4L2 4zM39.5 74.9c-3.113-2.767-9-8.493-9-10.9 0-2.39 5.915-6.944 9-9.062V74.9z"/><path fill="#4e7ab5" d="M39 55.893v17.888c-3.744-3.416-8-7.989-8-9.781C31 62.244 35.275 58.533 39 55.893M40 54c0 0-10 6.547-10 10s10 12 10 12V54L40 54zM40 29c0 0-.907-1.188-1.553-2.97-.719-1.78-1.151-4.155-1.162-6.53.003-2.375.429-4.75 1.156-6.532C39.088 11.188 40 10 40 10s.912 1.188 1.558 2.97c.725 1.78 1.154 4.155 1.156 6.53-.008 2.375-.44 4.75-1.162 6.532C40.907 27.813 40 29 40 29zM40.5 49.5V35.89c.358-.72 2.866-5.39 7.5-5.39.99 0 3.185.596 4.569 1.215-.78.247-1.482.707-2.096 1.376-3.578 3.9-3.172 13.931-3.012 16.409H40.5z"/><path fill="#4e7ab5" d="M48,31c0.686,0,2.093,0.337,3.3,0.751c-0.427,0.265-0.825,0.599-1.195,1.002 C46.618,36.554,46.767,45.809,46.932,49H41V36.009C41.476,35.094,43.836,31,48,31 M48,30c-5.389,0-8,5.775-8,5.775V50h8 c0,0-1.557-18,6-18C53.087,31.087,49.357,30,48,30L48,30z"/><g><path fill="#8bb7f0" d="M67.143,59.5c-2.524,0-4.6-0.826-6.169-2.456c-3.702-3.847-3.477-10.953-3.474-11.024v-0.087 c0,0.023,0,0.047,0,0.07c0.016,0.148,1.245,8.497,9.643,8.497c8.362,0,10.326-8.307,10.346-8.391l0.011-0.049 C77.474,47.161,76.967,59.5,67.143,59.5z M77.5,46c0-5.129-2.013-9.022-3.959-12.788c-0.596-1.152-1.197-2.315-1.748-3.526 c0.552,1.201,1.155,2.353,1.752,3.492C75.579,37.06,77.5,40.727,77.5,46z M57.5,30c-0.063-0.566-1.525-12.5-7.5-12.5 c-2.782,0-4.922,0.733-6.36,2.18c-1.346,1.353-2.063,3.31-2.134,5.82h-1.002c0.089-6.049,1.855-13,9.496-13 c4.813,0,7.459,4.085,7.5,11.503C57.507,25.307,57.5,29.999,57.5,30L57.5,30z M69.508,19.516c0.233-7.438,5.781-12.69,7.934-14.455 c-0.221,3.646-0.823,10.616-1.803,12.558c-0.718,0.339-3.962,1.829-5.654,1.882L69.508,19.516z"/><path fill="#4e7ab5" d="M76.866,6.221c-0.286,4.104-0.857,9.315-1.603,11.023c-1.225,0.573-3.843,1.679-5.229,1.754 C70.444,12.914,74.496,8.377,76.866,6.221 M50.049,13c4.444,0,6.913,3.909,6.951,11.005c0.001,0.242,0.002,0.6,0.003,1.024 C55.944,21.358,53.871,17,50,17c-2.919,0-5.179,0.783-6.715,2.327c-1.349,1.356-2.107,3.261-2.257,5.673h-0.013 C41.192,19.304,42.978,13,50.049,13 M76.595,49.489C75.825,53.348,73.596,59,67.143,59c-2.382,0-4.335-0.774-5.806-2.301 c-1.831-1.9-2.662-4.654-3.037-6.892C59.616,52.245,62.197,55,67.143,55C72.299,55,75.133,51.986,76.595,49.489 M78,4 c0,0-9,6.161-9,16c0,10.857,8,15.821,8,26c0,0-1.799,8-9.857,8C59.085,54,58,46,58,46c-0.036-6.61,0-16,0-16s0.007-4.695,0-6 c-0.045-8.164-3.228-12.001-7.952-12c-0.016,0-0.032,0-0.048,0c-8.103,0-10,7.384-10,14h2c-0.026-4.963,2.402-8,8-8s7,12,7,12 c0,10.688,0,16,0,16s-0.545,14,10.143,14S78,46,78,46c0-10.772-8-15.313-8-26c2.031-0.064,6-2,6-2C77.442,15.54,78,4,78,4L78,4z"/></g><g><path fill="#4e7ab5" d="M40.5,54.938c3.085,2.117,9,6.672,9,9.062c0,2.407-5.887,8.134-9,10.9V54.938z"/><path fill="#4e7ab5" d="M41,55.893c3.725,2.639,8,6.35,8,8.107c0,1.791-4.256,6.365-8,9.781V55.893 M40,54v22 c0,0,10-8.547,10-12S40,54,40,54L40,54z"/></g><g><path fill="#c2e8ff" d="M40,75.024C38.358,72.188,32.5,61.272,32.5,50c0-7.505,1.97-12.136,3.708-16.222 c1.162-2.733,2.167-5.094,2.291-7.755c0.065-0.634,0.07-2.249-1.265-3.728C35.56,20.44,32.453,19.5,28,19.5l-0.183-0.031 c-4.108-0.56-13.075-2.508-14.964-8.934c3.863,5.17,11.986,6.013,16.861,6.013c0.804,0,1.446-0.022,1.865-0.036 C31.771,16.505,31.914,16.5,32,16.5h0.619l-0.13-0.605c-0.698-3.238-3.99-7.812-9.696-11.053c4.343,1.002,9,4.076,10.766,7.394 l0.941,1.768V12c0-1.133,1.054-4.263,3.006-6.697c0.062,6.604,0.597,8.587,1.115,10.509C39.073,17.486,39.5,19.067,39.5,24h1 c0-4.933,0.427-6.514,0.879-8.188c0.519-1.922,1.054-3.905,1.115-10.509C44.446,7.737,45.5,10.867,45.5,12v2.003l0.941-1.768 c1.766-3.317,6.423-6.392,10.766-7.394c-5.706,3.241-8.998,7.814-9.696,11.053l-0.13,0.605H48c0.086,0,0.229,0.005,0.42,0.012 c0.418,0.014,1.062,0.036,1.865,0.036c4.875,0,12.998-0.843,16.861-6.013c-1.889,6.426-10.855,8.374-14.964,8.934l-0.266,0.038 c-0.016,0-0.032,0-0.048,0c-4.345,0-7.435,0.94-9.104,2.789c-1.335,1.479-1.33,3.094-1.267,3.719 c0.126,2.67,1.131,5.03,2.293,7.764C45.53,37.864,47.5,42.495,47.5,50C47.5,61.279,41.643,72.188,40,75.024z"/><path fill="#8bb7f0" d="M53.531,6.72c-3.743,2.976-5.943,6.444-6.509,9.069L46.762,17H48c0.082,0,0.219,0.005,0.403,0.011 c0.422,0.014,1.071,0.036,1.883,0.036c4.136,0,10.561-0.602,14.904-3.868c-3.183,3.968-9.759,5.342-13.075,5.794 c-0.076,0.01-0.14,0.019-0.191,0.026c-4.56,0.011-7.765,1.007-9.529,2.96c-1.459,1.616-1.464,3.388-1.393,4.103 c0.132,2.744,1.151,5.139,2.33,7.911C45.051,38.016,47,42.597,47,50c0,10.315-4.972,20.346-7,24.008C37.972,70.346,33,60.315,33,50 c0-7.403,1.949-11.984,3.668-16.026c1.179-2.772,2.198-5.167,2.33-7.911c0.071-0.693,0.075-2.477-1.393-4.103 c-1.764-1.953-4.969-2.949-9.529-2.96c-0.051-0.007-0.115-0.016-0.191-0.026c-3.317-0.452-9.893-1.826-13.075-5.794 c4.343,3.266,10.768,3.868,14.904,3.868c0.811,0,1.461-0.022,1.883-0.036C31.781,17.005,31.918,17,32,17h1.238l-0.261-1.211 c-0.566-2.625-2.766-6.093-6.509-9.069c2.884,1.419,5.477,3.55,6.648,5.75L35,16.006V12c0-0.792,0.687-3.056,2.031-5.171 c0.13,5.491,0.646,7.401,1.107,9.113C38.582,17.583,39,19.134,39,24h2c0-4.866,0.418-6.417,0.861-8.058 c0.462-1.712,0.977-3.622,1.107-9.113C44.313,8.944,45,11.208,45,12v4.006l1.883-3.536C48.054,10.27,50.646,8.139,53.531,6.72 M60,4c-4.905,0-11.682,3.646-14,8c0-1.47-1.455-5.455-4-8c0,14.193-2,9.256-2,20c0-10.744-2-5.807-2-20c-2.545,2.545-4,6.53-4,8 c-2.318-4.354-9.095-8-14-8c6.955,3.054,11.208,8.324,12,12c-0.274,0-1.105,0.047-2.286,0.047C25.053,16.047,14.933,15.309,12,8 c0,10.348,15.065,11.843,16,12c11.027,0,9.995,5.886,10,6c-0.301,6.41-6,11.296-6,24c0,13.348,8,26,8,26s8-12.652,8-26 c0-12.704-5.699-17.59-6-24c0.005-0.114-1.027-6,10-6c0.935-0.157,16-1.652,16-12c-2.932,7.308-13.052,8.047-17.714,8.047 C49.105,16.047,48.274,16,48,16C48.792,12.324,53.045,7.054,60,4L60,4z"/></g></svg>