<svg xmlns="http://www.w3.org/2000/svg" viewBox="0 0 80 80" width="30px" height="30px"><path fill="#e1ebf2" d="M19.981,43.5c-4.243,0-9.481-5.239-9.481-9.5c0-4.416,19.346-31.5,22.5-31.5 c1.964,0,3.239,0.624,4.364,1.174C38.231,4.099,39.052,4.5,40,4.5h0.021c0.938-0.006,1.752-0.404,2.612-0.825 C43.759,3.124,45.034,2.5,47,2.5c3.154,0,22.5,27.084,22.5,31.5c0,4.259-5.23,9.492-9.491,9.5l-19.99-0.747L19.981,43.5z"/><path fill="#a3b7cc" d="M39.98,3L40,4v1c0.007,0,0.013,0,0.02,0v0c1.054-0.005,1.919-0.428,2.833-0.876 c1.126-0.551,2.29-1.121,4.13-1.124c1.046,0.183,5.521,4.676,12.237,14.134C65.573,26.078,69,32.499,69,34 c0,3.953-5.047,9-8.963,9.001l-20-0.747L40,42.252l-0.037,0.001L20,43c-3.953,0-9-5.047-9-9c0-1.501,3.427-7.922,9.779-16.866 C27.513,7.651,31.994,3.16,33,3c1.849,0,3.016,0.571,4.145,1.124C38.066,4.574,38.936,5,40,5L39.98,3 M47,2c-3.615,0-5.039,2-7,2 c0.015,0,0.02,0,0.02,0S40.01,4,40,4c-0.015,0-0.02,0-0.02,0S39.99,4,40,4c-1.963,0-3.386-2-7-2S10,29.468,10,34s5.456,10,10,10 l20-0.747L60,44c4.544,0,10-5.468,10-10S50.614,2,47,2L47,2z"/><path fill="#4b6477" d="M20.5 36.5H59.5V77.5H20.5z"/><path fill="#36404d" d="M59,37v40H21V37H59 M60,36H20v42h40V36L60,36z"/><path fill="#99c99e" d="M36.824,77.5c-6.855-3.808-18.185-14.163-18.323-41h42.998c-0.14,26.827-11.482,37.188-18.347,41 H36.824z"/><path fill="#5e9c76" d="M60.995,37c-0.274,26.054-11.238,36.215-17.972,40h-3.045h-3.022 c-6.726-3.78-17.676-13.936-17.949-40H60.995 M62,36H18c0,22.719,8.162,36.217,18.695,42h3.281H40h3.281 C53.815,72.217,62,58.719,62,36L62,36z"/><path fill="#ffeea3" d="M30,46.5c-3.584,0-6.5-2.019-6.5-4.5s2.916-4.5,6.5-4.5s6.5,2.019,6.5,4.5S33.584,46.5,30,46.5z"/><path fill="#37774e" d="M30 38c3.314 0 6 1.791 6 4s-2.686 4-6 4-6-1.791-6-4S26.686 38 30 38M30 37c-3.925 0-7 2.196-7 5s3.075 5 7 5 7-2.196 7-5S33.925 37 30 37L30 37zM58 40.857c0 0-6.095 6-10 6s-6-2.832-6-6S44.095 36 48 36 58 40.857 58 40.857z"/><path fill="#36404d" d="M30 40A2 2 0 1 0 30 44A2 2 0 1 0 30 40Z"/><path fill="#4b6477" d="M42.207 65.5L37.793 65.5 34.137 69.156 30.809 62.5 49.191 62.5 45.863 69.156z"/><path fill="#36404d" d="M48.382,63l-2.656,5.312l-3.019-3.019L42.414,65H42h-4h-0.414l-0.293,0.293l-3.019,3.019L31.618,63 H48.382 M50,62H30l4,8l4-4h4l4,4L50,62L50,62z"/><path fill="#839cb2" d="M19.296,33.5c2.297-4.95,10.611-18.589,14.807-22.895C35.517,11.281,38.3,12.5,40,12.5 c1.712,0,4.521-1.236,5.897-1.895c4.179,4.286,12.551,17.874,14.733,22.895H19.296z"/><path fill="#66798f" d="M45.785,11.211C49.819,15.522,57.349,27.673,59.856,33H20.09 c2.612-5.287,10.083-17.463,14.125-21.788C35.863,11.983,38.35,13,40,13C41.64,13,44.109,11.994,45.785,11.211 M46,10 c-0.079,0.035-3.964,2-6,2s-5.921-1.965-6-2c-4.388,4.279-13.647,19.576-15.471,24h42.846C59.688,29.499,50.388,14.278,46,10 L46,10z"/><path fill="#839cb2" d="M40,41.5c-10.935,0-19.5-2.416-19.5-5.5v-3.5h39V36C59.5,39.084,50.935,41.5,40,41.5z"/><path fill="#66798f" d="M59,33v3c0,2.415-7.635,5-19,5s-19-2.585-19-5v-3H59 M60,32H20c0,0,0,0.252,0,4s9.507,6,20,6 s20-2.252,20-6S60,32,60,32L60,32z"/><g><path fill="#b0c1d4" d="M56.5,77.5v-51h0.188c0.628,1.04,3.13,5.212,4.332,7.716c0.021,0.044,2.09,4.342,2.489,6.42 L63.5,48c0,9.226,4.8,26.007,5.829,29.5H56.5z"/><path fill="#8499ad" d="M57,27.997c1.019,1.717,2.666,4.556,3.57,6.438c0.02,0.042,2.002,4.16,2.43,6.206V48 c0,8.939,4.319,24.412,5.659,29H57V27.997 M56.968,26H56v52h14c0,0-6-19.673-6-30v-7.458C63.583,38.375,61.471,34,61.471,34 C60.069,31.082,56.968,26,56.968,26L56.968,26z"/><g><path fill="#b0c1d4" d="M10.671,77.5C11.7,74.007,16.5,57.226,16.5,48v-7.6c0.391-2.037,2.458-6.133,2.479-6.174 l4.332-7.726H23.5v51H10.671z"/><path fill="#8499ad" d="M23,28.077V77H11.341C12.681,72.412,17,56.939,17,48v-7.503c0.425-2.083,2.405-6.004,2.406-6.008 L23,28.077 M24,26h-0.982l-4.485,8c0,0-2.117,4.175-2.533,6.4V48c0,10.327-6,30-6,30h14V26L24,26z"/></g></g><g><path fill="#f78f8f" d="M19.296,33.5c0.74-1.597,2.115-4.122,3.815-7h33.79c1.721,2.935,3.042,5.417,3.729,7H19.296z"/><path fill="#c74343" d="M56.614,27c1.409,2.413,2.534,4.499,3.241,6H20.09c0.751-1.52,1.913-3.631,3.307-6H56.614 M57.187,26H22.826c-2.013,3.395-3.639,6.405-4.297,8h42.846C60.769,32.383,59.178,29.38,57.187,26L57.187,26z"/></g><g><path fill="#ffeea3" d="M40 28A2 2 0 1 0 40 32A2 2 0 1 0 40 28Z"/></g><path fill="#5e9c76" d="M43.168 70L36.832 70 31.859 73.425 32.542 74.167 37.146 71 42.854 71 47.458 74.167 48.141 73.425zM54 62L42.714 54 37.286 54 26 62 24 60 24 61.375 26 63.313 37.531 55 42.469 55 54 63.313 56 61.375 56 60z"/><path fill="#5e9c76" d="M54 56L42.714 48 37.286 48 26 56 24 54 24 55.375 26 57.313 37.531 49 42.469 49 54 57.313 56 55.375 56 54z"/></svg>