<svg xmlns="http://www.w3.org/2000/svg" viewBox="0 0 80 80" width="30px" height="30px"><path fill="#e8d47b" d="M61,53.499c-3.584,0-6.5-2.916-6.5-6.5s2.916-6.5,6.5-6.5c4.617,0,6.5,1.207,6.5,4.167 C67.5,48.154,64.588,53.499,61,53.499z"/><path fill="#ba9b48" d="M61,40.999c4.98,0,6,1.466,6,3.667c0,3.639-2.91,8.333-6,8.333c-3.308,0-6-2.692-6-6 S57.692,40.999,61,40.999 M61,39.999c-3.866,0-7,3.134-7,7c0,3.866,3.134,7,7,7s7-5.467,7-9.333C68,40.8,64.866,39.999,61,39.999 L61,39.999z"/><path fill="#e8d47b" d="M19,53.499c-3.588,0-6.5-5.345-6.5-8.833c0-2.96,1.883-4.167,6.5-4.167c3.584,0,6.5,2.916,6.5,6.5 S22.584,53.499,19,53.499z"/><path fill="#ba9b48" d="M19,40.999c3.308,0,6,2.692,6,6s-2.692,6-6,6c-3.09,0-6-4.695-6-8.333 C13,42.465,14.02,40.999,19,40.999 M19,39.999c-3.866,0-7,0.801-7,4.667c0,3.866,3.134,9.333,7,9.333s7-3.134,7-7 C26,43.133,22.866,39.999,19,39.999L19,39.999z"/><path fill="#ffeea3" d="M40,77.5c-2.657,0-5.215-1.135-7.017-3.112l-0.084-0.092l-0.117-0.042 C24.239,71.209,18.5,63.07,18.5,54V24.762c0-5.506,4.479-9.984,9.984-9.984h23.031c5.506,0,9.984,4.479,9.984,9.984V54 c0,9.07-5.739,17.209-14.282,20.254l-0.117,0.042l-0.084,0.092C45.215,76.365,42.657,77.5,40,77.5z"/><path fill="#ba9b48" d="M51.515,15.277c5.23,0,9.485,4.255,9.485,9.485V54c0,8.859-5.606,16.81-13.95,19.784l-0.235,0.084 l-0.168,0.185C44.939,75.925,42.517,77,40,77s-4.939-1.075-6.646-2.948l-0.168-0.185l-0.235-0.084C24.606,70.809,19,62.859,19,54 V24.762c0-5.23,4.255-9.485,9.485-9.485H51.515 M51.515,14.277h-23.03C22.694,14.277,18,18.971,18,24.762V54 c0,9.559,6.098,17.69,14.615,20.726C34.443,76.732,37.07,78,40,78s5.557-1.268,7.385-3.275C55.902,71.69,62,63.558,62,54V24.762 C62,18.971,57.306,14.277,51.515,14.277L51.515,14.277z"/><g><path fill="#e0ac89" d="M18.349,49.5C17.506,47.186,12.5,33.133,12.5,26c0-13.61,10.41-16.591,14.422-16.591h0.249 l0.149-0.198C29.216,6.704,33.644,2.5,42,2.5c15.962,0,25.5,11.948,25.5,23.5c0,9.054-4.969,21.419-5.832,23.499H61.5v-8.663 c0-10.232-9.341-11.337-13.357-11.337c-12.89,0-19.696-7.746-19.763-7.824l-0.216-0.251l-0.315,0.1 c-0.094,0.029-9.349,3.098-9.349,14.096V49.5H18.349z"/><path fill="#a16a4a" d="M42,3c15.649,0,25,11.694,25,23c0,7.366-3.337,16.98-5,21.312v-6.476 C62,33.314,56.949,29,48.143,29c-12.638,0-19.319-7.575-19.383-7.65l-0.431-0.503l-0.631,0.201C27.6,21.077,18,24.26,18,35.62 V47.01c-1.673-4.859-5-15.248-5-21.01C13,12.8,23.05,9.909,26.922,9.909h0.498l0.3-0.397C29.559,7.08,33.859,3,42,3 M42,2 c-9.588,0-14.015,5.503-15.078,6.909C22.714,8.909,12,12.034,12,26c0,7.931,6,24,6,24l1,0c0,0,0-11.327,0-14.38 C19,24.86,28,22,28,22s6.85,8,20.143,8C54.217,30,61,32.309,61,40.836C61,43.611,61,50,61,50l1,0c0,0,6-13.912,6-24 C68,14.513,58.654,2,42,2L42,2z"/></g><path fill="#36404d" d="M51 46A3 3 0 1 0 51 52 3 3 0 1 0 51 46zM29 46A3 3 0 1 0 29 52 3 3 0 1 0 29 46z"/></svg>