<svg xmlns="http://www.w3.org/2000/svg" viewBox="0 0 80 80" width="30px" height="30px"><path fill="#f5ce85" d="M39,77.5C25.358,77.5,9.5,61.556,9.5,41C9.5,22.043,13.074,4.5,39,4.5S68.5,22.043,68.5,41 C68.5,61.556,52.642,77.5,39,77.5z"/><path fill="#967a44" d="M39,5c11.363,0,19.091,3.395,23.624,10.38C66.292,21.031,68,29.171,68,41c0,20.274-15.589,36-29,36 S10,61.274,10,41c0-11.829,1.708-19.969,5.376-25.62C19.909,8.395,27.637,5,39,5 M39,4C13.765,4,9,20.562,9,41s15.706,37,30,37 s30-16.562,30-37S64.235,4,39,4L39,4z"/><path fill="#f78f8f" d="M27.522 24.865L39 26.505 50.478 24.865 39 31.423z"/><path fill="#c74343" d="M47.956,25.731L39,30.848l-8.956-5.117l8.814,1.259L39,27.01l0.141-0.02L47.956,25.731 M53,24l-14,2 l-14-2l14,8L53,24L53,24z"/><path fill="#f78f8f" d="M21.741 56.033L31.19 48.159 24.891 59.183z"/><path fill="#c74343" d="M29.381,50.317l-4.6,8.05l-2.3-2.3L29.381,50.317 M33,46L21,56l4,4L33,46L33,46z"/><path fill="#f78f8f" d="M46.81 48.159L56.259 56.033 53.109 59.183z"/><path fill="#c74343" d="M48.619,50.317l6.9,5.75l-2.3,2.3L48.619,50.317 M45,46l8,14l4-4L45,46L45,46z"/><path fill="#b08159" d="M25.889,45.5c-5.401,0-8.389-5.617-8.389-9.5c0-2.388,2.27-3.5,7.145-3.5h3.022 c3.614,0,4.833,1.388,4.833,5.5C32.5,42.135,29.534,45.5,25.889,45.5z"/><path fill="#a16a4a" d="M27.667,33C31.028,33,32,34.122,32,38c0,3.86-2.741,7-6.111,7C20.809,45,18,39.678,18,36 c0-1.288,0.689-3,6.644-3H27.667 M27.667,32h-3.022C20.911,32,17,32.6,17,36c0,4.4,3.378,10,8.889,10C29.8,46,33,42.4,33,38 C33,33.6,31.578,32,27.667,32L27.667,32z"/><path fill="#b08159" d="M52.111,45.5c-3.646,0-6.611-3.364-6.611-7.5c0-4.112,1.22-5.5,4.833-5.5h3.022 c4.875,0,7.145,1.112,7.145,3.5C60.5,39.882,57.513,45.5,52.111,45.5z"/><path fill="#a16a4a" d="M53.356,33C59.311,33,60,34.712,60,36c0,3.678-2.809,9-7.889,9C48.741,45,46,41.86,46,38 c0-3.878,0.972-5,4.333-5H53.356 M53.356,32h-3.022C46.422,32,45,33.6,45,38c0,4.4,3.2,8,7.111,8C57.622,46,61,40.4,61,36 C61,32.6,57.089,32,53.356,32L53.356,32z"/><path fill="#839cb2" d="M33.5 2.5H44.5V13.5H33.5z"/><path fill="#66798f" d="M44,3v10H34V3H44 M45,2H33v12h12V2L45,2z"/><path fill="#839cb2" d="M3.5 32.5H14.5V43.5H3.5z"/><path fill="#66798f" d="M14,33v10H4V33H14 M15,32H3v12h12V32L15,32z"/><path fill="#839cb2" d="M63.5 32.5H74.5V43.5H63.5z"/><path fill="#66798f" d="M74,33v10H64V33H74 M75,32H63v12h12V32L75,32z"/><path fill="#a16a4a" d="M23,15.5c-0.925,0-1.5-0.575-1.5-1.5s0.575-1.5,1.5-1.5s1.5,0.575,1.5,1.5S23.925,15.5,23,15.5z"/><path fill="#704e34" d="M23,13c0.645,0,1,0.355,1,1s-0.355,1-1,1s-1-0.355-1-1S22.355,13,23,13 M23,12c-1.2,0-2,0.8-2,2 s0.8,2,2,2s2-0.8,2-2S24.2,12,23,12L23,12z"/><path fill="#a16a4a" d="M19,23.5c-0.925,0-1.5-0.575-1.5-1.5s0.575-1.5,1.5-1.5s1.5,0.575,1.5,1.5S19.925,23.5,19,23.5z"/><path fill="#704e34" d="M19,21c0.645,0,1,0.355,1,1s-0.355,1-1,1s-1-0.355-1-1S18.355,21,19,21 M19,20c-1.2,0-2,0.8-2,2 s0.8,2,2,2s2-0.8,2-2S20.2,20,19,20L19,20z"/><path fill="#a16a4a" d="M51,21.5c-0.925,0-1.5-0.575-1.5-1.5s0.575-1.5,1.5-1.5s1.5,0.575,1.5,1.5S51.925,21.5,51,21.5z"/><path fill="#704e34" d="M51,19c0.645,0,1,0.355,1,1s-0.355,1-1,1s-1-0.355-1-1S50.355,19,51,19 M51,18c-1.2,0-2,0.8-2,2 s0.8,2,2,2s2-0.8,2-2S52.2,18,51,18L51,18z"/><path fill="#a16a4a" d="M43,21.5c-0.925,0-1.5-0.575-1.5-1.5s0.575-1.5,1.5-1.5s1.5,0.575,1.5,1.5S43.925,21.5,43,21.5z"/><path fill="#704e34" d="M43,19c0.645,0,1,0.355,1,1s-0.355,1-1,1s-1-0.355-1-1S42.355,19,43,19 M43,18c-1.2,0-2,0.8-2,2 s0.8,2,2,2s2-0.8,2-2S44.2,18,43,18L43,18z"/><path fill="#a16a4a" d="M35,21.5c-0.925,0-1.5-0.575-1.5-1.5s0.575-1.5,1.5-1.5s1.5,0.575,1.5,1.5S35.925,21.5,35,21.5z"/><path fill="#704e34" d="M35,19c0.645,0,1,0.355,1,1s-0.355,1-1,1s-1-0.355-1-1S34.355,19,35,19 M35,18c-1.2,0-2,0.8-2,2 s0.8,2,2,2s2-0.8,2-2S36.2,18,35,18L35,18z"/><g><path fill="#a16a4a" d="M27,21.5c-0.925,0-1.5-0.575-1.5-1.5s0.575-1.5,1.5-1.5s1.5,0.575,1.5,1.5S27.925,21.5,27,21.5z"/><path fill="#704e34" d="M27,19c0.645,0,1,0.355,1,1s-0.355,1-1,1s-1-0.355-1-1S26.355,19,27,19 M27,18c-1.2,0-2,0.8-2,2 s0.8,2,2,2s2-0.8,2-2S28.2,18,27,18L27,18z"/></g><g><path fill="#a16a4a" d="M55,15.5c-0.925,0-1.5-0.575-1.5-1.5s0.575-1.5,1.5-1.5s1.5,0.575,1.5,1.5S55.925,15.5,55,15.5z"/><path fill="#704e34" d="M55,13c0.645,0,1,0.355,1,1s-0.355,1-1,1s-1-0.355-1-1S54.355,13,55,13 M55,12c-1.2,0-2,0.8-2,2 s0.8,2,2,2s2-0.8,2-2S56.2,12,55,12L55,12z"/></g><g><path fill="#a16a4a" d="M59,23.5c-0.925,0-1.5-0.575-1.5-1.5s0.575-1.5,1.5-1.5s1.5,0.575,1.5,1.5S59.925,23.5,59,23.5z"/><path fill="#704e34" d="M59,21c0.645,0,1,0.355,1,1s-0.355,1-1,1s-1-0.355-1-1S58.355,21,59,21 M59,20c-1.2,0-2,0.8-2,2 s0.8,2,2,2s2-0.8,2-2S60.2,20,59,20L59,20z"/></g><g><path fill="#a16a4a" d="M35,55.5c-0.925,0-1.5-0.575-1.5-1.5s0.575-1.5,1.5-1.5s1.5,0.575,1.5,1.5S35.925,55.5,35,55.5z"/><path fill="#704e34" d="M35,53c0.645,0,1,0.355,1,1s-0.355,1-1,1s-1-0.355-1-1S34.355,53,35,53 M35,52c-1.2,0-2,0.8-2,2 s0.8,2,2,2s2-0.8,2-2S36.2,52,35,52L35,52z"/></g><g><path fill="#a16a4a" d="M43,55.5c-0.925,0-1.5-0.575-1.5-1.5s0.575-1.5,1.5-1.5s1.5,0.575,1.5,1.5S43.925,55.5,43,55.5z"/><path fill="#704e34" d="M43,53c0.645,0,1,0.355,1,1s-0.355,1-1,1s-1-0.355-1-1S42.355,53,43,53 M43,52c-1.2,0-2,0.8-2,2 s0.8,2,2,2s2-0.8,2-2S44.2,52,43,52L43,52z"/></g><g><path fill="#a16a4a" d="M35,63.5c-0.925,0-1.5-0.575-1.5-1.5s0.575-1.5,1.5-1.5s1.5,0.575,1.5,1.5S35.925,63.5,35,63.5z"/><path fill="#704e34" d="M35,61c0.645,0,1,0.355,1,1s-0.355,1-1,1s-1-0.355-1-1S34.355,61,35,61 M35,60c-1.2,0-2,0.8-2,2 s0.8,2,2,2s2-0.8,2-2S36.2,60,35,60L35,60z"/></g><g><path fill="#a16a4a" d="M43,63.5c-0.925,0-1.5-0.575-1.5-1.5s0.575-1.5,1.5-1.5s1.5,0.575,1.5,1.5S43.925,63.5,43,63.5z"/><path fill="#704e34" d="M43,61c0.645,0,1,0.355,1,1s-0.355,1-1,1s-1-0.355-1-1S42.355,61,43,61 M43,60c-1.2,0-2,0.8-2,2 s0.8,2,2,2s2-0.8,2-2S44.2,60,43,60L43,60z"/></g><g><path fill="#a16a4a" d="M35,71.5c-0.925,0-1.5-0.575-1.5-1.5s0.575-1.5,1.5-1.5s1.5,0.575,1.5,1.5S35.925,71.5,35,71.5z"/><path fill="#704e34" d="M35,69c0.645,0,1,0.355,1,1s-0.355,1-1,1s-1-0.355-1-1S34.355,69,35,69 M35,68c-1.2,0-2,0.8-2,2 s0.8,2,2,2s2-0.8,2-2S36.2,68,35,68L35,68z"/></g><g><path fill="#a16a4a" d="M43,71.5c-0.925,0-1.5-0.575-1.5-1.5s0.575-1.5,1.5-1.5s1.5,0.575,1.5,1.5S43.925,71.5,43,71.5z"/><path fill="#704e34" d="M43,69c0.645,0,1,0.355,1,1s-0.355,1-1,1s-1-0.355-1-1S42.355,69,43,69 M43,68c-1.2,0-2,0.8-2,2 s0.8,2,2,2s2-0.8,2-2S44.2,68,43,68L43,68z"/></g><g><path fill="#a16a4a" d="M27,67.5c-0.925,0-1.5-0.575-1.5-1.5s0.575-1.5,1.5-1.5s1.5,0.575,1.5,1.5S27.925,67.5,27,67.5z"/><path fill="#704e34" d="M27,65c0.645,0,1,0.355,1,1s-0.355,1-1,1s-1-0.355-1-1S26.355,65,27,65 M27,64c-1.2,0-2,0.8-2,2 s0.8,2,2,2s2-0.8,2-2S28.2,64,27,64L27,64z"/></g><g><path fill="#a16a4a" d="M51,67.5c-0.925,0-1.5-0.575-1.5-1.5s0.575-1.5,1.5-1.5s1.5,0.575,1.5,1.5S51.925,67.5,51,67.5z"/><path fill="#704e34" d="M51,65c0.645,0,1,0.355,1,1s-0.355,1-1,1s-1-0.355-1-1S50.355,65,51,65 M51,64c-1.2,0-2,0.8-2,2 s0.8,2,2,2s2-0.8,2-2S52.2,64,51,64L51,64z"/></g><g><path fill="#a16a4a" d="M61,53.5c-0.925,0-1.5-0.575-1.5-1.5s0.575-1.5,1.5-1.5s1.5,0.575,1.5,1.5S61.925,53.5,61,53.5z"/><path fill="#704e34" d="M61,51c0.645,0,1,0.355,1,1s-0.355,1-1,1s-1-0.355-1-1S60.355,51,61,51 M61,50c-1.2,0-2,0.8-2,2 s0.8,2,2,2s2-0.8,2-2S62.2,50,61,50L61,50z"/></g><g><path fill="#a16a4a" d="M17,53.5c-0.925,0-1.5-0.575-1.5-1.5s0.575-1.5,1.5-1.5s1.5,0.575,1.5,1.5S17.925,53.5,17,53.5z"/><path fill="#704e34" d="M17,51c0.645,0,1,0.355,1,1s-0.355,1-1,1s-1-0.355-1-1S16.355,51,17,51 M17,50c-1.2,0-2,0.8-2,2 s0.8,2,2,2s2-0.8,2-2S18.2,50,17,50L17,50z"/></g></svg>