<svg xmlns="http://www.w3.org/2000/svg" viewBox="0 0 80 80" width="30px" height="30px"><path fill="#bae0bd" d="M51.167,41.5V26.675c6.413-0.506,15.477-10.378,15.87-10.809c0.053-0.061,4.371-4.94,11.972-5.34 C77.642,12.612,77.5,14.409,77.5,18c0,1.889,0.446,3.085,0.918,4.353C78.95,23.78,79.5,25.257,79.5,28 c0,12.588-12.806,13.462-13.513,13.5H51.167z"/><path fill="#99c99e" d="M78.099,11.099C77.06,13.105,77,15.037,77,18c0,1.978,0.483,3.274,0.95,4.527 C78.466,23.913,79,25.347,79,28c0,12.027-12.236,12.953-13.028,13H51.667V27.122c6.577-0.938,15.351-10.493,15.756-10.938 C67.464,16.136,71.309,11.812,78.099,11.099 M80,10c-8.562,0-13.333,5.529-13.333,5.529s-9.717,10.667-16,10.667V42H66 c0,0,14-0.709,14-14c0-5.269-2-6.11-2-10S78.144,12.395,80,10L80,10z"/><path fill="#99c99e" d="M66.667,15.529c0,0,4.772-5.529,13.333-5.529c-1.856,2.395-10,12.11-10,16l-12,8h-8v-8 C56.283,26,66.667,15.529,66.667,15.529z"/><path fill="#bae0bd" d="M14,41.5C13.473,41.472,0.5,40.652,0.5,28c0-2.743,0.55-4.22,1.082-5.647 C2.054,21.085,2.5,19.889,2.5,18c0-3.591-0.142-5.388-1.508-7.474c7.601,0.399,11.918,5.278,11.963,5.33 c0.4,0.44,9.465,10.313,15.878,10.818V41.5H14z"/><path fill="#99c99e" d="M1.901,11.099c6.79,0.713,10.636,5.039,10.693,5.103c0.389,0.427,9.162,9.981,15.739,10.919V41 H14.027C13.225,40.954,1,40.057,1,28c0-2.653,0.534-4.087,1.05-5.473C2.517,21.274,3,19.978,3,18 C3,15.037,2.94,13.105,1.901,11.099 M0,10c1.856,2.395,2,4.11,2,8s-2,4.731-2,10c0,13.291,14,14,14,14h15.333V26.196 c-6.283,0-16-10.667-16-10.667S8.562,10,0,10L0,10z"/><path fill="#99c99e" d="M13.333,15.529C13.333,15.529,8.562,10,0,10c1.856,2.395,10,12.11,10,16l12,8h8v-8 C23.717,26,13.333,15.529,13.333,15.529z"/><path fill="#99c99e" d="M40,65.695c-23.981,0-25.449-12.857-25.5-15.435V17.294C17.727,20.204,25.259,26.5,30,26.5h1.864 c0.628,0.793,2.51,2.702,7.78,8.046l0.358,0.363L48.21,26.5H50c4.741,0,12.273-6.296,15.5-9.206v32.977 C65.449,52.838,63.981,65.695,40,65.695z"/><path fill="#5e9c76" d="M65,18.412l0,31.839c-0.02,1.029-0.331,4.653-3.47,8.089c-4.157,4.55-11.401,6.856-21.53,6.856 s-17.373-2.307-21.53-6.856c-3.139-3.436-3.45-7.06-3.47-8.069V18.412C18.862,21.81,25.497,27,30,27h1.642 c0.579,0.679,1.675,1.802,3.664,3.839c1.988,2.036,3.982,4.058,3.982,4.058l0.716,0.726l0.712-0.729L48.421,27H50 C54.503,27,61.138,21.81,65,18.412 M66,16.158C63.597,18.396,55.061,26,50,26c-0.722,0-2,0-2,0l-8,8.196 c0,0-7.969-8.081-7.923-8.196c-0.663,0-1.355,0-2.077,0c-5.061,0-13.597-7.604-16-9.842V50.27c0.041,2.082,1.243,15.925,26,15.925 S65.959,52.352,66,50.27V16.158L66,16.158z"/><path fill="#bae0bd" d="M40,69.5c-8.596,0-15.5-13.76-15.5-15.5c0-4.834,7.45-5.5,15.5-5.5s15.5,0.666,15.5,5.5 C55.5,55.74,48.596,69.5,40,69.5z"/><path fill="#5e9c76" d="M40,49c10.654,0,15,1.449,15,5c0,1.684-6.681,15-15,15S25,55.684,25,54C25,50.449,29.346,49,40,49 M40,48c-8.837,0-16,0.853-16,6c0,2.209,7.163,16,16,16s16-13.791,16-16C56,48.853,48.837,48,40,48L40,48z"/><path fill="#5e9c76" d="M40 44A6 4 0 1 0 40 52A6 4 0 1 0 40 44Z"/><path fill="#e1ebf2" d="M32,26c0,0,2.97-8,8-8s8,8,8,8l-8,8.196L32,26z"/><path fill="#a3b7cc" d="M32.935,26.356C33.693,24.364,36.439,19,40,19c4.278,0,7.038,7.285,7.084,7.401l0.162,0.371L48,26	c0,0-2.97-8-8-8s-8,8-8,8l0.753,0.771L32.935,26.356z"/><path fill="#5e9c76" d="M42,42c0,0,6.807-16,28-16v6c0,0-0.556,12-14,12C45.497,44,42,42,42,42z"/><path fill="#ffeea3" d="M62,34c0,0-2.538,0-5.563,0c-5.508,0-8.832,4.137-10.275,6.474C46.108,40.57,46.048,40.67,46,40.761	c1.461,0.487,4.074,1.084,8.303,1.239C61.816,41.573,62,34,62,34z"/><path fill="#36404d" d="M54,34c0,0-2,1.949-2,4c0,2.051,2,4,2,4s2-1.949,2-4C56,35.949,54,34,54,34z"/><path fill="#5e9c76" d="M38,42c0,0-6.807-16-28-16v6c0,0,0.556,12,14,12C34.503,44,38,42,38,42z"/><path fill="#ffeea3" d="M18,34c0,0,2.538,0,5.563,0c5.508,0,8.832,4.137,10.275,6.474c0.054,0.096,0.114,0.196,0.162,0.287	c-1.461,0.487-4.074,1.084-8.303,1.239C18.184,41.573,18,34,18,34z"/><path fill="#36404d" d="M26,34c0,0,2,1.949,2,4c0,2.051-2,4-2,4s-2-1.949-2-4C24,35.949,26,34,26,34z"/><path fill="#f78f8f" d="M40,63.5c-7.13,0-10.185-6.02-11.153-8.546C30.431,55.572,33.835,56.5,40,56.5 s9.569-0.928,11.153-1.546C50.185,57.48,47.13,63.5,40,63.5z"/><path fill="#c74343" d="M29.741,55.783C31.662,56.366,34.92,57,40,57c5.08,0,8.338-0.634,10.259-1.217 C48.991,58.514,45.996,63,40,63C34.003,63,31.008,58.513,29.741,55.783 M52,54c0,0-3,2-12,2s-12-2-12-2s2.667,10,12,10S52,54,52,54 L52,54z"/><path fill="#f78f8f" d="M40,56c-9,0-12-2-12-2s2.667,10,12,10s12-10,12-10S49,56,40,56z"/><g><path fill="none" d="M40,63c5.996,0,8.991-4.486,10.259-7.217c0.199-0.436,0.367-0.839,0.52-1.226 C49.183,55.149,45.877,56,40,56c-5.86,0-9.165-0.846-10.766-1.438c0.152,0.386,0.319,0.79,0.507,1.221 C31.008,58.513,34.003,63,40,63z"/><path fill="#c74343" d="M50.779,54.557c-0.154,0.387-0.321,0.789-0.52,1.226C48.991,58.514,45.996,63,40,63 c-5.997,0-8.992-4.487-10.259-7.217c-0.188-0.43-0.355-0.834-0.507-1.221C28.377,54.245,28,54,28,54s2.667,10,12,10 c9.333,0,12-10,12-10S51.627,54.243,50.779,54.557z"/></g><g><path fill="none" d="M76,59c4.137,0,6.727-2.429,8.243-4.693c0-0.754-0.041-1.409-0.1-2.021C82.268,52.674,79.628,53,76,53 c-3.639,0-6.283-0.328-8.158-0.718c-0.063,0.611-0.108,1.265-0.108,2.02C69.24,56.569,71.828,59,76,59z"/></g><g><path fill="#fff" d="M32 58.667L34.667 56l2.667 5.333L40 56c-4.471 0-7.785-.658-9.994-1.321L32 58.667zM40 56l2.667 5.333L45.333 56 48 58.667l1.994-3.987C47.785 55.342 44.471 56 40 56z"/></g></svg>