<svg xmlns="http://www.w3.org/2000/svg" viewBox="0 0 80 80" width="30px" height="30px"><path fill="#b08159" d="M10.5,77.5V34C10.5,17.458,23.458,4.5,40,4.5S69.5,17.458,69.5,34v43.5H10.5z"/><path fill="#a16a4a" d="M40,5c16.262,0,29,12.738,29,29v43H11V34C11,17.738,23.738,5,40,5 M40,4C23.2,4,10,17.28,10,34v44 h60V34C70,17.28,56.8,4,40,4L40,4z"/><path fill="#b08159" d="M18.5 36.5H61.5V77.5H18.5z"/><path fill="#a16a4a" d="M61,37v40H19V37H61 M62,36H18v42h44V36L62,36z"/><path fill="#a16a4a" d="M61.907,33C61.999,35.085,62,37.198,62,39.273C62,52.17,52.32,72,40,72S18,52.17,18,39.273	c0-2.083,0.001-4.194,0.09-6.273h-1.003C17,35.078,17,37.186,17,39.273C17,52.54,26.877,73,40,73s23-20.46,23-33.727	c0-2.037-0.002-4.154-0.099-6.273H61.907z"/><path fill="#a6714e" d="M39.995,15.5c-0.824,0-1.495-0.671-1.495-1.495V4.062c0-0.825,0.671-1.496,1.495-1.496 c0.834,0,1.505,0.671,1.505,1.496v9.943c0,0.824-0.671,1.495-1.495,1.495H39.995z"/><path fill="#a16a4a" d="M40.005,3.067C40.554,3.067,41,3.513,41,4.062v9.943C41,14.554,40.554,15,39.995,15 C39.446,15,39,14.554,39,14.005V4.062c0-0.549,0.446-0.995,0.995-0.995H40.005 M40.005,2.067h-0.01C38.898,2.067,38,2.965,38,4.062 v9.943C38,15.102,38.898,16,39.995,16h0.01C41.102,16,42,15.102,42,14.005V4.062C42,2.965,41.102,2.067,40.005,2.067L40.005,2.067z"/><path fill="#a6714e" d="M29.995,17.5c-0.824,0-1.495-0.671-1.495-1.495V6.062c0-0.825,0.671-1.496,1.495-1.496 c0.834,0,1.505,0.671,1.505,1.496v9.943c0,0.824-0.671,1.495-1.495,1.495H29.995z"/><path fill="#a16a4a" d="M30.005,5.067C30.554,5.067,31,5.513,31,6.062v9.943C31,16.554,30.554,17,29.995,17 C29.446,17,29,16.554,29,16.005V6.062c0-0.549,0.446-0.995,0.995-0.995H30.005 M30.005,4.067h-0.01C28.898,4.067,28,4.965,28,6.062 v9.943C28,17.102,28.898,18,29.995,18h0.01C31.102,18,32,17.102,32,16.005V6.062C32,4.965,31.102,4.067,30.005,4.067L30.005,4.067z"/><path fill="#a6714e" d="M49.995,17.5c-0.824,0-1.495-0.671-1.495-1.495V6.062c0-0.825,0.671-1.496,1.495-1.496 c0.834,0,1.505,0.671,1.505,1.496v9.943c0,0.824-0.671,1.495-1.495,1.495H49.995z"/><path fill="#a16a4a" d="M50.005,5.067C50.554,5.067,51,5.513,51,6.062v9.943C51,16.554,50.554,17,49.995,17 C49.446,17,49,16.554,49,16.005V6.062c0-0.549,0.446-0.995,0.995-0.995H50.005 M50.005,4.067h-0.01C48.898,4.067,48,4.965,48,6.062 v9.943C48,17.102,48.898,18,49.995,18h0.01C51.102,18,52,17.102,52,16.005V6.062C52,4.965,51.102,4.067,50.005,4.067L50.005,4.067z"/><path fill="#7496c4" d="M31.818 64.429H48.182V78H31.818z"/><path fill="#ffeea3" d="M62 66H70V68H62zM10 66H18V68H10z"/><path fill="#f5ce85" d="M10 60H18V62H10zM62 60H70V62H62z"/><path fill="#b08159" d="M52 74H61V78H52zM62 74H69V78H62zM11 74H18V78H11zM19 74H28V78H19z"/><path fill="#f5ce85" d="M62 72H70V74H62zM10 72H18V74H10z"/><path fill="#c2e8ff" d="M62,42c2.087,0,2-4,2-4c0-6.107,6-15,6-15v-1c-9.205,0-13.636,8.143-13.636,8.143L62,42z"/><path fill="#4e7ab5" d="M58,29c0.964-1.381,4.574-4.258,8.377-5.451C68.807,23.085,70,23,70,23v-1	c-9.205,0-13.636,8.143-13.636,8.143L58,29z"/><path fill="#c2e8ff" d="M18,42c-2.069,0-2-4-2-4c0-6.107-6-15-6-15v-1c9.205,0,13.636,8.143,13.636,8.143L18,42z"/><path fill="#4e7ab5" d="M22,29c-0.964-1.381-4.574-4.258-8.377-5.451C11.193,23.085,10,23,10,23v-1	c9.205,0,13.636,8.143,13.636,8.143L22,29z"/><path fill="#7496c4" d="M28.5 37.786H51.5V77.5H28.5z"/><path fill="#a16a4a" d="M51,38.286V77H29V38.286H51 M52,37.286H28V78h24V37.286L52,37.286z"/><path fill="#8bb7f0" d="M18,39.273C18,52.17,27.68,72,40,72s22-19.83,22-32.727S62,12,40,12S18,26.206,18,39.273z"/><path fill="#4e7ab5" d="M32,60.667c0,0,2.778,5.333,8,5.333s8-5.333,8-5.333L42,58h-4L32,60.667z"/><path fill="#7496c4" d="M46.5,40c0-6.796,5.75-7.459,7.512-7.5l0.216-0.002c3.104,0,5.902,1.499,7.272,2.94V36 c0.005,0.078,0.246,2.819-2.004,5.301c-2.459,2.713-6.83,4.124-12.996,4.196V40z"/><path fill="#4e7ab5" d="M54.228,32.997L54.228,32.997c2.735,0,5.393,1.29,6.772,2.645V36l0.001,0.052l0.004,0.046 c0.01,0.104,0.21,2.578-1.897,4.887c-2.265,2.483-6.439,3.859-12.108,4.003V40c0-6.169,4.912-6.951,7.023-7L54.228,32.997 M54.227,31.997c-0.076,0-0.152,0.001-0.227,0.003c-3.828,0.09-8,2.119-8,8v6c17.045,0,16-10,16-10v-0.757 C60.492,33.547,57.404,31.997,54.227,31.997L54.227,31.997z"/><path fill="#ffeea3" d="M54 34A4 4 0 1 0 54 42A4 4 0 1 0 54 34Z"/><path fill="#704e34" d="M54 36A2 2 0 1 0 54 40A2 2 0 1 0 54 36Z"/><path fill="#7496c4" d="M33.513,45.497c-6.166-0.072-10.537-1.482-12.997-4.196c-2.25-2.482-2.009-5.223-2.006-5.251 l0.002-0.612c1.369-1.442,4.167-2.941,7.272-2.941l0.216,0.002c1.762,0.041,7.512,0.704,7.512,7.5V45.497z"/><path fill="#4e7ab5" d="M25.785,32.997L25.989,33c2.112,0.05,7.023,0.831,7.023,7v4.988 c-5.669-0.143-9.843-1.52-12.108-4.003c-2.107-2.309-1.906-4.783-1.897-4.881l0.005-0.052V36v-0.357 C20.391,34.288,23.05,32.997,25.785,32.997 M25.785,31.997c-3.177,0-6.264,1.55-7.773,3.246V36c0,0-1.045,10,16,10v-6 c0-5.881-4.172-7.91-8-8C25.937,31.998,25.861,31.997,25.785,31.997L25.785,31.997z"/><path fill="#ffeea3" d="M26.012 34A4 4 0 1 0 26.012 42A4 4 0 1 0 26.012 34Z"/><g><path fill="#704e34" d="M26.012 36A2 2 0 1 0 26.012 40A2 2 0 1 0 26.012 36Z"/></g><path fill="#7496c4" d="M29 74H51V78H29z"/><path fill="#c2e8ff" d="M40,12c-19.196,0-21.723,11.802-22,23.289c1.526-1.752,4.716-3.366,8-3.289c3.828,0.09,8,2.119,8,8	v10c0,0,0.909,4,6,4s6-4,6-4V40c0-5.881,4.172-7.91,8-8c3.284-0.077,6.474,1.536,8,3.288C61.718,23.901,59.169,12,40,12z"/><g><path fill="#4e7ab5" d="M34 50L34 52 40 56 46 52 46 50z"/></g><path fill="#8bb7f0" d="M19,35c0.368-10.693,1.773-22,21-22s20.631,11.307,21,22c0.822,0.493,0.462-0.32,0.975,0.263	C61.766,23.57,59.737,12,40,12c-19.761,0-21.771,11.462-21.975,23.264C18.538,34.682,18.178,35.493,19,35z"/><g><path fill="#fff" d="M54 16.398v9.456h2v-7.781C55.408 17.471 54.745 16.91 54 16.398zM24 18.074V26h2v-9.602C25.255 16.91 24.592 17.471 24 18.074zM36 13.191V32h2V13.047C37.306 13.078 36.643 13.128 36 13.191zM30 14.422V28h2V13.842C31.295 14.012 30.629 14.206 30 14.422zM48 13.842V28h2V14.422C49.371 14.206 48.705 14.012 48 13.842zM42 13.047V32h2V13.191C43.357 13.128 42.694 13.078 42 13.047z"/></g><g><path fill="#7496c4" d="M46.5,40c0-6.796,5.75-7.459,7.512-7.5l0.21-0.002c3.065,0,5.859,1.504,7.254,2.96 c-0.23-0.012-0.524-0.022-0.87-0.022c-3.199,0-10.515,0.835-14.106,8.008V40z"/><path fill="#4e7ab5" d="M54.222,32.997L54.222,32.997c2.217,0,4.401,0.875,5.888,1.945c-3.218,0.083-9.385,1.03-13.11,6.636 V40c0-6.169,4.912-6.951,7.023-7L54.222,32.997 M54.221,31.997c-0.074,0-0.148,0.001-0.221,0.003c-3.828,0.09-8,2.119-8,8v6 c2.941-9.121,11.282-10.064,14.606-10.064C61.473,35.936,62,36,62,36v-0.712C60.491,33.591,57.4,31.997,54.221,31.997 L54.221,31.997z"/></g><g><path fill="#7496c4" d="M33.513,43.444c-3.592-7.172-10.908-8.008-14.106-8.008c-0.346,0-0.639,0.01-0.87,0.022 c1.395-1.456,4.189-2.96,7.255-2.96l0.21,0.002c1.762,0.041,7.512,0.704,7.512,7.5V43.444z"/><path fill="#4e7ab5" d="M25.791,32.997L25.989,33c2.112,0.05,7.023,0.831,7.023,7v1.578 c-3.725-5.605-9.892-6.553-13.11-6.636C21.389,33.872,23.574,32.997,25.791,32.997 M25.791,31.997c-3.179,0-6.27,1.594-7.779,3.291 V36c0,0,0.527-0.064,1.394-0.064c3.325,0,11.665,0.943,14.606,10.064v-6c0-5.881-4.172-7.91-8-8 C25.939,31.998,25.865,31.997,25.791,31.997L25.791,31.997z"/></g></svg>