<svg xmlns="http://www.w3.org/2000/svg" viewBox="0 0 80 80" width="30px" height="30px"><path fill="#839cb2" d="M39.985,55.907C36.255,44.7,19.744,43.436,12.522,43.436c-0.616,0-1.137,0.01-1.544,0.021 c2.163-3.325,2.733-6.411,1.695-9.186c-1.542-4.121-6.247-6.553-9.443-7.772h22.385c0.429,1.544,2.036,6.635,4.756,7.358 c1.175,0.312,2.868,0.684,4.263,0.684c2.494,0,2.866-1.224,2.866-1.954c0.111-0.677,0.224-1.497,0.323-2.285l0.154,0.689 l0.556-0.243c0.004-0.001,0.596-0.25,1.467-0.25c0.899,0,1.195,0.188,1.198,0.189l0.633,0.554l0.157-0.843l0.127-0.567 c0.12,0.856,0.218,1.837,0.218,2.755c0.145,0.935,0.773,1.954,2.985,1.954c1.055,0,2.41-0.224,4.144-0.684 c2.841-0.713,4.503-5.89,4.921-7.358h22.477c-3.21,1.248-8.02,3.754-9.546,7.948c-0.999,2.743-0.429,5.767,1.695,9.001 c-0.5-0.018-1.168-0.034-1.972-0.034C59.882,43.415,43.541,44.68,39.985,55.907z"/><path fill="#66798f" d="M74.478,27c-2.989,1.463-6.372,3.81-7.634,7.276c-0.972,2.67-0.551,5.572,1.251,8.648 c-0.32-0.006-0.673-0.009-1.057-0.009c-6.999,0-22.643,1.205-27.063,11.577c-4.587-10.353-20.39-11.556-27.453-11.556 c-0.225,0-0.437,0.001-0.636,0.003c1.847-3.167,2.27-6.135,1.256-8.843c-1.268-3.388-4.557-5.669-7.5-7.097H25.24 c0.572,1.924,2.229,6.604,5.004,7.341c1.751,0.465,3.228,0.701,4.391,0.701c2.921,0,3.337-1.587,3.364-2.365 c0.062-0.388,0.123-0.809,0.182-1.24l0.545-0.226C38.731,31.209,39.244,31,40,31c0.557,0,0.829,0.078,0.916,0.11l0.9,0.787 c0.011,0.232,0.017,0.464,0.017,0.691v0.08l0.013,0.079c0.138,0.857,0.773,2.295,3.472,2.295c1.099,0,2.496-0.229,4.259-0.698 c2.92-0.733,4.606-5.419,5.183-7.345H74.478 M80,26H54c0,0-1.667,6.622-4.667,7.375c-1.351,0.359-2.816,0.668-4.015,0.668 c-1.315,0-2.31-0.371-2.485-1.454c0-2.447-0.667-5.271-0.667-5.271L41.5,30.292c0,0-0.333-0.292-1.5-0.292 c-1,0-1.667,0.292-1.667,0.292l-0.667-2.974c0,0-0.333,3.2-0.667,5.271c0,1.083-1.003,1.454-2.366,1.454 c-1.242,0-2.783-0.309-4.134-0.668C27.667,32.622,26,26,26,26H0c0,0,19.677,4.593,10,18c0,0,0.953-0.064,2.522-0.064 C19.328,43.936,37.704,45.141,40,58c2.097-12.784,19.883-14.085,27.038-14.085C68.866,43.915,70,44,70,44 C60.357,30.82,80,26,80,26L80,26z"/></svg>