<svg xmlns="http://www.w3.org/2000/svg" viewBox="0 0 80 80" width="30px" height="30px"><path fill="#f7a3a3" d="M61.857,55.5c-0.44,0-0.794-0.14-1.08-0.428c-1.171-1.177-1.153-4.595-1.139-7.611l0.004-1.062 c0-3.694,1.843-5.9,4.929-5.9s4.929,2.206,4.929,5.9C69.5,50.679,64.515,55.5,61.857,55.5z"/><path fill="#c74343" d="M64.571,41C67.386,41,69,42.968,69,46.4c0,3.958-4.721,8.6-7.143,8.6 c-0.309,0-0.533-0.087-0.726-0.281c-1.024-1.029-1.006-4.48-0.992-7.253c0.002-0.358,0.004-0.715,0.004-1.066 C60.143,42.968,61.757,41,64.571,41 M64.571,40c-2.998,0-5.429,1.982-5.429,6.4S58.859,56,61.857,56C64.855,56,70,50.818,70,46.4 S67.57,40,64.571,40L64.571,40z"/><path fill="#f7a3a3" d="M18.278,55.5c-2.657,0-7.643-4.821-7.643-9.1c0-3.694,1.843-5.9,4.929-5.9s4.929,2.206,4.929,5.9 l0.004,1.062c0.015,3.016,0.032,6.434-1.139,7.611C19.072,55.36,18.719,55.5,18.278,55.5z"/><path fill="#c74343" d="M15.564,41c2.814,0,4.429,1.968,4.429,5.4c0,0.351,0.002,0.708,0.004,1.066 c0.014,2.773,0.031,6.225-0.992,7.254C18.811,54.913,18.587,55,18.279,55c-2.422,0-7.143-4.642-7.143-8.6 C11.136,42.968,12.75,41,15.564,41 M15.564,40c-2.998,0-5.429,1.982-5.429,6.4S15.28,56,18.279,56s2.714-5.182,2.714-9.6 S18.562,40,15.564,40L15.564,40z"/><path fill="#f7a3a3" d="M40,77.5c-11.201,0-23.5-18.035-23.5-34.46C16.5,26.2,27.042,12.5,40,12.5s23.5,13.7,23.5,30.54 C63.5,59.465,51.201,77.5,40,77.5z"/><path fill="#c74343" d="M40,13c12.682,0,23,13.476,23,30.04C63,59.226,50.963,77,40,77S17,59.226,17,43.04 C17,26.476,27.318,13,40,13 M40,12c-13.255,0-24,13.898-24,31.04S28.75,78,40,78s24-17.819,24-34.96C64,25.896,53.255,12,40,12 L40,12z"/><path fill="#839cb2" d="M40,43.5c-25.274,0-33.373-8.669-35.146-11.101c2.33-0.332,9.095-1.642,13.499-6.046l0.113-0.114 l0.026-0.158C18.532,25.846,22.476,2.5,30,2.5c2.477,0,4.006,1.627,5.485,3.201C36.838,7.14,38.116,8.5,40,8.5 s3.162-1.36,4.517-2.8C45.995,4.127,47.525,2.5,50,2.5c7.416,0,11.467,23.348,11.507,23.583l0.027,0.157l0.112,0.113 c4.401,4.401,11.16,5.712,13.494,6.045C73.351,34.831,65.194,43.5,40,43.5z"/><path fill="#66798f" d="M50,3c5.156,0,9.492,14.21,11.014,23.167l0.053,0.314l0.225,0.225 c4.046,4.046,10.021,5.54,12.923,6.05C71.677,35.707,63.066,43,40,43C16.927,43,8.318,35.702,5.783,32.757 c2.902-0.509,8.877-2.003,12.924-6.05l0.227-0.227l0.052-0.317C20.05,19.72,24.102,3,30,3c2.26,0,3.65,1.478,5.121,3.043 C36.487,7.497,37.9,9,40,9c2.1,0,3.513-1.503,4.88-2.957C46.352,4.478,47.741,3,50,3 M50,2c-4.986,0-6.377,6-10,6s-5.012-6-10-6 c-8.038,0-12,24-12,24c-5.209,5.209-14,6-14,6s6.107,12,36,12s36-12,36-12s-8.791-0.791-14-6C62,26,57.926,2,50,2L50,2z"/><path fill="#ab3434" d="M48,64.667c0,0-2.698,5.333-8,5.333s-8-5.333-8-5.333S34.698,62,40,62S48,64.667,48,64.667z"/><path fill="#fff" d="M43.152 62.354C42.226 62.146 41.189 62 40 62l1.6 4C41.6 66 42.992 63.337 43.152 62.354zM44.8 66l3.2-1.333c0 0-1.602-1.561-4.736-2.292C43.458 63.352 44.8 66 44.8 66zM38.4 66l1.6-4c-1.189 0-2.226.146-3.152.354C37.008 63.337 38.4 66 38.4 66zM36.736 62.375C33.602 63.106 32 64.667 32 64.667L35.2 66C35.2 66 36.543 63.35 36.736 62.375zM60 44c0 0-4.534 6-8.4 6S44 47 44 47s3.734-3 7.6-3S60 44 60 44zM20 44c0 0 4.537 6 8.403 6S36 46.996 36 46.996s-3.731-2.989-7.597-2.989S20 44 20 44z"/><path fill="#4b6477" d="M51 44.5A2.5 2.5 0 1 0 51 49.5A2.5 2.5 0 1 0 51 44.5Z"/><path fill="#36404d" d="M51,45c1.103,0,2,0.897,2,2s-0.897,2-2,2s-2-0.897-2-2S49.897,45,51,45 M51,44 c-1.656,0-3,1.344-3,3s1.344,3,3,3s3-1.344,3-3S52.656,44,51,44L51,44z"/><path fill="#4b6477" d="M29 44.5A2.5 2.5 0 1 0 29 49.5A2.5 2.5 0 1 0 29 44.5Z"/><path fill="#36404d" d="M29,45c1.103,0,2,0.897,2,2s-0.897,2-2,2s-2-0.897-2-2S27.897,45,29,45 M29,44 c-1.656,0-3,1.344-3,3s1.344,3,3,3s3-1.344,3-3S30.656,44,29,44L29,44z"/><path fill="#c74343" d="M26 54H32V56H26zM19 56L24 56 24 54 18 54zM26 60H32V62H26zM22 62L24 62 24 60 20 60zM26 66H30V68H26zM48 54H54V56H48zM48 60H54V62H48zM50 66H54V68H50zM61 56L56 56 56 54 62 54zM58 62L56 62 56 60 60 60z"/><g><path fill="#e1ebf2" d="M18.934,26.48c0,0,8.259,4.52,21.066,4.52c12.678,0,21.068-4.518,21.068-4.518l-0.053-0.314 c-0.376-2.213-0.924-4.747-1.614-7.307C55.689,20.955,48.57,23,40,23c-8.378,0-15.631-1.946-19.46-4.005 c-0.732,2.796-1.258,5.378-1.554,7.167L18.934,26.48z"/></g></svg>