<svg xmlns="http://www.w3.org/2000/svg" viewBox="0 0 80 80" width="30px" height="30px"><path fill="#f78f8f" d="M40,77.5C19.324,77.499,2.502,60.676,2.502,40c0-1.003,0-1.951,0.19-2.902 C3.592,25.63,8.771,16.36,17.729,10.067c-4.535,6.17-6.575,12.594-6.227,19.558c0.645,8.818,5.99,16.066,12.435,16.871 c0.242,0.013,0.44,0.017,0.635,0.017C34.021,46.512,34.5,36.089,34.5,34c0-7.592-3.658-13.718-9.603-16.19l5.154-5.154 c2.121,1.544,5.193,3.848,7.524,7.608l0.925,1.492V20c0-2.104-1.46-8.105-3.861-11.932L40,2.707l5.361,5.361 C42.96,11.895,41.5,17.896,41.5,20v1.755l0.925-1.492c2.331-3.76,5.403-6.064,7.524-7.608l5.154,5.154 C49.158,20.282,45.5,26.408,45.5,34c0,1.302,0.162,4.644,1.664,7.556c1.672,3.243,4.53,4.957,8.263,4.957 c0.194,0,0.394-0.004,0.595-0.014c6.502-0.811,11.849-7.887,12.476-16.463c0.355-7.098-1.745-13.805-6.247-19.983 c8.971,6.293,14.156,15.563,15.048,26.985c0.198,1.01,0.198,1.958,0.198,2.961C77.498,60.676,60.676,77.499,40,77.5L40,77.5z"/><path fill="#c74343" d="M40,3.414l4.73,4.73C42.541,11.843,41,17.618,41,20v3.511l1.85-2.984 c2.166-3.494,4.899-5.64,7.048-7.215l4.337,4.337C48.499,20.37,45,26.49,45,34c0,6.291,2.739,13.013,10.427,13.013 c0.202,0,0.408-0.005,0.618-0.014l0.039-0.002l0.039-0.005c6.694-0.837,12.229-8.111,12.875-16.942 c0.313-6.253-1.251-12.21-4.657-17.774c7.384,6.118,11.661,14.587,12.459,24.802l0.005,0.06l0.012,0.059 c0.181,0.903,0.181,1.826,0.181,2.804c0,20.401-16.597,36.999-36.998,37C19.599,76.999,3.002,60.401,3.002,40 c0-0.978,0-1.901,0.181-2.804l0.012-0.059l0.005-0.06C3.995,26.891,8.251,18.44,15.598,12.326 c-3.392,5.486-4.9,11.202-4.593,17.347c0.661,9.039,6.195,16.485,12.871,17.319l0.039,0.005l0.039,0.002 c0.21,0.01,0.416,0.014,0.618,0.014C32.261,47.013,35,40.291,35,34c0-7.51-3.499-13.63-9.235-16.351l4.337-4.337 c2.148,1.575,4.881,3.721,7.048,7.215L39,23.511V20c0-2.382-1.541-8.157-3.73-11.856L40,3.414 M40,2l-6,6c2.4,3.6,4,9.8,4,12 c-2.512-4.051-5.8-6.4-8-8l-6,6c6.2,2.2,10,8.4,10,16c0,3.52-1.148,12.013-9.427,12.013c-0.188,0-0.378-0.004-0.573-0.013 c-6.4-0.8-11.398-8.2-11.998-16.4c-0.4-8,2.4-15,8-21.6c-10.4,6.2-16.8,16.2-17.8,29c-0.2,1-0.2,2-0.2,3 c0,20.999,16.999,37.999,37.998,38c20.999-0.001,37.998-17.001,37.998-38c0-1,0-2-0.2-3c-1-12.8-7.4-22.8-17.8-29 c5.6,6.6,8.402,14,8.002,22c-0.6,8.2-5.6,15.2-12,16c-0.194,0.009-0.386,0.013-0.573,0.013C47.147,46.013,46,37.52,46,34 c0-7.6,3.8-13.8,10-16l-6-6c-2.2,1.6-5.488,3.949-8,8c0-2.2,1.6-8.4,4-12L40,2L40,2z"/></svg>