<svg xmlns="http://www.w3.org/2000/svg" viewBox="0 0 80 80" width="30px" height="30px"><path fill="#8bb7f0" d="M62.5,54.5h5.453c-1.459,2.824-3.289,5.365-5.453,7.575V54.5z"/><path fill="#4e7ab5" d="M67.12,55c-1.162,2.115-2.541,4.06-4.12,5.812V55H67.12 M68.763,54H62v9.266 C64.784,60.636,67.065,57.491,68.763,54L68.763,54z"/><path fill="#8bb7f0" d="M62.5,45.5V17.923c5.813,5.906,9,13.7,9,22.077c0,1.786-0.165,3.589-0.502,5.5H62.5z"/><path fill="#4e7ab5" d="M63,19.179c5.176,5.692,8,12.998,8,20.821c0,1.628-0.139,3.271-0.424,5H63V19.179 M62,16.734V46 h9.415C71.78,44.057,72,42.059,72,40C72,30.763,68.148,22.541,62,16.734L62,16.734z"/><g><path fill="#8bb7f0" d="M40,71.5C22.631,71.5,8.5,57.369,8.5,40S22.631,8.5,40,8.5c4.688,0,9.229,1.023,13.5,3.04v0.261 l-34,36V54.5h34v13.96C49.229,70.477,44.688,71.5,40,71.5z"/><path fill="#4e7ab5" d="M40,9c4.448,0,8.76,0.935,12.831,2.781L19.273,47.313L19,47.602V48v6v1h1h33v13.141 C48.879,70.039,44.509,71,40,71c-8.305,0-16.092-3.201-21.926-9.014C12.223,56.156,9,48.348,9,40 c0-8.348,3.223-16.156,9.074-21.986C23.908,12.201,31.695,9,40,9 M40,8C22.316,8,8,22.147,8,40c0,17.853,14.316,32,32,32 c5.029,0,9.767-1.177,14-3.225V54H20v-6l34-36v-0.775C49.767,9.177,45.029,8,40,8L40,8z"/><g><path fill="#8bb7f0" d="M32.089 45.5L53.5 23.241 53.5 45.5z"/><path fill="#4e7ab5" d="M53,24.482V45H33.264L53,24.482 M54,22L30.915,46H54V22L54,22z"/></g></g><g><path fill="#4e7ab5" d="M40,3c9.912,0,19.206,3.821,26.169,10.758C73.154,20.717,77,30.037,77,40 s-3.846,19.283-10.831,26.242C59.206,73.179,49.912,77,40,77s-19.206-3.821-26.169-10.758C6.846,59.283,3,49.963,3,40 s3.846-19.283,10.831-26.242C20.794,6.821,30.088,3,40,3 M40,2C19,2,2,18.8,2,40c0,21.2,17,38,38,38s38-16.8,38-38S61,2,40,2L40,2z"/></g></svg>