<svg xmlns="http://www.w3.org/2000/svg" viewBox="0 0 80 80" width="30px" height="30px"><path fill="#f78f8f" d="M40,77.5c-14.125,0-25.5-24.969-25.5-45.643C14.5,13.2,23.794,2.5,40,2.5s25.5,10.7,25.5,29.357 C65.5,52.531,54.125,77.5,40,77.5z"/><path fill="#c74343" d="M40,3c15.888,0,25,10.518,25,28.857c0,10.194-2.8,21.587-7.489,30.476 C52.593,71.654,46.211,77,40,77s-12.593-5.346-17.511-14.667C17.8,53.444,15,42.051,15,31.857C15,13.518,24.112,3,40,3 M40,2 c-14.387,0-26,8.867-26,29.857S25.613,78,40,78s26-25.152,26-46.143S54.387,2,40,2L40,2z"/><path fill="#c74343" d="M39.5,2.051V77.86C39.667,77.906,39.831,78,40,78s0.333-0.094,0.5-0.14V2.051	C40.333,2.035,40.169,2,40,2S39.667,2.035,39.5,2.051z"/><path fill="none" stroke="#c74343" stroke-miterlimit="10" d="M40 16c0 0 4.655 4.542 12.458 4.542C52.458 28.571 60 32 60 32M40 16c0 0-4.696 4.583-12.5 4.583C27.5 28.613 20 32 20 32M40 67.143c0 0 2.78-5.56 10.583-5.56M40 67.143c0 0-2.613-5.643-10.417-5.643M25.784 68.456L58.313 9.575M21.73 9.575L54.355 68.552"/><path fill="#66798f" d="M19,21c-1.833,2.208-2,8-2,8c0,11.728,1.344,20.758,7.293,26.707l0.51,0.51l0.645-0.322	c7.441-3.721,13.14-11.981,13.379-12.33l0.797-1.166l-1.365-0.364C38.078,41.986,20.958,37.417,19,29C19,29,18.25,25.542,19,21z"/><path fill="#fff" d="M38,43c0,0-18.733-4.952-20-14c0,12.299,1.6,20.6,7,26C32.295,51.353,38,43,38,43z"/><path fill="#66798f" d="M61,29c-1.958,8.417-19.078,12.986-19.257,13.034l-1.365,0.364l0.797,1.166	c0.239,0.35,5.937,8.61,13.379,12.33l0.645,0.322l0.51-0.51C61.656,49.758,63,40.728,63,29c0,0-0.167-5.792-2-8	C61.75,25.542,61,29,61,29z"/><g><path fill="#fff" d="M42,43c0,0,18.733-4.952,20-14c0,12.299-1.6,20.6-7,26C47.705,51.353,42,43,42,43z"/></g></svg>