<svg xmlns="http://www.w3.org/2000/svg" viewBox="0 0 80 80" width="30px" height="30px"><path fill="#ffeea3" d="M10.052,37.5c-1.023,0-1.859-0.442-2.417-1.277L4.973,32.5h14.976c1.062,0,1.875,0.412,2.417,1.225 l2.669,3.775H10.052z"/><path fill="#f5c276" d="M19.948,33c0.897,0,1.551,0.328,2.017,1.025L24.068,37H10.052c-0.861,0-1.535-0.355-2.02-1.082 L5.945,33H19.948 M19.948,32H4l3.219,4.5c0.667,1,1.667,1.5,2.833,1.5H26l-3.219-4.552C22.115,32.448,21.115,32,19.948,32 L19.948,32z"/><path fill="#ffeea3" d="M54.966,37.5l2.661-3.764c0.55-0.824,1.363-1.236,2.425-1.236h14.976l-2.652,3.709 c-0.567,0.849-1.403,1.291-2.427,1.291H54.966z"/><path fill="#f5c276" d="M74.055,33l-2.106,2.945c-0.467,0.7-1.14,1.055-2.001,1.055H55.932l2.119-2.997 C58.501,33.328,59.155,33,60.052,33H74.055 M76,32H60.052c-1.167,0-2.167,0.448-2.833,1.448L54,38h15.948 c1.167,0,2.167-0.5,2.833-1.5L76,32L76,32z"/><g><path fill="#ffeea3" d="M40.058,48.988L40,49.09l-0.058-0.102L33.04,61l-7.545-13.001c-0.857-1.697-2.251-2.499-4.37-2.499 H16c-1.024,0-1.86-0.441-2.417-1.277l-2.62-3.723h11.17c3.055,0,5.389,1.32,6.938,3.922l3.89,6.562L40,38.988l7.04,11.997 l3.89-6.563c1.549-2.602,3.883-3.921,6.938-3.921h11.17l-2.613,3.712C65.86,45.059,65.024,45.5,64,45.5h-5.125 c-2.119,0-3.513,0.802-4.384,2.524L46.96,61L40.058,48.988z"/><path fill="#f5c276" d="M40,39.976l6.179,10.53l0.858,1.462l0.865-1.458l3.457-5.832C52.833,42.203,54.961,41,57.867,41 h10.207l-2.072,2.945C65.535,44.645,64.861,45,64,45h-5.125c-2.286,0-3.862,0.907-4.816,2.772L46.963,60L40.93,49.502l-0.878-1.527 L40,48.067l-0.052-0.092l-0.878,1.527L33.037,60l-7.096-12.228C24.987,45.907,23.411,45,21.125,45H16 c-0.861,0-1.535-0.355-2.016-1.076L11.926,41h10.206c2.906,0,5.034,1.203,6.507,3.677l3.458,5.833l0.865,1.458l0.858-1.462 L40,39.976 M40,38l-7.042,12L29.5,44.167C27.849,41.394,25.36,40,22.133,40H10l3.167,4.5c0.667,1,1.667,1.5,2.833,1.5h5.125 c1.826,0,3.113,0.621,3.937,2.25L33.042,62l6.896-12L40,50.111L40.062,50l6.896,12l7.979-13.75c0.825-1.629,2.112-2.25,3.938-2.25 H64c1.167,0,2.167-0.5,2.833-1.5L70,40H57.867c-3.227,0-5.716,1.394-7.367,4.167L47.042,50L40,38L40,38z"/></g><g><path fill="#ffeea3" d="M40,33.003l-6.971,12.022l-7.782-12.632C24.1,30.501,22.458,29.5,20.5,29.5H6 c-1.024,0-1.86-0.441-2.417-1.277L0.963,24.5h20.23c3.042,0,5.936,1.916,7.94,5.257l3.501,5.644L40,22.98l7.365,12.421l3.497-5.638 c2.009-3.348,4.902-5.264,7.944-5.264h20.23l-2.613,3.712C75.86,29.059,75.024,29.5,74,29.5H59.5c-1.958,0-3.6,1.001-4.749,2.896 l-7.78,12.629L40,33.003z"/><path fill="#f5c276" d="M40,23.961l6.515,10.987l0.841,1.418l0.869-1.401l3.07-4.95C52.419,28.142,54.889,25,58.807,25 h19.267l-2.072,2.945C75.535,28.645,74.861,29,74,29H59.5c-2.142,0-3.931,1.085-5.173,3.131l-7.343,11.92l-6.119-10.553L40,32.007 l-0.865,1.492l-6.119,10.553l-7.339-11.914C24.431,30.085,22.642,29,20.5,29H6c-0.861,0-1.535-0.355-2.016-1.076L1.926,25h19.267 c3.918,0,6.388,3.142,7.519,5.027l3.063,4.938l0.869,1.401l0.841-1.418L40,23.961 M40,22l-7.375,12.438L29.562,29.5 c-1.875-3.125-4.785-5.5-8.369-5.5H0l3.167,4.5C3.833,29.5,4.833,30,6,30h14.5c1.826,0,3.292,0.958,4.321,2.656L33.042,46L40,34 l6.958,12l8.22-13.344C56.208,30.958,57.674,30,59.5,30H74c1.167,0,2.167-0.5,2.833-1.5L80,24H58.807 c-3.584,0-6.494,2.375-8.369,5.5l-3.062,4.938L40,22L40,22z"/></g></svg>