<svg xmlns="http://www.w3.org/2000/svg" viewBox="0 0 80 80" width="30px" height="30px"><path fill="#788b9c" d="M31.7,64.1L20,52.8l5.5-14.4L41,23V40l-7.8,9.7l7.8,6v2.1L31.7,64.1z M22.3,52.3l9.6,9.2l7.1-4.8 v-0.1L30.4,50L39,39.3V27.8L27.2,39.6L22.3,52.3z"/><path fill="#788b9c" d="M33 63L31 62.2 37.5 54.7 41 57z"/><path fill="#ffeea3" d="M47,32.5c-8.5,0-15.5-7-15.5-15.5S38.5,1.5,47,1.5s15.5,7,15.5,15.5S55.5,32.5,47,32.5z"/><path fill="#8499ad" d="M47,2c8.3,0,15,6.7,15,15s-6.7,15-15,15s-15-6.7-15-15S38.7,2,47,2 M47,1c-8.8,0-16,7.2-16,16 s7.2,16,16,16s16-7.2,16-16S55.8,1,47,1L47,1z"/><path fill="#fff" d="M47,23.5c-3.6,0-6.5-2.9-6.5-6.5s2.9-6.5,6.5-6.5s6.5,2.9,6.5,6.5S50.6,23.5,47,23.5z"/><path fill="#f5c276" d="M47,11c3.3,0,6,2.7,6,6s-2.7,6-6,6s-6-2.7-6-6S43.7,11,47,11 M47,10c-3.9,0-7,3.1-7,7s3.1,7,7,7 s7-3.1,7-7S50.9,10,47,10L47,10z"/><path fill="#66798f" d="M31 63H33V71H31z"/><path fill="#b0c1d4" d="M15.5,76.5V73c0-1.9,1.6-3.5,3.5-3.5h26c1.9,0,3.5,1.6,3.5,3.5v3.5H15.5z"/><path fill="#8499ad" d="M45,70c1.7,0,3,1.3,3,3v3H16v-3c0-1.7,1.3-3,3-3H45 M45,69H19c-2.2,0-4,1.8-4,4v4h34v-4 C49,70.8,47.2,69,45,69L45,69z"/><path fill="#788b9c" d="M27 47L27 39 21 51 21 53 23 53 33 49 33 47z"/><path fill="#788b9c" d="M37.9 41L27 41 27 39 41 39z"/></svg>