<svg xmlns="http://www.w3.org/2000/svg" viewBox="0 0 80 80" width="30px" height="30px"><path fill="#37774e" d="M20.7 22.9c-.1 0-14-1.9-14-15.5h1c0 12.8 13 14.5 13.1 14.5L20.7 22.9zM59.1 22.9l-.1-1c.5-.1 13.1-1.8 13.1-14.5h1C73.1 21.1 59.2 22.9 59.1 22.9z"/><path fill="#5e9c76" d="M36,57.4c-10.5,0-17.7-1.4-19.6-3.7l-0.1-0.2H16c-4.1,0-6.8-6.6-7.5-10.3c1.4-2.5,6.4-4.7,7.5-4.7 h0.1l0.1,0c5.7-2.5,15.1-4,24.7-4c9.4,0,17.5,1.4,22.9,4l0.1,0.1H64c1.1,0,6.1,2.3,7.5,4.7c-0.6,3.7-3.4,10.3-7.5,10.3h-0.2 l-0.1,0.1C61.1,55.6,47.9,57.4,36,57.4z"/><path fill="#37774e" d="M40.9,33.9v1h0c9.3,0,17.4,1.4,22.6,4l0.2,0.1H64c1,0,5.5,2.1,7,4.3c-0.7,3.5-3.3,9.7-7,9.7h-0.3 l-0.3,0.2c-2.2,1.7-14.6,3.7-27.4,3.7c-10.2,0-17.4-1.3-19.2-3.6L16.5,53H16c-3.7,0-6.3-6.2-7-9.7c1.4-2.2,6-4.3,7-4.3h0.2 l0.2-0.1c5.6-2.5,15-4,24.5-4L40.9,33.9 M40.9,33.9c-9.5,0-19,1.5-24.9,4.1c-1.4,0-6.6,2.5-8,5.1C8.6,46.8,11.5,54,16,54 c2.3,2.9,10.7,3.9,20,3.9c12,0,25.4-1.8,28-3.9c4.5,0,7.4-7.2,8-10.9c-1.4-2.7-6.6-5.1-8-5.1C58.2,35.2,49.6,33.9,40.9,33.9 L40.9,33.9z"/><path fill="#99c99e" d="M40,77.5c-9.9,0-21.2-13.3-23.5-24.2V38.9C16.5,20.4,26.6,6.5,40,6.5s23.5,13.9,23.5,32.4v14.3 C61.2,64.2,49.9,77.5,40,77.5z"/><path fill="#5e9c76" d="M40,7c6.2,0,12,3.2,16.2,9c4.4,5.9,6.8,14.1,6.8,23v14.3C60.7,63.9,49.7,77,40,77S19.3,63.9,17,53.2 V38.9c0-8.9,2.4-17,6.8-23C28,10.2,33.8,7,40,7 M40,6C26.6,6,16,20,16,38.9v14.4C18.4,64.8,30,78,40,78s21.6-13.2,24-24.7V38.9 C64,20,53.4,6,40,6L40,6z"/><path fill="#99c99e" d="M73,11.5c-2.5,0-4.5-2-4.5-4.5s2-4.5,4.5-4.5s4.5,2,4.5,4.5S75.5,11.5,73,11.5z"/><path fill="#5e9c76" d="M73,3c2.2,0,4,1.8,4,4s-1.8,4-4,4s-4-1.8-4-4S70.8,3,73,3 M73,2c-2.8,0-5,2.2-5,5s2.2,5,5,5 s5-2.2,5-5S75.8,2,73,2L73,2z"/><path fill="#fff9de" d="M49 36A5 8 0 1 0 49 52A5 8 0 1 0 49 36Z"/><path fill="#4b6477" d="M49 44.5A2.5 2.5 0 1 0 49 49.5A2.5 2.5 0 1 0 49 44.5Z"/><path fill="#36404d" d="M49,45c1.1,0,2,0.9,2,2s-0.9,2-2,2s-2-0.9-2-2S47.9,45,49,45 M49,44c-1.7,0-3,1.3-3,3s1.3,3,3,3 s3-1.3,3-3S50.7,44,49,44L49,44z"/><path fill="#fff9de" d="M31 36A5 8 0 1 0 31 52A5 8 0 1 0 31 36Z"/><g><path fill="#4b6477" d="M31 44.5A2.5 2.5 0 1 0 31 49.5A2.5 2.5 0 1 0 31 44.5Z"/><path fill="#36404d" d="M31,45c1.1,0,2,0.9,2,2s-0.9,2-2,2s-2-0.9-2-2S29.9,45,31,45 M31,44c-1.7,0-3,1.3-3,3s1.3,3,3,3 c1.7,0,3-1.3,3-3S32.7,44,31,44L31,44z"/></g><g><path fill="#4b6477" d="M29.1,63.5c1.5-1.6,5.4-5,10.9-5c5.5,0,9.4,3.4,10.9,5H29.1z"/><path fill="#36404d" d="M40,59c4.5,0,7.8,2.3,9.7,4H40h-9.7C32.1,61.3,35.5,59,40,59 M40,58c-7.5,0-12,6-12,6s6,0,12,0 s12,0,12,0S47.5,58,40,58L40,58z"/></g><g><path fill="#99c99e" d="M7,11.5c-2.5,0-4.5-2-4.5-4.5s2-4.5,4.5-4.5s4.5,2,4.5,4.5S9.5,11.5,7,11.5z"/><path fill="#5e9c76" d="M7,3c2.2,0,4,1.8,4,4s-1.8,4-4,4S3,9.2,3,7S4.8,3,7,3 M7,2C4.2,2,2,4.2,2,7s2.2,5,5,5s5-2.2,5-5 S9.8,2,7,2L7,2z"/></g></svg>