<svg xmlns="http://www.w3.org/2000/svg" viewBox="0 0 80 80" width="30px" height="30px"><path fill="#a16a4a" d="M67.293 28.979H69.293V51.605999999999995H67.293z" transform="rotate(45.001 68.294 40.292)"/><path fill="#e8d47b" d="M10,62.5c-4.136,0-7.5-3.364-7.5-7.5s3.364-7.5,7.5-7.5s7.5,3.364,7.5,7.5S14.136,62.5,10,62.5z"/><path fill="#ba9b48" d="M10,48c3.86,0,7,3.14,7,7s-3.14,7-7,7s-7-3.14-7-7S6.14,48,10,48 M10,47c-4.418,0-8,3.582-8,8 s3.582,8,8,8s8-3.582,8-8S14.418,47,10,47L10,47z"/><path fill="#ffeea3" d="M37,76.5c-17.521,0-25.5-10.108-25.5-19.5v-0.166l-0.099-0.133C4.766,47.8,5.49,37.145,5.499,37.038 c-0.005-0.128-0.346-5.315,3.642-9.614C12.787,23.493,18.795,21.5,27,21.5h10c5.649,0.842,11.5,2.635,11.5,9.5 c0.022,0.31,0.562,6.673,3.874,8.33l0.253,0.126l0.238-0.151C54.729,38.124,56.85,37.5,59,37.5c6.341,0,11.5,5.159,11.5,11.5 S65.341,60.5,59,60.5c-0.295,0-0.579-0.04-0.863-0.079c-0.136-0.019-0.271-0.036-0.407-0.052l-0.523-0.058l-0.038,0.659 C57.095,61.576,55.098,76.5,37,76.5z"/><path fill="#ba9b48" d="M36.926,22C44.687,23.164,48,25.858,48,31v0.039l0.003,0.039c0.056,0.706,0.646,6.947,4.148,8.698 l0.505,0.253l0.477-0.303C54.916,38.597,56.944,38,59,38c6.065,0,11,4.935,11,11s-4.935,11-11,11c-0.251,0-0.517-0.036-0.799-0.075 c-0.138-0.019-0.276-0.037-0.415-0.053l-1.041-0.116l-0.068,1.045l-0.007,0.105C56.554,61.815,54.438,76,37,76 c-17.177,0-25-9.849-25-19v-0.332l-0.198-0.266c-6.516-8.741-5.813-19.222-5.805-19.327l0.006-0.077l-0.006-0.076 c-0.004-0.049-0.342-4.993,3.498-9.145C13.041,23.944,18.93,22,27,22H36.926 M37,21H27C3.75,21,5,37,5,37s-0.833,10.833,6,20 c0,8.667,7.222,20,26,20s20.667-16,20.667-16s0.005-0.084,0.008-0.134C58.116,60.915,58.546,61,59,61c6.627,0,12-5.373,12-12 s-5.373-12-12-12c-2.36,0-4.546,0.706-6.402,1.883C49.5,37.333,49,31,49,31C49,23.889,43,21.889,37,21L37,21z"/><path fill="#fff" d="M8.47,29.843C3.33,28.182-0.5,22.734-0.5,17C-0.5,9.906,3.906,5.5,11,5.5 c2.965,0,7.446,0,9.678,1.882l0.36,0.304l0.324-0.341C24.741,3.794,30.879,1.5,37,1.5c9.649,0,17.5,6.056,17.5,13.5 c0,4.508-2.893,8.101-8.37,10.405c-1.331-1.317-3.876-2.17-8.588-2.899L25.667,22.5C15.313,22.5,10.605,26.413,8.47,29.843z"/><path fill="#788b9c" d="M37,2c9.374,0,17,5.832,17,13c0,5.236-4.09,8.206-7.77,9.818c-1.703-1.473-4.699-2.201-8.611-2.806 L37.543,22h-0.077H25.667c-10.249,0-15.107,3.788-17.406,7.243C3.504,27.513,0,22.389,0,17C0,10.215,4.215,6,11,6 c2.892,0,7.263,0,9.355,1.764l0.72,0.607l0.649-0.682C25.013,4.233,31.009,2,37,2 M37,1c-6.425,0-12.642,2.47-16,6 c-2.32-1.957-6.727-2-10-2C3.636,5-1,9.636-1,17c0,6.094,4.113,11.844,9.697,13.435C10.775,26.853,15.391,23,25.667,23h11.799 c4.416,0.684,7.261,1.501,8.534,3c5.661-2.29,9-6.021,9-11C55,7.636,47.309,1,37,1L37,1z"/><path fill="#839cb2" d="M49.566,35.957c-0.929-2.374-1.055-4.707-1.066-4.979c-0.002-1.574-0.797-6.899-10.958-8.473 L31,22.5c-10.221,0-18.781,2.714-22.222,6.976l-3.157-6.35C11.078,18.554,22.002,15.5,33,15.5c16.706,0,27.5,4.514,27.5,11.5 C60.5,30.542,56.522,33.795,49.566,35.957z"/><path fill="#66798f" d="M33,16c16.402,0,27,4.318,27,11c0,3.234-3.677,6.249-10.13,8.337 c-0.769-2.198-0.867-4.277-0.87-4.338c-0.002-1.695-0.83-7.353-11.381-8.987L37.543,22h-0.077H31 c-9.899,0-18.287,2.543-22.105,6.586L6.246,23.26C11.713,18.897,22.311,16,33,16 M33,15c-11.265,0-22.444,3.111-28,8l3.697,7.435 C11.889,25.556,21.333,23,31,23h6.466c9.535,1.477,10.532,6.269,10.534,8c0.018,0.429,0.188,3.045,1.277,5.569 C56.572,34.386,61,30.981,61,27C61,20.373,51.778,15,33,15L33,15z"/><path fill="#ffeea3" d="M37,22.5c-1.93,0-3.5-1.57-3.5-3.5s1.57-3.5,3.5-3.5s3.5,1.57,3.5,3.5S38.93,22.5,37,22.5z"/><path fill="#f5c276" d="M37,16c1.654,0,3,1.346,3,3s-1.346,3-3,3s-3-1.346-3-3S35.346,16,37,16 M37,15 c-2.209,0-4,1.791-4,4s1.791,4,4,4s4-1.791,4-4S39.209,15,37,15L37,15z"/><path fill="#36404d" d="M41 31A2 4 0 1 0 41 39A2 4 0 1 0 41 31Z"/><path fill="#b08159" d="M31,68.5c-5.9,0-8.304-6.445-10.424-12.133c-1.255-3.365-2.373-6.364-4.114-7.442 C18.024,48.349,21.008,47.5,25,47.5h0.916c4.852,0,12.019,0,17.724,1.604c-1.144,1.101-1.949,3.594-2.903,6.545 C38.886,61.375,36.583,68.5,31,68.5z"/><path fill="#a16a4a" d="M25.914,48c4.609,0,11.319,0,16.824,1.382c-0.929,1.323-1.633,3.501-2.477,6.113 C38.461,61.067,36.22,68,31,68c-5.553,0-7.892-6.273-9.956-11.807c-1.104-2.961-2.106-5.65-3.557-7.09 C19.132,48.585,21.716,48,25,48l0.449,0L25.914,48 M25.914,47c-0.31,0-0.615,0-0.914,0c-6.222,0-10,2-10,2c5.5,0,5.278,20,16,20 c9.778,0,9.944-20,14-20C39.202,47.05,31.654,47,25.914,47L25.914,47z"/><path fill="#f78f8f" d="M36.824,65.761C35.754,60.141,30.83,55,25.667,55c-2.013,0-3.874,0.664-5.48,1.755	c0.395,1.059,0.806,2.152,1.254,3.231c1.62,3.785,3.727,7.562,7.324,8.679c0.038,0.012,0.076,0.025,0.114,0.036	c0.271,0.079,0.554,0.137,0.842,0.185c0.069,0.011,0.135,0.028,0.205,0.037C30.272,68.972,30.629,69,31,69	C33.492,69,35.357,67.697,36.824,65.761z"/><g><path fill="#fff9de" d="M49.078,52.5c-1.921,0-3.9-0.364-5.724-1.053c-2.259-1.088-3.546-2.423-3.787-3.95 c-0.316-1.508,0.582-3.18,1.392-4.32c1.708-2.299,4.842-3.677,8.376-3.677c2.388,0,4.568,0.631,5.835,1.688 c0.805,0.672,1.249,1.625,1.32,2.833c0.15,2.568-1.436,5.717-3.005,7.376c-0.839,0.736-2.041,0.896-3.313,1.063 C49.83,52.486,49.456,52.5,49.078,52.5L49.078,52.5z"/><path fill="#ba9b48" d="M49.336,40c2.24,0,4.352,0.602,5.514,1.572c0.695,0.58,1.079,1.414,1.141,2.478 c0.142,2.41-1.349,5.377-2.836,6.969c-0.75,0.638-1.853,0.788-3.021,0.942C49.787,51.987,49.431,52,49.076,52 c-1.845,0-3.747-0.347-5.504-1.005c-1.465-0.71-3.247-1.902-3.51-3.576l-0.004-0.025l-0.005-0.025 c-0.214-1.02,0.253-2.406,1.302-3.885C42.975,41.302,45.959,40,49.336,40 M49.336,39c-3.231,0-6.742,1.139-8.785,3.888 c-0.985,1.389-1.806,3.125-1.477,4.687c0.328,2.083,2.298,3.472,4.104,4.34C45.093,52.638,47.122,53,49.076,53 c0.391,0,0.778-0.014,1.161-0.043c1.313-0.174,2.627-0.347,3.612-1.215c2.463-2.604,4.761-8.333,1.642-10.937 C54.135,39.673,51.818,39,49.336,39L49.336,39z"/></g><path fill="#ba9b48" d="M25 39H33V40H25z"/><path fill="#ba9b48" d="M33,39c-4.542,0-5.125-8-10-8c0,0-4,0-4,4h1c0-2.833,3-3,3-3c4,0,4.5,8,10,8V39z"/><g><path fill="#b08159" d="M71.061,36.5c-0.545,0-1.004-0.123-1.366-0.366c0.006-0.006-4.428-4.341-5.617-5.531 c-1.262-1.264-0.379-4.284,1.928-6.594c1.546-1.548,3.45-2.509,4.97-2.509c0.678,0,1.236,0.2,1.614,0.578l5.333,5.341 c1.263,1.264,0.38,4.284-1.928,6.594C74.462,35.547,72.571,36.5,71.061,36.5L71.061,36.5z"/><path fill="#a16a4a" d="M70.974,22c0.551,0,0.975,0.145,1.261,0.432l5.333,5.34c0.935,0.936,0.373,3.584-1.928,5.887 C74.199,35.103,72.444,36,71.061,36c-0.409,0-0.753-0.081-1.022-0.239c-0.591-0.578-4.511-4.414-5.608-5.511 c-0.935-0.936-0.373-3.584,1.928-5.887C67.814,22.905,69.583,22,70.974,22 M70.974,21c-1.597,0-3.62,0.951-5.322,2.655 c-2.546,2.549-3.409,5.818-1.928,7.3c1.199,1.2,5.691,5.593,5.691,5.593C69.868,36.853,70.432,37,71.061,37 c1.588,0,3.592-0.937,5.287-2.634c2.546-2.549,3.409-5.818,1.928-7.3c0,0-3.852-3.857-5.333-5.34 C72.452,21.234,71.765,21,70.974,21L70.974,21z"/></g><path fill="#c74343" d="M32.112,68.898c0.214-0.036,0.428-0.073,0.633-0.13c0.068-0.019,0.13-0.047,0.197-0.068	c0.203-0.063,0.405-0.128,0.598-0.211c0.054-0.023,0.104-0.054,0.157-0.078c0.2-0.092,0.399-0.188,0.589-0.3	c0.039-0.023,0.074-0.051,0.112-0.074c0.201-0.123,0.398-0.252,0.588-0.396c0.024-0.018,0.046-0.039,0.069-0.057	c0.201-0.156,0.397-0.32,0.586-0.497c0.012-0.011,0.023-0.024,0.035-0.035c0.198-0.188,0.391-0.385,0.577-0.595	c0.004-0.005,0.008-0.01,0.012-0.014c0.192-0.217,0.378-0.444,0.558-0.682l0.001-0.001c-0.082-0.432-0.191-0.861-0.32-1.285	C35.125,66.561,33.372,68,31,68c-5.54,0-7.88-6.242-9.94-11.766c-0.299,0.158-0.591,0.33-0.873,0.521	c0,0.001,0.001,0.002,0.001,0.003c0.395,1.059,0.805,2.15,1.253,3.229c1.62,3.785,3.727,7.562,7.324,8.679	c0.003,0.001,0.006,0.002,0.009,0.003c0.035,0.011,0.07,0.023,0.105,0.033c0.271,0.079,0.553,0.137,0.84,0.185	c0.056,0.009,0.109,0.022,0.166,0.03c0.014,0.002,0.027,0.006,0.041,0.007C30.272,68.972,30.629,69,31,69	c0.309,0,0.608-0.02,0.898-0.059C31.972,68.931,32.04,68.91,32.112,68.898z"/><path fill="#ba9b48" d="M39,37h-1c0-5.688,0.687-7,5-7c0.235,0,1.797,0,2,0v1c-0.227,0-1.74,0-2,0C40.125,31,39,31.167,39,37	z"/></svg>