<svg xmlns="http://www.w3.org/2000/svg" viewBox="0 0 80 80" width="30px" height="30px"><path fill="#e1ebf2" d="M40,77.5C19.322,77.5,2.5,60.678,2.5,40S19.322,2.5,40,2.5S77.5,19.322,77.5,40S60.678,77.5,40,77.5 z M23.287,63.078l0.492,0.341C28.569,66.743,34.178,68.5,40,68.5s11.431-1.757,16.222-5.082l0.492-0.341L40,46.364L23.287,63.078z M46.364,40l16.713,16.713l0.341-0.492C66.743,51.431,68.5,45.822,68.5,40s-1.757-11.431-5.082-16.222l-0.341-0.492L46.364,40z M16.582,23.778C13.257,28.569,11.5,34.178,11.5,40s1.757,11.431,5.082,16.222l0.341,0.492L33.636,40L16.922,23.287L16.582,23.778z M40,11.5c-5.822,0-11.432,1.757-16.222,5.082l-0.492,0.341L40,33.636l16.713-16.713l-0.492-0.341 C51.432,13.257,45.822,11.5,40,11.5z"/><path fill="#a3b7cc" d="M40,3c20.402,0,37,16.598,37,37S60.402,77,40,77S3,60.402,3,40S19.598,3,40,3 M40,34.343 l0.707-0.707L56.644,17.7l0.846-0.846l-0.983-0.682C51.632,12.788,45.924,11,40,11s-11.632,1.788-16.507,5.171l-0.983,0.682 l0.846,0.846l15.937,15.936L40,34.343 M63.147,57.49l0.682-0.983C67.212,51.632,69,45.924,69,40s-1.788-11.632-5.171-16.507 l-0.682-0.983L62.3,23.356L46.364,39.293L45.657,40l0.707,0.707L62.3,56.644L63.147,57.49 M16.853,57.49l0.846-0.846l15.937-15.937 L34.343,40l-0.707-0.707L17.7,23.356l-0.846-0.846l-0.682,0.983C12.788,28.368,11,34.076,11,40s1.788,11.632,5.171,16.507 L16.853,57.49 M40,69c5.924,0,11.632-1.788,16.507-5.171l0.983-0.682L56.644,62.3L40.707,46.364L40,45.657l-0.707,0.707 L23.356,62.3l-0.846,0.846l0.983,0.682C28.368,67.212,34.076,69,40,69 M40,2C19.013,2,2,19.013,2,40s17.013,38,38,38 s38-17.013,38-38S60.987,2,40,2L40,2z M40,32.929L24.063,16.992C28.589,13.852,34.075,12,40,12s11.411,1.852,15.937,4.992 L40,32.929L40,32.929z M63.008,55.937L47.071,40l15.937-15.937C66.148,28.589,68,34.075,68,40S66.148,51.411,63.008,55.937 L63.008,55.937z M16.992,55.937C13.852,51.411,12,45.925,12,40s1.852-11.411,4.992-15.937L32.929,40L16.992,55.937L16.992,55.937z M40,68c-5.925,0-11.411-1.852-15.937-4.992L40,47.071l15.937,15.937C51.411,66.148,45.925,68,40,68L40,68z"/><path fill="#a3b7cc" d="M63.312 18.126L63.312 18.126c.4.426.802.849 1.178 1.296C64.11 18.979 63.712 18.552 63.312 18.126zM61.874 63.312L61.874 63.312c-.426.4-.849.802-1.296 1.178C61.021 64.11 61.448 63.712 61.874 63.312zM16.688 61.874L16.688 61.874c-.4-.426-.802-.849-1.178-1.296C15.89 61.021 16.288 61.448 16.688 61.874zM24.063 16.992C27.375 14.625 32.813 12 40 12c4.792 0 11.542 1.349 16.708 5.583l2.875-2.792C53.917 10.333 47.275 8 40 8c-7.75 0-14.855 2.757-20.393 7.341-.514.426-1.777 1.514-2.264 1.971L40 40.083v-7.154L24.063 16.992 24.063 16.992 24.063 16.992z"/><path fill="#a3b7cc" d="M62.937,24.063c2.367,3.312,4.992,8.749,4.992,15.937c0,4.792-1.349,11.542-5.583,16.708l2.792,2.875	c4.458-5.667,6.792-12.308,6.792-19.583c0-7.75-2.757-14.855-7.341-20.393c-0.426-0.514-1.514-1.777-1.971-2.264L39.846,40H47	L62.937,24.063L62.937,24.063L62.937,24.063z"/><path fill="#a3b7cc" d="M56.02 63.02c-3.312 2.367-8.749 4.992-15.937 4.992-4.792 0-11.542-1.349-16.708-5.583L20.5 65.221c5.667 4.458 12.308 6.792 19.583 6.792 7.75 0 14.855-2.757 20.393-7.341.514-.426 1.777-1.514 2.264-1.971L40.083 39.929v7.154L56.02 63.02 56.02 63.02 56.02 63.02zM17.063 56.103c-2.367-3.312-4.992-8.749-4.992-15.937 0-4.792 1.349-11.542 5.583-16.708l-2.792-2.875c-4.458 5.667-6.792 12.308-6.792 19.583 0 7.75 2.757 14.855 7.341 20.393.426.514 1.514 1.777 1.971 2.264L40 40h-7.071L17.063 56.103 17.063 56.103 17.063 56.103z"/><path fill="#a3b7cc" d="M15.341 60.393c.053.064.114.122.168.185-.054-.064-.1-.135-.154-.2L15.341 60.393zM64.659 19.607c-.053-.064-.114-.122-.168-.185.054.064.1.135.154.2L64.659 19.607zM60.393 64.659c.064-.053.122-.114.185-.168-.064.054-.135.1-.2.154L60.393 64.659z" opacity=".6"/></svg>