<svg xmlns="http://www.w3.org/2000/svg" viewBox="0 0 80 80" width="30px" height="30px"><path fill="#e1ebf2" d="M40,77.5c-16.6,0-29.5-23.1-29.5-42.9C10.5,15.4,22.4,2.5,40,2.5s29.5,12.9,29.5,32.1 C69.5,54.4,56.6,77.5,40,77.5z"/><path fill="#a3b7cc" d="M40,3c8.6,0,15.9,3,21.1,8.7c5.2,5.7,7.9,13.6,7.9,22.9C69,54.2,56.3,77,40,77S11,54.2,11,34.6 c0-9.3,2.7-17.2,7.9-22.9C24.1,6,31.4,3,40,3 M40,2C21.8,2,10,15.1,10,34.6C10,54.9,23.1,78,40,78s30-23.1,30-43.4 C70,15.1,58.2,2,40,2L40,2z"/><path fill="#a3b7cc" d="M69.1,31.1C46.5,19.7,16.7,20,13.4,20l-0.1,0l0-1c3.4-0.1,33.5-0.3,56.3,11.1L69.1,31.1z"/><path fill="#a3b7cc" d="M41.8 22.4l-.4-.9.1-.1c2.3-1.1 10.8-4.9 23.5-5.4l0 1c-12.5.5-20.8 4.2-23.1 5.3L41.8 22.4zM62 62c-24.1 0-49.1-15.9-50.1-16.6l.5-.8C13.5 45.2 38.2 61 62 61V62zM66 53c-24.1 0-49.1-15.9-50.1-16.6l.5-.8C17.5 36.2 42.2 52 66 52V53z"/><path fill="#b08159" d="M40,47.5c-12.8,0-24.1-0.9-28.3-2.2c-0.8-3.7-1.2-7.3-1.2-10.7c0-0.9,0.1-1.9,0.1-2.7 c0-0.5,0.1-1,0.1-1.5c5.3-1.2,16.4-1.9,29.3-1.9c14.5,0,24.8,1,29.3,1.9c0,0.5,0.1,1,0.1,1.4c0,0.8,0.1,1.8,0.1,2.7 c0,3.4-0.4,7-1.2,10.7C63.4,46.6,52.6,47.5,40,47.5z"/><path fill="#a16a4a" d="M40,29c14.1,0,24.1,1,28.8,1.9c0,0.4,0.1,0.7,0.1,1.1c0,0.8,0.1,1.7,0.1,2.7 c0,3.3-0.4,6.8-1.1,10.3C62.9,46.2,52.3,47,40,47c-12.5,0-23.5-0.8-27.9-2.1c-0.7-3.5-1.1-7-1.1-10.3c0-0.9,0.1-1.8,0.1-2.7 c0-0.4,0.1-0.7,0.1-1.1C15.6,29.9,25.2,29,40,29 M40,28c-14.3,0-25,0.9-29.7,2l0,0c-0.1,0.6-0.1,1.2-0.1,1.8 c-0.1,0.9-0.1,1.8-0.1,2.7c0,3.7,0.4,7.4,1.2,11.1C15.5,47.1,27.3,48,40,48s23.9-0.9,28.8-2.4C69.6,42,70,38.2,70,34.6 c0-0.9-0.1-1.8-0.1-2.7c0-0.6-0.1-1.2-0.1-1.8l0,0C65,29,54.3,28,40,28L40,28z"/><path fill="#ffeea3" d="M53.1,42.5c-5,0-5.6-5.7-5.6-5.8l0-0.5l15.2-2.9l-0.2,0.8C62.5,34.2,60.2,42.5,53.1,42.5z"/><path fill="#a16a4a" d="M62,34c0,0-2.1,8-8.9,8c-4.6,0-5.1-5.3-5.1-5.3L62,34 M63.4,32.7L61.8,33l-14,2.7l-0.9,0.2l0.1,0.9 c0.2,2.2,1.8,6.2,6.1,6.2c7.4,0,9.7-8.4,9.8-8.7L63.4,32.7L63.4,32.7z"/><g><path fill="#ffeea3" d="M26.9,42.5c-7,0-9.3-8.3-9.4-8.4l-0.2-0.8l15.2,2.9l0,0.5C32.5,36.8,31.9,42.5,26.9,42.5z"/><path fill="#a16a4a" d="M18,34l14,2.7c0,0-0.5,5.3-5.1,5.3C20.1,42,18,34,18,34 M16.6,32.7l0.4,1.5 c0.1,0.4,2.4,8.7,9.8,8.7c4.4,0,5.9-4.1,6.1-6.2l0.1-0.9l-0.9-0.2l-14-2.7L16.6,32.7L16.6,32.7z"/></g><path fill="#a3b7cc" d="M54 72.1c-15 0-32.6-9.6-37.7-12.5l.5-.9c5 2.9 22.5 12.4 37.2 12.4V72.1zM27.8 20.6l-.7-.8C36.2 12 46.8 8 58.6 8v1C47.1 9 36.7 12.9 27.8 20.6z"/></svg>