<svg xmlns="http://www.w3.org/2000/svg" viewBox="0 0 80 80" width="30px" height="30px"><path fill="#e1ebf2" d="M40,77.5c-9.2,0-11.8-6.7-13.6-11.6c-0.7-1.7-1.2-3.2-2-4.2c-0.8-0.7-2-1.5-3.6-2.6 C14.7,55.1,4.5,48.4,4.5,36C4.5,23.5,9.1,2.5,40,2.5s35.5,21,35.5,33.5c0,12.3-10.2,19.1-16.3,23.1c-1.6,1-2.8,1.8-3.5,2.5 c-0.8,1-1.4,2.5-2,4.2C51.8,70.8,49.2,77.5,40,77.5z"/><path fill="#8499ad" d="M40,3c30.5,0,35,20.7,35,33c0,12-10.1,18.7-16.1,22.7c-1.6,1-2.8,1.9-3.6,2.6l0,0l0,0 c-0.8,1-1.4,2.5-2.1,4.3C51.2,70.7,48.9,77,40,77s-11.2-6.3-13.2-11.3c-0.7-1.8-1.3-3.3-2.1-4.3l0,0l0,0c-0.7-0.7-2-1.5-3.6-2.6 C15.1,54.8,5,48.2,5,36c0-6.4,1.2-15.4,7-22.3C17.8,6.6,27.3,3,40,3 M40,2C11.2,2,4,20,4,36s16.7,22.8,20,26c2.8,3.4,3.2,16,16,16 s13.2-12.6,16-16c3.3-3.2,20-10.2,20-26S68.8,2,40,2L40,2z"/><path fill="#839cb2" d="M48.9,47.5c-2.2,0-3.6-0.3-4-0.4c-0.5-1.2-1.6-10.7,3.9-16.2c3.9-3.9,9.8-4.4,12.2-4.4 c2.3,0,3.8,0.4,4,0.5c0.5,0.7,1.9,10.4-3.9,16.2C57.4,46.9,51.9,47.5,48.9,47.5L48.9,47.5z"/><path fill="#66798f" d="M61,27c1.9,0,3.2,0.3,3.6,0.4c0.5,1.5,1.3,10.3-3.8,15.5c-3.6,3.6-9,4.1-11.9,4.1 c-1.8,0-3.1-0.2-3.6-0.3c-0.5-1.8-1.1-10.5,3.8-15.4C53,27.4,58.7,27,61,27 M61,26c-3.7,0-9,0.9-12.6,4.5 c-5.9,5.9-4.4,16.4-3.9,16.9c0.2,0.2,2,0.6,4.4,0.6c3.7,0,9-0.9,12.6-4.4c5.9-5.9,4.6-16.2,3.9-16.9C65.1,26.4,63.3,26,61,26 L61,26z"/><path fill="#b0c1d4" d="M51,42l-1,0c0-0.1,0.2-10,10-10v1C51.2,33,51,41.6,51,42z"/><path fill="#839cb2" d="M31.1,47.5c-3,0-8.5-0.6-12.2-4.3C13.1,37.4,14.5,27.7,15,27c0.2-0.1,1.6-0.5,4-0.5 c2.4,0,8.3,0.4,12.2,4.4c5.5,5.5,4.4,15,3.9,16.2C34.7,47.2,33.2,47.5,31.1,47.5z"/><path fill="#66798f" d="M19,27L19,27c2.3,0,8,0.4,11.8,4.2c4.9,4.9,4.3,13.6,3.8,15.4c-0.5,0.1-1.8,0.3-3.6,0.3 c-2.9,0-8.2-0.5-11.9-4.1c-5.1-5.1-4.3-14-3.8-15.5C15.8,27.3,17.1,27,19,27 M19,26c-2.3,0-4.1,0.4-4.4,0.7 c-0.7,0.7-2,11,3.9,16.9c3.6,3.6,8.8,4.4,12.6,4.4c2.4,0,4.1-0.4,4.4-0.6c0.6-0.6,2-11-3.9-16.9C28,26.9,22.7,26,19,26L19,26z"/><path fill="#b0c1d4" d="M29,42c0-0.4-0.2-9-9-9v-1c9.8,0,10,9.9,10,10L29,42z"/><path fill="#66798f" d="M46 62c0-2.9-4-8-4-8s0 6.9 0 8 .9 2 2 2S46 63.1 46 62zM34 62c0-2.9 4-8 4-8s0 6.9 0 8-.9 2-2 2S34 63.1 34 62z"/></svg>