<svg xmlns="http://www.w3.org/2000/svg" viewBox="0 0 80 80" width="30px" height="30px"><path fill="#e1ebf2" d="M40.064,61.5c-3.852,0-6.076-0.696-6.854-0.996c-0.26-0.1-0.462-0.293-0.57-0.545 c-0.114-0.267-0.112-0.569,0.006-0.853c0.711-1.707,1.874-5.69,0.926-7.113c-0.238-0.357-0.603-0.554-1.028-0.554h-3.833 c-1.198,0-2.173-1.009-2.173-2.25v-9.394l-0.142-0.146c-0.902-0.928-1.874-3.797-1.874-7.901c0-9.363,10.122-13.25,15.541-13.25 s15.541,3.887,15.541,13.25c0,3.887-0.968,6.917-1.925,7.901l-0.142,0.146v9.394c0,1.241-0.975,2.25-2.173,2.25h-3.782 c-0.424,0-0.788,0.196-1.025,0.552c-0.943,1.415,0.226,5.404,0.939,7.114c0.118,0.283,0.12,0.586,0.006,0.853 c-0.107,0.251-0.31,0.445-0.57,0.545C46.155,60.804,43.929,61.5,40.064,61.5z"/><path fill="#a3b7cc" d="M40.064,19c5.245,0,15.041,3.74,15.041,12.75c0,4.196-1.067,6.816-1.783,7.553l-0.283,0.291V40v9.19 c0,0.965-0.751,1.75-1.673,1.75h-3.782c-0.597,0-1.109,0.275-1.442,0.775c-1.358,2.037,0.871,7.529,0.894,7.584 c0.066,0.158,0.069,0.322,0.008,0.464c-0.038,0.089-0.119,0.209-0.29,0.275C46.002,60.327,43.846,61,40.064,61 c-3.768,0-5.923-0.673-6.674-0.962c-0.17-0.066-0.252-0.186-0.29-0.275c-0.06-0.141-0.058-0.306,0.008-0.464 c0.023-0.055,2.245-5.534,0.88-7.583c-0.334-0.501-0.846-0.776-1.444-0.776h-3.833c-0.923,0-1.673-0.785-1.673-1.75V40v-0.406 l-0.283-0.291c-0.696-0.716-1.732-3.319-1.732-7.553C25.023,22.74,34.819,19,40.064,19 M40.064,18 c-6.015,0-16.041,4.297-16.041,13.75c0,4.211,1.013,7.219,2.015,8.25v9.19c0,1.512,1.203,2.75,2.673,2.75h3.833 c1.673,0,0.643,4.571-0.359,6.974c-0.345,0.827,0.026,1.741,0.845,2.057C34.368,61.486,36.727,62,40.064,62 s5.712-0.514,7.049-1.029c0.819-0.315,1.19-1.23,0.845-2.057c-1.002-2.403-2.048-6.974-0.375-6.974h3.782 c1.47,0,2.673-1.238,2.673-2.75V40c1.003-1.031,2.066-4.039,2.066-8.25C56.105,22.297,46.079,18,40.064,18L40.064,18z"/><path fill="#f78f8f" d="M13.329,61.5c-10.496,0-11.028-8.668-11.028-10.406c0-2.855-0.517-3.663-1.237-4.115 c0.428-0.257,0.882-0.394,1.32-0.394c0.609,0,1.145,0.268,1.47,0.736l0.371,0.534l0.421-0.495c0.425-0.5,1.014-0.775,1.659-0.775 c0.514,0,1.015,0.18,1.4,0.493c-1.312,1.715-1.312,2.315-1.312,4.424c0,2.873,2.023,4.788,5.281,4.998c0,0,0.001,0,0.002,0 c0.138,0,4.825-0.096,4.825-5.499c0-7.015-6.499-7.494-8.018-7.509c-0.006-0.059-0.012-0.117-0.018-0.175 c-0.122-1.188-0.236-2.311-1.05-3.147c-0.451-0.463-1.537-1.135-2.496-1.729c-0.533-0.33-1.037-0.641-1.266-0.818 c-2.314-1.904-2.876-3.654-3.197-6.622C0.462,21.798,6.217,18.5,11.603,18.5c2.777,0,6.147,2.215,6.794,2.659 c0.339,0.233,0.632,0.342,0.919,0.342c0.318,0,0.611-0.137,0.872-0.406c0.107-0.11,0.431-0.276,0.691-0.41 c0.135-0.07,0.268-0.108,0.375-0.108c0.089,0,0.211,0,0.211,0.339c0.12,0.663,0.103,1.241,0.086,1.852 c-0.007,0.228-0.013,0.456-0.013,0.683V31.5h-5V26c0.003-0.039,0.028-0.681-0.562-1.311C15.238,23.9,13.897,23.5,11.993,23.5 c-1.356,0-4.51,0.536-4.51,5.5c0,2.906,1.69,4.959,4.521,5.491l3.479,0.008c-0.046,0.537-0.083,1.324,0.034,1.809 c0.133,1.273,1.086,2.109,1.927,2.847c0.261,0.229,0.521,0.456,0.756,0.698l0.985,1.013c2.521,2.368,4.338,6.045,4.338,8.759 C23.523,55.366,20.845,61.5,13.329,61.5z"/><path fill="#c74343" d="M11.603,19c2.038,0,4.782,1.385,6.512,2.572C18.535,21.86,18.928,22,19.316,22 c0.457,0,0.871-0.187,1.221-0.548c0.068-0.059,0.284-0.175,0.461-0.267c0.084,0.491,0.069,1.015,0.053,1.568 c-0.007,0.232-0.013,0.464-0.013,0.697V31h-4v-4.986c0.005-0.234-0.039-0.964-0.697-1.667C15.504,23.453,14.041,23,11.992,23 c-1.506,0-5.01,0.585-5.01,6c0,3.118,1.888,5.411,4.928,5.983L12.002,35h0.093h2.853c-0.02,0.461-0.014,0.97,0.067,1.357 c0.187,1.496,1.246,2.425,2.099,3.173c0.263,0.23,0.511,0.448,0.727,0.671l0.935,0.962l0.083,0.084 c2.413,2.266,4.164,5.79,4.164,8.378c0,2.668-0.699,11.375-9.694,11.375c-10.02,0-10.528-8.252-10.528-9.906 c0-2.143-0.286-3.27-0.827-3.959c0.138-0.033,0.276-0.05,0.411-0.05c0.45,0,0.826,0.185,1.06,0.522l0.741,1.067l0.842-0.99 c0.329-0.387,0.783-0.6,1.278-0.6c0.234,0,0.464,0.048,0.674,0.136c-1.04,1.468-1.085,2.233-1.085,4.281 c0,3.114,2.257,5.272,5.749,5.496L11.675,57h0.032c1.473,0,5.295-1.078,5.295-6c0-5.654-4.071-7.823-8.066-7.998 c-0.12-1.137-0.294-2.289-1.161-3.181c-0.459-0.472-1.364-1.046-2.592-1.806c-0.499-0.308-1.014-0.627-1.198-0.768 c-2.192-1.804-2.711-3.39-3.023-6.245C0.988,19.866,9.11,19,11.603,19 M11.603,18C6.256,18-0.038,21.151-0.038,31.055 c0.329,3.042,0.924,4.936,3.388,6.964c0.657,0.507,3.051,1.823,3.709,2.499c0.821,0.845,0.815,2.13,0.98,3.482 c0,0,0.133-0.009,0.366-0.009c1.563,0,7.598,0.426,7.598,7.009c0,4.555-3.638,5-4.295,5c-2.628-0.169-4.813-1.626-4.813-4.498 c0-2.197,0-2.607,1.479-4.465c-0.509-0.611-1.281-0.952-2.068-0.952c-0.736,0-1.484,0.298-2.039,0.952 c-0.424-0.611-1.112-0.952-1.881-0.952c-0.72,0-1.511,0.298-2.226,0.952c0.657,0.507,1.643,0.171,1.643,4.058 C1.802,52.277,2.048,62,13.329,62c8.328,0,10.694-7.047,10.694-12.375c0-2.977-1.989-6.768-4.479-9.107 c-0.329-0.338-0.657-0.676-0.986-1.014c-0.986-1.014-2.391-1.793-2.555-3.314C15.838,35.514,16.038,34,16.038,34s-1.922,0-3.943,0 c-2.741-0.516-4.113-2.508-4.113-5c0-3.724,1.838-5,4.01-5c4.177,0,4.046,2,4.046,2v6h6c0,0,0-5.339,0-8.549 c0-0.845,0.092-1.69-0.073-2.535c0-0.577-0.307-0.839-0.711-0.839c-0.187,0-0.395,0.056-0.603,0.163 c-0.329,0.169-0.657,0.338-0.821,0.507C19.665,20.916,19.501,21,19.316,21s-0.39-0.084-0.637-0.253 C17.694,20.071,14.387,18,11.603,18L11.603,18z"/><path fill="#66798f" d="M36.043 38c0 0-3.991.267-4.922.8-1.064.533-1.064 1.333-1.064 2.533 0 0-.399 4.667 2.528 4.667 3.326-.133 5.454-3.6 5.454-5.733l0 0C38.038 38.933 37.107 38 36.043 38zM42.038 40.267L42.038 40.267c0 2.133 2.128 5.6 5.454 5.733 2.927 0 2.528-4.667 2.528-4.667 0-1.2 0-2-1.064-2.533-.931-.533-4.922-.8-4.922-.8C42.969 38 42.038 38.933 42.038 40.267zM40.038 46c0 0-2-.16-2 6.4 0 .96.4 1.6 1 1.6.6 0 1-.8 1-1.6 0 .8.4 1.6 1 1.6.6 0 1-.64 1-1.6C42.038 52.4 41.938 46 40.038 46z"/><g><path fill="#f78f8f" d="M59.968,61.5c-0.912,0-1.633-0.32-1.979-0.879l-0.337-0.545l-0.446,0.459 c-0.243,0.25-1.199,0.963-2.367,0.963c-0.741,0-1.416-0.297-2.012-0.886c2.464-1.3,3.903-6.878,4.569-10.306 c0.245-1.176,0.492-2.316,0.738-3.457c0.244-1.128,0.487-2.257,0.731-3.426c0.377-0.855,0.009-1.824-0.358-2.579 c-0.285-0.586-0.578-1.19-0.985-1.802c0.157-0.179,0.338-0.339,0.514-0.496c0.137-0.122,0.267-0.238,0.38-0.354 c1.292-0.99,2.236-2.602,2.602-4.488c0.331-1.7,0.655-3.534,0.979-5.367c0.318-1.803,0.637-3.605,0.962-5.279 c0.16-0.424,0.276-1.489-0.12-2.442c-0.224-0.538-0.584-0.968-1.059-1.268c0.579-0.603,1.282-0.848,2.345-0.848 c1.276,0,2.017,0.835,2.801,1.719l0.468,0.528l0.343-0.617c0.36-0.649,2.059-1.63,3.798-1.63c0.424,0,0.812,0.06,1.16,0.179 c-1.017,1.291-0.987,3.147-0.975,3.908l0.002,0.18c0.229,2.611,0.614,5.279,0.987,7.859c0.173,1.195,0.345,2.384,0.5,3.557 c0.181,1.491,1.063,2.581,1.916,3.634c0.222,0.347,0.535,0.631,0.865,0.932c0.067,0.062,0.136,0.124,0.206,0.189 c-0.072,0.12-0.139,0.233-0.205,0.347c-0.12,0.206-0.24,0.412-0.4,0.659c-0.983,1.261-1.417,2.472-1.266,3.563 c0.422,2.932,1.012,5.626,1.637,8.478c0.351,1.599,0.707,3.225,1.04,4.929c0.455,2.33,1.478,3.078,2.173,3.445 c-0.687,0.725-1.413,1.092-2.164,1.092l0,0c-0.691,0-1.417-0.319-2.16-0.948l-0.336-0.285l-0.325,0.297 c-0.469,0.429-1.016,0.655-1.583,0.655c-0.715,0-1.408-0.354-1.906-0.961c1.161-1.654,1.36-3.391,0.651-5.578 c-0.313-1.293-1.379-6.674-1.389-6.728l-0.08-0.403h-6.826l-0.087,0.391c-0.729,3.247-1.597,7.351-1.782,8.689 c-0.155,1.434,0.21,3.139,1.176,3.965C61.964,61.093,60.987,61.5,59.968,61.5z M66.309,31.899 c-0.019,0.093-1.924,9.321-2.084,9.983l-0.15,0.618h4.946l-1.764-11h-0.833L66.309,31.899z"/><path fill="#c74343" d="M71.534,19c0.12,0,0.236,0.005,0.348,0.016c-0.699,1.327-0.674,2.881-0.663,3.578l0.002,0.172v0.044 l0.004,0.044c0.228,2.581,0.614,5.257,0.988,7.844c0.172,1.193,0.344,2.38,0.497,3.539c0.197,1.621,1.148,2.811,1.997,3.859 c0.253,0.376,0.553,0.664,0.851,0.935c-0.001,0.001-0.001,0.002-0.002,0.003c-0.11,0.189-0.221,0.379-0.364,0.602 c-1.074,1.393-1.533,2.718-1.363,3.942c0.425,2.948,1.017,5.651,1.644,8.513c0.347,1.583,0.706,3.22,1.037,4.917 c0.38,1.947,1.161,2.901,1.843,3.42c-0.389,0.301-0.844,0.521-1.343,0.521c-0.569,0-1.187-0.279-1.837-0.83l-0.672-0.569 l-0.65,0.594c-0.38,0.348-0.8,0.524-1.246,0.524c-0.456,0-0.903-0.187-1.27-0.517c1.035-1.671,1.193-3.484,0.503-5.639 c-0.33-1.376-1.376-6.655-1.386-6.708L70.293,47h-0.821h-6.015h-0.801l-0.175,0.781c-0.73,3.257-1.602,7.378-1.793,8.76 c-0.147,1.363,0.158,2.973,0.974,3.989C61.276,60.793,60.649,61,59.968,61c-0.348,0-1.195-0.063-1.554-0.642l-0.674-1.09 l-0.893,0.919c-0.247,0.254-1.096,0.811-2.008,0.811c-0.421,0-0.812-0.115-1.178-0.349c2.151-1.759,3.465-6.336,4.223-10.234 c0.247-1.184,0.493-2.326,0.74-3.467c0.24-1.112,0.48-2.223,0.72-3.373c0.425-1.026,0.021-2.11-0.387-2.948 c-0.24-0.494-0.486-0.999-0.799-1.516c0.068-0.063,0.139-0.126,0.212-0.191c0.126-0.112,0.246-0.219,0.353-0.326 c1.413-1.113,2.402-2.813,2.787-4.794c0.331-1.703,0.66-3.565,0.978-5.366c0.312-1.765,0.634-3.59,0.957-5.255 c0.181-0.55,0.292-1.707-0.144-2.755c-0.175-0.42-0.419-0.784-0.726-1.084c0.399-0.242,0.882-0.34,1.55-0.34 c0.98,0,1.571,0.586,2.427,1.551l0.937,1.056l0.685-1.234C68.407,19.953,69.918,19,71.534,19 M63.438,43h1.272h3.724h1.173 l-0.186-1.158l-1.604-10L67.651,31h-0.852h-0.815l-0.165,0.798c-0.664,3.219-1.954,9.443-2.081,9.966L63.438,43 M71.534,18 c-1.838,0-3.76,1.032-4.235,1.887C66.464,18.945,65.607,18,64.125,18c-1.317,0-2.306,0.339-3.129,1.525 c1.976,0.678,1.647,3.049,1.482,3.388c-0.659,3.388-1.291,7.308-1.95,10.696c-0.329,1.694-1.153,3.219-2.47,4.235 c-0.329,0.339-0.823,0.678-1.153,1.186c0.494,0.678,0.824,1.355,1.153,2.033c0.329,0.678,0.659,1.525,0.329,2.202 c-0.494,2.372-0.988,4.574-1.482,6.946c-0.659,3.388-2.306,9.826-4.941,10.164c0.911,1.225,1.941,1.623,2.875,1.623 c1.261,0,2.347-0.725,2.725-1.114C58.047,61.665,58.995,62,59.968,62c1.347,0,2.744-0.641,3.031-1.624 c-0.988-0.508-1.482-2.202-1.318-3.727c0.179-1.291,1.033-5.341,1.775-8.649h6.015c0,0,1.075,5.43,1.404,6.785 c0.659,2.033,0.522,3.727-0.795,5.421c0.593,0.915,1.542,1.464,2.526,1.464c0.656,0,1.328-0.244,1.921-0.786 c0.923,0.782,1.757,1.067,2.483,1.067c1.477,0,2.51-1.177,2.952-1.744c-0.494-0.339-1.91-0.521-2.47-3.388 c-0.918-4.701-2.014-8.806-2.673-13.38c-0.165-1.186,0.532-2.375,1.191-3.221c0.329-0.508,0.494-0.847,0.823-1.355 c-0.494-0.508-0.988-0.847-1.317-1.355c-0.824-1.016-1.647-2.033-1.812-3.388c-0.494-3.727-1.153-7.623-1.482-11.35 c0-0.678-0.165-3.049,1.317-4.235C72.942,18.154,72.244,18,71.534,18L71.534,18z M64.71,42c0.165-0.678,2.089-10,2.089-10h0.031 l1.604,10H64.71L64.71,42z"/></g></svg>