<svg xmlns="http://www.w3.org/2000/svg" viewBox="0 0 80 80" width="30px" height="30px"><path fill="#b08159" d="M9.437,71.5C9.108,69.038,7.5,56.664,7.5,50c0-28.239,8.919-38.198,13.635-39.519 c1.598-0.447,3.177-1.57,5.005-2.871C29.342,5.334,33.327,2.5,39,2.5s9.658,2.834,12.86,5.11c1.829,1.301,3.408,2.424,5.005,2.871 C61.581,11.802,70.5,21.761,70.5,50c0,6.664-1.608,19.038-1.937,21.5H9.437z"/><path fill="#a16a4a" d="M39,3c5.514,0,9.262,2.666,12.57,5.018c1.867,1.327,3.479,2.474,5.16,2.945 c0.419,0.117,4.196,1.345,7.707,8.238C68.129,26.446,70,36.809,70,50c0,6.306-1.45,17.775-1.875,21H9.875 C9.45,67.775,8,56.307,8,50c0-13.191,1.871-23.554,5.562-30.799c3.511-6.893,7.288-8.121,7.707-8.238 c1.682-0.471,3.294-1.617,5.16-2.945C29.738,5.666,33.486,3,39,3 M39.021,2c0,0-0.006,0-0.021,0C39.01,2,39.021,2,39.021,2 L39.021,2z M39,2c-8.982,0-13.682,6.791-18,8c-3.543,0.992-14,9.001-14,40c0,7.507,2,22,2,22h60c0,0,2-14.493,2-22 c0-30.999-10.457-39.008-14-40C52.682,8.791,47.982,2,39,2L39,2z M39,2c-0.01,0-0.021,0-0.021,0S38.985,2,39,2L39,2z"/><path fill="#a16a4a" d="M61.923,51.409c0.06-1.671,0.642-21.411-5.087-32.4l-0.012-0.023l-0.013-0.022	C55.33,16.445,52.847,15,50,15c-1.268,0-2.672,0.386-4.297,0.832C43.71,16.379,41.451,17,39,17s-4.71-0.621-6.703-1.168	C30.672,15.386,29.268,15,28,15c-2.847,0-5.33,1.445-6.812,3.964l-0.013,0.022l-0.012,0.023c-5.728,10.989-5.147,30.729-5.087,32.4	c-0.097,0.787-0.102,1.722-0.015,2.781c0.197,2.38,0.847,5.012,1.545,6.257l0.013,0.024l0.015,0.023	c1.574,2.479,5.339,7.616,9.518,11.505h1.464c-4.241-3.735-8.305-9.153-10.138-12.041c-0.616-1.099-1.232-3.574-1.42-5.851	c-0.079-0.958-0.083-1.882,0.02-2.653c0,0-0.831-20.854,4.971-31.984C23.275,17.388,25.375,16,28,16s6.45,2,11,2s8.375-2,11-2	s4.725,1.388,5.95,3.471c5.802,11.13,4.971,31.984,4.971,31.984c0.104,0.771,0.1,1.695,0.02,2.653	c-0.189,2.277-0.805,4.751-1.42,5.851C57.688,62.847,53.624,68.265,49.383,72h1.464c4.18-3.889,7.944-9.027,9.518-11.505	l0.015-0.023l0.013-0.024c0.698-1.245,1.347-3.877,1.545-6.257C62.026,53.131,62.021,52.196,61.923,51.409z"/><path fill="#b2acd1" d="M18.115,52.5c-3.561,0-5.603-2.457-5.603-6.74l-0.006-1.035c-0.026-2.985-0.052-6.072,1.708-7.848 c0.906-0.914,2.218-1.377,3.901-1.377c0.248,0,0.452,0.024,0.657,0.049l0.271,0.03l0.514,0.044l-0.06,0.513 c-0.756,6.427-0.854,12.693-0.844,15.857l0.001,0.501h-0.501L18.115,52.5z"/><path fill="#a16a4a" d="M18.115,36c0.339,0,0.589,0.052,0.885,0.077c-0.749,6.365-0.857,12.531-0.848,15.917 c-0.013,0-0.025,0.006-0.038,0.006c-2.892,0-5.103-1.76-5.103-6.24S12.502,36,18.115,36 M18.115,35 c-1.821,0-3.253,0.513-4.256,1.525c-1.906,1.923-1.879,5.116-1.852,8.204c0.003,0.346,0.006,0.691,0.006,1.031 c0,6.535,4.268,7.24,6.103,7.24h0.112l0.031-0.007l0.897-0.009l-0.003-0.993c-0.009-3.153,0.088-9.397,0.841-15.797l0.121-1.026 l-1.029-0.087c-0.088-0.007-0.172-0.018-0.255-0.028C18.628,35.028,18.399,35,18.115,35L18.115,35z"/><path fill="#b2acd1" d="M59.586,52.5l-0.09-0.017h-0.518l0.084-0.512c0.002-0.074,0.249-7.533-0.56-15.87l-0.05-0.518 l0.52-0.029c0.08-0.005,0.153-0.014,0.225-0.022c0.138-0.017,0.275-0.032,0.442-0.032c2.123,0,3.604,0.454,4.529,1.388 c1.371,1.385,1.35,3.561,1.326,6.081L65.487,44c0,4.767-2.569,8.5-5.849,8.5H59.586z"/><path fill="#a16a4a" d="M59.639,36c5.883,0,5.349,3.52,5.349,8s-2.318,8-5.349,8c-0.027,0-0.05-0.011-0.077-0.011 c0.002-0.07,0.255-7.519-0.562-15.936C59.223,36.041,59.394,36,59.639,36 M59.639,35c-0.188,0-0.343,0.017-0.498,0.035 c-0.063,0.008-0.125,0.016-0.194,0.019l-1.042,0.056l0.101,1.039c0.807,8.32,0.561,15.73,0.558,15.804l-0.036,1.016l0.944,0.018 C59.516,52.994,59.574,53,59.639,53c3.619,0,6.349-3.869,6.349-9c0-0.349,0.003-0.691,0.006-1.027 c0.025-2.632,0.047-4.905-1.471-6.437C63.499,35.502,61.902,35,59.639,35L59.639,35z"/><path fill="#dcd5f2" d="M60.921,51.455c0,0,0.831-20.854-4.971-31.984C54.725,17.388,52.625,16,50,16s-6.45,2-11,2	s-8.375-2-11-2s-4.725,1.388-5.95,3.471c-5.802,11.13-4.971,31.984-4.971,31.984c-0.104,0.771-0.1,1.695-0.02,2.653	c0.189,2.277,0.805,4.751,1.42,5.851C21.454,64.645,30.3,76,36.25,76h2.547L39,75.99L39.203,76h2.547	c5.95,0,14.796-11.355,17.771-16.041c0.616-1.099,1.232-3.574,1.42-5.851C61.021,53.149,61.025,52.226,60.921,51.455z"/><path fill="#8b75a1" d="M47 64H31v-2c0 0 3.844-2 8-2s8 2 8 2V64zM41.75 76h-2.547L39 75.99 38.797 76H36.25c-2.283 0-4.992-1.674-7.633-4h-1.464c3.041 2.83 6.3 5 9.097 5h2.547l.2-.009.156.008L41.75 77c2.797 0 6.057-2.17 9.097-5h-1.464C46.742 74.326 44.033 76 41.75 76z"/><path fill="#b2acd1" d="M56,48.007c0,0.023-0.01,2.279-1.453,3.727C53.709,52.574,52.516,53,51,53	c-1.18,0-2.191-0.438-3.089-1.339C44.72,48.46,44.132,40.752,44.024,38L43,37c0,0-0.063,17,8,17c6.063,0,6-6,6-6h-1V48.007z"/><g><path fill="#4b6477" d="M50,41.5c-2.733,0-6.5-2.491-6.5-4.3c0-1.762,3.775-2.7,6.5-2.7c3.083,0,5.604,3.186,6.351,4.234 C54.324,40.632,51.675,41.5,50,41.5z"/><path fill="#36404d" d="M50,35c2.563,0,4.752,2.451,5.679,3.665C53.679,40.366,51.252,41,50,41c-2.59,0-6-2.39-6-3.8 C44,35.961,47.225,35,50,35 M50,34c-2.8,0-7,0.96-7,3.2s4.2,4.8,7,4.8c1.8,0,4.8-0.96,7-3.2C57,38.8,54,34,50,34L50,34z"/></g><path fill="#b2acd1" d="M22,48.007c0,0.023,0.01,2.279,1.453,3.727C24.291,52.574,25.485,53,27,53	c1.18,0,2.191-0.438,3.089-1.339C33.28,48.46,33.868,40.752,33.976,38L35,37c0,0,0.063,17-8,17c-6.063,0-6-6-6-6h1V48.007z"/><g><path fill="#4b6477" d="M28,41.5c-1.675,0-4.324-0.868-6.351-2.766C22.396,37.686,24.917,34.5,28,34.5 c2.725,0,6.5,0.938,6.5,2.7C34.5,39.009,30.733,41.5,28,41.5z"/><path fill="#36404d" d="M28,35c2.775,0,6,0.961,6,2.2c0,1.41-3.41,3.8-6,3.8c-1.252,0-3.679-0.634-5.679-2.335 C23.249,37.45,25.437,35,28,35 M28,34c-4,0-7,4.8-7,4.8c2.2,2.24,5.2,3.2,7,3.2c2.8,0,7-2.56,7-4.8S30.8,34,28,34L28,34z"/></g></svg>