<svg xmlns="http://www.w3.org/2000/svg" viewBox="0 0 80 80" width="30px" height="30px"><path fill="#f5ce85" d="M40,77.5c-24.125,0-30.244-4.465-31.369-5.544C9.93,69.95,16.384,59.053,16.499,40.5h17.594 c0.254,3.036,2.807,5.429,5.908,5.429s5.653-2.393,5.908-5.429h17.594c0.114,18.557,6.571,29.455,7.868,31.457 C70.258,73.025,64.152,77.5,40,77.5z"/><path fill="#967a44" d="M63.006,41c0.211,17.693,5.988,28.146,7.713,30.878C69.118,73.167,62.458,77,40,77 c-22.377,0-29.096-3.846-30.714-5.129c1.73-2.743,7.497-13.193,7.708-30.871h16.655c0.482,3.071,3.146,5.429,6.351,5.429 s5.869-2.357,6.351-5.429H63.006 M64,40H45.429c0,2.998-2.43,5.429-5.429,5.429s-5.429-2.43-5.429-5.429H16c0,20.923-8,32-8,32 s3.839,6,32,6s32-6,32-6S64,60.923,64,40L64,40z"/><path fill="#ffdea3" d="M40,77.5c-3.349,0-6.51-1.648-8.457-4.408l-0.079-0.112l-0.125-0.056 c-5.204-2.333-8.803-6.867-10.697-13.478c1.205-5.308,1.83-11.679,1.857-18.946h11.593c0.254,3.036,2.807,5.429,5.908,5.429 s5.653-2.393,5.908-5.429h11.593c0.027,7.267,0.652,13.638,1.857,18.946c-1.895,6.611-5.493,11.145-10.697,13.478l-0.125,0.056 l-0.079,0.112C46.51,75.852,43.349,77.5,40,77.5z"/><path fill="#967a44" d="M57.004,41c0.053,7.04,0.671,13.234,1.838,18.431c-1.861,6.396-5.355,10.781-10.386,13.037 l-0.25,0.112l-0.158,0.224C46.195,75.431,43.187,77,40,77s-6.195-1.569-8.048-4.196l-0.158-0.224l-0.25-0.112 c-5.032-2.256-8.525-6.641-10.386-13.037C22.325,54.234,22.943,48.04,22.996,41h10.653c0.482,3.071,3.146,5.429,6.351,5.429 s5.869-2.357,6.351-5.429H57.004 M58,40H45.429c0,2.998-2.43,5.429-5.429,5.429s-5.429-2.43-5.429-5.429H22 c0,8.407-0.789,14.731-1.874,19.46c1.756,6.22,5.194,11.313,11.009,13.92C33.1,76.168,36.33,78,40,78s6.9-1.832,8.865-4.62 c5.815-2.607,9.253-7.7,11.009-13.92C58.789,54.731,58,48.407,58,40L58,40z"/><path fill="#66798f" d="M48.452,51.5c-1.876,0-3.469-1.306-3.877-3.107l10.557-1.743C54.283,48.23,52.086,51.5,48.452,51.5z"/><path fill="#36404d" d="M54.163,47.317C53.142,48.891,51.251,51,48.451,51c-1.457,0-2.717-0.901-3.232-2.207L54.163,47.317 M56,46l-12,1.981C44.243,50.237,46.131,52,48.451,52C53.627,52,56,46,56,46L56,46z"/><path fill="#66798f" d="M31.548,51.5c-3.644,0-5.836-3.271-6.682-4.85l10.559,1.743C35.017,50.194,33.425,51.5,31.548,51.5z"/><path fill="#36404d" d="M25.844,47.318l8.936,1.475C34.266,50.099,33.005,51,31.549,51 C28.765,51,26.871,48.892,25.844,47.318 M24,46c0,0,2.373,6,7.549,6c2.32,0,4.208-1.763,4.451-4.019L24,46L24,46z"/><path fill="#66798f" d="M62,32h-2v-2h2c5.978,0,6-6,6-6V14c0-5.935,5.886-5.957,5.886-5.957L76,8v2h-2c0,0-4,0.234-4,4v10	C70,24,70.039,32,62,32z"/><path fill="#36404d" d="M62,34h-2v-2h2c8.039,0,8-8,8-8v-4c0-5.935,5.886-5.957,5.886-5.957L76,14v2l0,0c0,0-4,0.234-4,4v4	C72,24,72.208,34,62,34z"/><path fill="#a3b7cc" d="M62,30h-2v-2h2c4.134,0,4-4,4-4V10c0-8.058,8-8,8-8h2v2h-2c0,0-6,0.161-6,6v14C68,24,67.978,30,62,30	z"/><path fill="#66798f" d="M18,32h2v-2h-2c-5.978,0-6-6-6-6V14c0-5.935-5.886-5.957-5.886-5.957L4,8v2h2c0,0,4,0.234,4,4v10	C10,24,9.961,32,18,32z"/><path fill="#36404d" d="M18,34h2v-2h-2c-8.039,0-8-8-8-8v-4c0-5.935-5.886-5.957-5.886-5.957L4,14v2l0,0c0,0,4,0.234,4,4v4	C8,24,7.792,34,18,34z"/><path fill="#a3b7cc" d="M18,30h2v-2h-2c-4.134,0-4-4-4-4V10c0-8.058-8-8-8-8H4v2h2c0,0,6,0.161,6,6v14C12,24,12.022,30,18,30	z"/><g><path fill="#e1ebf2" d="M40,47.643c-3.353,0-6.146-2.923-7.173-5.811L32.709,41.5H16.5V40 c0-15.227,9.707-19.97,16.795-23.434c3.076-1.503,5.658-2.766,6.705-4.572c1.047,1.806,3.629,3.068,6.705,4.572 C53.793,20.03,63.5,24.773,63.5,40v1.5H47.291l-0.118,0.333C46.146,44.72,43.353,47.643,40,47.643z"/><path fill="#a3b7cc" d="M40,12.885c1.286,1.589,3.689,2.764,6.486,4.13C53.455,20.421,63,25.086,63,40v1H47.644h-0.706 l-0.236,0.665c-0.968,2.722-3.581,5.478-6.702,5.478s-5.734-2.756-6.702-5.478L33.062,41h-0.706H17v-1 c0-14.914,9.545-19.579,16.514-22.985C36.311,15.648,38.714,14.474,40,12.885 M40,10.143C40,17.437,16,15.911,16,40v2h16.356 c1.122,3.155,4.104,6.143,7.644,6.143s6.522-2.987,7.644-6.143H64v-2C64,15.911,40,17.437,40,10.143L40,10.143z"/></g><g><path fill="#e1ebf2" d="M40,47.5c-3.4,0-6.375-2.313-7.233-5.625L32.669,41.5H16.5V40c0-15.227,9.707-19.97,16.795-23.434 c3.076-1.503,5.658-2.766,6.705-4.572c1.047,1.806,3.629,3.068,6.705,4.572C53.793,20.03,63.5,24.773,63.5,40v1.5H47.331 l-0.097,0.375C46.375,45.187,43.4,47.5,40,47.5z"/><path fill="#a3b7cc" d="M40,12.885c1.286,1.589,3.689,2.764,6.486,4.13C53.455,20.421,63,25.086,63,40v1H47.717h-0.774 l-0.194,0.749C45.948,44.841,43.173,47,40,47s-5.948-2.159-6.749-5.251L33.057,41h-0.774H17v-1 c0-14.914,9.545-19.579,16.514-22.985C36.311,15.648,38.714,14.474,40,12.885 M40,10.143C40,17.437,16,15.911,16,40v2h16.283 c0.892,3.444,3.994,6,7.717,6s6.825-2.556,7.717-6H64v-2C64,15.911,40,17.437,40,10.143L40,10.143z"/></g><g><path fill="#b0c1d4" d="M40,47.5c-3.4,0-6.375-2.313-7.233-5.625L32.669,41.5H16.5V40c0-1.929,0.163-3.776,0.484-5.5h46.032 c0.321,1.724,0.484,3.571,0.484,5.5v1.5H47.331l-0.097,0.375C46.375,45.187,43.4,47.5,40,47.5z"/><path fill="#66798f" d="M62.598,35C62.865,36.575,63,38.253,63,40v1H47.717h-0.774l-0.194,0.749 C45.948,44.841,43.173,47,40,47s-5.948-2.159-6.749-5.251L33.057,41h-0.774H17v-1c0-1.747,0.135-3.425,0.402-5H62.598 M63.428,34 H16.572C16.205,35.804,16,37.792,16,40v2h16.283c0.892,3.444,3.994,6,7.717,6s6.825-2.556,7.717-6H64v-2 C64,37.792,63.795,35.804,63.428,34L63.428,34z"/></g></svg>