<svg xmlns="http://www.w3.org/2000/svg" viewBox="0 0 80 80" width="30px" height="30px"><path fill="#f78f8f" d="M23.5,77.5l7-5.25v-48.5l-7-5.25H50c4.587,0,14.132,0,20.584,9.708 C73.848,32.935,75.5,39.592,75.5,48v1.035C75.106,77.5,56.21,77.5,50,77.5H23.5z M37.5,72.5l13.231,0c5.897,0,15.769,0,15.769-24.5 c0-8.794-1.035-14.473-3.46-18.989c-3.089-5.094-7.546-5.519-11.481-5.519L50,23.5H37.5V72.5z"/><path fill="#c74343" d="M50,19c4.5,0,13.864,0,20.177,9.499C73.377,33.134,75,39.695,75,48l0,1.021 c-0.166,11.999-3.628,20.247-10.29,24.517C59.307,77,53.021,77,50,77H25l5.6-4.2l0.4-0.3V72V24v-0.5l-0.4-0.3L25,19H50 M37,73h1h12 l0.357,0l0.375,0C58.602,73.001,67,71.069,67,48c0-8.883-1.052-14.633-3.519-19.225l-0.012-0.023l-0.014-0.022 c-3.48-5.736-8.956-5.736-11.897-5.736c-0.278,0-0.552,0.002-0.82,0.004C50.486,22.998,50.24,23,50,23H38h-1v1v48V73 M50,18H22l8,6 v48l-8,6h28c6.4,0,25.6,0,26-28.966c0-0.414,0-0.621,0-1.034c0-9.31-2-15.724-5-20.069C64.4,18,54.6,18,50,18L50,18z M38,72V24h12 c0.495,0,1.017-0.007,1.558-0.007c3.607,0,8.049,0.321,11.042,5.255C64.6,32.972,66,38.069,66,48 c0,23.547-9.06,24.001-15.269,24.001C50.483,72.001,50.239,72,50,72H38L38,72z"/><path fill="#f78f8f" d="M5.5,61.5l7-5.25V7.75l-7-5.25H32c4.587,0,14.132,0,20.584,9.708C55.848,16.935,57.5,23.592,57.5,32 v1.035C57.106,61.5,38.21,61.5,32,61.5H5.5z M19.5,56.5h12.673c6.106,0,16.327,0,16.327-24.5c0-8.794-1.035-14.473-3.46-18.989 C42.227,7.925,37.056,7.5,32,7.5H19.5V56.5z"/><path fill="#c74343" d="M32,3c4.5,0,13.864,0,20.177,9.499C55.377,17.134,57,23.695,57,32l0,1.021 c-0.166,11.999-3.628,20.247-10.29,24.517C41.307,61,35.021,61,32,61H7l5.6-4.2l0.4-0.3V56V8V7.5l-0.4-0.3L7,3H32 M19,57h1h12 h0.086h0.087C38.467,57,49,57,49,32c0-8.883-1.052-14.633-3.525-19.236C42.286,7,36.096,7,32,7H20h-1v1v48V57 M32,2H4l8,6v48l-8,6 h28c6.4,0,25.6,0,26-28.966c0-0.414,0-0.621,0-1.034c0-9.31-2-15.724-5-20.069C46.4,2,36.6,2,32,2L32,2z M20,56V8h12 c4.755,0,9.852,0.282,12.6,5.248C46.6,16.972,48,22.069,48,32c0,23.889-9.619,24-15.827,24c-0.058,0-0.116,0-0.173,0H20L20,56z"/><path fill="#f78f8f" d="M30 52H37V64H30z"/><path fill="#c74343" d="M30 52H31V64H30zM37 52H38V64H37z"/></svg>