<svg xmlns="http://www.w3.org/2000/svg" viewBox="0 0 80 80" width="30px" height="30px"><path fill="#c2e8ff" d="M52,77.5c-16.4,0-26.6-10.9-29.5-31.6l-0.1-0.4l-0.4-0.1C14.4,44,8.5,38.1,8.5,34 c0-6.4,10.7-12.1,25.4-13.5l6.1,3.8l6.1-3.8c14.7,1.4,25.4,7,25.4,13.5c0,3.9-5.2,10.2-13.6,11.5l-0.2,0l-0.4,0.6 c-3.3,5.6-11.2,18.7-3.6,24.3c3.1,1.9,6.1,2.9,9,2.9c1.8,0,3.2-0.4,4.4-0.8C64.5,74.7,59.7,77.5,52,77.5z"/><path fill="#7496c4" d="M33.8,21l5.7,3.5l0.5,0.3l0.5-0.3l5.7-3.5C60.6,22.4,71,27.8,71,34c0,3.6-5.1,9.8-13.2,11l-0.5,0.1 l-0.2,0.4l-0.2,0.4c-3.4,5.7-11.4,19.1-3.5,24.9l0,0l0,0c3.2,1.9,6.3,2.9,9.2,2.9c0.7,0,1.4-0.1,2-0.2C62,75.4,57.9,77,52,77 c-16.1,0-26.1-10.8-29-31.1l-0.1-0.7L22.2,45C14.8,43.6,9,37.9,9,34C9,27.8,19.4,22.4,33.8,21 M46,20l-6,3.7L34,20 C19.6,21.3,8,26.9,8,34c0,4.5,6.2,10.5,14,12c1,6.9,5.1,32,30,32c13.2,0,18-8,18-8s-2.6,2.8-7.3,2.8c-2.4,0-5.3-0.7-8.7-2.8 c-7.3-5.4,0.9-18.7,4-24c8.4-1.3,14-7.7,14-12C72,26.9,60.4,21.3,46,20L46,20z"/><path fill="#f78f8f" d="M46.7,77.1c-5.2-0.9-9.7-3.1-13.4-6.5c4.8-0.1,12.9-0.7,17.3-5.3c0.1,0.7,0.3,1.3,0.5,1.9 c0.4,1.1,1,2,1.9,2.7l0.1,0.1c0.1,0,0.1,0.1,0.2,0.1l0.1,0.1c0.1,0.1,0.2,0.2,0.3,0.3c0.9,0.5,1.8,1,2.6,1.4 C54.2,73.9,51.2,76.2,46.7,77.1z"/><path fill="#c74343" d="M50.3,66.3c0.1,0.4,0.2,0.7,0.3,1.1c0.4,1.2,1.1,2.2,2,2.9l0.1,0.1l0,0c0.1,0.1,0.1,0.1,0.2,0.2l0,0 l0,0c0.1,0.1,0.2,0.2,0.4,0.3l0,0l0,0c0.7,0.4,1.3,0.8,2,1.1c-2,1.9-4.8,3.8-8.8,4.6C42,75.8,38,73.9,34.6,71 C39.2,70.8,46.1,70,50.3,66.3 M51,64.1c-4.4,5.7-14.2,5.9-18.9,6c3.5,3.6,8.2,6.5,14.5,7.5c5-1,8.3-3.7,10.5-5.9 c-1-0.4-2.1-0.9-3.2-1.6c-0.1-0.1-0.3-0.2-0.4-0.3c0,0,0,0,0,0c-0.1-0.1-0.1-0.1-0.2-0.2c0,0,0,0,0,0c-0.8-0.7-1.4-1.5-1.7-2.5 C51.3,66.1,51.1,65.1,51,64.1L51,64.1z"/><path fill="#7496c4" d="M22,46v-1c9.9,0,15.1-4.3,19.8-8.1c3.7-3,7.2-5.9,12.2-5.9v1c-4.7,0-7.9,2.6-11.6,5.6 C37.6,41.6,32.2,46,22,46z"/><path fill="#ffeea3" d="M40.5,37.3c-0.3-6.4-2.9-10.2-4.3-11.8h13.7c0.6,0.3,3.3,2.1,3.6,5c-5,0.2-8.4,3-12,5.9L40.5,37.3z"/><path fill="#f5c276" d="M49.7,26c0.6,0.4,2.7,1.8,3.2,4.1c-4.9,0.4-8.3,3.2-11.7,6l-0.3,0.2c-0.4-5.1-2.3-8.4-3.7-10.3 L49.7,26 M50,25c0,0-6.2,0-15,0c0,0,5,4.1,5,13.3c0.2-0.2,0.5-0.3,0.7-0.5c0.3-0.2,0.5-0.4,0.8-0.6c3.7-3,7.2-6.1,12.3-6.1 c0.1,0,0.2,0,0.2,0C54,27.1,50,25,50,25L50,25z"/><path fill="#7496c4" d="M58 46h-1.7c-7.8 0-12.3-3.1-16.7-6l-.4-.2.6-.8.4.2C44.4 42 48.8 45 56.3 45H58V46zM9 34H8c.1-.4.6-10 18-10 15.2 0 24 0 24 0v1c0 0-8.8 0-24 0C10.1 25 9 33.9 9 34z"/><g><path fill="#c2e8ff" d="M34,20l6,3.7l6-3.7c0,0,0-7.5,0-8c-2.8-2-6-6-6-6s-3.3,4.1-6,6C34,12.5,34,20,34,20z"/></g><g><path fill="#f78f8f" d="M46.5,11.7l-0.2-0.1c-2.7-1.9-5.9-5.9-5.9-5.9L40,5.2l-0.4,0.5c0,0-3.2,4-5.9,5.9l-0.2,0.1v1.5 c-1.5-0.8-3-2.3-3-4.4c0-3.6,4-6.3,9.5-6.3c5.5,0,9.5,2.6,9.5,6.3c0,2-1.1,3.6-3,4.5V11.7z"/><path fill="#c74343" d="M40,3c5.1,0,9,2.5,9,5.8c0,1.8-0.9,2.9-2,3.6v-0.3V12v-0.5l-0.4-0.3c-2.7-1.9-5.8-5.8-5.8-5.8 l-0.8-1l-0.8,1c0,0-3.2,4-5.8,5.8L33,11.5V12v0.2v0.2c-1.1-0.8-2-2-2-3.5C31,5.5,34.9,3,40,3 M40,2c-6,0-10,3-10,6.8 c0,2.5,1.9,4.4,4,5.2c0-0.9,0-1.9,0-2c2.7-1.9,6-6,6-6s3.2,4,6,6c0,0.1,0,1.1,0,2c2.5-0.9,4-2.7,4-5.2C50,5,46,2,40,2L40,2z"/></g><g><path fill="#839cb2" d="M40,25.5c-0.3,0-7.5-0.1-7.5-7.5c0-2,1.6-5.1,1.9-5.7l1.1-0.9V18c0,1.8,2.4,2.5,4.5,2.5 s4.5-0.7,4.5-2.5v-6.6l1.1,0.9c0.3,0.5,1.9,3.6,1.9,5.7c0,3.1-1.2,5.3-3.6,6.5C42,25.5,40.1,25.5,40,25.5L40,25.5z"/><path fill="#66798f" d="M45,12.5l0.2,0.2c0.6,1.1,1.8,3.7,1.8,5.4c0,6.8-6.3,7-7,7c-0.7,0-7-0.2-7-7c0-1.6,1.2-4.3,1.8-5.4 l0.2-0.2V18c0,2.2,2.6,3,5,3s5-0.8,5-3V12.5 M44,10.3c0,0,0,7.6,0,7.7c0,2-3.8,2-4,2s-4,0-4-2c0-0.2,0-7.7,0-7.7L34,12 c0,0-2,3.6-2,6c0,7.9,7.6,8,8,8c0,0,0,0,0,0s0,0,0,0c0.4,0,8-0.1,8-8c0-2.4-2-6-2-6L44,10.3L44,10.3z"/></g></svg>