<svg xmlns="http://www.w3.org/2000/svg" viewBox="0 0 80 80" width="30px" height="30px"><path fill="#c29653" d="M51.6,4c-8.8,0-21,6.5-31.1,16.6C13.4,27.8,8,35.9,5.5,43.5c-2.4,7.1-1.9,12.7,1.2,15.9 c1.8,1.8,4.4,2.7,7.7,2.7c1.4,0,3-0.2,4.6-0.5c-2.4-6.7-1.1-12.5,13.8-28.9c9.7-10.7,23.1-17.1,28.7-13.6c1.1-5.4,0.4-9.6-2.2-12.2 C57.5,4.9,54.9,4,51.6,4z"/><path fill="#a5743a" d="M50,16c3.4-0.1,8.4,0.6,11.6,2.4l0,0c0.1-0.6,0.2-1.2,0.3-1.8c0-0.1,0-0.1,0-0.2 c0.2-1.7,0.1-3.2-0.1-4.5c0-0.1,0-0.2-0.1-0.4c-0.1-0.3-0.1-0.6-0.2-0.9c-0.1-0.3-0.1-0.5-0.2-0.8c-0.1-0.2-0.2-0.5-0.3-0.7 c-0.1-0.3-0.3-0.6-0.4-0.9c-0.1-0.2-0.2-0.3-0.3-0.5c-0.3-0.4-0.6-0.8-0.9-1.2c-0.4-0.4-0.9-0.8-1.5-1.1c-0.5-0.3-1-0.5-1.6-0.8 c0,0-0.1,0-0.1-0.1c-1.2-0.4-2.7-0.7-4.2-0.7h0c-2.7,0-5.7,0.6-8.9,1.6c-7.3,2.5-15.4,7.8-22.5,14.9c-5.2,5.2-9.5,11-12.4,16.6 c-0.7,1.4-1.3,2.8-1.9,4.2C6.2,41.6,6.1,41.8,6,42C17.8,30.5,36.2,16.3,50,16z"/><path fill="#ffeea3" d="M29.2,77.5c-9.2,0-15.3-4.8-18.2-7.6c-4.8-4.8-6.9-10-7.8-13.4c-3.1-9.1,3.6-24.3,16.2-36.9 C30,9,42.3,2.5,51.6,2.5c0.1,0,0.2,0,0.3,0c0,0,0.8,0,0.8,0c0.1,0,0.3,0,0.4,0l2.3,0.1c3.1,0.5,8.5,2.2,14.3,7.7 c4.9,4.9,18.7,22.9-8.7,50.3C49.9,71.9,39.2,77.5,29.2,77.5C29.2,77.5,29.2,77.5,29.2,77.5z M51.6,3.5c-8.9,0-21.3,6.6-31.4,16.7 C12.9,27.5,7.6,35.7,5,43.3c-2.4,7.3-2,13.1,1.3,16.4c1.9,1.9,4.6,2.8,8,2.8c8.9,0,21.3-6.6,31.4-16.7C53,38.6,58.4,30.4,61,22.8 c2.4-7.3,2-13.1-1.3-16.4C57.8,4.5,55.1,3.5,51.6,3.5z"/><path fill="#f5c276" d="M53.4,3.1l2,0.1c3,0.5,8.3,2.2,14,7.6c4.8,4.8,18.3,22.6-8.7,49.6C49.6,71.4,39,77,29.2,77 c-9,0-15-4.7-17.8-7.5C6.9,65,4.8,60.2,3.9,56.8C4.4,58,5.1,59.1,6,60c2,2,4.8,3,8.4,3c9.1,0,21.5-6.6,31.8-16.8 c7.3-7.3,12.7-15.6,15.3-23.3c2.5-7.5,2-13.5-1.4-16.9C58.4,4.4,56.1,3.4,53.4,3.1 M13.8,26.7c-4.2,5.4-7.4,11.1-9.2,16.4 c-0.6,1.9-1.1,3.7-1.3,5.4C4.1,42,7.9,34.2,13.8,26.7 M53.1,2c-0.2,0-0.3,0-0.3,0S52.9,2,53.1,2c-0.2,0.1-0.5,0-0.9,0 c-0.1,0-0.2,0-0.3,0h0c-0.1,0-0.2,0-0.3,0C42.5,2,30,8.3,19.1,19.2c-13,13-19.4,28.3-16.4,37.4c0.9,3.5,3,8.7,7.9,13.7 C14,73.5,20.3,78,29.2,78c8.4,0,19.2-4,32.1-16.9c26.4-26.4,15.1-44.7,8.7-51C62,2.4,54.6,2,53.1,2L53.1,2z M14.4,62 c-3.3,0-5.9-0.9-7.7-2.7c-3.1-3.1-3.6-8.8-1.2-15.9c2.5-7.6,7.9-15.7,15.1-22.9C30.6,10.5,42.8,4,51.6,4c3.3,0,5.9,0.9,7.7,2.7 c3.1,3.1,3.6,8.8,1.2,15.9c-2.5,7.6-7.9,15.7-15.1,22.9C35.4,55.5,23.2,62,14.4,62L14.4,62z"/><path fill="#f5c276" d="M12,52.6c-0.8,0-1.5-0.3-1.9-0.9c-0.4-0.6-0.5-1.3-0.2-2.1s0.8-1.3,1.5-1.4c0.3-0.1,0.5,0.1,0.6,0.4 c0.1,0.3-0.1,0.5-0.4,0.6c-0.4,0.1-0.7,0.4-0.8,0.8c-0.1,0.4-0.1,0.8,0.1,1.2c0.2,0.3,0.6,0.5,1,0.5c0,0,0,0,0,0 c0.4,0,0.8-0.2,1-0.5c0.3-0.4,0.3-0.9,0.3-1.6c-0.1-0.8-0.3-1.6-0.5-2.4c-0.2-0.8-0.4-1.6-0.5-2.5c-0.2-1.7,0.3-3.9,2-4.9 c0.2-0.1,0.5,0,0.7,0.2c0.1,0.2,0.1,0.5-0.2,0.7c-0.8,0.5-1.3,1.5-1.1,2.3c0.1,0.4,0.5,0.8,0.9,1c0.4,0.1,0.7,0.1,1,0 c0.5-0.3,0.6-1,0.6-1.6c0-0.5-0.1-0.9-0.2-1.4C16,40.5,16,40.3,15.9,40c-0.6-3.1,0.8-6.5,3.4-8.3c0.2-0.1,0.4-0.3,0.6-0.4 c0.2-0.1,0.5-0.1,0.7,0.2c0.1,0.2,0.1,0.5-0.2,0.7c-0.1,0.1-0.3,0.2-0.4,0.3c-0.7,0.5-1.3,1.3-1.3,2.2c0,0.5,0.4,1,0.9,1.2 c0.2,0.1,0.6,0.2,1,0c0.4-0.3,0.5-0.8,0.6-1.3c0.2-0.7,0.3-1.4,0.3-2.1c0.1-1.1,0.3-2.3,0.7-3.4c0.5-1.3,1.5-2.6,2.8-3.2 c0,0,0,0,0,0c0.6-0.3,1.2-0.4,1.8-0.3c0.3,0.1,0.4,0.3,0.4,0.6c0,0.3-0.3,0.4-0.5,0.4c-0.4,0-0.8,0-1.2,0.2 c-0.3,0.2-0.5,0.5-0.6,0.8c-0.1,0.3,0,0.7,0.2,1c0.2,0.3,0.5,0.6,0.9,0.6c0.3,0.1,0.5,0,0.7-0.1c0.1-0.1,0.2-0.4,0.3-0.6 c0.3-0.8,0.5-1.5,0.7-2.3c0.2-0.9,0.5-1.9,0.8-2.8c0.5-1.2,1.6-3.4,3.8-4.1c0.6-0.2,1.2,0,1.4,0.4c0.1,0.2,0.1,0.4,0,0.5 c-0.1,0.2-0.3,0.2-0.5,0.2c-0.6-0.1-1.3,0.3-1.5,0.9c-0.2,0.6,0.2,1.4,0.8,1.6c0.1,0,0.2,0.1,0.3,0c0.1,0,0.2-0.2,0.3-0.3 c0.6-0.8,0.9-1.9,1.1-3c0.3-1.3,0.6-2.5,1.4-3.4c0.8-1,2.4-1.7,3.7-1c0.2,0.1,0.3,0.4,0.2,0.6c-0.1,0.2-0.4,0.4-0.6,0.3 c-0.3-0.1-0.7-0.1-1.1,0.1c-0.4,0.2-0.6,0.5-0.8,0.8c-0.1,0.3-0.1,0.7,0.1,1.1c0.2,0.4,0.5,0.6,0.8,0.7s0.7,0,1.1-0.2 c0.3-0.2,0.6-0.5,0.7-0.9c0.1-0.3,0.3-0.4,0.6-0.4c0.3,0.1,0.4,0.3,0.4,0.6c-0.1,0.6-0.6,1.2-1.1,1.5c-0.6,0.3-1.3,0.5-1.9,0.3 c-0.6-0.2-1.1-0.6-1.5-1.2c-0.2-0.3-0.3-0.7-0.3-1.1c-0.4,0.7-0.6,1.5-0.8,2.3c-0.3,1.2-0.5,2.4-1.3,3.4c-0.2,0.2-0.4,0.5-0.7,0.6 c-0.3,0.1-0.6,0.1-0.9,0c-0.9-0.3-1.5-1.2-1.5-2.2c-0.6,0.7-0.9,1.5-1.1,2c-0.3,0.9-0.6,1.8-0.8,2.7c-0.2,0.8-0.4,1.6-0.7,2.4 c-0.1,0.3-0.3,0.7-0.6,1c-0.4,0.3-1,0.5-1.5,0.3c-0.6-0.1-1.1-0.5-1.5-1.1c-0.2-0.3-0.3-0.7-0.4-1c-0.3,0.4-0.5,0.9-0.7,1.3 c-0.4,1-0.5,2-0.6,3.1c-0.1,0.7-0.2,1.5-0.4,2.2c-0.1,0.6-0.4,1.4-1,1.8c-0.6,0.4-1.3,0.5-2,0.1c-0.7-0.3-1.3-1-1.4-1.8 c-0.8,1.5-1.1,3.2-0.8,4.8c0,0.2,0.1,0.5,0.2,0.7c0.1,0.5,0.2,1,0.3,1.6c0,1.1-0.4,2-1.1,2.4c-0.5,0.3-1.2,0.4-1.9,0.1 c-0.4-0.2-0.7-0.4-1-0.7c0,0.1,0,0.3,0,0.4c0.1,0.8,0.3,1.6,0.4,2.4c0.2,0.8,0.4,1.7,0.5,2.6c0.1,0.6,0.1,1.6-0.5,2.3 C13.4,52.2,12.7,52.6,12,52.6C12,52.6,12,52.6,12,52.6z"/><path fill="#f5c276" d="M16.5,51.1c-0.2,0-0.3-0.1-0.4-0.2c-0.1-0.2-0.1-0.5,0.2-0.7c0.7-0.4,1.1-1.2,1.2-2.2 c0.1-0.9-0.1-1.9-0.3-2.9c-0.1-0.6-0.3-1.3-0.5-1.9c-0.5-2-1-4-1.2-6c-0.2-2.2,0-5.4,1.8-8c0.2-0.2,0.5-0.3,0.7-0.1 c0.2,0.2,0.3,0.5,0.1,0.7c-1.7,2.3-1.8,5.3-1.7,7.3c0.2,2,0.7,4,1.1,5.9c0.2,0.6,0.3,1.3,0.5,1.9c0.2,1,0.5,2.1,0.3,3.2 c-0.1,1.3-0.8,2.4-1.7,2.9C16.7,51.1,16.6,51.1,16.5,51.1z"/><path fill="#fff9de" d="M63,15c0,0.5,0.1,1.7-0.1,2.5c-0.2,1.3-0.6,2.7-1,4.2c0,0,0,0,0,0.1c-0.1,0.3-0.2,0.6-0.3,0.9 c-0.1,0.3-0.2,0.6-0.3,0.9c-0.1,0.2-0.2,0.5-0.3,0.7c-0.4,1-0.8,2.1-1.3,3.2c-0.1,0.2-0.1,0.3-0.2,0.5c-0.3,0.6-0.6,1.2-0.9,1.8 c-0.1,0.2-0.2,0.4-0.3,0.6c-0.7,1.3-1.4,2.5-2.2,3.8c3.1,2.3,14.3,13.5,5,26c3.2-3.3,5.8-6.5,7.8-9.5C81.7,29.7,65.6,14.3,63,15z"/><path fill="#f5ce85" d="M18.3,74.3c-0.3,0-0.5-0.2-0.5-0.5c0-0.3,0.2-0.5,0.5-0.5c5.2-0.2,10.4-1.6,15-4.1 c0.6-0.3,0.6-0.8,0.7-1.7c0-0.2,0-0.4,0.1-0.6c0.2-1.6,1-4.4,3.4-4.9c0.3-0.1,0.5,0.1,0.6,0.4c0.1,0.3-0.1,0.5-0.3,0.6 c-1.1,0.3-1.9,1.5-1.6,2.5c0.1,0.5,0.5,0.9,1.1,1.1c0.5,0.2,0.9,0.1,1.2-0.1c0.7-0.5,0.8-1.7,0.8-2.8l0-0.2c0.1-2.8,1.4-5.7,4-6.2 c0.3,0,0.5,0.1,0.6,0.4c0.1,0.3-0.1,0.5-0.4,0.6c-0.5,0.1-0.9,0.5-1.2,1.1c-0.2,0.5-0.2,1.1,0,1.6c0.3,0.4,0.8,0.7,1.4,0.8 c0.5,0.1,1-0.1,1.4-0.4c0.1-2.1,0.7-4.1,1.6-6c0.5-0.9,1-1.5,1.6-1.9c0.4-0.3,0.8-0.4,1.2-0.4c0.3,0,0.5,0.2,0.5,0.5 c0,0.3-0.2,0.5-0.4,0.5c-0.2,0-0.5,0.1-0.7,0.3c-0.2,0.1-0.3,0.3-0.3,0.4c-0.3,0.5-0.3,1.1,0,1.5c0.2,0.4,0.6,0.6,1.1,0.7 c0.6,0.1,1.2,0,1.7-0.3c0.9-0.6,1.4-1.7,1.4-3c0-0.3,0-0.6-0.1-1c0-0.4-0.1-0.8-0.1-1.2c0-2,1.4-4,3.2-4.7c0.2-0.1,0.5,0,0.6,0.2 c0.1,0.2,0,0.5-0.2,0.7c-1,0.6-2,2-1.3,3.1c0.3,0.4,0.7,0.6,1,0.6c0.6,0.1,1.3-0.2,1.8-0.6c0.7-0.7,1.1-1.9,1.1-3.4 c0-0.4,0-0.8,0-1.2c0-1-0.1-2,0.1-3c0.1-0.6,0.4-1.3,0.8-1.8c0.4-0.8,1.2-1.3,2.2-1.5c0.3,0,0.5,0.1,0.6,0.4c0,0.3-0.1,0.5-0.4,0.6 c-0.6,0.1-1.1,0.5-1.4,1c-0.1,0.2-0.2,0.5-0.2,0.7c0,0.4,0.2,0.8,0.5,1.1c0.3,0.2,0.6,0.4,0.9,0.3c0.7-0.1,1.1-0.9,1.3-1.4 c0.6-1.4,0.6-2.9,0.1-4.3l-0.1-0.3c-0.1-0.4-0.3-0.7-0.3-1.1c-0.1-1,0.3-1.9,0.9-2.6c0.3-0.6,0.8-1.1,1.4-1.4c0.2-0.1,0.5,0,0.6,0.2 c0.1,0.2,0.1,0.5-0.1,0.6c-0.4,0.3-0.8,0.7-1.1,1.1c0,0.1-0.1,0.2-0.1,0.3c-0.1,0.5,0.1,1,0.4,1.4c0.3,0.4,0.7,0.6,1.1,0.6 c0.4,0,0.8-0.3,1.1-0.7c0.2-0.4,0.3-0.8,0.1-1.1c-0.1-0.2,0-0.5,0.2-0.7c0.2-0.1,0.5,0,0.7,0.2c0.3,0.6,0.3,1.4-0.2,2.1 c-0.4,0.7-1.2,1.2-2,1.2c-0.7,0-1.4-0.3-1.9-0.9c-0.1-0.2-0.3-0.3-0.4-0.5c0,0.1,0,0.1,0,0.2c0,0.3,0.2,0.6,0.3,0.9l0.1,0.3 c0.6,1.6,0.5,3.5-0.1,5.1c-0.5,1.1-1.2,1.8-2,2c-0.6,0.1-1.3-0.1-1.8-0.5c-0.2-0.1-0.3-0.3-0.4-0.5c-0.1,0.7-0.1,1.5,0,2.2 c0,0.4,0,0.8,0,1.2c0,1.9-0.5,3.3-1.4,4.2c-0.7,0.6-1.6,1-2.6,0.9c-0.8-0.1-1.4-0.5-1.8-1.1c-0.2-0.3-0.3-0.6-0.3-0.9 c-0.1,0.4-0.2,0.8-0.2,1.2c0,0.4,0,0.7,0.1,1.1c0,0.3,0.1,0.7,0.1,1.1c0,1.6-0.7,3.1-1.9,3.9c-0.7,0.5-1.6,0.6-2.5,0.4 c-0.7-0.2-1.4-0.6-1.7-1.2c-0.1-0.2-0.2-0.4-0.3-0.6c-0.8,1.7-1.3,3.6-1.4,5.4c0,0.1,0,0.2-0.1,0.3c-0.6,0.6-1.4,0.9-2.3,0.8 c-0.9-0.1-1.7-0.6-2.1-1.3c-0.2-0.4-0.3-0.8-0.3-1.3c-0.5,1-0.8,2.2-0.9,3.4l0,0.2c0,1.2-0.1,2.7-1.2,3.5c-0.6,0.4-1.4,0.5-2.2,0.2 c-0.7-0.3-1.2-0.7-1.5-1.3c-0.1,0.3-0.1,0.6-0.2,0.9c0,0.2,0,0.4-0.1,0.5c-0.1,0.9-0.2,1.9-1.2,2.4C29,72.6,23.7,74.1,18.3,74.3 C18.3,74.3,18.3,74.3,18.3,74.3z"/><path fill="#f5c276" d="M3,56c1.1,3.4,3.5,10,7.7,14.2c6.4,6.4,24.2,17.4,50.6-9.1C40.6,81.8,13.3,68.3,3,56z"/><path fill="#f5ce85" d="M51.3,62.9c-0.2,0-0.3-0.1-0.4-0.2c-0.2-0.2-0.1-0.5,0.1-0.7c2.3-1.7,2.3-5.1,2.2-6.5 c-0.1-1-0.3-2-0.5-3c-0.3-1.5-0.6-3.1-0.5-4.6c0.1-2.7,1.1-5.4,2.9-7.5c0.2-0.2,0.5-0.2,0.7-0.1c0.2,0.2,0.2,0.5,0.1,0.7 c-1.6,1.9-2.6,4.4-2.6,6.8c0,1.5,0.2,2.9,0.5,4.4c0.2,1,0.4,2.1,0.5,3.1c0.1,1.6,0.2,5.4-2.6,7.4C51.5,62.9,51.4,62.9,51.3,62.9z"/></svg>