<svg xmlns="http://www.w3.org/2000/svg" viewBox="0 0 80 80" width="30px" height="30px"><path fill="#c2e8ff" d="M57.8,67.6c-11,0-20-1.6-27-4.9C20,57.6,14.5,48.6,14.5,36c0-31.9,32.2-33.5,38.6-33.5 c0.5,0,0.8,0,0.8,0c0.2,0,18.8,0.2,19.5,7.1c-4.3,1.1-7.9,4.2-9.3,5.5l0.7,0.7c1.1-1,4-3.2,8.6-3.4c-0.5,9.8-14.8,13-14.9,13 c-0.1,0-21.3,1.5-21.1,16.5C37.8,57,62.9,58.5,64,58.5h5.5v9H64c-0.5,0-1.1,0-1.8,0C61,67.6,59.5,67.6,57.8,67.6z"/><path fill="#7496c4" d="M53.1,3c0.5,0,0.8,0,0.8,0c5,0,17.8,1.2,18.9,6.2c-4.2,1.2-7.7,4.2-9.1,5.5 c-0.4,0.3-0.6,0.6-0.6,0.6l1.5,1.3c0,0,0.2-0.2,0.4-0.4c1-0.9,3.6-2.9,7.8-3.2C72,21.7,59.5,24.8,58.5,25C57,25.1,36.7,27,37,42 C37.3,57.5,62.9,59,64,59h5v8h-5c-0.5,0-1.1,0-1.9,0c-1.2,0-2.6,0.1-4.3,0.1C38.3,67.1,15,61.7,15,36C15,4.6,46.8,3,53.1,3 M53.1,2 C47.4,2,14,3.4,14,36c0,29.6,29.8,32.1,43.8,32.1c2.8,0,5-0.1,6.2-0.1h6V58h-6c0,0-25.8-1.3-26-16s20.7-16,20.7-16S74,22.7,74,12 c-5.1,0-8.3,2.4-9.5,3.5C64.2,15.8,64,16,64,16s0.2-0.2,0.5-0.5c1.3-1.3,5.1-4.5,9.5-5.5c0-7.9-20-8-20-8S53.7,2,53.1,2L53.1,2z"/><path fill="#4b6477" d="M54,11.5c-0.8,0-1.5-0.7-1.5-1.5s0.7-1.5,1.5-1.5h3.2C56.5,9.7,55.3,11.5,54,11.5z"/><path fill="#36404d" d="M56.3,9c-0.6,1-1.5,2-2.3,2c-0.5,0-1-0.4-1-1s0.4-1,1-1H56.3 M58,8c0,0-2.9,0-4,0s-2,0.9-2,2 s0.9,2,2,2C56.2,12,58,8,58,8L58,8z"/><path fill="#c2e8ff" d="M64,15c-0.6,0-1,0.4-1,1c0,0.6,0.4,1,1,1c0.6,0,1-0.4,1-1h-1V15z"/><path fill="#7496c4" d="M64 15c-.6 0-1 .4-1 1 0 .6.4 1 1 1 .6 0 1-.4 1-1h-1V15L64 15zM39.4 45.5c-.5 0-.9 0-1.3 0-.3-1.1-.5-2.3-.6-3.5-.1-4.2 1.5-7.7 4.7-10.4C44 35 46.4 41 45.2 44 44.6 45.5 40.7 45.5 39.4 45.5 39.4 45.5 39.4 45.5 39.4 45.5z"/><path fill="#4e7ab5" d="M42,32.4c1.6,3.3,3.8,8.8,2.7,11.4c-0.2,0.5-1.1,1.2-5.3,1.2c-0.3,0-0.6,0-1,0c-0.3-1-0.4-2-0.4-3 C37.9,38.2,39.3,35,42,32.4 M42.3,30.8c-3.1,2.5-5.4,6.1-5.3,11.2c0,1.4,0.3,2.8,0.7,4c0.5,0,1.1,0,1.7,0c2.8,0,5.6-0.3,6.3-1.8 C47.1,40.5,43.6,33.2,42.3,30.8L42.3,30.8z"/><g><path fill="#7496c4" d="M16.2,46.9c-2.8-1.1-8.3-4.3-15.6-12.9c4.7-9.2,13.3-14,18.9-16.3c-3.3,5-5,11.2-5,18.4 C14.5,39.9,15.1,43.6,16.2,46.9z"/><path fill="#4e7ab5" d="M18.2,18.7C15.4,23.5,14,29.4,14,36c0,3.6,0.5,6.9,1.4,9.9c-2.9-1.4-7.9-4.6-14.2-12.1 C5.5,25.8,12.8,21.1,18.2,18.7 M20.8,16.5C15.7,18.4,5.3,23.4,0,34c8,9.6,14.2,12.8,17,13.7c-1.3-3.3-2-7.2-2-11.7 C15,27.5,17.3,21.2,20.8,16.5L20.8,16.5z"/></g><g><path fill="#4e7ab5" d="M4.4 38.3l-.8-.6c3.6-5.3 6.9-9.2 12.2-12.2l.5.9C11.1 29.3 7.9 33.1 4.4 38.3zM8.4 42.3l-.9-.5c2.2-4 3.6-5.7 6.9-8.3l.6.8C11.9 36.8 10.6 38.4 8.4 42.3z"/></g><path fill="#8bb7f0" d="M64,63c-31.9,0-37-16.5-37-17c1,0.5,1.2,1.1,3.1,1.1c3.3,0,2.9-5.9,2.9-13.1l-1,0c0,7-0.1,12-2,12 c-2.4,0-8-4.9-8-7.2c0-2.9,6.5-7.7,6.8-8c3-5.3,8-10.1,15.8-12.9c1,3.1,3.2,6.8,5.4,9c0.7-0.3,0.5-0.3,1.2-0.5 c-5.4-4.5-7.3-14.3-7.3-22.6C32.2,5.9,15,12.9,15,36c0,25.7,23.4,31.1,43,31.1c1.7,0,3.1,0,4.3-0.1c0.7,0,1.3,0,1.7,0h4v-4 C66.3,63,64.1,63,64,63z"/><g><path fill="#7496c4" d="M79.4,77.5c-12.1-0.2-14.5-7.9-14.9-9.4l4.1-5.1l-4.1-5.1c0.9-4.7,8-9.1,15-9.4 c-0.3,6.6-5.8,14.2-5.9,14.2l-0.2,0.3l0.2,0.3C73.6,63.4,78.1,69.8,79.4,77.5z"/><path fill="#4e7ab5" d="M79,49c-0.5,6.3-5.7,13.3-5.8,13.4L72.8,63l0.4,0.6c0,0.1,4.2,6,5.6,13.3c-10.7-0.5-13.2-7-13.7-8.7 l3.7-4.6l0.5-0.6l-0.5-0.6l-3.7-4.6C66,53.9,72.1,49.5,79,49 M80,48c-7.7,0-15.3,5-16,10l4,5l-4,5c0,0,1.8,10,16,10 c-1.3-8.2-6-14.9-6-14.9S80,55,80,48L80,48z"/></g></svg>