<svg xmlns="http://www.w3.org/2000/svg" viewBox="0 0 80 80" width="30px" height="30px"><path fill="#f7a3a3" d="M39,76.5c-11.093,0-19.833-3.165-25.976-9.408C3.385,57.298,3.498,43.149,3.5,43.008V31.36 l5.947-1.982l0.047-0.301C9.534,28.821,13.793,3.5,39,3.5s29.466,25.321,29.506,25.577l0.047,0.301L74.5,31.36V43 c0.002,0.149,0.105,14.315-9.531,24.1C58.826,73.337,50.088,76.5,39,76.5z"/><path fill="#c74343" d="M39,4c10.376,0,18.401,4.202,23.854,12.489c4.111,6.247,5.148,12.602,5.158,12.666l0.095,0.602 l0.577,0.192L74,31.721l0,11.295c0.002,0.14,0.113,14.079-9.38,23.725C58.574,72.885,49.954,76,39,76 c-10.945,0-19.56-3.11-25.606-9.244C3.906,57.128,3.998,43.155,4,43V31.721l5.316-1.772l0.578-0.193l0.094-0.602 c0.01-0.063,1.028-6.359,5.119-12.606C20.56,8.222,28.598,4,39,4 M39,3C13.054,3,9,29,9,29l-6,2v12c0,0-0.543,34,36,34s36-34,36-34 V31l-6-2C69,29,64.946,3,39,3L39,3z"/><path fill="#f78f8f" d="M69.5,42.5v-15h7v15H69.5z M1.5,42.5v-15h7v15H1.5z"/><path fill="#c74343" d="M76,28v14h-6V28H76 M8,28v14H2V28H8 M77,27h-8v16h8V27L77,27z M9,27H1v16h8V27L9,27z"/><path fill="#8bb7f0" d="M3.5 43.5H8.5V54.5H3.5z"/><path fill="#4e7ab5" d="M8,44v10H4V44H8 M9,43H3v12h6V43L9,43z"/><path fill="#8bb7f0" d="M69.5 43.5H74.5V54.5H69.5z"/><path fill="#4e7ab5" d="M74,44v10h-4V44H74 M75,43h-6v12h6V43L75,43z"/><path fill="#839cb2" d="M47.309 56.5L41.309 44.5 36.691 44.5 30.691 56.5 23.338 56.5 19.338 46.5 16.732 46.5 12.732 52.5 9.5 52.5 9.5 45.5 11.338 45.5 15.338 35.5 20.662 35.5 24.662 45.5 29.309 45.5 35.309 33.5 42.691 33.5 48.691 45.5 53.338 45.5 57.338 35.5 62.662 35.5 66.662 45.5 68.5 45.5 68.5 52.5 65.268 52.5 61.268 46.5 58.662 46.5 54.662 56.5z"/><path fill="#66798f" d="M42.382,34l5.724,11.447L48.382,46H49h4h0.677l0.251-0.629L57.677,36h4.646l3.749,9.371L66.323,46 H67h1v6h-2.465l-3.703-5.555L61.535,46H61h-2h-0.677l-0.251,0.629L54.323,56h-6.705l-5.724-11.447L41.618,44H41h-4h-0.618 l-0.276,0.553L30.382,56h-6.705l-3.749-9.371L19.677,46H19h-2h-0.535l-0.297,0.445L12.465,52H10v-6h1h0.677l0.251-0.629L15.677,36 h4.646l3.749,9.371L24.323,46H25h4h0.618l0.276-0.553L35.618,34H42.382 M43,33h-8l-6,12h-4l-4-10h-6l-4,10H9v8h4l4-6h2l4,10h8 l6-12h4l6,12h8l4-10h2l4,6h4v-8h-2l-4-10h-6l-4,10h-4L43,33L43,33z"/><path fill="#fff" d="M45.207 24.5L41.207 20.5 36.793 20.5 32.793 24.5 23.118 24.5 19.5 22.691 19.5 17.268 24.937 13.644 30.793 19.5 47.207 19.5 53.063 13.644 58.5 17.268 58.5 20.793 54.793 24.5z"/><path fill="#66798f" d="M53.127,14.287L58,17.535v3.051L54.586,24h-9.172l-3.707-3.707L41.414,20H47h0.414l0.293-0.293 L53.127,14.287 M24.873,14.287l5.42,5.42L30.586,20H31h5.586l-0.293,0.293L32.586,24h-9.35L20,22.382v-4.847L24.873,14.287 M53,13 l-6,6H31l-6-6l-6,4v6l4,2h10l4-4h4l4,4h10l4-4v-4L53,13L53,13z"/><path fill="#c74343" d="M39,60c-2.206,0-4,1.987-4,4.429v1.143c0,1.099,0.364,2.131,1.008,2.929	C35.364,69.297,35,70.33,35,71.429v1.143C35,75.013,36.794,77,39,77s4-1.987,4-4.429v-1.143c0-1.099-0.364-2.131-1.008-2.929	C42.636,67.703,43,66.67,43,65.571v-1.143C43,61.987,41.206,60,39,60L39,60z"/><path fill="#8bb7f0" d="M5 45H9V53H5zM69 45H73V53H69z"/><g><path fill="#f5c276" d="M25 18.5c0 1.381 1.119 2.5 2.5 2.5 1.107 0 2.035-.725 2.364-1.722l-3.142-3.142C25.725 16.465 25 17.393 25 18.5zM50.5 21c1.381 0 2.5-1.119 2.5-2.5 0-1.107-.725-2.035-1.722-2.364l-3.142 3.142C48.465 20.275 49.393 21 50.5 21z"/></g><g><path fill="#c2e8ff" d="M39 56.5A2.5 2.5 0 1 0 39 61.5A2.5 2.5 0 1 0 39 56.5Z"/><path fill="#c74343" d="M39,57c1.105,0,2,0.895,2,2s-0.895,2-2,2s-2-0.895-2-2S37.895,57,39,57 M39,56c-1.654,0-3,1.346-3,3 s1.346,3,3,3s3-1.346,3-3S40.654,56,39,56L39,56z"/></g><g><path fill="#c2e8ff" d="M39,62c1.103,0,2,1.089,2,2.429v1.143C41,66.911,40.103,68,39,68s-2-1.089-2-2.429v-1.143 C37,63.089,37.897,62,39,62 M39,61c-1.654,0-3,1.538-3,3.429v1.143C36,67.462,37.346,69,39,69c1.654,0,3-1.538,3-3.429v-1.143 C42,62.538,40.654,61,39,61L39,61z"/></g><g><path fill="#c2e8ff" d="M39,69c1.103,0,2,1.089,2,2.429v1.143C41,73.911,40.103,75,39,75s-2-1.089-2-2.429v-1.143 C37,70.089,37.897,69,39,69 M39,68c-1.654,0-3,1.538-3,3.429v1.143C36,74.462,37.346,76,39,76c1.654,0,3-1.538,3-3.429v-1.143 C42,69.538,40.654,68,39,68L39,68z"/></g></svg>