<svg xmlns="http://www.w3.org/2000/svg" viewBox="0 0 80 80" width="30px" height="30px"><path fill="#839cb2" d="M40,77.5c-13.494,0-25.5-26.283-25.5-47c0-17.794,9.294-28,25.5-28s25.5,10.206,25.5,28 C65.5,51.217,53.494,77.5,40,77.5z"/><path fill="#66798f" d="M40,3c15.888,0,25,10.023,25,27.5C65,50.997,53.229,77,40,77S15,50.997,15,30.5 C15,13.023,24.112,3,40,3 M40,2c-14.387,0-26,8.464-26,28.5S25.613,78,40,78c14.387,0,26-27.464,26-47.5S54.387,2,40,2L40,2z"/><path fill="#f78f8f" d="M40,77.5c-0.386,0-0.795-0.025-1.324-0.083c-6.218-0.757-12.538-7.053-17.332-17.271l-0.082-0.187 c-0.157-0.354-0.313-0.708-0.463-1.067c-0.162-0.381-0.352-0.788-0.551-1.212c-0.497-1.183-0.972-2.405-1.405-3.615 c-0.202-0.947-0.026-1.899,0.499-2.55C19.884,50.842,20.779,50.5,22,50.5c3.293,0,7.271,1.848,10.782,3.479 C35.694,55.332,38.21,56.5,40,56.5c1.791,0,4.306-1.168,7.219-2.522C50.729,52.348,54.707,50.5,58,50.5 c1.221,0,2.116,0.342,2.659,1.015c0.525,0.651,0.7,1.604,0.48,2.612c-0.415,1.148-0.891,2.371-1.396,3.571 c-0.19,0.406-0.381,0.813-0.542,1.191c-0.147,0.356-0.301,0.704-0.455,1.05l-0.096,0.217C53.862,70.364,47.542,76.66,41.317,77.418 C40.795,77.475,40.386,77.5,40,77.5z"/><path fill="#c74343" d="M58,51c1.063,0,1.826,0.279,2.27,0.829c0.413,0.512,0.559,1.306,0.394,2.132 c-0.425,1.184-0.889,2.375-1.364,3.507c-0.201,0.429-0.394,0.842-0.56,1.233c-0.145,0.348-0.296,0.691-0.448,1.033l-0.088,0.2 C53.485,69.993,47.308,76.185,41.27,76.92C40.759,76.975,40.368,77,40,77s-0.759-0.025-1.257-0.079 c-6.051-0.737-12.228-6.928-16.937-16.966l-0.098-0.221c-0.152-0.343-0.303-0.685-0.451-1.041c-0.163-0.382-0.355-0.796-0.54-1.188 c-0.491-1.168-0.955-2.36-1.38-3.543c-0.165-0.827-0.019-1.62,0.394-2.132C20.174,51.279,20.937,51,22,51 c3.183,0,7.108,1.823,10.571,3.432C35.537,55.81,38.099,57,40,57s4.463-1.19,7.429-2.568C50.892,52.823,54.817,51,58,51 M58,50 c-6.094,0-14.195,6-18,6s-11.906-6-18-6c-3.301,0-4.035,2.363-3.628,4.234c0.445,1.243,0.921,2.463,1.423,3.659 c0.196,0.418,0.384,0.82,0.542,1.192c0.178,0.43,0.367,0.851,0.554,1.274c4.456,9.499,10.719,16.701,17.731,17.555 C39.077,77.963,39.534,78,40,78s0.923-0.037,1.378-0.086c7.012-0.854,13.275-8.056,17.731-17.555 c0.187-0.423,0.375-0.845,0.554-1.274c0.159-0.372,0.346-0.774,0.542-1.192c0.503-1.195,0.978-2.416,1.423-3.659 C62.035,52.363,61.301,50,58,50L58,50z"/><path fill="#f78f8f" d="M40,77.5c-0.386,0-0.795-0.025-1.324-0.083c-6.218-0.757-12.538-7.053-17.332-17.271l-0.082-0.187 c-0.157-0.354-0.313-0.708-0.463-1.067c-0.162-0.381-0.352-0.788-0.551-1.212c-0.497-1.183-0.972-2.405-1.405-3.615 c-0.202-0.947-0.026-1.899,0.499-2.55C19.884,50.842,20.779,50.5,22,50.5c3.293,0,7.271,1.848,10.782,3.479 C35.694,55.332,38.21,56.5,40,56.5c1.791,0,4.306-1.168,7.219-2.522C50.729,52.348,54.707,50.5,58,50.5 c1.221,0,2.116,0.342,2.659,1.015c0.525,0.651,0.7,1.604,0.48,2.612c-0.415,1.148-0.891,2.371-1.396,3.571 c-0.19,0.406-0.381,0.813-0.542,1.191c-0.147,0.356-0.301,0.704-0.455,1.05l-0.096,0.217C53.862,70.364,47.542,76.66,41.317,77.418 C40.795,77.475,40.386,77.5,40,77.5z"/><path fill="#c74343" d="M58,51c1.063,0,1.826,0.279,2.27,0.829c0.413,0.512,0.559,1.306,0.394,2.132 c-0.425,1.184-0.889,2.375-1.364,3.507c-0.201,0.429-0.394,0.842-0.56,1.233c-0.145,0.348-0.296,0.691-0.448,1.033l-0.088,0.2 C53.485,69.993,47.308,76.185,41.27,76.92C40.759,76.975,40.368,77,40,77s-0.759-0.025-1.257-0.079 c-6.051-0.737-12.228-6.928-16.937-16.966l-0.098-0.221c-0.152-0.343-0.303-0.685-0.451-1.041c-0.163-0.382-0.355-0.796-0.54-1.188 c-0.491-1.168-0.955-2.36-1.38-3.543c-0.165-0.827-0.019-1.62,0.394-2.132C20.174,51.279,20.937,51,22,51 c3.183,0,7.108,1.823,10.571,3.432C35.537,55.81,38.099,57,40,57s4.463-1.19,7.429-2.568C50.892,52.823,54.817,51,58,51 M58,50 c-6.094,0-14.195,6-18,6s-11.906-6-18-6c-3.301,0-4.035,2.363-3.628,4.234c0.445,1.243,0.921,2.463,1.423,3.659 c0.196,0.418,0.384,0.82,0.542,1.192c0.178,0.43,0.367,0.851,0.554,1.274c4.456,9.499,10.719,16.701,17.731,17.555 C39.077,77.963,39.534,78,40,78s0.923-0.037,1.378-0.086c7.012-0.854,13.275-8.056,17.731-17.555 c0.187-0.423,0.375-0.845,0.554-1.274c0.159-0.372,0.346-0.774,0.542-1.192c0.503-1.195,0.978-2.416,1.423-3.659 C62.035,52.363,61.301,50,58,50L58,50z"/><g><path fill="#f2faff" d="M29.44,48.135c-0.957-1.02-1.278-1.363-2.71-1.644L23.5,46.5v-1.035l0.244-0.146 c0.194-0.116,0.763-0.536,0.836-0.932c0.015-0.084,0.017-0.202-0.111-0.364c-0.604-0.895-2.071-1.411-2.588-1.537L21.5,42.393V42 c0-1.416-0.384-3.109-0.828-5.069c-0.549-2.422-1.172-5.168-1.172-8.022c0-2.803,0.102-5.485,1.336-7.499 c1.205-2.009,4.792-3.785,4.944-3.859l0.72-0.354v1.022l-0.163,0.245c-1.021,0.933-3.545,3.702-2.968,5.292 c0.175,0.673,0.49,0.953,1.034,0.953c0.501,0,1.071-0.25,1.407-0.463c0.722-0.516,1.974-0.72,2.115-0.742l0.622-0.096l-0.048,0.628 c-0.003,0.043-0.323,4.416,0.45,7.582c0.616,2.612,1.894,3.88,3.909,3.88c1.717,0,3.999-2.733,4.733-3.786l0.91-1.305v9.823 l-0.177,0.15c-0.022,0.019-2.297,1.952-3.388,3.607c-0.917,1.557-2.897,3.667-4.734,4.469l-0.323,0.141L29.44,48.135z"/><path fill="#66798f" d="M26,18v0.096c0,0-3.919,3.576-3.101,5.832c0.25,0.973,0.859,1.282,1.504,1.282 c0.62,0,1.274-0.286,1.675-0.541C26.746,24.193,28,24,28,24s-0.339,4.455,0.462,7.738C29.281,35.209,31.188,36,32.857,36 C35.214,36,38,32,38,32v8c0,0-2.338,1.978-3.483,3.713C33.699,45.102,31.821,47.205,30,48c-1.125-1.193-1.482-1.668-3.174-2 C25.681,46,24,46,24,46v-0.251c0,0,1.681-0.994,0.862-2.035C24.044,42.498,22,42,22,42c0-3.295-2-8.034-2-13.091 c0-2.766,0.099-5.339,1.262-7.237C22.408,19.763,26,18,26,18 M27,16.395l-1.441,0.707c-0.395,0.194-3.894,1.954-5.155,4.055 C19.108,23.274,19,26.032,19,28.909c0,2.91,0.629,5.685,1.184,8.132C20.622,38.972,21,40.64,21,42v0.785l0.763,0.186 c0.433,0.108,1.784,0.579,2.27,1.3l0.02,0.03l0.022,0.029c-0.07,0.154-0.369,0.429-0.585,0.557L23,45.178v0.57V46v1h1h2.727 c1.192,0.244,1.429,0.496,2.349,1.477l0.196,0.209l0.483,0.512l0.645-0.282c2.172-0.949,4.151-3.304,4.964-4.672 c1.057-1.589,3.259-3.462,3.281-3.481l0.354-0.3L39,40v-8v-3.178l-1.82,2.606C36.144,32.911,34.118,35,32.857,35 c-1.116,0-2.684-0.362-3.421-3.491c-0.755-3.094-0.442-7.39-0.439-7.433l0.095-1.255l-1.244,0.191 c-0.151,0.023-1.485,0.241-2.325,0.825c-0.301,0.188-0.759,0.373-1.121,0.373c-0.187,0-0.399,0-0.536-0.531l-0.012-0.047 l-0.016-0.045c-0.403-1.11,1.454-3.492,2.835-4.752L27,18.538v-0.441V18V16.395L27,16.395z"/></g><g><path fill="#f2faff" d="M49.8,48.458c-1.837-0.802-3.817-2.913-4.748-4.491c-1.078-1.633-3.353-3.566-3.375-3.585 l-0.177-0.15v-9.823l0.91,1.305c0.734,1.053,3.016,3.786,4.733,3.786c2.015,0,3.293-1.268,3.908-3.876 c0.774-3.17,0.454-7.542,0.451-7.585l-0.048-0.627l0.622,0.095c0.141,0.021,1.393,0.226,2.137,0.757 c0.313,0.198,0.883,0.448,1.385,0.448c0.544,0,0.858-0.28,1.02-0.907c0.591-1.636-1.933-4.405-2.954-5.338L53.5,18.317v-1.023 l0.72,0.257c0.152,0.075,3.739,1.851,4.946,3.863c1.231,2.01,1.333,4.692,1.333,7.495c0,2.854-0.623,5.6-1.172,8.022 C58.884,38.891,58.5,40.584,58.5,42v0.392l-0.381,0.094c-0.019,0.004-1.868,0.47-2.567,1.507c-0.149,0.192-0.147,0.31-0.132,0.394 c0.073,0.396,0.642,0.816,0.836,0.932l0.243,0.146L56.5,46.5h-3.326c-1.336,0.271-1.658,0.615-2.614,1.635l-0.437,0.464 L49.8,48.458z"/><path fill="#66798f" d="M54,18c0,0,3.592,1.763,4.738,3.672C59.901,23.57,60,26.143,60,28.909c0,5.057-2,9.795-2,13.091 c0,0-2.044,0.498-2.862,1.713C54.319,44.755,56,45.749,56,45.749V46c0,0-1.681,0-2.826,0c-1.692,0.332-2.049,0.807-3.174,2 c-1.821-0.795-3.699-2.898-4.517-4.287C44.338,41.978,42,40,42,40v-8c0,0,2.786,4,5.143,4c1.669,0,3.577-0.791,4.395-4.262 C52.339,28.455,52,24,52,24s1.254,0.193,1.922,0.669c0.401,0.255,1.055,0.541,1.675,0.541c0.645,0,1.254-0.309,1.504-1.282 C57.919,21.672,54,18.096,54,18.096V18 M53,16.395V18v0.096v0.44l0.326,0.298c1.381,1.263,3.237,3.647,2.836,4.753l-0.016,0.045 l-0.012,0.047c-0.137,0.531-0.349,0.531-0.536,0.531c-0.362,0-0.819-0.186-1.121-0.373c-0.84-0.584-2.174-0.802-2.325-0.825 l-1.244-0.191l0.095,1.255c0.003,0.043,0.317,4.339-0.437,7.425C49.827,34.638,48.258,35,47.143,35 c-1.261,0-3.287-2.089-4.323-3.572L41,28.823L41,32v8v0.464l0.354,0.3c0.022,0.019,2.225,1.892,3.281,3.481 c0.813,1.368,2.792,3.723,4.964,4.672l0.645,0.282l0.483-0.512l0.196-0.209c0.921-0.981,1.157-1.233,2.349-1.477H56h1v-1v-0.251 v-0.57l-0.491-0.29c-0.241-0.146-0.515-0.409-0.584-0.555l0.002-0.002l0.04-0.059c0.486-0.721,1.837-1.193,2.272-1.301 l0.759-0.189L59,42c0-1.36,0.378-3.028,0.816-4.958C60.371,34.594,61,31.819,61,28.909c0-2.877-0.108-5.635-1.41-7.76 c-1.256-2.094-4.755-3.853-5.15-4.047L53,16.395L53,16.395z"/></g><g><path fill="#fff" d="M50.991 60.976l2.987-9.222c-2.022.661-4.15 1.642-6.127 2.56-.011.005-.021.01-.031.015L50.991 60.976zM53.937 67.25L50.958 63l-4.285 10.562L43 65l-3 12c.375 0 .743-.032 1.109-.071C45.23 76.426 50.104 73.208 53.937 67.25zM33.327 73.562L29.083 63l-2.845 4.667c3.058 4.323 6.433 7.274 9.844 8.57.978.352 1.934.584 2.842.694C39.257 76.968 39.625 77 40 77l-2.917-12L33.327 73.562zM43.017 62.988l2.899-7.786c-1.561.7-2.991 1.272-4.276 1.564-.079.02-.156.036-.233.053-.062.013-.124.024-.186.036-.425.086-.834.144-1.209.144L43.017 62.988zM29.009 60.976l3.172-6.647c-.011-.005-.021-.01-.031-.015-1.976-.918-4.104-1.899-6.127-2.56L29.009 60.976zM60.149 51.718C59.694 51.249 58.981 51 58 51c-.708 0-1.457.102-2.225.26-.569.127-1.151.284-1.745.477l3.053 5.24L60.149 51.718zM19.991 51.589l2.926 5.388 3.053-5.24c-.594-.193-1.176-.35-1.745-.477C23.457 51.102 22.708 51 22 51 21.114 51 20.449 51.205 19.991 51.589zM39.989 56.999c-.376-.001-.784-.059-1.209-.144-.062-.011-.124-.023-.186-.036-.078-.017-.154-.034-.233-.053-1.285-.292-2.714-.864-4.276-1.564l2.899 7.786L39.989 56.999z"/></g></svg>