<svg xmlns="http://www.w3.org/2000/svg" viewBox="0 0 80 80" width="30px" height="30px"><path fill="#f78f8f" d="M40,77.5c-14.1,0-25.5-25-25.5-45.6c0-18.7,9.3-29.4,25.5-29.4s25.5,10.7,25.5,29.4 C65.5,52.5,54.1,77.5,40,77.5z"/><path fill="#c74343" d="M40,3c15.9,0,25,10.5,25,28.9c0,10.2-2.8,21.6-7.5,30.5C52.6,71.7,46.2,77,40,77 s-12.6-5.3-17.5-14.7C17.8,53.4,15,42.1,15,31.9C15,13.5,24.1,3,40,3 M40,2c-14.4,0-26,8.9-26,29.9S25.6,78,40,78s26-25.2,26-46.1 S54.4,2,40,2L40,2z"/><path fill="#c74343" d="M39.5,2.1v75.8c0.2,0,0.3,0.1,0.5,0.1s0.3-0.1,0.5-0.1V2.1C40.3,2,40.2,2,40,2S39.7,2,39.5,2.1z"/><path fill="#c74343" d="M59.8,32.5c-0.1,0-7.5-3.5-7.8-11.4c-7.6-0.2-12.1-4.5-12.3-4.7l0.7-0.7c0,0,4.6,4.4,12.1,4.4H53v0.5 c0,7.6,7.2,11,7.2,11L59.8,32.5z"/><path fill="#c74343" d="M20.2 32.5l-.4-.9c.1 0 7.2-3.4 7.2-11v-.5h.5c7.5 0 12.1-4.4 12.2-4.4l.7.7c-.2.2-4.7 4.5-12.4 4.7C27.7 29 20.3 32.4 20.2 32.5zM40.4 67.4l-.9-.4c.1-.2 3-5.8 11-5.8v1C43.2 62.1 40.6 67.2 40.4 67.4z"/><path fill="#c74343" d="M39.5,67.4c-0.1-0.2-2.6-5.4-10-5.4v-1c8,0,10.8,5.7,10.9,5.9L39.5,67.4z"/><path fill="#c74343" d="M8.4 38.5H75.7V39.5H8.4z" transform="rotate(-61.033 42.048 39.016)"/><path fill="#c74343" d="M37.5 5.4H38.5V72.80000000000001H37.5z" transform="rotate(-28.955 38.038 39.062)"/><path fill="#66798f" d="M19,21c-1.8,2.2-2,8-2,8c0,11.7,1.3,20.8,7.3,26.7l0.5,0.5l0.6-0.3c7.4-3.7,13.1-12,13.4-12.3 l0.8-1.2L38.3,42C38.1,42,21,37.4,19,29C19,29,18.3,25.5,19,21z"/><path fill="#fff" d="M38,43c0,0-18.7-5-20-14c0,12.3,1.6,20.6,7,26C32.3,51.4,38,43,38,43z"/><path fill="#66798f" d="M61,29c-2,8.4-19.1,13-19.3,13l-1.4,0.4l0.8,1.2c0.2,0.3,5.9,8.6,13.4,12.3l0.6,0.3l0.5-0.5 c5.9-5.9,7.3-15,7.3-26.7c0,0-0.2-5.8-2-8C61.8,25.5,61,29,61,29z"/><g><path fill="#fff" d="M42,43c0,0,18.7-5,20-14c0,12.3-1.6,20.6-7,26C47.7,51.4,42,43,42,43z"/></g></svg>