<svg xmlns="http://www.w3.org/2000/svg" viewBox="0 0 80 80" width="30px" height="30px"><path fill="#8bb7f0" d="M0.5,50.409V39.616l9.487-23.429c1.869-5.688,5.439-5.688,7.155-5.688h45.715 c1.716,0,5.286,0,7.145,5.656L79.5,39.4v11.009H0.5z"/><path fill="#4e7ab5" d="M62.857,11c1.721,0,4.924,0,6.669,5.312l0.011,0.034l0.013,0.033L79,39.498v10.411H1V39.713 l9.451-23.338l0.013-0.031l0.01-0.032C12.218,11,15.422,11,17.143,11H40H62.857 M62.857,10H40H17.143c-2.095,0-5.714,0.2-7.619,6 L0,39.518c0,1.516,0,11.391,0,11.391h80c0,0,0-9.808,0-11.608L70.476,16C68.571,10.2,64.952,10,62.857,10L62.857,10z"/><path fill="#c2e8ff" d="M4,69.5c-1.93,0-3.5-1.57-3.5-3.5V40c0-1.93,1.57-3.5,3.5-3.5h72c1.93,0,3.5,1.57,3.5,3.5v26 c0,1.93-1.57,3.5-3.5,3.5H4z"/><path fill="#7496c4" d="M76,37c1.654,0,3,1.346,3,3v26c0,1.654-1.346,3-3,3H4c-1.654,0-3-1.346-3-3V40c0-1.654,1.346-3,3-3 H76 M76,36H4c-2.209,0-4,1.791-4,4v26c0,2.209,1.791,4,4,4h72c2.209,0,4-1.791,4-4V40C80,37.791,78.209,36,76,36L76,36z"/><path fill="#f5c276" d="M6.5 63.5L6.5 42.986 34.473 63.5z"/><path fill="#4e7ab5" d="M7,43.973L32.945,63H7V43.973 M6,42v22h30L6,42L6,42z"/><path fill="#8bb7f0" d="M67.419 37L40 55 13.581 37 10 37 40 57.41 71 37z"/><path fill="#fff" d="M16,58c2.209,0,4-1.791,4-4c0-0.182-0.03-0.357-0.054-0.533l-4.634-3.398	C13.432,50.396,12,52.026,12,54C12,56.209,13.791,58,16,58z"/><g><path fill="#f5c276" d="M45.527 63.5L73.5 42.986 73.5 63.5z"/><path fill="#4e7ab5" d="M73,43.973V63H47.055L73,43.973 M74,42L44,64h30V42L74,42z"/></g><path fill="#fff" d="M64,58c-2.209,0-4-1.791-4-4c0-0.182,0.03-0.357,0.054-0.533l4.634-3.398	C66.568,50.396,68,52.026,68,54C68,56.209,66.209,58,64,58z"/><g><path fill="#4e7ab5" d="M10.474,16.312l-0.01,0.032l-0.013,0.031l-4.702,11.61c2.259,0.005,6.01,0.265,7.727-2.618 C15.528,21.919,16.144,18,19.633,18c6.363,0,13.136-2.69,14.367-7H17.143C15.422,11,12.218,11,10.474,16.312z"/></g></svg>