<svg xmlns="http://www.w3.org/2000/svg" viewBox="0 0 80 80" width="30px" height="30px"><path fill="#f76d6d" d="M60.222,55.418c-0.794-0.989-3.586-4.748-3.586-8.63c0-3.938,2.056-6.288,5.5-6.288 s5.5,2.351,5.5,6.288C67.636,52.474,61.657,54.915,60.222,55.418z"/><path fill="#c74343" d="M62.136,41c3.178,0,5,2.11,5,5.788c0,5.056-4.96,7.372-6.741,8.04 c-0.959-1.252-3.259-4.613-3.259-8.04C57.136,43.11,58.958,41,62.136,41 M62.136,40c-3.257,0-6,2.036-6,6.788 c0,4.751,3.918,9.212,3.918,9.212s8.082-2.333,8.082-9.212C68.136,42.036,65.393,40,62.136,40L62.136,40z"/><path fill="#f76d6d" d="M20.05,55.418c-1.436-0.506-7.414-2.955-7.414-8.63c0-3.938,2.056-6.288,5.5-6.288 s5.5,2.351,5.5,6.288C23.636,50.676,20.845,54.429,20.05,55.418z"/><path fill="#c74343" d="M18.136,41c3.178,0,5,2.11,5,5.788c0,3.424-2.296,6.782-3.256,8.036 c-1.769-0.678-6.744-3.032-6.744-8.036C13.136,43.11,14.958,41,18.136,41 M18.136,40c-3.257,0-6,2.036-6,6.788 c0,6.879,8.082,9.212,8.082,9.212s3.918-4.461,3.918-9.212C24.136,42.036,21.393,40,18.136,40L18.136,40z"/><path fill="#f7a3a3" d="M40.133,77.5c-10.045,0-21.497-16.78-21.497-31.5c0-16.507,3.656-27.5,21.5-27.5 c21.5,0,21.5,12.744,21.5,27.5C61.636,60.72,50.181,77.5,40.133,77.5z"/><path fill="#c74343" d="M40.136,19c9.525,0,15.312,2.44,18.213,7.679c2.587,4.673,2.787,10.956,2.787,19.321 c0,14.486-11.188,31-21.003,31c-9.812,0-20.997-16.514-20.997-31C19.136,29.794,22.707,19,40.136,19 M40.136,18 c-18.978,0-22,12.518-22,28s11.808,32,21.997,32c10.189,0,22.003-16.518,22.003-32S61.702,18,40.136,18L40.136,18z"/><g><path fill="#f76d6d" d="M18.82,46.796c-0.476-3.242-2.6-5.733-4.499-7.962c-1.896-2.223-3.686-4.322-3.686-6.834 c0-0.669,0.294-1.709,0.635-2.913c0.924-3.271,2.294-8.118-0.216-12.559c4.571,0.297,5.522,2.829,6.228,4.709 c0.141,0.374,0.269,0.711,0.406,0.986l0.947,1.894V22c0-0.669,0.185-1.844,0.399-3.204c0.602-3.821,1.48-9.405,0.086-13.678 c3.877,2.286,5.414,4.598,6.785,6.658c0.864,1.298,1.68,2.523,2.959,3.611l0.618,0.525l0.191-0.788 c0.007-0.026,0.653-2.678,1.168-5.075c0.824-3.158,3.991-5.974,7.943-7.185c-0.863,1.302-1.278,2.952-1.161,4.727 c0.141,2.12,1.017,4.014,2.233,4.824l0.558,0.372l0.197-0.641c2.371-7.705,8.884-9.063,13.691-9.505 c-2.386,2.017-4.565,5.541-5.419,7.818c-0.289,0.865-0.383,2.483,0.295,3.424c0.333,0.462,0.811,0.706,1.382,0.706 c1.897,0,5.101-2.523,5.893-5.336c1.298,2.104,0.677,4.078,0.164,5.705c-0.463,1.469-0.941,2.988,0.629,3.773 c0.243,0.1,0.456,0.141,0.669,0.141c0.597,0,1.182-0.317,1.739-0.945c1.437-1.614,2.641-5.381,2.941-8.102 c2.273,4.634,1.093,8.533,0.206,11.458c-0.531,1.755-0.95,3.141-0.386,4.138c0.295,0.52,0.817,0.867,1.597,1.063 c0.147,0.037,0.296,0.056,0.441,0.056c0.419,0,1.033-0.156,1.586-0.897c0.895-1.2,1.252-3.419,0.999-5.669 c1.423,2.265,2.577,5.708,2.449,9.149c-0.158,4.249-1.926,8.537-4.399,10.67c-1.353,1.202-3.008,4.569-3.557,6.958 c-0.68-1.53-0.882-3.818-0.898-4.761c0-12.122-6.937-17.022-9.919-18.565l-1.227-0.678l0.372,1.193 c0.372,1.19,0.161,2.345-0.106,3.805c-0.24,1.317-0.529,2.896-0.401,4.863c-0.494-0.424-1.056-0.841-1.635-1.271 c-1.011-0.752-2.057-1.529-2.664-2.319c-0.75-0.975-0.912-1.399-1.305-2.425c-0.239-0.627-0.568-1.485-1.159-2.799l-0.641-1.423 l-0.306,1.53c-0.346,1.728-1.068,2.693-1.832,3.717c-0.956,1.277-1.94,2.595-2.141,5.328c-3.771-3.438-4.81-7.737-5.045-9.036 l-0.177-0.972l-0.679,0.717c-3.024,3.192-3.973,4.764-2.422,9.585c-2.643-0.94-4.42-2.911-4.719-5.303l-0.187-1.494l-0.744,1.309 c-1.649,2.899-3.853,10.606-4.064,14.218c-0.017,0.275-0.026,0.562-0.036,0.854C19.554,44.184,19.506,45.578,18.82,46.796z"/><path fill="#c74343" d="M52.89,3.304c-2.01,2.11-3.735,5.014-4.485,7.016c-0.295,0.884-0.455,2.713,0.37,3.857 c0.425,0.589,1.059,0.913,1.787,0.913c1.836,0,4.68-2.026,5.938-4.573c0.51,1.534,0.056,2.976-0.358,4.291 c-0.476,1.513-1.069,3.395,0.882,4.371l0.037,0.019l0.039,0.015c0.265,0.106,0.54,0.16,0.817,0.16c0.746,0,1.457-0.375,2.114-1.114 c1.282-1.442,2.271-4.18,2.772-6.613c1.255,3.775,0.279,6.999-0.477,9.494c-0.566,1.869-1.013,3.345-0.342,4.529 c0.361,0.637,1.004,1.074,1.91,1.301c0.187,0.047,0.377,0.07,0.563,0.07c0.533,0,1.31-0.191,1.987-1.099 c0.673-0.903,1.069-2.283,1.162-3.831c0.88,2.01,1.478,4.501,1.385,6.995c-0.15,4.054-1.888,8.294-4.238,10.32 c-1.146,1.019-2.464,3.427-3.238,5.631c-0.246-1.073-0.364-2.241-0.379-3.056c0-12.406-7.126-17.433-10.189-19.019l-0.121-0.063 l-2.186-1.214l0.746,2.387c0.335,1.073,0.134,2.174-0.121,3.567c-0.2,1.093-0.432,2.362-0.442,3.883 c-0.265-0.204-0.536-0.405-0.804-0.604c-0.984-0.731-2.001-1.488-2.566-2.222c-0.706-0.918-0.85-1.294-1.235-2.3 c-0.242-0.632-0.573-1.499-1.17-2.824l-1.281-2.846l-0.612,3.06c-0.323,1.617-0.981,2.497-1.742,3.516 c-0.833,1.115-1.754,2.347-2.117,4.563c-3.074-3.193-3.963-6.889-4.176-8.062l-0.353-1.941l-1.357,1.432 c-2.896,3.057-4,4.769-2.84,9.054c-1.934-0.97-3.204-2.587-3.442-4.49l-0.373-2.987l-1.488,2.617 c-1.71,3.006-3.909,10.696-4.129,14.436c-0.016,0.28-0.026,0.57-0.037,0.867c-0.025,0.741-0.051,1.493-0.187,2.213 c-0.844-2.562-2.606-4.628-4.212-6.512c-1.834-2.151-3.566-4.182-3.566-6.509c0-0.599,0.285-1.608,0.616-2.777 c0.891-3.152,2.186-7.731,0.169-12.102c3.477,0.517,4.254,2.586,4.894,4.293c0.14,0.373,0.272,0.724,0.426,1.033l1.894,3.789V22 c0-0.63,0.182-1.787,0.393-3.127c0.553-3.511,1.336-8.488,0.409-12.658c2.99,1.985,4.289,3.937,5.553,5.837 c0.884,1.328,1.719,2.583,3.052,3.716l1.235,1.05l0.384-1.574c0.006-0.027,0.654-2.685,1.16-5.046 c0.689-2.64,3.217-5.09,6.412-6.416c-0.483,1.15-0.697,2.462-0.606,3.843c0.15,2.269,1.113,4.314,2.454,5.208l1.116,0.744 l0.394-1.282C43.137,5.644,48.442,3.902,52.89,3.304 M56.136,2c-5.009,0.345-13.236,1.018-16,10c-2.161-1.44-3.226-7.116,0.063-10 c-4.491,0.864-8.809,3.973-9.845,7.945c-0.518,2.418-1.163,5.061-1.163,5.061C25.735,12.07,25.736,7.973,18.136,4 c2.764,5.7,0,15.236,0,18c-0.864-1.727-1.264-6-8-6c4.167,6.083,0,13.236,0,16c0,5.7,8.283,9.061,8.283,16.143 c1.81-1.81,1.604-4.22,1.717-6.143c0.207-3.514,2.36-11.116,4-14c0.345,2.764,2.545,5.136,6,6c-1.9-5.355-1.109-6.718,2-10 c0.345,1.9,1.682,6.545,6,10c0-5.75,3.136-5.682,4-10c1.555,3.455,1.25,3.667,2.524,5.323s4.145,3.109,5.355,4.664 c-0.795-4.904,1.189-7.432,0.325-10.195c0.763,0.424,9.796,4.467,9.796,18.208c0,0,0.076,4.507,1.712,6.143 c0-2.073,2.015-6.588,3.57-7.97c2.488-2.145,4.407-6.548,4.573-11.03c0.168-4.541-1.819-9.107-3.854-11.143 c1.125,3.776,0.184,8.041-1.68,8.041c-0.104,0-0.211-0.013-0.32-0.041c-4.836-1.209,4.218-8.327-2-18 c0.326,2.767-1.804,10.374-4.219,10.374c-0.147,0-0.297-0.029-0.446-0.088c-2.764-1.382,2.81-5.622-1.336-10.286 c0,2.936-3.673,6.091-5.573,6.091c-1.555,0-1.555-2.418-1.209-3.455C50.39,7.873,53.372,3.382,56.136,2L56.136,2z"/></g><path fill="#ffeea3" d="M56.136 44c0 0-3.134 6-7 6s-7-3-7-3 3.134-3 7-3S56.136 44 56.136 44zM38.136 47c0 0-3.134 3-7 3s-7-6-7-6 3.134 0 7 0S38.136 47 38.136 47z"/></svg>