<svg xmlns="http://www.w3.org/2000/svg" viewBox="0 0 80 80" width="30px" height="30px"><path fill="#deb974" d="M59,55.5c-4.357,0-7.643-3.044-7.643-7.08c0-4.214,3.429-7.643,7.643-7.643 c3.699,0,8.531-3.904,10.482-5.626C69.233,43.474,66.305,55.5,59,55.5z"/><path fill="#967a44" d="M68.933,36.278C68.448,44.708,65.314,55,59,55c-4.139,0-7.143-2.767-7.143-6.58 c0-3.939,3.204-7.143,7.143-7.143C62.378,41.277,66.595,38.22,68.933,36.278 M70,34c0,0-6.503,6.277-11,6.277 s-8.143,3.646-8.143,8.143c0,4.497,3.646,7.58,8.143,7.58C66.804,56,70,43.161,70,34L70,34z"/><path fill="#deb974" d="M21,55.5c-7.305,0-10.233-12.026-10.482-20.349c1.951,1.723,6.783,5.626,10.482,5.626 c4.214,0,7.643,3.428,7.643,7.643C28.643,52.456,25.357,55.5,21,55.5z"/><path fill="#967a44" d="M11.067,36.278c2.338,1.942,6.555,4.999,9.933,4.999c3.939,0,7.143,3.204,7.143,7.143 c0,3.813-3.004,6.58-7.143,6.58C14.686,55,11.552,44.708,11.067,36.278 M10,34c0,9.161,3.196,22,11,22 c4.497,0,8.143-3.083,8.143-7.58c0-4.497-3.646-8.143-8.143-8.143S10,34,10,34L10,34z"/><path fill="#ffeea3" d="M40,77.5c-2.657,0-5.214-1.134-7.017-3.112l-0.084-0.092l-0.117-0.042 C24.239,71.209,18.5,63.07,18.5,53.999V24.762c0-5.506,4.479-9.985,9.984-9.985h23.031c5.506,0,9.984,4.479,9.984,9.985v29.237 c0,9.07-5.739,17.21-14.282,20.254l-0.117,0.042l-0.084,0.092C45.214,76.366,42.657,77.5,40,77.5z"/><path fill="#ba9b48" d="M51.515,15.277c5.23,0,9.485,4.255,9.485,9.485V54c0,8.859-5.606,16.81-13.95,19.784l-0.235,0.084 l-0.168,0.185C44.939,75.925,42.517,77,40,77s-4.939-1.075-6.646-2.948l-0.168-0.185l-0.235-0.084C24.606,70.809,19,62.859,19,54 V24.762c0-5.23,4.255-9.485,9.485-9.485H51.515 M51.515,14.277h-23.03C22.694,14.277,18,18.972,18,24.762V54 c0,9.559,6.098,17.69,14.614,20.725C34.443,76.732,37.07,78,40,78s5.557-1.268,7.386-3.275C55.902,71.69,62,63.558,62,54V24.762 C62,18.972,57.306,14.277,51.515,14.277L51.515,14.277z"/><path fill="#36404d" d="M51 46.277A3 3 0 1 0 51 52.277 3 3 0 1 0 51 46.277zM29 46.277A3 3 0 1 0 29 52.277 3 3 0 1 0 29 46.277z"/><g><path fill="#a6714e" d="M35.5,43.758c-7.061-0.379-10.644-5.024-12.143-7.73c1.871,1.128,5.501,2.527,12.143,2.737V43.758z"/><path fill="#7a4f34" d="M24.759,37.311c2.106,0.896,5.346,1.736,10.241,1.936v3.975 C29.703,42.759,26.515,39.773,24.759,37.311 M22,34.277c0,0,3.312,9.746,14,10v-6C24.577,38.023,22,34.277,22,34.277L22,34.277z"/></g><g><path fill="#a6714e" d="M44.5,38.764c6.642-0.21,10.271-1.608,12.143-2.737c-1.499,2.706-5.082,7.351-12.143,7.73V38.764z"/><path fill="#7a4f34" d="M55.241,37.311c-1.755,2.462-4.944,5.448-10.241,5.91v-3.975 C49.895,39.047,53.134,38.207,55.241,37.311 M58,34.277c0,0-2.577,3.746-14,4v6C54.687,44.023,58,34.277,58,34.277L58,34.277z"/></g><g><path fill="#b08159" d="M61.5,47.5V30c0-2.607-1.893-4.5-4.5-4.5c-0.875,0-2.278,0.493-4.221,1.175 C49.386,27.867,44.739,29.5,40,29.5s-9.386-1.633-12.779-2.825C25.278,25.993,23.875,25.5,23,25.5c-2.607,0-4.5,1.893-4.5,4.5v17.5 h-0.188C17.429,45.664,12.5,35.012,12.5,26c0-11.318,8.605-23.5,27.5-23.5S67.5,14.682,67.5,26c0,9.012-4.929,19.664-5.813,21.5 H61.5z"/><path fill="#a16a4a" d="M40,3c18.551,0,27,11.923,27,23c0,7.372-3.352,15.882-5,19.621V30c0-2.897-2.103-5-5-5 c-0.961,0-2.397,0.505-4.386,1.203C49.255,27.384,44.654,29,40,29s-9.255-1.616-12.614-2.797C25.397,25.505,23.961,25,23,25 c-2.897,0-5,2.103-5,5v15.621C16.352,41.882,13,33.372,13,26C13,14.923,21.449,3,40,3 M40,2C20.83,2,12,14.514,12,26 c0,10.087,6,22,6,22h1c0,0,0-15.588,0-18c0-2.412,1.766-4,4-4s9.536,4,17,4s14.766-4,17-4s4,1.588,4,4c0,2.412,0,18,0,18h1 c0,0,6-11.913,6-22C68,14.514,59.17,2,40,2L40,2z"/></g></svg>