<svg xmlns="http://www.w3.org/2000/svg" viewBox="0 0 80 80" width="30px" height="30px"><path fill="#839cb2" d="M22.264,74.673C21.573,71.12,20.4,66.75,18.5,63.849V28.5h43v35.349 c-1.9,2.901-3.073,7.271-3.764,10.824c-1.523-2.522-2.71-5.708-3.243-8.759c-0.583-3.487-12.878-9.416-14.278-10.08L40,55.732 l-0.214,0.102c-1.4,0.665-13.695,6.593-14.279,10.083C24.975,68.966,23.787,72.151,22.264,74.673z"/><path fill="#66798f" d="M61,29v34.702c-1.666,2.609-2.772,6.296-3.484,9.561c-1.179-2.251-2.086-4.888-2.53-7.428 c-0.597-3.571-11.293-8.903-14.557-10.453L40,55.179l-0.429,0.204c-3.264,1.549-13.96,6.882-14.556,10.446 c-0.444,2.545-1.352,5.184-2.531,7.435c-0.712-3.265-1.818-6.953-3.484-9.561V29h21H61 M62,28H40H18v36 c2.208,3.284,3.407,8.591,4,12c1.989-2.856,3.419-6.675,4-10c0.557-3.333,14-9.714,14-9.714S53.443,62.667,54,66 c0.581,3.325,2.011,7.144,4,10c0.593-3.409,1.792-8.716,4-12V28L62,28z"/><path fill="#788b9c" d="M71.056,76.72c-2.392-2.003-5.216-5.979-6.604-8.932L63.5,65.76v10.292 c-2.085-3.967-6.954-14.256-7-23.914l5.783-9.638H69.5V64c0,0.725-0.009,1.379-0.017,1.988 C69.438,69.466,69.412,71.508,71.056,76.72z M8.944,76.72c1.645-5.211,1.618-7.253,1.573-10.732C10.509,65.379,10.5,64.725,10.5,64 V42.5h7.217l5.783,9.638c-0.046,9.657-4.915,19.947-7,23.914V65.76l-0.953,2.028C14.16,70.741,11.336,74.716,8.944,76.72z"/><path fill="#66798f" d="M69,43v21c0,0.722-0.009,1.374-0.016,1.981c-0.04,3.095-0.066,5.068,1.051,9.066 c-1.965-2.091-4.026-5.123-5.129-7.472L63,63.519V68v5.96c-2.299-4.711-5.919-13.424-5.999-21.685L62.566,43H69 M17.434,43 l5.565,9.275c-0.079,8.253-3.7,16.968-5.999,21.682V68v-4.481l-1.905,4.055c-1.104,2.35-3.165,5.381-5.129,7.472 c1.117-3.998,1.091-5.971,1.051-9.066C11.009,65.374,11,64.722,11,64V43H17.434 M70,42h-8l-6,10c0,12.554,8,26,8,26V68 c1.569,3.34,5.23,8.437,8,10c-2.434-7.243-2-8.826-2-14V42L70,42z M18,42h-8v22c0,5.174,0.434,6.757-2,14 c2.77-1.563,6.431-6.66,8-10v10c0,0,8-13.446,8-26L18,42L18,42z"/><path fill="#e1ebf2" d="M69.856,62.029c-1.628-5.475-1.464-11.65-1.381-14.78C68.489,46.736,68.5,46.313,68.5,46h-1 c0,1.05-0.941,4.379-1.852,7.599c-0.663,2.345-1.344,4.753-1.802,6.719c-0.904-2.533-1.346-5.648-1.346-9.461v-3.341 c1.09-1.98,1.738-3.418,1.929-4.275c0.046-0.153,0.071-0.331,0.071-0.526c0-2.177-7.697-14.324-8.574-15.702 c-0.145-0.266-3.758-6.76-7.323-7.453C49.832,14.115,53.944,8.5,62,8.5c12.26,0,15.5,11.447,15.5,17.5 c0,8.81-2.819,17.997-5.085,25.379l-0.25,0.815c-0.02,0.081-0.055,0.213-0.111,0.426C71.133,56.112,70.396,59.268,69.856,62.029z"/><path fill="#a3b7cc" d="M62,9c11.865,0,15,11.12,15,17c0,8.736-2.808,17.884-5.064,25.235l-0.249,0.813l-0.012,0.044 l-0.008,0.032c-0.011,0.044-0.044,0.17-0.095,0.366c-0.695,2.635-1.286,5.079-1.767,7.31c-1.035-4.82-0.902-9.829-0.83-12.537 C68.989,46.744,69,46.317,69,46h-2c0,0.981-0.974,4.425-1.833,7.464c-0.476,1.685-0.962,3.401-1.368,4.967 C63.263,56.293,63,53.787,63,50.857v-3.213c1.077-1.967,1.703-3.365,1.91-4.265c0.062-0.221,0.09-0.433,0.09-0.665 c0-2.207-6.586-12.725-8.636-15.944c-0.458-0.828-3.666-6.428-7.159-7.568C50.068,15.888,52.953,9,62,9 M62,8 c-8.829,0-12.922,6.38-14,12c3.496,0,7.504,7.281,7.504,7.281S64,40.62,64,42.714c0,0.166-0.024,0.296-0.06,0.418 c-0.208,0.938-0.997,2.549-1.94,4.255c0,1.266,0,2.935,0,3.47c0,3.575,0.385,7.738,2,11.143c0.848-4.58,4-13.908,4-16 c0,2.385-0.658,11.158,2,18c0.961-5.542,2.597-11.436,2.643-11.659C74.994,44.668,78,35.208,78,26C78,19.719,74.667,8,62,8L62,8z"/><path fill="#e1ebf2" d="M10.144,62.029c-0.541-2.768-1.279-5.926-2.201-9.42c-0.054-0.207-0.088-0.335-0.097-0.373 l-0.261-0.857C5.319,43.997,2.5,34.81,2.5,26C2.5,19.947,5.74,8.5,18,8.5c8.056,0,12.168,5.615,13.397,11.06 c-3.565,0.693-7.179,7.189-7.339,7.48C23.197,28.391,15.5,40.538,15.5,42.714c0,0.192,0.025,0.37,0.079,0.556 c0.185,0.838,0.816,2.237,1.921,4.245v3.341c0,3.813-0.442,6.928-1.346,9.461c-0.458-1.966-1.139-4.374-1.802-6.719 C13.441,50.379,12.5,47.05,12.5,46h-1c0,0.313,0.011,0.736,0.025,1.249C11.608,50.379,11.772,56.554,10.144,62.029z"/><path fill="#a3b7cc" d="M18,9c9.047,0,11.932,6.888,12.794,10.203c-3.493,1.141-6.7,6.74-7.159,7.568 C21.586,29.989,15,40.507,15,42.714c0,0.232,0.029,0.444,0.09,0.665c0.207,0.9,0.832,2.297,1.91,4.265v3.213 c0,2.93-0.263,5.436-0.799,7.573c-0.407-1.566-0.892-3.282-1.368-4.967C13.974,50.425,13,46.981,13,46h-2 c0,0.317,0.011,0.744,0.025,1.262c0.072,2.708,0.205,7.717-0.83,12.537c-0.481-2.231-1.072-4.675-1.767-7.31 c-0.052-0.196-0.085-0.321-0.092-0.35l-0.01-0.046l-0.014-0.045l-0.249-0.813C5.808,43.884,3,34.736,3,26C3,20.12,6.135,9,18,9 M18,8C5.333,8,2,19.719,2,26c0,9.208,3.006,18.668,5.357,26.341C7.403,52.564,9.039,58.458,10,64c2.658-6.842,2-15.615,2-18 c0,2.092,3.152,11.42,4,16c1.615-3.405,2-7.568,2-11.143c0-0.535,0-2.204,0-3.47c-0.943-1.706-1.732-3.317-1.94-4.255 C16.024,43.01,16,42.88,16,42.714c0-2.094,8.496-15.433,8.496-15.433S28.504,20,32,20C30.922,14.38,26.829,8,18,8L18,8z"/><path fill="#839cb2" d="M24.501,57.5c0.1-15.972,4.949-27.135,5.814-29h19.368c0.866,1.865,5.714,13.028,5.814,29H24.501z"/><path fill="#66798f" d="M49.363,29c1.11,2.469,5.443,13.045,5.63,28H40H25.006c0.187-14.929,4.521-25.526,5.631-28H40 H49.363 M50,28H40H30c0,0-6,11.933-6,30h16h16C56,39.933,50,28,50,28L50,28z"/><path fill="#ffeea3" d="M64,42.714c0-2.094-8.496-15.433-8.496-15.433S51.496,20,48,20h-8h-8 c-3.496,0-7.504,7.281-7.504,7.281S16,40.62,16,42.714C16,44.808,22,54,22,54s-5.588,6.234,2,10c0,8.991,2,14,2,14h12V66h2h2v12h12 c0,0,2-5.009,2-14c7.588-3.766,2-10,2-10S64,44.808,64,42.714z M25.062,57.916l-0.007-0.004C26.75,54.173,24,50,24,50l-2-8 l7.788-10H30l2,16C30.958,49.008,27.015,53.06,25.062,57.916z M54.945,57.912l-0.007,0.004C52.985,53.06,49.042,49.008,48,48l2-16 h0.212L58,42l-2,8C56,50,53.25,54.173,54.945,57.912z"/><path fill="#ffeea3" d="M42.5,77.5v-12h-5v12H26.352C25.933,76.276,24.5,71.531,24.5,64c0-7.034,4.863-12.767,7.762-15.559 l0.265-0.256l-1.904-15.229L40,38.583l9.376-5.626l-1.903,15.229l0.41,0.392c6.549,6.148,7.757,11.771,7.618,15.404 c0,7.547-1.434,12.295-1.852,13.519H42.5z"/><path fill="#f5c276" d="M48.753,33.914l-1.745,13.962l-0.062,0.495l0.359,0.347l0.236,0.224 C53.952,54.962,55.136,60.432,55,64c0,6.889-1.21,11.415-1.713,13H43V66v-1h-1h-2h-2h-1v1v11H26.713C26.209,75.414,25,70.888,25,64 c0-6.848,4.767-12.461,7.609-15.198l0.087-0.084l0.359-0.347l-0.062-0.495l-1.745-13.962l8.238,4.943L40,39.166l0.514-0.309 L48.753,33.914 M50,32l-10,6l-10-6l2,16c-1.042,1.008-8,7.5-8,16c0,8.991,2,14,2,14h12V66h2h2v12h12c0,0,2-5.009,2-14 c0.333-8.667-6.958-14.992-8-16L50,32L50,32z"/><path fill="#f78f8f" d="M32.357 37.786H47.643V39.5H32.357z"/><path fill="#c74343" d="M47.143,38.286V39H32.857v-0.714H47.143 M48.143,37.286H31.857V40h16.286V37.286L48.143,37.286z"/><path fill="#f5ce85" d="M40,3c4.363,0,9,1.388,9,3.962C49,9.489,44.424,11,40,11s-9-1.511-9-4.038C31,4.388,35.637,3,40,3 M40,2c-5,0-10,1.654-10,4.962C30,10.269,35.031,12,40,12s10-1.731,10-5.038C50,3.654,45,2,40,2L40,2z"/><path fill="#f5c276" d="M31.265 21l-.048.083c.024-.003.048-.012.072-.015C31.281 21.05 31.265 21 31.265 21zM40 53A1 1 0 1 0 40 55 1 1 0 1 0 40 53z"/><g><path fill="#f78f8f" d="M38.338,71.5c-0.727-1.71-4.5-9.424-13.625-9.965c0.163-1.026,0.419-2.043,0.765-3.035h29.207 c0.326,0.984,0.557,1.998,0.688,3.025c-9.32,0.489-13.007,8.242-13.716,9.975H38.338z"/><path fill="#c74343" d="M54.32,59c0.207,0.676,0.368,1.366,0.481,2.063C46.073,61.794,42.313,68.77,41.328,71H40h-1.337 c-1.005-2.201-4.826-9.135-13.362-9.922c0.134-0.7,0.314-1.395,0.536-2.078H40H54.32 M55.042,58H40H25.126 c-0.466,1.255-0.808,2.601-0.986,4.011C34.565,62.285,38,72,38,72h2h2c0,0,3.283-9.766,13.929-9.995 C55.796,60.592,55.486,59.248,55.042,58L55.042,58z"/></g><g><path fill="#f78f8f" d="M32.5 36.5H47.5V39.5H32.5z"/><path fill="#c74343" d="M47,37v2H33v-2H47 M48,36H32v4h16V36L48,36z"/></g><g><path fill="#f78f8f" d="M48,41.5c-5.156,0-6.997-4.138-7.418-5.325l9.333-7.466C50.831,29.929,53.5,33.68,53.5,36 C53.5,38.704,51.443,41.5,48,41.5z"/><path fill="#c74343" d="M49.824,29.421C51.063,31.123,53,34.17,53,36c0,2.424-1.752,5-5,5c-4.427,0-6.248-3.277-6.82-4.663 L49.824,29.421 M50,28l-10,8c0,0,1.638,6,8,6c3.748,0,6-3.002,6-6S50,28,50,28L50,28z"/></g><g><path fill="#f78f8f" d="M32,41.5c-3.443,0-5.5-2.796-5.5-5.5c0-2.323,2.669-6.072,3.586-7.291l9.333,7.466 C38.997,37.362,37.156,41.5,32,41.5z"/><path fill="#c74343" d="M30.176,29.422l8.644,6.915C38.247,37.725,36.425,41,32,41c-3.248,0-5-2.576-5-5 C27,34.174,28.937,31.125,30.176,29.422 M30,28c0,0-4,5.002-4,8s2.252,6,6,6c6.362,0,8-6,8-6L30,28L30,28z"/></g><path fill="#f5c276" d="M40 20L32 20 32 21 40 21 48 21 48 20z"/><g><path fill="#fff" d="M66 40H67V46H66zM64 12H65V18H64zM74 32H75V38H74zM54 12H55V18H54zM70 16H71V22H70zM66 20H67V26H66zM72 24H73V30H72zM64 32H65V38H64zM62 24H63V30H62zM59 31v-3h-1v1.374C58.315 29.882 58.653 30.43 59 31zM68 28H69V34H68zM70 36H71V42H70zM60 16H61V22H60zM56 20H57V26H56zM62 10h1V9.03C62.673 9.012 62.341 9 62 9V10zM68 10.159V14h1v-3.357C68.678 10.47 68.346 10.308 68 10.159zM51 16h-.595c-.148.297-.284.589-.405.876v2.67c.339.174.673.384 1 .622V16zM58 14h1V9.286c-.348.069-.675.158-1 .25V14zM74 18h1v-.811c-.295-.617-.627-1.224-1-1.811V18zM76 26h1c0-1.695-.263-3.826-.918-6H76V26zM73 44h-1v6h.315c.226-.739.455-1.497.685-2.267V44z"/></g><g><path fill="#fff" d="M13 40H14V46H13zM15 12H16V18H15zM5 32H6V38H5zM25 12H26V18H25zM9 16H10V22H9zM13 20H14V26H13zM7 24H8V30H7zM15 32H16V38H15zM17 24H18V30H17zM21 31v-3h1v1.374C21.685 29.882 21.347 30.43 21 31zM11 28H12V34H11zM9 36H10V42H9zM19 16H20V22H19zM23 20H24V26H23zM18 10h-1V9.03C17.327 9.012 17.659 9 18 9V10zM12 10.159V14h-1v-3.357C11.322 10.47 11.654 10.308 12 10.159zM29 16h.595c.148.297.284.589.405.876v2.67c-.339.174-.673.384-1 .622V16zM22 14h-1V9.286c.348.069.675.158 1 .25V14zM6 18H5v-.811c.295-.617.627-1.224 1-1.811V18zM4 26H3c0-1.695.263-3.826.918-6H4V26zM7 44h1v6H7.685C7.459 49.261 7.23 48.503 7 47.733V44z"/></g></svg>