<svg xmlns="http://www.w3.org/2000/svg" viewBox="0 0 80 80" width="30px" height="30px"><path fill="#b08159" d="M61,68.5c-7.5,0-13.4-7-13.4-15.9v-0.5H30.4v0.5c0,8.9-5.9,15.9-13.4,15.9c-4.7,0-8.5-1.4-11.1-4.1 C1.5,60,1.5,53.3,1.5,53c0-4.3,2.1-7.8,4-11.2c1.9-3.3,4-6.8,4-10.8C9.5,15.6,23.6,1.5,39,1.5s29.5,14,29.5,29.5 c0,4.1,2,7.5,4,10.8c2,3.4,4,6.9,4,11.2c0,0.3,0,7-4.4,11.4C69.5,67.1,65.7,68.5,61,68.5z"/><path fill="#a16a4a" d="M39,2c7.2,0,14.5,3.1,20.1,8.6C64.8,16.3,68,23.5,68,31c0,4.2,2,7.7,4,11.1c2,3.5,4,6.8,4,10.9 c0,0.3,0,6.8-4.2,11.1C69.2,66.7,65.6,68,61,68c-8,0-12.9-7.8-12.9-15.4v-1h-1H39h-8.1h-1v1C29.9,60.1,25,68,17,68 c-4.6,0-8.2-1.3-10.8-3.9C2,59.8,2,53.3,2,53c0-4.1,1.9-7.4,4-10.9c2-3.4,4-6.9,4-11.1c0-7.5,3.2-14.7,8.9-20.4 C24.5,5.2,31.8,2,39,2 M39,1C23.6,1,9,14.7,9,31c0,8-8,13.4-8,22c0,0.1-0.3,16,16,16c8.2,0,13.9-7.7,13.9-16.4H39h8.1 C47.1,61.3,52.8,69,61,69c16.3,0,16-15.9,16-16c0-8.6-8-14-8-22C69,14.7,54.4,1,39,1L39,1z"/><path fill="#f5ce85" d="M39,70.6c-9.7,0-21.5-12.1-21.5-27.1V25c0-7,7.3-23.4,21.5-23.4c14,0,21.5,16.6,21.5,23.4v18.4 C60.5,58.5,48.7,70.6,39,70.6z"/><path fill="#a16a4a" d="M39,2.1c13.6,0,21,16.3,21,22.9v18.4c0,14.8-11.5,26.6-21,26.6S18,58.2,18,43.4V25 C18,18.2,25.1,2.1,39,2.1 M39,1.1C24.6,1.1,17,17.6,17,25s0,18.4,0,18.4c0,15.3,12,27.6,22,27.6s22-12.4,22-27.6c0,0,0-11.3,0-18.4 S53.4,1.1,39,1.1L39,1.1z"/><path fill="#4b6477" d="M28 39.5A2.5 2.5 0 1 0 28 44.5A2.5 2.5 0 1 0 28 39.5Z"/><path fill="#36404d" d="M28,40c1.1,0,2,0.9,2,2s-0.9,2-2,2s-2-0.9-2-2S26.9,40,28,40 M28,39c-1.7,0-3,1.3-3,3s1.3,3,3,3 c1.7,0,3-1.3,3-3S29.7,39,28,39L28,39z"/><path fill="#4b6477" d="M50 39.5A2.5 2.5 0 1 0 50 44.5A2.5 2.5 0 1 0 50 39.5Z"/><path fill="#36404d" d="M50,40c1.1,0,2,0.9,2,2s-0.9,2-2,2s-2-0.9-2-2S48.9,40,50,40 M50,39c-1.7,0-3,1.3-3,3s1.3,3,3,3 c1.7,0,3-1.3,3-3S51.7,39,50,39L50,39z"/><path fill="#c29653" d="M31.9 57.8L31.2 57c.1-.1 2.3-2 7.8-2 5.5 0 7.7 1.9 7.8 2l-.7.7c0 0-2-1.7-7.1-1.7C33.9 56 31.9 57.7 31.9 57.8zM47.8 24c-2.5 0-5.9-.2-8.8-2.8C35.8 24 31.8 24 29.4 24L29 24v-1l.4 0c2.4 0 6.3 0 9.3-2.8l.4-.3.3.3c2.9 2.9 6.5 2.9 9.1 2.8l.6 0v1l-.6 0C48.2 24 48 24 47.8 24zM47.8 18c-2.5 0-5.9-.2-8.8-2.8C35.8 18 31.8 18 29.4 18L29 18v-1l.4 0c2.4 0 6.3 0 9.3-2.8l.4-.3.3.3c2.9 2.9 6.5 2.9 9.1 2.8l.6 0v1l-.6 0C48.2 18 48 18 47.8 18zM47.8 12c-2.5 0-5.9-.2-8.8-2.8C35.8 12 31.8 12 29.4 12L29 12v-1l.4 0c2.4 0 6.3 0 9.3-2.8L39 7.8l.3.3c2.9 2.9 6.5 2.9 9.1 2.8l.6 0v1l-.6 0C48.2 12 48 12 47.8 12z"/><g><path fill="#b08159" d="M39,76.5c0,0-3.5,0-6.8-1.7c-4.4-2.2-6.7-6.2-6.7-11.8c0-11.7,8.7-13.3,11-13.5v5.1 c-1.4,0.4-6,2.2-6,8.4c0,1.6,0.8,4.5,3.4,4.5c2.7,0,3.5-2.9,3.6-4.5c0,0,0-0.7,0.4-1.1c0.2-0.3,0.6-0.4,1.1-0.4 c0.5,0,0.8,0.1,1.1,0.4c0.4,0.4,0.4,1.1,0.4,1.1c0,1.6,0.7,4.5,3.5,4.5c2.6,0,3.4-2.9,3.5-4.5c0-6.2-4.6-8-6-8.4v-5.1 c2.3,0.2,11,1.8,11,13.5c0,5.6-2.2,9.5-6.6,11.8C42.6,76.5,39.2,76.5,39,76.5L39,76.5L39,76.5z"/><path fill="#a16a4a" d="M42,50.1c2.7,0.4,10,2.4,10,12.9c0,12.8-12.5,13-13,13c-0.5,0-13-0.2-13-13 c0-10.4,7.3-12.5,10-12.9v4.1c-1.8,0.6-6,2.7-6,8.8c0,1.7,0.9,5,3.9,5c3.1,0,4-3.3,4.1-5c0,0,0-0.5,0.3-0.7 c0.1-0.1,0.2-0.2,0.7-0.2c0.8,0,1,0.5,1,1c0,1.7,0.9,5,4,5c3,0,3.9-3.2,4-5c0-6-4.2-8.1-6-8.8L42,50.1 M41,49v6c0,0,6,1.1,6,8 c0,0-0.1,4-3,4c-3,0-3-4-3-4s0-2-2-2s-2,2-2,2s-0.1,4-3.1,4c-2.9,0-2.9-4-2.9-4c0-7,6-8,6-8v-6c0,0-12,0.2-12,14 c0,13.9,13.9,14,14,14h0c0,0,0,0,0,0c0.3,0,14-0.1,14-14C53,49.2,41,49,41,49L41,49z"/></g><g><path fill="#a16a4a" d="M45.5,31.5c1.5-0.2,6-1.1,8.8-5.8c-1.1,8.1-7,10.3-8.8,10.7V31.5z"/><path fill="#704e34" d="M53.4,27.8c-1.5,5.4-5.4,7.3-7.4,7.9v-3.8C47.6,31.6,50.8,30.8,53.4,27.8 M55,23c-2.8,7.9-10,8-10,8 v6C45,37,55,35.5,55,23L55,23z"/></g><g><path fill="#a16a4a" d="M32.5,36.4c-1.9-0.5-7.8-2.6-8.8-10.8c2.8,4.8,7.3,5.7,8.8,5.8V36.4z"/><path fill="#704e34" d="M24.6,27.8c2.6,3,5.8,3.8,7.4,4.1v3.8C30,35.1,26.1,33.2,24.6,27.8 M23,23c0,12.6,10,14,10,14v-6 C33,31,25.8,30.9,23,23L23,23z"/></g></svg>