<svg xmlns="http://www.w3.org/2000/svg" viewBox="0 0 80 80" width="30px" height="30px"><path fill="#8bb7f0" d="M22.8,33.2C19.6,31.3,8.5,24.5,8.5,18V4.1l0,0l0-0.1c0-0.4,0.2-0.8,0.4-1C9.2,2.7,9.6,2.5,10,2.5 c1.5,0.1,3.4,1.1,4.9,2.6c1.8,1.8,2.5,3.7,2.6,4.8c0,0.4-0.1,0.8-0.4,1.1c-0.3,0.3-0.7,0.4-1.1,0.4l-0.1,0c-0.8,0-2.4,0.7-2.4,2.5 v4c0,2.4,3.8,5.7,11.8,10.2L22.8,33.2z"/><path fill="#7496c4" d="M10,3L10,3c1.4,0.1,3.1,1,4.5,2.5C16.3,7.2,16.9,9,17,9.9c0,0.3-0.1,0.6-0.3,0.8 C16.5,10.9,16.3,11,16,11c0,0,0,0,0,0l-0.1,0h0c-1.2,0-2.9,1-2.9,3v4c0,2.6,3.6,5.8,11.7,10.4l-2.1,4.1C18.9,30.4,9,24,9,18V4.3 l0,0L9,4c0-0.3,0.1-0.5,0.3-0.7C9.5,3.1,9.7,3,10,3 M10,2C9.5,2,9,2.2,8.6,2.6C8.2,3,8,3.5,8,4c0,0,0,0,0,0c0,0,0,7.4,0,14 c0,7.2,12.5,14.5,15,15.9l3-5.9c-5.1-2.9-12-7.1-12-10c0-1.5,0-2.8,0-4c0-1.4,1.3-2,1.9-2c0,0,0,0,0,0c0,0,0.1,0,0.1,0 c0.5,0,1-0.2,1.4-0.6C17.8,11,18,10.5,18,9.9c-0.1-1.2-0.8-3.2-2.7-5.1C13.6,3.1,11.7,2.1,10,2C10.1,2,10,2,10,2L10,2z"/><path fill="#8bb7f0" d="M54.7,28.2c8.1-4.5,11.8-7.8,11.8-10.2v-4c0-1.8-1.5-2.5-2.4-2.5l-0.1,0c-0.4,0-0.8-0.2-1.1-0.4 c-0.3-0.3-0.5-0.7-0.4-1.1c0.1-1.1,0.8-3,2.6-4.8c1.5-1.5,3.4-2.5,4.8-2.6c0,0,0,0,0,0c0.5,0,0.8,0.2,1.1,0.4 c0.3,0.3,0.4,0.6,0.4,1l0,0.1l0,0V18c0,6.5-11.1,13.3-14.3,15.2L54.7,28.2z"/><path fill="#7496c4" d="M70,3c0.3,0,0.5,0.1,0.7,0.3C70.9,3.5,71,3.7,71,4l0,0.2l0,0V18c0,6-9.9,12.4-13.6,14.5l-2.1-4.1 C63.4,23.8,67,20.6,67,18v-4c0-2-1.7-3-2.9-3L64,11l0,0c-0.3,0-0.5-0.1-0.7-0.3c-0.2-0.2-0.3-0.5-0.3-0.8c0-1,0.7-2.8,2.5-4.5 C66.9,4,68.6,3.1,70,3L70,3 M70,2C70,2,69.9,2,70,2c-1.7,0.1-3.6,1.1-5.3,2.7c-1.9,1.9-2.7,3.9-2.7,5.1c0,0.6,0.2,1.1,0.6,1.5 C63,11.8,63.5,12,64,12c0,0,0.1,0,0.1,0c0,0,0,0,0,0c0.6,0,1.9,0.6,1.9,2c0,1.2,0,2.5,0,4c0,2.9-6.9,7.1-12,10l3,5.9 c2.5-1.4,15-8.7,15-15.9c0-6.6,0-14,0-14c0,0,0,0,0,0c0-0.5-0.2-1-0.6-1.4C71,2.2,70.5,2,70,2L70,2z"/><path fill="#c2e8ff" d="M38.6,67.8c-5,0-9.7-1.2-14.3-3.6c-7.5-3-11.8-11.8-11.8-24.2c0-14.7,9.4-29.5,27.5-29.5 c18.2,0,27,15.3,27.5,29.5c0.4,11.3-4.6,21.4-12.1,24.4C48.6,66.7,43.4,67.8,38.6,67.8z"/><path fill="#8bb7f0" d="M40,11c17.9,0,26.5,15,27,29c0.4,11.1-4.5,21-11.8,23.9c-6.8,2.3-11.9,3.3-16.7,3.3 c-4.9,0-9.5-1.2-14.1-3.5l0,0l0,0C17.2,60.8,13,52.1,13,40C13,25.6,22.3,11,40,11 M40,10c-18.6,0-28,15.4-28,30 c0,11.8,3.9,21.3,12,24.6c4.9,2.6,9.7,3.6,14.6,3.6c5.4,0,10.9-1.3,17-3.4C63.7,61.6,68.4,51,68,40C67.5,25.4,58.5,10,40,10L40,10z"/><path fill="#8bb7f0" d="M40,77.5c-5.1,0-17.5-7.2-17.5-25.2l0-1.3c0-6.1-0.1-16.1,5.3-22.1c1.2,3,6.1,13.6,14.2,13.6h0.5V42 c0-6.5,7.5-12.1,9.4-13.3c5.2,7.7,5.6,15.3,5.6,23.6C57.5,69.8,44.8,77.5,40,77.5z"/><path fill="#4e7ab5" d="M51.7,29.4c4.8,7.5,5.2,14.8,5.2,22.9C57,69.4,44.7,77,40,77c-5,0-17-7.1-17-24.7c0-0.4,0-0.8,0-1.3 c0-5.8-0.1-15.3,4.7-21.2C29.3,33.6,34.2,43,42,43h1v-1C43,36.1,49.4,31,51.7,29.4 M52,28c0,0-10,6.2-10,14c-8.9,0-14-14-14-14 c-6.5,6.5-6,18.1-6,24.3C22,70.4,34.6,78,40,78c5.4,0,18-8.1,18-25.7C58,44.3,57.6,36.1,52,28L52,28z"/><path fill="#c74343" d="M48.1,50.9c-4.2,0-5.4-2.7-5.4-2.7l10.9-2.7C53.6,45.4,52.3,50.9,48.1,50.9z"/><path fill="#4e7ab5" d="M47.4,64.9C47.3,64.8,44.5,63,40,63c-4.5,0-7.3,1.8-7.4,1.9l-0.6-0.8c0.1-0.1,3.1-2,7.9-2 s7.8,2,7.9,2L47.4,64.9z"/><path fill="#212121" d="M50.9,48.1c0-0.7-0.3-1.4-0.7-1.8l-4.5,1.1c-0.1,0.2-0.1,0.5-0.1,0.7c0,1.5,1.2,2.7,2.7,2.7 S50.9,49.6,50.9,48.1z"/><path fill="#c74343" d="M26.4,45.4l10.9,2.7c0,0-1.3,2.7-5.4,2.7S26.4,45.4,26.4,45.4z"/><path fill="#212121" d="M29.1,48.1c0-0.7,0.3-1.4,0.7-1.8l4.5,1.1c0.1,0.2,0.1,0.5,0.1,0.7c0,1.5-1.2,2.7-2.7,2.7 C30.4,50.9,29.1,49.6,29.1,48.1z"/><path fill="#36404d" d="M71 3.9c0-.2-.1-.5-.3-.6C70.5 3.1 70.3 3 70 3l0 0c-1.3.1-3.1 1-4.5 2.5C63.7 7.2 63.1 9 63 9.9c0 .3.1.6.3.8.1.1.3.2.5.3 1.6-.1 3.1-.8 4.7-2.4C70.3 6.7 70.8 5.5 71 3.9zM17 10.1c0 .2-.1.5-.3.6C16.6 10.9 16.3 11 16 11l0 0c-1.3-.1-3.1-1-4.5-2.5C9.8 6.8 9.1 5 9 4c0-.3.1-.6.3-.8C9.5 3.1 9.6 3 9.8 3c1.6.2 3.1.8 4.7 2.4C16.3 7.2 16.9 8.5 17 10.1z"/></svg>