<svg xmlns="http://www.w3.org/2000/svg" viewBox="0 0 80 80" width="30px" height="30px"><rect width="30" height="27.449" x="26.5" y="50" fill="#ffeea3"/><path fill="#ba9b48" d="M57,77.949H26V49.5h31V77.949z M27,76.949h29V50.5H27V76.949z"/><rect width="1" height="18.25" x="50" y="56.5" fill="#ba9b48"/><rect width="1" height="18.25" x="44" y="56.5" fill="#ba9b48"/><rect width="1" height="18.25" x="38" y="56.5" fill="#ba9b48"/><rect width="31.33" height="1" x="25.17" y="67" fill="#ba9b48"/><path fill="#c5d4de" d="M37.805,72.5c-3.749,0-6.817-2.925-6.817-6.5s3.068-6.5,6.817-6.5H60.5v-32c0-8.8-7.688-16-17.084-16	h-8.833c-9.396,0-17.084,7.2-17.084,16v51.484h38.869V72.5H37.805z"/><path fill="#fff" d="M24.5,73.333c-0.276,0-0.5-0.224-0.5-0.5v-46C24,20.859,28.86,16,34.833,16 c0.276,0,0.5,0.224,0.5,0.5s-0.224,0.5-0.5,0.5C29.411,17,25,21.411,25,26.833v46C25,73.109,24.776,73.333,24.5,73.333z"/><polygon fill="#b0c1d4" points="32.842,52.079 40.923,59.5 60.694,59.5 60.694,53.026"/><rect width="4" height="8.333" x="35.5" y=".5" fill="#c5d4de"/><path fill="#788b9c" d="M40,9.333h-5V0h5V9.333z M36,8.333h3V1h-3V8.333z"/><polygon fill="#e1ebf2" points="41.06,7.5 33.94,7.5 31.594,11.5 43.406,11.5"/><path fill="#788b9c" d="M44.279,12H30.721l2.934-5h7.691L44.279,12z M32.467,11h10.066l-1.76-3h-6.547L32.467,11z"/><rect width="3" height="4" x="36" fill="#c5d4de"/><path fill="#788b9c" d="M57,79H17V27.5C17,18.402,24.888,11,34.583,11h8.833C53.112,11,61,18.402,61,27.5V60H37.805 C34.18,60,31,62.804,31,66s3.18,6,6.805,6H57V79z M18,78h38v-5H37.805C33.647,73,30,69.729,30,66s3.647-7,7.805-7H60V27.5 C60,18.953,52.561,12,43.417,12h-8.833C25.439,12,18,18.953,18,27.5V78z"/><path fill="#e1ebf2" d="M71.258,35.605l-4.73-3.499C64.666,30.489,62.245,29.5,59.6,29.5H33.1c-5.83,0-10.6,4.77-10.6,10.6 c0,4.031,2.282,7.553,5.617,9.344l4.552,2.928l1.076-1.673H59.6c5.83,0,10.6-4.77,10.6-10.6v0c0-0.133-0.015-0.263-0.02-0.395 l0.823,0.101L71.258,35.605z"/><path fill="none" stroke="#788b9c" stroke-miterlimit="10" d="M71.258,35.605l-4.73-3.499C64.666,30.489,62.245,29.5,59.6,29.5 H33.1c-5.83,0-10.6,4.77-10.6,10.6c0,4.031,2.282,7.553,5.617,9.344l4.552,2.928l1.076-1.673H59.6c5.83,0,10.6-4.77,10.6-10.6v0 c0-0.133-0.015-0.263-0.02-0.395l0.823,0.101L71.258,35.605z"/><path fill="#66798f" d="M64.9,51.937H40.167c-4.761,0-8.657-3.895-8.657-8.657v0c0-4.761,3.895-8.657,8.657-8.657H64.9	c4.761,0,8.657,3.895,8.657,8.657v0C73.557,48.041,69.661,51.937,64.9,51.937z"/><circle cx="54.49" cy="43.81" r="9.01" fill="#ffeea3"/><path fill="#ba9b48" d="M54.49,53.32c-5.244,0-9.51-4.267-9.51-9.511s4.266-9.51,9.51-9.51c5.244,0,9.51,4.266,9.51,9.51 S59.734,53.32,54.49,53.32z M54.49,35.3c-4.692,0-8.51,3.817-8.51,8.51s3.818,8.511,8.51,8.511S63,48.502,63,43.81 S59.183,35.3,54.49,35.3z"/><g><circle cx="38.49" cy="43.81" r="9.01" fill="#ffeea3"/><path fill="#ba9b48" d="M38.49,53.32c-5.244,0-9.51-4.267-9.51-9.511s4.266-9.51,9.51-9.51c5.244,0,9.51,4.266,9.51,9.51 S43.734,53.32,38.49,53.32z M38.49,35.3c-4.692,0-8.51,3.817-8.51,8.51s3.818,8.511,8.51,8.511S47,48.502,47,43.81 S43.183,35.3,38.49,35.3z"/></g><circle cx="51.5" cy="43.5" r="1.5" fill="#66798f"/><circle cx="34.5" cy="43.5" r="1.5" fill="#66798f"/><g><path fill="#e1ebf2" d="M65.367,33.5H37.633C32.06,33.5,27.5,38,27.5,43.5c0,5.5,4.56,10,10.133,10h27.733 c5.573,0,10.133-4.5,10.133-10C75.5,38,70.94,33.5,65.367,33.5z M65.263,50.5H37.649c-3.822,0-7.149-3.213-7.149-6.985 s3.327-7.015,7.149-7.015h27.614c3.822,0,7.237,3.244,7.237,7.015S69.085,50.5,65.263,50.5z"/><path fill="#788b9c" d="M65.367,54H37.633C31.77,54,27,49.29,27,43.5S31.77,33,37.633,33h27.733C71.23,33,76,37.71,76,43.5 S71.23,54,65.367,54z M37.633,34C32.321,34,28,38.262,28,43.5s4.321,9.5,9.633,9.5h27.733C70.679,53,75,48.738,75,43.5 S70.679,34,65.367,34H37.633z M65.263,51H37.649C33.503,51,30,47.572,30,43.516C30,39.512,33.574,36,37.649,36h27.614 C69.384,36,73,39.512,73,43.516C73,47.503,69.384,51,65.263,51z M37.649,37C34.107,37,31,40.045,31,43.516 C31,46.97,34.107,50,37.649,50h27.614C68.852,50,72,46.97,72,43.516C72,40.045,68.852,37,65.263,37H37.649z"/></g></svg>