<svg xmlns="http://www.w3.org/2000/svg" viewBox="0 0 80 80" width="30px" height="30px"><path fill="#8bb7f0" d="M43.5,47.35c6.919-0.381,10.398-2.024,13.207-3.35c1.867-0.881,3.343-1.578,5.293-1.578 c1.521,0,3.262-0.628,4.5-1.181c0.359,0.059,0.663,0.112,0.896,0.154c-0.352,1.344-1.604,5.128-4.896,6.829V42.5H62 c-2.321,0-3.31,2.59-4.355,5.332c-0.99,2.592-2.011,5.266-4.145,5.627v-7.334H53c-1.257,0-2.162,1.783-3.414,4.25 c-1.52,2.993-3.389,6.676-6.086,7.087V47.35z"/><path fill="#4e7ab5" d="M66.565,41.759c0.068,0.011,0.134,0.022,0.197,0.033C66.327,43.2,65.256,45.809,63,47.345V43v-0.152 C64.265,42.67,65.56,42.2,66.565,41.759 M59.247,43.435c-0.878,1.094-1.479,2.671-2.07,4.218c-1.006,2.636-1.828,4.53-3.177,5.138 v-6.167v-0.886c1.12-0.437,2.069-0.885,2.92-1.286C57.772,44.051,58.516,43.7,59.247,43.435 M51.158,46.68 c-0.668,0.809-1.287,2.029-2.018,3.468c-1.348,2.657-2.984,5.878-5.14,6.67v-8.997C46.92,47.63,49.246,47.203,51.158,46.68 M66.432,40.724c-1.22,0.557-2.949,1.199-4.432,1.199c-5.078,0-6.981,4.403-19,4.951c0,1.629,0,5.487,0,11.125 c5.445,0,7.615-11.375,10-11.375V54c5.333,0,4.796-11,9-11c0,0,0,3.139,0,6c4.917-1.935,6-8,6-8S67.393,40.88,66.432,40.724 L66.432,40.724z"/><path fill="#8bb7f0" d="M29.229,23.5c-0.365-0.096-1.247-0.154-2.562-0.154c-4.521,0-6.48-1.507-8.374-2.965 c-1.396-1.075-2.716-2.09-4.886-2.415c-3.342-0.501-4.951-3.109-6.161-7.725C8.48,12.305,9.617,13.5,11.96,13.5 c2.495,0,4.305,1.185,6.398,2.556C20.824,17.67,23.618,19.5,28,19.5h7.238l-0.891-0.86c-1.5-1.447-3.928-3.371-7.681-3.371 c-3.908,0-6.489-2.579-7.695-7.674C21.743,11.283,25.228,11.5,26,11.5c3.402,0,4.979,0.484,6.649,0.997 c1.611,0.495,3.273,1.005,6.587,1.073c-1.273,2.404-3.772,8.478-4.365,9.931H29.229z"/><path fill="#4e7ab5" d="M20.081,9.549C22.64,11.842,25.318,12,26,12c3.328,0,4.87,0.473,6.502,0.974 c1.507,0.463,3.058,0.939,5.909,1.068c-0.238,0.516-0.534,1.175-0.913,2.018c-0.419,0.933-0.946,2.122-1.519,3.46l-1.286-1.241 c-1.562-1.507-4.094-3.511-8.028-3.511C23.587,14.769,21.382,13.017,20.081,9.549 M8.588,12.795C9.457,13.566,10.509,14,12,14 c2.306,0,4.057,1.146,6.084,2.474C20.608,18.127,23.469,20,28,20h6h1.776c-0.403,0.947-0.825,1.959-1.245,3h-5.258 c-0.501-0.103-1.357-0.154-2.606-0.154c-4.351,0-6.241-1.454-8.069-2.861c-1.385-1.066-2.818-2.169-5.116-2.513 C11.241,17.136,9.765,15.832,8.588,12.795 M18,5c0.744,5.773,3.083,10.769,8.667,10.769c3.75,0,6.103,2.043,7.333,3.231 c0,0-3.25,0-6,0c-7.833,0-10.333-6-16-6c-0.013,0-0.027,0-0.04,0C8.979,13,8.21,10.927,6,7c1.38,6.903,2.988,10.81,7.333,11.462 c4.938,0.739,5.333,5.385,13.333,5.385c1.574,0,2.233,0.084,2.493,0.154h0.068c0,0,0,0,0.001-0.001c0,0,0,0,0,0l5.978,0 C37.411,18.477,39.95,13.086,40,13.077c-7.417,0-6.954-2.077-14-2.077C24.067,11,20.318,9.891,18,5L18,5z"/><path fill="#8bb7f0" d="M6.509,74.5l0.096-5.637c0.021-1.277-0.812-1.618-1.547-1.92c-0.251-0.103-0.527-0.214-0.809-0.376 c-1.926-1.108-3.098-3.814-3.552-5.059c1.875-0.029,7.014-0.45,9.565-4.008H31.5v17H6.509z"/><path fill="#7496c4" d="M31,58v11.615V74H7.017l0.087-5.129c0.027-1.618-1.106-2.083-1.857-2.391 c-0.248-0.102-0.504-0.207-0.749-0.347c-1.513-0.87-2.539-2.845-3.081-4.152c2.267-0.13,6.657-0.807,9.097-3.981H31 M32,57H10 c-2.464,3.721-7.905,4.01-9.532,4.01C0.17,61.01,0,61,0,61s1.26,4.424,4,6c1.107,0.637,2.126,0.568,2.104,1.854L6,75h26 c0,0,0-1.01,0-5.385V57L32,57z"/><path fill="#4e7ab5" d="M39 35L36 29 42 29zM45 35L42 29 48 29zM51 35L48 29 54 29zM57 35L54 29 60 29zM63 35L60 29 66 27 66 29zM39 35L36 41 42 41zM45 35L42 41 48 41zM51 35L48 41 54 41zM57 35L54 41 60 41z"/><path fill="#8bb7f0" d="M10.5,68.5V61c0-0.865-0.522-2.5-2.5-2.5c-2.885,0-4.646-3.488-5.269-4.985 c2.401-0.003,8.207-0.41,11.493-4.015H33.5v19H10.5z"/><path fill="#7496c4" d="M33,50v18H11v-7c0-1.206-0.799-3-3-3c-2.229,0-3.752-2.427-4.504-3.998 C6.231,53.908,11.32,53.266,14.442,50H33 M34,49H14c-3.188,3.687-9.242,4.015-11.297,4.015C2.257,53.015,2,53,2,53s1.939,6,6,6 c2,0,2,2,2,2v8h24V49L34,49z"/><path fill="#8bb7f0" d="M14.5,62.5V53c0.004,0,0.11-1.003-0.548-1.747c-0.443-0.5-1.1-0.753-1.952-0.753 c-2.056,0-5.628-1.592-7.245-4.996c2.206-0.036,8.115-0.478,11.464-4.004H35.5v21H14.5z"/><path fill="#7496c4" d="M35,42v20H15v-8.956c0.023-0.302,0.038-1.319-0.674-2.123C13.954,50.501,13.248,50,12,50 c-1.781,0-4.783-1.287-6.426-4.024C8.205,45.841,13.292,45.155,16.43,42H35 M36,41H16c-3.38,3.746-9.834,4.007-11.565,4.007 C4.156,45.007,4,45,4,45c1.5,4.038,5.538,6,8,6c2.243,0,2,2,2,2v10h22V41L36,41z"/><g><path fill="#8bb7f0" d="M66.5,34.5v-0.977c0.15,0.004,0.328,0.007,0.528,0.007c2.19,0,6.036-0.346,7.177-2.662 c0.66-1.338,0.29-3.079-1.1-5.182c2.509,0.536,3.541,1.636,3.553,1.648l0.869,0.951L77.529,27c0-2.477-0.981-4.783-1.848-6.336 c1.663,1.28,3.818,3.563,3.818,6.797c0,4.67-3.502,7.039-10.409,7.039H66.5z"/><path fill="#4e7ab5" d="M77.232,22.837C78.21,24.03,79,25.576,79,27.462C79,29.079,79,34,69.091,34h-0.952 c2.323-0.128,5.438-0.726,6.515-2.91c0.621-1.26,0.457-2.799-0.486-4.593c1.481,0.511,2.112,1.165,2.114,1.167l1.747,1.965V27 C78.029,25.513,77.691,24.087,77.232,22.837 M74,19c0,0,3.029,3.788,3.029,8c0,0-1.404-1.579-5.029-2 c5.667,7.378-2.06,8.03-4.971,8.03C66.403,33.03,66,33,66,33v2c0,0,1.924,0,3.091,0C78.684,35,80,30.515,80,27.462 C80,21.83,74,19,74,19L74,19z"/></g><g><path fill="#8bb7f0" d="M18.5,56.5V45c0-1.974-1.551-2.5-2.467-2.5c-5.604,0-7.067-3.577-7.427-4.994 c1.947-0.022,7.437-0.417,9.645-4.006h11.257c0.281,8.792,7.994,9.855,9.992,9.983V56.5H18.5z"/><path fill="#7496c4" d="M29.032,34c0.469,7.251,6.039,9.633,9.968,9.96V56H19V45c0-2.061-1.537-3-2.999-3 c0,0-0.001,0-0.001,0c-4.534,0-6.155-2.512-6.718-4.014c2.348-0.111,7.05-0.751,9.241-3.986H29.032 M30,33H17.964 c-2.049,3.742-7.924,4.007-9.545,4.007C8.152,37.007,8,37,8,37s0.636,6,8,6c0,0,0.012-0.001,0.034-0.001 C16.295,42.999,18,43.073,18,45c0,2.087,0,12,0,12h22c0-3.417,0-14,0-14s-0.015,0-0.045,0C39.232,43,30,42.808,30,33L30,33z"/></g><g><path fill="#c2e8ff" d="M24.5,50.5V43c0-5.481-2.309-8.5-6.5-8.5c-3.715,0-6.225-3.471-7.151-5.004 c4.817-0.052,8.952-0.656,13.508-5.299c0.862-0.878,1.636-1.909,2.453-3c2.68-3.571,5.716-7.62,13.19-7.62 c7.582,0,11.548,5.648,11.588,5.706l0.148,0.217l0.264,0c10.549,0,11.515,1.778,11.522,1.796l0.061,0.431L64,21.654 c4.141,0,5.287,4.386,5.478,5.28C69.264,27.219,67.983,28.5,62,28.5H40c-3.233,0-6.209,2.555-6.498,5.58 c-0.126,1.327,0.211,2.441,1.003,3.312c1.272,1.399,3.688,2.109,7.181,2.109l0.314,0c4.07,0,7.903-0.634,11.285-1.194 C55.897,37.874,58.153,37.5,60,37.5c3.197,0,6.079,2.367,7.17,3.383C66.118,41.431,63.829,42.5,62,42.5 c-2.179,0-3.985,0.943-6.077,2.035C52.538,46.301,48.325,48.5,40,48.5h-0.5v2H24.5z"/><path fill="#7496c4" d="M40,14.077c7.302,0,11.021,5.265,11.174,5.487L51.472,20H52c8.752,0,10.695,1.207,11.039,1.501 l0.091,0.652H64c3.445,0,4.621,3.425,4.926,4.618C68.481,27.132,66.902,28,62,28H40c-3.48,0-6.684,2.762-6.995,6.032 c-0.14,1.473,0.24,2.716,1.13,3.695c1.391,1.529,3.861,2.273,7.552,2.273l0.184,0L42,40c4.111,0,7.966-0.638,11.367-1.201 C55.957,38.37,58.194,38,60,38c2.592,0,4.997,1.679,6.285,2.768C65.071,41.34,63.346,42,62,42c-2.301,0-4.158,0.969-6.308,2.091 C52.355,45.833,48.203,48,40,48h-1v1v1H25v-7c0-5.72-2.551-9-7-9c-2.955,0-5.124-2.413-6.243-4.023 c4.442-0.134,8.58-0.97,12.956-5.431c0.885-0.902,1.668-1.945,2.496-3.05C29.946,17.849,32.776,14.077,40,14.077 M40,13.077 c-10,0-12.315,7.013-16,10.769C19.455,28.479,15.34,29,10,29c0,0,2.887,6,8,6c4.418,0,6,3.539,6,8v8h16v-2c13.722,0,16.651-6,22-6 c2.615,0,6-2,6-2s-3.682-4-8-4s-10.842,2-18,2c-0.088,0-0.193,0.001-0.314,0.001c-1.987,0-8.138-0.136-7.686-4.873 C34.272,31.273,37.16,29,40,29h22c7.5,0,8-2,8-2s-1-5.846-6-5.846c0,0-0.299-2.154-12-2.154C52,19,47.955,13.077,40,13.077 L40,13.077z"/></g><g><path fill="#4b6477" d="M59.333,25.264c-0.459,0-0.833-0.396-0.833-0.882s0.374-0.882,0.833-0.882h1.945 C60.96,24.211,60.322,25.264,59.333,25.264z"/><path fill="#36404d" d="M60.431,24c-0.286,0.416-0.66,0.764-1.098,0.764c-0.184,0-0.333-0.171-0.333-0.382 S59.15,24,59.333,24H60.431 M62,23c0,0-1.931,0-2.667,0C58.597,23,58,23.619,58,24.382s0.597,1.382,1.333,1.382 C61.223,25.764,62,23,62,23L62,23z"/></g><g><path fill="#4b6477" d="M42.8,22.5c-1.555,0-3.978-1.74-5.482-3H42.8c1.507,0,2.362,1.097,2.646,1.54 C45.238,21.47,44.559,22.5,42.8,22.5z"/><path fill="#36404d" d="M42.8,20c1.047,0,1.722,0.642,2.056,1.07C44.594,21.451,44.007,22,42.8,22 c-1.029,0-2.634-0.943-4.052-2H42.8 M42.8,19c-2.21,0-6.8,0-6.8,0s4.197,4,6.8,4s3.2-2,3.2-2S45.01,19,42.8,19L42.8,19z"/></g></svg>