<svg xmlns="http://www.w3.org/2000/svg" viewBox="0 0 80 80" width="30px" height="30px"><path fill="#e8d47b" d="M63,43.5c-3.584,0-6.5-2.916-6.5-6.5s2.916-6.5,6.5-6.5s6.5,2.916,6.5,6.5S66.584,43.5,63,43.5z"/><path fill="#ba9b48" d="M63,31c3.308,0,6,2.692,6,6s-2.692,6-6,6s-6-2.692-6-6S59.692,31,63,31 M63,30 c-3.866,0-7,3.134-7,7s3.134,7,7,7s7-3.134,7-7S66.866,30,63,30L63,30z"/><path fill="#e8d47b" d="M17,43.5c-3.584,0-6.5-2.916-6.5-6.5s2.916-6.5,6.5-6.5s6.5,2.916,6.5,6.5S20.584,43.5,17,43.5z"/><path fill="#ba9b48" d="M17,31c3.308,0,6,2.692,6,6s-2.692,6-6,6s-6-2.692-6-6S13.692,31,17,31 M17,30 c-3.866,0-7,3.134-7,7s3.134,7,7,7s7-3.134,7-7S20.866,30,17,30L17,30z"/><path fill="#8bb7f0" d="M24,25.5c-4.206,0-7.5-3.294-7.5-7.5c0-3.582,2.568-6.111,7.634-7.518 c2.517-0.699,4.641-2.299,6.695-3.846C33.652,4.509,36.32,2.5,40,2.5s6.348,2.009,9.171,4.136c2.055,1.547,4.179,3.147,6.695,3.846 C60.932,11.889,63.5,14.418,63.5,18c0,4.206-3.294,7.5-7.5,7.5H24z"/><path fill="#4e7ab5" d="M40,3c3.513,0,6.115,1.96,8.87,4.035c2.091,1.575,4.254,3.204,6.862,3.929 C60.623,12.322,63,14.624,63,18c0,3.925-3.075,7-7,7H40H24c-3.925,0-7-3.075-7-7c0-3.376,2.377-5.678,7.268-7.036 c2.608-0.724,4.771-2.353,6.862-3.929C33.885,4.96,36.487,3,40,3 M40,2c-6.677,0-10.277,6.41-16,8c-4.333,1.204-8,3.503-8,8 s3.503,8,8,8s6.58,0,16,0s11.503,0,16,0s8-3.503,8-8s-3.667-6.796-8-8C50.277,8.41,46.677,2,40,2L40,2z"/><path fill="#ffeea3" d="M16.5,59.5V36c0-13.178,10.322-23.5,23.5-23.5S63.5,22.822,63.5,36v23.5H16.5z"/><path fill="#ba9b48" d="M40,13c12.897,0,23,10.103,23,23v23H17V36C17,23.103,27.103,13,40,13 M40,12 c-13.492,0-24,10.508-24,24v24h48V36C64,22.508,53.492,12,40,12L40,12z"/><path fill="#36404d" d="M49 32A3 3 0 1 0 49 38 3 3 0 1 0 49 32zM31 32A3 3 0 1 0 31 38 3 3 0 1 0 31 32z"/><path fill="#839cb2" d="M40,23.5c-7.521,0-13.072-3.88-15.14-5.578C29.134,14.421,34.486,12.5,40,12.5 s10.866,1.921,15.14,5.422C53.072,19.62,47.521,23.5,40,23.5z"/><path fill="#66798f" d="M40,13c5.191,0,10.238,1.74,14.339,4.923C51.018,20.5,45.775,23,40,23s-11.018-2.5-14.339-5.077 C29.762,14.74,34.809,13,40,13 M40,12c-6.085,0-11.638,2.239-15.915,5.92C27.476,20.89,33.332,24,40,24s12.524-3.11,15.915-6.08 C51.638,14.239,46.085,12,40,12L40,12z"/><path fill="#36404d" d="M32 26c-3.186 0-5.427 2.691-6 4h6c3.043 0 4.095 4.334 4.106 4.378l2.645-.61C38.69 33.504 37.206 26 32 26zM48 26c3.186 0 5.427 2.691 6 4l-5.857-.143c-3.043 0-4.095 4.334-4.106 4.378l-2.645-.61C41.453 33.361 42.794 26 48 26z"/><g><path fill="#e8d47b" d="M40,37.5c-0.16,0-0.326-0.022-0.521-0.07l-0.122-0.039c-0.138-0.042-0.265-0.094-0.385-0.158 c-0.193-0.109-0.291-0.181-0.386-0.259c-0.916-0.717-1.631-2.061-2.321-3.361c-0.56-1.052-1.129-2.123-1.829-2.927 c0.707,0.21,1.245,0.495,1.772,0.774C37.174,31.972,38.172,32.5,40,32.5s2.826-0.528,3.792-1.039 c0.527-0.28,1.065-0.564,1.771-0.774c-0.699,0.804-1.269,1.875-1.828,2.927c-0.69,1.299-1.405,2.643-2.309,3.35 c-0.107,0.09-0.206,0.161-0.312,0.223c-0.207,0.111-0.334,0.163-0.467,0.203l-0.127,0.041C40.326,37.478,40.16,37.5,40,37.5z"/><path fill="#ba9b48" d="M44.147,31.838c-0.302,0.505-0.582,1.03-0.853,1.54c-0.666,1.254-1.356,2.55-2.203,3.213 c-0.077,0.064-0.152,0.118-0.229,0.164l0.507,0.862l-0.575-0.825c-0.091,0.049-0.187,0.088-0.301,0.123l-0.083,0.028l-0.006,0.002 C40.247,36.982,40.119,37,40,37s-0.247-0.018-0.437-0.067l-0.055-0.018l-0.01-0.003c-0.106-0.033-0.202-0.072-0.292-0.12 l-0.068-0.036l-0.002-0.001c-0.077-0.046-0.153-0.099-0.256-0.185c-0.821-0.642-1.51-1.938-2.176-3.192 c-0.271-0.509-0.55-1.035-0.853-1.54c0.041,0.021,0.081,0.043,0.122,0.064C36.994,32.442,38.048,33,40,33s3.006-0.558,4.025-1.097 C44.066,31.881,44.106,31.86,44.147,31.838 M48.143,29.857C43.619,29.857,43.61,32,40,32s-3.619-2.143-8.143-2.143 c3.096,0,3.966,5.59,6.409,7.501c0.115,0.096,0.235,0.183,0.365,0.259c0.035,0.021,0.071,0.039,0.107,0.058 c0.148,0.079,0.303,0.142,0.466,0.193c0.052,0.016,0.103,0.035,0.156,0.048C39.566,37.966,39.778,38,40,38s0.434-0.034,0.64-0.084 c0.053-0.013,0.104-0.032,0.156-0.048c0.163-0.05,0.318-0.114,0.466-0.193c0.036-0.019,0.072-0.037,0.107-0.058 c0.13-0.076,0.25-0.163,0.365-0.259C44.177,35.447,45.047,29.857,48.143,29.857L48.143,29.857z"/></g><g><path fill="#839cb2" d="M44,75.441l-4,2l-4-2l-4,2l-4-2l-3.901,1.951l-4-4l-3.875,1.938L14.309,71.5H10.5v-3.809 l-3.889-1.944l2-6l-3.768-1.884l4-4l-4.088-2.044C6.427,49.632,14.006,40.5,24,40.5h9.519c0.257,3.352,3.065,6,6.481,6 s6.225-2.648,6.481-6H56c10.803,0,17.771,9.139,19.271,11.306l-4.114,2.057l4,4l-3.768,1.884l2,6L69.5,67.691V71.5h-3.809 l-1.915,3.829l-3.875-1.938l-4,4L52,75.441l-4,2L44,75.441z"/><path fill="#66798f" d="M56,41c9.907,0,16.538,7.902,18.524,10.62l-2.971,1.486l-1.241,0.62l0.981,0.981l3.019,3.019 l-2.759,1.38l-0.776,0.388l0.274,0.823l1.726,5.177l-3.224,1.612L69,67.382V68v3h-3h-0.618l-0.276,0.553l-1.553,3.106 l-3.106-1.553l-0.645-0.322l-0.51,0.51l-3.49,3.49l-3.355-1.678L52,74.882l-0.447,0.224L48,76.882l-3.553-1.776L44,74.882 l-0.447,0.224L40,76.882l-3.553-1.776L36,74.882l-0.447,0.224L32,76.882l-3.553-1.776L28,74.882l-0.447,0.224l-3.355,1.678 l-3.49-3.49l-0.51-0.51l-0.645,0.322l-3.106,1.553l-1.553-3.106L14.618,71H14h-3v-3v-0.618l-0.553-0.276l-3.224-1.612l1.726-5.177 l0.274-0.823l-0.776-0.388l-2.759-1.38l3.019-3.019l0.981-0.981l-1.241-0.62l-2.922-1.461C7.716,48.901,14.824,41,24,41h9.071 c0.487,3.388,3.408,6,6.929,6s6.442-2.612,6.929-6H56 M56,40H46c0,3.314-2.686,6-6,6s-6-2.686-6-6H24C12.3,40,4,52,4,52l4,2l-4,4 l4,2l-2,6l4,2v4h4l2,4l4-2l4,4l4-2l4,2l4-2l4,2l4-2l4,2l4-2l4,2l4-4l4,2l2-4h4v-4l4-2l-2-6l4-2l-4-4l4-2C76,52,68.629,40,56,40 L56,40z"/></g><g><path fill="#fff" d="M18.5,61.786V54c0-2.878,2.621-5.5,5.5-5.5c1.284,0,3.363,0.724,5.771,1.562 C33.053,51.205,36.773,52.5,40,52.5c3.242,0,6.995-1.304,10.308-2.455C52.694,49.216,54.756,48.5,56,48.5 c2.827,0,5.5,2.673,5.5,5.5v7.786H18.5z"/><path fill="#66798f" d="M56,49c2.57,0,5,2.43,5,5v7.286H19V54c0-2.617,2.383-5,5-5c1.199,0,3.339,0.745,5.605,1.534 C32.926,51.69,36.689,53,40,53c3.326,0,7.122-1.319,10.471-2.482C52.718,49.737,54.84,49,56,49 M56,48c-3.102,0-10.476,4-16,4 s-12.826-4-16-4s-6,2.857-6,6v8.286h44V54C62,50.857,59.102,48,56,48L56,48z"/></g><path fill="#f7a3a3" d="M56,60c-4.414,0-7.546-2-16-2s-11.586,2-16,2c-1.637,0-3.86-1.747-6-3.429V62c0,3.143,2.54,6,6,6	s10.07-2,16-2s12.54,2,16,2s6-2.857,6-6v-5.429C59.86,58.253,57.637,60,56,60z"/><path fill="#c74343" d="M61,61.969l-0.013,0.267C60.872,64.578,58.975,67,56,67c-1.409,0-3.435-0.364-5.78-0.785	C47.047,65.646,43.451,65,40,65s-7.047,0.646-10.22,1.215C27.435,66.636,25.409,67,24,67c-2.975,0-4.872-2.422-4.987-4.763	L19,62.032V62v-4.65c-0.334-0.256-0.668-0.517-1-0.779V62c0,0.096,0.01,0.19,0.014,0.286l0,0c0.028,0.568,0.138,1.123,0.32,1.651	c0,0,0,0,0,0c0.06,0.174,0.128,0.345,0.204,0.513c0.002,0.005,0.005,0.01,0.007,0.015c0.074,0.162,0.155,0.322,0.242,0.477	c0.006,0.011,0.013,0.021,0.019,0.032c0.085,0.148,0.176,0.293,0.273,0.434c0.012,0.018,0.026,0.035,0.038,0.052	c0.093,0.132,0.191,0.261,0.295,0.386c0.021,0.025,0.044,0.049,0.065,0.074c0.099,0.115,0.2,0.227,0.307,0.334	c0.031,0.031,0.065,0.061,0.097,0.092c0.102,0.098,0.206,0.194,0.314,0.284c0.043,0.036,0.089,0.068,0.133,0.103	c0.103,0.081,0.206,0.161,0.315,0.235c0.057,0.039,0.118,0.074,0.177,0.111c0.101,0.064,0.201,0.128,0.306,0.186	c0.072,0.04,0.148,0.074,0.221,0.11c0.098,0.049,0.194,0.099,0.295,0.142c0.086,0.037,0.177,0.067,0.266,0.1	c0.094,0.035,0.186,0.073,0.283,0.103c0.104,0.033,0.211,0.057,0.318,0.084c0.086,0.022,0.171,0.048,0.259,0.067	c0.128,0.026,0.259,0.043,0.391,0.061c0.071,0.01,0.141,0.025,0.213,0.032C23.578,67.989,23.787,68,24,68	c1.081,0,2.47-0.195,4.05-0.464c2.212-0.376,4.797-0.896,7.435-1.224C36.993,66.125,38.518,66,40,66	c0.371,0,0.744,0.008,1.119,0.022c1.5,0.059,3.027,0.227,4.523,0.441c1.121,0.161,2.225,0.349,3.285,0.536	c0.707,0.125,1.394,0.25,2.054,0.367C52.962,67.719,54.703,68,56,68c0.213,0,0.422-0.011,0.628-0.032	c0.072-0.007,0.142-0.022,0.213-0.032c0.131-0.018,0.263-0.035,0.391-0.061c0.088-0.018,0.173-0.044,0.259-0.067	c0.106-0.027,0.214-0.051,0.318-0.084c0.096-0.03,0.189-0.068,0.283-0.103c0.089-0.033,0.179-0.063,0.266-0.1	c0.101-0.043,0.198-0.094,0.295-0.142c0.074-0.037,0.149-0.071,0.221-0.11c0.105-0.058,0.205-0.122,0.306-0.186	c0.059-0.037,0.12-0.072,0.177-0.111c0.108-0.074,0.212-0.154,0.315-0.235c0.044-0.035,0.09-0.067,0.133-0.103	c0.109-0.091,0.212-0.187,0.314-0.284c0.032-0.031,0.066-0.06,0.097-0.092c0.107-0.107,0.209-0.22,0.307-0.334	c0.022-0.025,0.044-0.049,0.065-0.074c0.104-0.125,0.201-0.254,0.295-0.386c0.012-0.018,0.026-0.035,0.038-0.052	c0.097-0.141,0.188-0.286,0.273-0.434c0.006-0.011,0.013-0.021,0.019-0.032c0.088-0.155,0.168-0.314,0.242-0.477	c0.002-0.005,0.005-0.01,0.007-0.015c0.076-0.168,0.144-0.339,0.204-0.513c0,0,0,0,0,0c0.182-0.528,0.292-1.084,0.32-1.652l0,0	C61.99,62.19,62,62.096,62,62v-5.429c-0.332,0.261-0.666,0.523-1,0.779V61.969z"/></svg>