<svg xmlns="http://www.w3.org/2000/svg" viewBox="0 0 80 80" width="30px" height="30px"><path fill="#ffeea3" d="M64.8,34.1l7.8-4.8l-0.1-0.3c0-0.1-1.4-7.9-1.9-16.3c2.3,8.2,6,15.7,6.8,17.3l-7.6,9.3L64.8,34.1z"/><path fill="#f5c276" d="M71.4,16.9c2.1,6.1,4.5,11.3,5.4,13l-7,8.6l-4.2-4.3l6.9-4.3l0.6-0.4L73,28.9 C73,28.8,72,23.5,71.4,16.9 M70,8c0,10.1,2,21,2,21l-8,5l5.9,6L78,30C78,30,72.2,18.8,70,8L70,8z"/><path fill="#ffeea3" d="M2.6,29.9c0.8-1.6,4.5-9.1,6.8-17.3C8.9,21,7.5,28.8,7.5,28.9l-0.1,0.3l7.8,4.8l-5,5.2L2.6,29.9z"/><path fill="#f5c276" d="M8.6,16.9C8,23.5,7,28.8,7,28.9l-0.1,0.7l0.6,0.4l6.9,4.3l-4.2,4.3l-7-8.6C4,28.2,6.5,23,8.6,16.9 M10,8C7.8,18.8,2,30,2,30l8.1,10l5.9-6l-8-5C8,29,10,18.1,10,8L10,8z"/><path fill="#ffeea3" d="M67,41.5c-2.5,0-4.5-2-4.5-4.5s2-4.5,4.5-4.5s4.5,2,4.5,4.5S69.5,41.5,67,41.5z"/><path fill="#f5c276" d="M67,33c2.2,0,4,1.8,4,4s-1.8,4-4,4s-4-1.8-4-4S64.8,33,67,33 M67,32c-2.8,0-5,2.2-5,5s2.2,5,5,5 s5-2.2,5-5S69.8,32,67,32L67,32z"/><path fill="#ffeea3" d="M13,41.5c-2.5,0-4.5-2-4.5-4.5s2-4.5,4.5-4.5s4.5,2,4.5,4.5S15.5,41.5,13,41.5z"/><path fill="#f5c276" d="M13,33c2.2,0,4,1.8,4,4s-1.8,4-4,4s-4-1.8-4-4S10.8,33,13,33 M13,32c-2.8,0-5,2.2-5,5s2.2,5,5,5 s5-2.2,5-5S15.8,32,13,32L13,32z"/><path fill="#ffeea3" d="M68,29.1C68,50.9,55.5,78,40,78S12,50.9,12,29.1C12,14.2,24.5,2,40,2S68,14.2,68,29.1z"/><g><path fill="#f78f8f" d="M40,77.5c-12.7,0-23.5-19.2-26.6-37.8l0-0.1c-0.1-0.8-0.3-1.7-0.4-2.5l0-0.4 c-0.1-0.7-0.2-1.4-0.2-2.1L12.7,34c0-0.6-0.1-1.2-0.1-1.8l0-0.7c0-0.8-0.1-1.6-0.1-2.4c0-1.8,0.2-3.6,0.6-5.4 c1.1-5.1,3.7-9.8,7.5-13.5c5.2-5,12.1-7.8,19.5-7.8s14.3,2.8,19.5,7.8c3.8,3.7,6.4,8.4,7.5,13.5c0.4,1.8,0.6,3.6,0.6,5.4 c0,0.8,0,1.6-0.1,2.4l0,0.7c0,0.6-0.1,1.2-0.1,1.8l-0.1,0.7c-0.1,0.7-0.1,1.4-0.2,2.1l0,0.4c-0.1,0.8-0.2,1.7-0.4,2.5l0,0l0,0.1 C63.5,58.3,52.7,77.5,40,77.5z M15.9,42.1c1.4,6.6,3.6,13,6.5,18.5c5.1,9.5,11.5,14.9,17.6,14.9s12.5-5.4,17.6-14.9 c2.9-5.5,5.2-11.9,6.5-18.5l0.2-1.1L54,47.4l-14-8l-14,8l-10.4-6.5L15.9,42.1z"/><path fill="#c74343" d="M40,3c7.2,0,14,2.7,19.1,7.7c3.8,3.6,6.3,8.2,7.4,13.2c0.4,1.7,0.5,3.5,0.5,5.3c0,0.7,0,1.5-0.1,2.4 c0,0.1,0,0.3,0,0.5l0,0.2c0,0.6-0.1,1.2-0.1,1.8c0,0.2,0,0.5-0.1,0.7c-0.1,0.7-0.1,1.4-0.2,2.1l0,0.2l0,0.2 c-0.1,0.9-0.2,1.7-0.4,2.5v0l0,0C63.1,58,52.5,77,40,77S16.9,58,13.9,39.7c-0.1-0.8-0.3-1.7-0.4-2.6l0-0.2l0-0.2 c-0.1-0.7-0.2-1.4-0.2-2.1c0-0.2,0-0.5-0.1-0.7c0-0.6-0.1-1.2-0.1-1.8l0-0.2c0-0.1,0-0.3,0-0.5c0-0.9-0.1-1.7-0.1-2.4 c0-1.8,0.2-3.5,0.5-5.3c1.1-5,3.6-9.6,7.3-13.2C26,5.7,32.8,3,40,3 M26,46.8l-9.1-5.7l-2-1.2l0.5,2.3c1.4,6.7,3.6,13.1,6.6,18.6 C27.1,70.5,33.7,76,40,76s12.9-5.5,18-15.2c2.9-5.5,5.2-12,6.6-18.6l0.5-2.3l-2,1.2L54,46.8l-13.5-7.7L40,38.8l-0.5,0.3L26,46.8 M40,2c-7.7,0-14.7,3-19.8,7.9c-3.8,3.7-6.5,8.4-7.6,13.7c-0.4,1.8-0.6,3.6-0.6,5.5c0,0.8,0,1.6,0.1,2.4c0,0.2,0,0.5,0,0.7 c0,0.6,0.1,1.2,0.1,1.8c0,0.2,0,0.5,0.1,0.7c0.1,0.7,0.1,1.4,0.2,2.1c0,0.1,0,0.2,0,0.4c0.1,0.9,0.2,1.7,0.4,2.6c0,0,0,0,0,0l0,0 C16.1,58.9,27,78,40,78s23.9-19.1,27.1-38.2l0,0c0,0,0,0,0,0c0.1-0.9,0.3-1.7,0.4-2.6c0-0.1,0-0.2,0-0.4c0.1-0.7,0.2-1.4,0.2-2.1 c0-0.2,0-0.5,0.1-0.7c0-0.6,0.1-1.2,0.1-1.8c0-0.2,0-0.5,0-0.7c0-0.8,0.1-1.6,0.1-2.4c0-1.9-0.2-3.7-0.6-5.5 c-1.1-5.3-3.8-10-7.6-13.7C54.7,5,47.7,2,40,2L40,2z M26,48l14-8l14,8l9.6-6c-1.3,6.5-3.5,12.8-6.5,18.4C52.2,69.7,45.9,75,40,75 s-12.2-5.3-17.2-14.7c-2.9-5.5-5.2-11.9-6.5-18.4L26,48L26,48z"/></g><g><path fill="#e8d47b" d="M40,39.4l-14,8l-10.4-6.5l0-0.2c-0.5-2.8-0.8-5.5-1-8.2l0-0.7l0.6,0.1c3.8,0.8,16.7,3.5,24.8,3.5 c8.1,0,21-2.7,24.8-3.5l0.6-0.1l0,0.7c-0.2,2.7-0.5,5.4-1,8.2l0,0.2L54,47.4L40,39.4z"/><path fill="#c74343" d="M15.1,32.5C20,33.6,32.1,36,40,36s20-2.4,24.9-3.5c-0.2,2.7-0.5,5.4-1,8.2L54,46.8l-13.5-7.7 L40,38.8l-0.5,0.3L26,46.8l-9.9-6.2C15.6,37.9,15.3,35.2,15.1,32.5 M14,31.2l0.1,1.3c0.2,2.7,0.5,5.5,1,8.3l0.1,0.4l0.4,0.2 l9.9,6.2L26,48l0.5-0.3L40,40l0,0l13.5,7.7L54,48l0.5-0.3l9.9-6.2l0.4-0.2l0.1-0.4c0.5-2.8,0.9-5.6,1-8.3l0.1-1.3l-1.3,0.3 C60.9,32.3,48.1,35,40,35c-8.1,0-20.9-2.7-24.7-3.5L14,31.2L14,31.2z"/></g><path fill="#ba9b48" d="M32.6,62.4l-0.7-0.7c0,0,3-2.7,8.1-2.7c4.9,0,7.9,2.5,8.1,2.6l-0.7,0.8C47.3,62.3,44.6,60,40,60 C35.4,60,32.6,62.4,32.6,62.4z"/><g><path fill="#a16a4a" d="M27.4,39.5c-2.6,0-5.3-2-7.8-5.7c3.2,0.7,7.6,1.5,11.8,2.1c0,0,0,0.1,0,0.1 C31.3,37.7,29.3,39.5,27.4,39.5z"/><path fill="#704e34" d="M20.8,34.5c2.9,0.6,6.5,1.3,10.2,1.7c-0.4,1.4-2,2.7-3.5,2.7C24.8,39,22.5,36.9,20.8,34.5 M18.6,33.1c1.5,2.6,4.6,6.9,8.8,6.9c2.2,0,4.4-2,4.6-4c0-0.2,0-0.4,0-0.6C27.1,34.8,22.1,33.8,18.6,33.1L18.6,33.1z"/><g><path fill="#a16a4a" d="M52.2,39.5c-1.9,0-3.5-1.9-3.7-3.6c0,0,0-0.1,0-0.1c4.3-0.6,8.5-1.4,11.7-2 C58.7,35.9,55.7,39.5,52.2,39.5z"/><path fill="#704e34" d="M59,34.6c-1.6,2-4.1,4.4-6.8,4.4c-1.5,0-2.8-1.4-3.1-2.7C52.6,35.8,56.2,35.2,59,34.6 M61.4,33.1 c-3.5,0.8-8.5,1.7-13.3,2.3c0,0.2,0,0.4,0,0.6c0.2,2,2.1,4,4.2,4C56.2,40,59.7,35.6,61.4,33.1L61.4,33.1z"/></g></g></svg>