<svg xmlns="http://www.w3.org/2000/svg" viewBox="0 0 80 80" width="30px" height="30px"><path fill="#8bb7f0" d="M62.763,61.466c0,0-6.84-0.57-9.5-0.95c2.28,0.57,8.577,1.601,9.717,1.791 c1.14,0.19,2.09,0.57,2.28,0.76c0.19,0.19,0.76,0.76,0.76,0.76s-1.194,0.109-3.311,0.109c-1.031,0-2.28,0.027-3.719-0.109 c-2.253-0.19-7.139-0.651-12.649-1.791c-9.31-5.591-1.629-12.431,1.547-14.766c0.706-0.516,2.741,0.869,2.741,0.869l0.353,0.407 v0.57l-1.71-0.19c0,0,3.61,2.47,3.8,2.66c0.19,0.19,0,0.57,0,0.57h-2.443c0,0,2.443,1.33,2.85,1.52 c0.543,0.19,0.543,0.57,0.543,0.95h-2.47c0,0,4.94,1.9,5.51,2.09c0,0,2.09,0.57,2.28,0.76c0.19,0.19,0.76,0.76,0.76,0.95 c0,0.163-3.447,0.027-5.211-0.271c1.737,0.489,5.076,1.439,5.591,1.601c0.841,0.19,1.14,0.38,1.52,0.57 c0.38,0.19,0.95,0.95,0.95,0.95L62.763,61.466z"/><path fill="#8bb7f0" d="M75.15,31.07c0,0,1.14-0.38,1.33-0.38c0.19,0,1.52-2.85,1.52-3.04c0-0.38-1.52-0.95-3.04-0.95	c-0.57,0.19-1.9,0.57-1.9,0.57s0.95-1.9,0.76-2.28c-0.19-0.19-2.47-0.76-3.04-0.38c-0.38,0.19-1.71,0.95-1.52,0.76	c0.19-0.76,0.19-1.71,0.19-1.71s-0.57-0.19-1.14-0.19s-1.14,0.19-1.14,0.19s-7.373,5.714-7.41,5.7l-0.19,0.19	c0,0-0.19-0.19-0.38-0.38c-0.38,0.57-2.47,1.71-3.23,1.9c-0.475,0.119-3.028,0.089-5.85,0.375c-1.693,0.171-3.483,0.456-4.98,0.955	l-0.76-1.9h-0.76l0.38-2.85c0,0,0-0.19-0.38-0.19c-0.19,0-1.33,1.14-1.33,1.14l1.9-4.18c0,0,0-0.57-0.38-0.57	c-0.57,0-2.47,1.9-2.47,1.9l2.09-3.23c0,0,0.19-1.71-0.57-1.33c-0.38,0.19-2.09,1.52-2.09,1.52l5.13-6.65c0,0,0.38-1.33-0.38-1.14	c-0.57,0-4.56,3.8-4.56,3.8l5.51-6.08c0,0,0.57-1.52,0-1.33c-1.33,0.38-7.03,4.94-7.03,4.94s8.281-7.59,8.471-7.97	c0.19-0.95,0.19-2.28-0.38-2.28c-0.111,0-0.307,0.067-0.563,0.182c-0.225,0.1-0.525,0.26-0.87,0.453	c-3.423,1.996-6.55,4.153-9.562,6.723c-3.627,3.095-8.429,7.308-10.107,11.282c-0.066,0.156-0.143,0.324-0.189,0.477	c-0.134,0.445-0.215,0.871-0.215,1.267c0,0.594,0.816,1.076,1.939,1.615c2.47,1.186,6.156,3.153,6.156,6.68c0,0.38,0,0.95,0,1.14	c-0.475,0.119-0.98,0.273-1.499,0.461c-3.637,1.317-8.596,3.729-8.596,7.719c0,1.52,0.38,2.28,0.95,2.66c0,2.47,3.04,3.99,3.99,3.99	c0,0-0.76-0.95-0.76-2.28c0-1.33,5.536-2.67,5.536-2.67l4.285,0.3c0,0,1.035-0.3,1.035,3.31c0,1.805-0.545,3.445-1.353,4.727	c-0.807,1.283-1.615,2.47-1.612,3.903c0.002,0.182,0.077,0.364,0.211,0.547c0.053,0.071,0.134,0.166,0.223,0.214	c2.245,1.216,3.442,1.798,5.774,2.457c2.388,0.675,4.728,1.046,7.114,1.521c3.413,0.679,5.941,0.85,9.412,1.152	c4.37,0.38,7.03,0,7.03,0s-0.57-0.57-0.76-0.76c-0.19-0.19-1.14-0.57-2.28-0.76c-0.95-0.19-7.23-1.221-9.51-1.791	c2.66,0.38,9.5,0.95,9.5,0.95l0.19-0.19c0,0-0.57-0.76-0.95-0.95s-0.571-0.283-1.52-0.57C59.925,59.611,55.303,58.382,54,58	c1.446,0.358,6.14,0.61,6.14,0.43c0-0.19-0.57-0.76-0.76-0.95c-0.19-0.19-1.71-0.57-2.28-0.76c-0.57-0.19-5.51-2.09-5.51-2.09	s1.991,0,2.41,0c0-0.38,0.06-0.76-0.51-0.95c-0.38-0.19-2.85-1.52-2.85-1.52h2.47c0,0,0.19-0.38,0-0.57	c-0.95-0.76-3.99-2.66-3.99-2.66l1.71,0.19v-0.57l-0.355-0.39l0.183-0.017L48.93,46.46l0.38-0.38c0,0-0.19-1.789-0.19-1.9	c3.42-0.76,6.65-3.61,9.88-5.32c0.95-0.57,3.42-1.14,3.42-1.14l-0.19-0.76c2.09,0.19,9.88,0.76,10.07,0.76c0.19,0,1.9-1.33,1.9-1.52	c0-0.19-1.14-1.14-1.14-1.14s2.09-0.19,2.28-0.19c0.19,0,1.9-1.71,1.9-2.09C77.24,32.21,75.15,31.07,75.15,31.07z"/><path fill="#c2e8ff" d="M40.051,77.5c-20.678,0-37.5-16.822-37.5-37.5c0-19.516,15.185-35.705,34.406-37.362 C23.736,8.622,15.042,21.911,15.042,36.58c0,20.6,16.76,37.36,37.359,37.36c1.308,0,2.615-0.063,3.879-0.185 C51.094,76.242,45.648,77.5,40.051,77.5z"/><path fill="#7496c4" d="M34.125,3.498C22.213,10.056,14.541,22.71,14.541,36.58c0,20.876,16.984,37.86,37.86,37.86 c0.365,0,0.73-0.005,1.094-0.014C49.158,76.136,44.656,77,40.051,77c-20.402,0-37-16.598-37-37 C3.051,21.729,16.542,6.413,34.125,3.498 M39.861,2c-20.9,0.19-37.81,17.1-37.81,38s17.1,38,38,38c6.84,0,13.3-1.9,19-5.13 c-2.09,0.38-4.37,0.57-6.65,0.57c-20.33,0-36.86-16.53-36.86-36.86C15.541,20.62,25.611,7.13,39.861,2L39.861,2z"/><path fill="#7496c4" d="M52.401,73.44c2.28,0,4.56-0.19,6.65-0.57c-0.38,0.19-0.76,0.38-1.14,0.57	c-3.8,1.33-7.79,2.09-12.16,2.09c-20.52,0-35.598-17.936-35.598-35.53c0-18.05,11.278-34.58,28.378-37.81	c0.38,0,0.76-0.19,1.33-0.19c-14.25,5.13-23.698,18.188-23.698,34.148C16.163,56.478,32.071,73.44,52.401,73.44z"/><path fill="#4e7ab5" d="M29.524 46.85L29.524 46.85c1.52-.95 4.206-1.15 4.206-1.15s.485.3 4.285.3 11.105-1.82 11.105-1.82c3.42-.76 6.65-3.61 9.88-5.32.95-.57 3.42-1.14 3.42-1.14l-.19-.76c0 0 .19 0 .57 0l2.713-4.679c0 0-9.056 4.238-19.433 6.199C29.506 41.612 29.524 46.85 29.524 46.85zM44.015 32l-.025-4.35c0 0 0-.19-.38-.19-.19 0-1.33 1.14-1.33 1.14l1.9-4.18c0 0 0-.57-.38-.57-.57 0-2.47 1.9-2.47 1.9l2.09-3.23c0 0 .19-1.71-.57-1.33-.38.19-2.09 1.52-2.09 1.52l5.13-6.65c0 0 .38-1.33-.38-1.14-.57 0-4.56 3.8-4.56 3.8l5.51-6.08c0 0 .57-1.52 0-1.33-1.33.38-7.03 4.94-7.03 4.94s8.281-7.59 8.471-7.97c.19-.95.19-2.28-.38-2.28-.95 0-7.464 4.145-13.354 9.465L32.97 17.58C32.97 17.58 32.187 32.258 44.015 32zM58.991 63.827c-2.253-.19-7.111-.434-13.001-1.791-8.387-5.211-1.493-12.594 2.009-15.037.733-.489 2.633 1.14 2.633 1.14l.353.407v.57l-1.71-.19c0 0 3.61 2.47 3.8 2.66.19.19 0 .57 0 .57h-2.443c0 0 2.443 1.33 2.85 1.52.543.19.543.57.543.95h-2.47c0 0 4.94 1.9 5.51 2.09 0 0 2.09.57 2.28.76.19.19.76.76.76.95 0 .163-3.447.027-5.211-.271 1.737.489 5.076 1.439 5.591 1.601.841.19 1.14.38 1.52.57.38.19.95.95.95.95l-.19.19c0 0-6.84-.57-9.5-.95 2.28.57 8.577 1.601 9.717 1.791 1.14.19 2.09.57 2.28.76.19.19.76.76.76.76s-.896.163-3.013.163C61.976 63.99 60.429 63.963 58.991 63.827z"/><path fill="#4e7ab5" d="M75.15,31.07c0,0,1.14-0.38,1.33-0.38S78,27.84,78,27.65c0-0.38-1.52-0.95-3.04-0.95	c-0.57,0.19-1.9,0.57-1.9,0.57s0.95-1.9,0.76-2.28c-0.19-0.19-2.47-0.76-3.04-0.38c-0.38,0.19-1.71,0.95-1.52,0.76	c0.19-0.76,0.19-1.71,0.19-1.71s-0.57-0.19-1.14-0.19s-1.14,0.19-1.14,0.19l-7.6,5.89l6.27,2.09l-3.61,5.32	c2.09,0.19,9.88,0.76,10.07,0.76s1.9-1.33,1.9-1.52s-1.14-1.14-1.14-1.14s2.09-0.19,2.28-0.19c0.19,0,1.9-1.71,1.9-2.09	C77.24,32.21,75.15,31.07,75.15,31.07z"/><path fill="#36404d" d="M27.015 42A1 1 0 1 0 27.015 44A1 1 0 1 0 27.015 42Z"/><g><path fill="#4e7ab5" d="M46 61.001c-1.151-.231-2.283-.48-3.435-.805-2.225-.629-3.344-1.171-5.48-2.326.023-1.031.623-1.979 1.314-3.073l.143-.227c.687-1.091 1.507-2.89 1.507-5.26 0-2.864-.666-4.316-1.978-4.316-.027 0-.052.001-.077.002L33.8 44.702l-.155-.011-.151.036c-4.181 1.012-6.3 2.237-6.3 3.642 0 .141.007.278.018.411-.663-.526-1.249-1.26-1.249-2.121v-.535l-.445-.297C25.102 45.55 25.015 44.68 25.015 44c0-3.227 4.316-5.467 7.937-6.779.48-.174.951-.319 1.401-.432l.757-.189V35.82v-1.14c0-4.352-4.711-6.615-6.723-7.581-.945-.454-1.264-.693-1.37-.811.012-.249.069-.545.171-.882.027-.088.07-.183.11-.275l.043-.101c1.255-2.971 4.394-6.125 7.66-9.023v-1.333c-3.343 2.917-7.129 6.53-8.581 9.967-.066.156-.143.324-.189.477-.134.445-.215.871-.215 1.267 0 .594.816 1.076 1.939 1.615 2.47 1.186 6.156 3.153 6.156 6.68 0 .38 0 .95 0 1.14-.475.119-.98.273-1.499.461-3.637 1.317-8.596 3.729-8.596 7.719 0 1.52.38 2.28.95 2.66 0 2.47 3.04 3.99 3.99 3.99 0 0-.76-.95-.76-2.28 0-1.33 5.536-2.67 5.536-2.67l4.285.3c0 0 .021-.006.057-.006.217 0 .978.221.978 3.316 0 1.805-.545 3.445-1.353 4.727-.807 1.283-1.615 2.47-1.612 3.903.002.182.077.364.211.547.053.071.134.166.223.214 2.245 1.216 3.442 1.798 5.774 2.457 1.244.352 2.475.62 3.707.864V61.001zM75.15 31.07c0 0 1.14-.38 1.33-.38S78 27.84 78 27.65c0-.38-1.52-.95-3.04-.95-.57.19-1.9.57-1.9.57s.95-1.9.76-2.28c-.144-.144-1.494-.508-2.385-.508-.282 0-.518.036-.655.128-.338.169-1.43.79-1.531.79-.012 0-.01-.009.011-.03.19-.76.19-1.71.19-1.71s-.57-.19-1.14-.19-1.14.19-1.14.19-7.355 5.7-7.41 5.7h0l-.19.19c0 0-.19-.19-.38-.38-.38.57-2.47 1.71-3.23 1.9-.475.119-3.028.089-5.85.375-1.693.172-3.483.456-4.98.955l-.76-1.9h-.245l-1.65.943L42.468 31.5h1.142.083l.509 1.271.35.875.895-.298c1.219-.407 2.822-.712 4.764-.909 1.573-.159 3.067-.219 4.158-.262 1.088-.043 1.541-.064 1.834-.137.621-.155 1.991-.821 2.942-1.502l.425.426.707-.707.19-.19-.013-.013c.754-.509 2.507-1.867 7.177-5.486.173-.044.441-.098.679-.098.03 0 .06.001.091.002-.015.132-.033.269-.058.404l-.281.286.256.617.263.62h.668c.321 0 .519-.108 1.472-.625.208-.113.398-.217.507-.271l.023-.012c.031-.005.09-.01.184-.01.378 0 .861.084 1.245.174-.129.34-.318.774-.514 1.167l-1.015 2.033 2.184-.624c.05-.014 1.144-.327 1.777-.529.678.019 1.284.163 1.675.298-.257.571-.648 1.38-.881 1.79-.236.063-.575.165-1.072.331l-2.177.726 2.014 1.101c.503.275 1.04.627 1.366.886-.297.351-.757.824-1.026 1.055-.469.034-1.318.109-2.042.175l-2.404.219 1.855 1.546c.13.108.263.224.387.334-.254.204-.535.417-.723.542-1.358-.092-7.818-.564-9.764-.741l-1.402-.128.29 1.16c-.849.232-2.027.597-2.698.991-1.13.6-2.262 1.335-3.357 2.046-2.05 1.331-4.17 2.708-6.251 3.17l-.783.174v.802c0 .052 0 .145.145 1.53l-.043.043-.717.717.726.707.172.168-.021.002.501.551L48.711 48h1.801l-1.582-1.54.38-.38c0 0-.19-1.789-.19-1.9 3.42-.76 6.65-3.61 9.88-5.32.95-.57 3.42-1.14 3.42-1.14l-.19-.76c2.09.19 9.88.76 10.07.76.19 0 1.9-1.33 1.9-1.52 0-.19-1.14-1.14-1.14-1.14s2.09-.19 2.28-.19c.19 0 1.9-1.71 1.9-2.09C77.24 32.21 75.15 31.07 75.15 31.07z"/></g></svg>