<svg xmlns="http://www.w3.org/2000/svg" viewBox="0 0 80 80" width="30px" height="30px"><path fill="#f5c276" d="M16.379,49.709c-3.392-0.8-11.177-3.761-14.239-14.639c2.465,2.42,7.365,6.461,12.913,6.888	C15.021,41.312,15,40.653,15,39.969h0.532C8.36,39.642,2,32,2,32H0c0,21.754,18.667,26.667,18.667,26.667l5.039,1.4	C20.762,57.959,17.974,54.714,16.379,49.709z"/><path fill="#ffeea3" d="M34,31.5c-1.93,0-3.5-1.57-3.5-3.5s1.57-3.5,3.5-3.5s3.5,1.57,3.5,3.5S35.93,31.5,34,31.5z"/><path fill="#f5c276" d="M34,25c1.654,0,3,1.346,3,3s-1.346,3-3,3s-3-1.346-3-3S32.346,25,34,25 M34,24 c-2.209,0-4,1.791-4,4s1.791,4,4,4s4-1.791,4-4S36.209,24,34,24L34,24z"/><path fill="#ffeea3" d="M20.268,42.167C21.938,39.763,27.521,32.5,34,32.5c6.484,0,12.064,7.263,13.733,9.667H20.268z"/><path fill="#f5c276" d="M34,33c5.653,0,10.654,5.823,12.759,8.667H21.241C23.346,38.823,28.347,33,34,33 M34,32 c-8.1,0-14.667,10.667-14.667,10.667h29.333C48.667,42.667,42.1,32,34,32L34,32z"/><g><path fill="#ffeea3" d="M22.615,71.5c0.607-1.39,3.561-3.195,7.603-3.955l0.316-0.06l0.076-0.313 C30.994,65.599,32.388,64.5,34,64.5s3.006,1.099,3.39,2.672l0.076,0.313l0.316,0.06c4.042,0.76,6.995,2.565,7.603,3.955H22.615z"/><path fill="#f5c276" d="M34,65c1.381,0,2.575,0.942,2.904,2.29l0.153,0.627l0.634,0.119 c3.395,0.638,5.682,1.949,6.703,2.964H23.607c1.021-1.015,3.308-2.326,6.703-2.964l0.634-0.119l0.153-0.627 C31.425,65.942,32.619,65,34,65 M34,64c-1.881,0-3.449,1.304-3.875,3.054C25.41,67.939,22,70.246,22,72h24 c0-1.754-3.41-4.061-8.125-4.946C37.449,65.304,35.881,64,34,64L34,64z"/></g><g><path fill="#ffeea3" d="M33.998,63.5c-0.86-0.007-19.228-0.443-19.495-23H46c0.838-0.019,20.169-0.506,26.197-6h6.853 C59.394,62.77,34.43,63.492,33.998,63.5z"/><path fill="#f5c276" d="M78.087,35C58.611,62.363,34.237,62.997,34.007,63c-0.765-0.007-18.466-0.408-18.995-22l31.01,0 c0.828-0.018,20.035-0.503,26.365-6H78.087 M80,34h-8c-5.778,5.556-26,6-26,6H14c0,23.889,20,24,20,24S59.799,63.724,80,34L80,34z"/></g></svg>