<svg xmlns="http://www.w3.org/2000/svg" viewBox="0 0 80 80" width="30px" height="30px"><path fill="#ffeea3" d="M40,75.5C20.425,75.5,4.5,59.575,4.5,40S20.425,4.5,40,4.5S75.5,20.425,75.5,40S59.575,75.5,40,75.5 z"/><path fill="#f5c276" d="M40,5c19.299,0,35,15.701,35,35S59.299,75,40,75S5,59.299,5,40S20.701,5,40,5 M40,4 C20.105,4,4,20.105,4,40s16.105,36,36,36s36-16.105,36-36S59.895,4,40,4L40,4z"/><path fill="#f5c276" d="M56.409,7.955L44,28l12-2L40,46l14-4L25.301,72.865c0.322,0.144,0.645,0.288,0.973,0.423 l28.459-30.607l2.444-2.628l-3.451,0.986l-10.987,3.139l14.042-17.553l1.633-2.041l-2.578,0.43l-9.824,1.637L57.298,8.419 C57.005,8.258,56.706,8.108,56.409,7.955z"/><path fill="#f5c276" d="M23.591,72.045L36,52l-12,2l16-18l-14,2L54.699,7.135c-0.322-0.144-0.645-0.288-0.973-0.423 L25.268,37.319l-1.925,2.071l2.799-0.4l11.297-1.614l-14.186,15.96l-1.881,2.116l2.793-0.465l9.824-1.637L22.702,71.581 C22.995,71.742,23.294,71.892,23.591,72.045z"/><path fill="#f78f8f" d="M40,69.5c-16.267,0-29.5-13.233-29.5-29.5S23.733,10.5,40,10.5S69.5,23.733,69.5,40 S56.267,69.5,40,69.5z"/><path fill="#c74343" d="M40,11c15.991,0,29,13.009,29,29S55.991,69,40,69S11,55.991,11,40S24.009,11,40,11 M40,10 c-16.569,0-30,13.431-30,30s13.431,30,30,30s30-13.431,30-30S56.569,10,40,10L40,10z"/><path fill="#ffeea3" d="M61.333 0L26 38 40 36 24 54 36 52 18.667 80 54 42 40 46 56 26 44 28z"/><g><path fill="#c74343" d="M53.238,13.077L44,28l12-2L40,46l14-4L29.665,68.172c0.342,0.126,0.69,0.239,1.038,0.352 l24.03-25.843l2.444-2.628l-3.451,0.986l-10.987,3.139l14.042-17.553l1.633-2.041l-2.578,0.43l-9.824,1.637l8.12-13.117 C53.836,13.377,53.538,13.225,53.238,13.077z"/><path fill="#c74343" d="M26.762,66.923L36,52l-12,2l16-18l-14,2l24.335-26.172c-0.342-0.126-0.69-0.239-1.038-0.352 l-24.03,25.843l-1.925,2.071l2.799-0.4l11.297-1.614l-14.186,15.96l-1.881,2.116l2.793-0.465l9.824-1.637l-8.12,13.117 C26.164,66.623,26.462,66.775,26.762,66.923z"/></g></svg>