<svg xmlns="http://www.w3.org/2000/svg" viewBox="0 0 80 80" width="30px" height="30px"><path fill="#8bb7f0" d="M40,9c-18.7,0-18,5.8-18,16l0,25.7c0,3.9,2,7.5,5.2,9.6L34,65h12l6.8-4.8c3.2-2,5.2-5.6,5.2-9.6V25 C58,14.5,59,9,40,9z"/><path fill="#4e7ab5" d="M1,65H0C0,12.5,22.9,9.1,23.2,9.1l0,1l0-0.5l0,0.5C22.9,10.1,1,14.4,1,65z"/><path fill="#4e7ab5" d="M7,69H6C6,10.8,26.2,9.1,28.5,9.1v1c-1,0-5.9,0.4-10.9,7.2C12.7,24,7,38.4,7,69z"/><path fill="#4e7ab5" d="M13 75h-1c0-34.1 4.5-55.2 13.4-62.7l.6.8C17.4 20.4 13 41.2 13 75zM79 65h1C80 12.5 57.1 9.1 56.8 9.1l0 1 0-.5 0 .5C57.1 10.1 79 14.4 79 65z"/><path fill="#4e7ab5" d="M73,69h1C74,10.8,53.8,9.1,51.5,9.1v1c1,0,5.9,0.4,10.9,7.2C67.3,24,73,38.4,73,69z"/><path fill="#4e7ab5" d="M67,75h1c0-34.1-4.5-55.2-13.4-62.7l-0.6,0.8C62.6,20.4,67,41.2,67,75z"/><path fill="#8bb7f0" d="M34.2,64.5l-6.6-4.7c-3.1-1.9-5-5.4-5-9.1l0-26.8c0-4.8,0-8.6,2.4-11c2.4-2.4,7-3.4,15.1-3.4 c8.3,0,13,1,15.3,3.3c2.3,2.3,2.3,5.8,2.2,10.7l0,1.5v25.7c0,3.7-1.9,7.2-5,9.1l-6.7,4.7H34.2z"/><path fill="#4e7ab5" d="M40,10c8.1,0,12.7,1,14.9,3.2C57,15.3,57,18.8,57,23.5c0,0.5,0,1,0,1.5v25.7c0,3.5-1.8,6.9-4.7,8.7 l0,0l0,0L45.7,64H34.3l-6.5-4.6l0,0l0,0c-2.9-1.8-4.7-5.2-4.7-8.7L23,25l0-1.1c0-4.9,0-8.4,2.2-10.6C27.5,11,32.2,10,40,10 M40,9 c-18.7,0-18,5.8-18,16l0,25.7c0,3.9,2,7.5,5.2,9.6L34,65h12l6.8-4.8c3.2-2,5.2-5.6,5.2-9.6V25C58,14.5,59,9,40,9L40,9z"/><path fill="#8bb7f0" d="M46.5,57c0-4.1,3.5-5.5,3.7-5.5c0.2,0,5-1.1,7.3-3.2v2.4c0,3.7-1.9,7.2-5,9.1l-6,4.2V57z M27.5,59.8c-3.1-1.9-5-5.4-5-9.1v-2.4c2.4,2,7.2,3.1,7.4,3.2c0.1,0,3.6,1.4,3.6,5.5v7L27.5,59.8z"/><path fill="#4e7ab5" d="M23,49.3c2.4,1.6,6,2.5,6.7,2.6c0.4,0.2,3.3,1.5,3.3,5v6.1l-5.2-3.7l0,0l0,0 c-2.9-1.8-4.7-5.2-4.7-8.7L23,49.3 M57,49.3v1.4c0,3.5-1.8,6.9-4.7,8.7l0,0l0,0L47,63.1V57c0-3.6,2.9-4.9,3.3-5 C51,51.8,54.6,50.9,57,49.3 M22,47l0,3.7c0,3.9,2,7.5,5.2,9.6L34,65h12l6.8-4.8c3.2-2,5.2-5.6,5.2-9.6V47c-1.6,2.5-8,4-8,4 s-4,1.4-4,6v7H34v-7c0-4.6-4-6-4-6S23.6,49.6,22,47L22,47z"/><path fill="#c2e8ff" d="M38.4,46.5c-0.4-1.7-3-3.5-6.5-5.8C25.4,36.3,16.5,30.3,16.5,21c0-8.8,7-15.1,19.1-17.4l1.7,7 c-3.2,0.3-13.9,2.6-13.9,10.5c0,7.1,12.3,14.5,16.5,14.5S56.5,28.1,56.5,21c0-7.9-10.7-10.2-13.9-10.5l1.7-7 C56.5,5.9,63.5,12.2,63.5,21c0,9.1-8.9,15.1-15.3,19.6c-3.5,2.4-6.2,4.2-6.6,5.9L38.4,46.5L38.4,46.5z"/><path fill="#7496c4" d="M44.7,4.2C56.4,6.5,63,12.6,63,21c0,8.8-8.7,14.8-15.1,19.2c-3.5,2.4-6,4.1-6.7,5.8h-2.4 c-0.7-1.8-3.2-3.4-6.6-5.8C25.8,35.9,17,30,17,21c0-8.4,6.6-14.5,18.3-16.8l1.5,5.9C32.4,10.6,23,13.5,23,21c0,7.5,12.5,15,17,15 s17-7.5,17-15c0-7.5-9.4-10.4-13.7-10.9L44.7,4.2 M44,3l-2,8c2.2,0,14,2.1,14,10c0,6.9-12.1,14-16,14s-16-7.1-16-14 c0-7.9,11.8-10,14-10l-2-8c-12.2,2.2-20,8.5-20,18c0,14.8,22,21.5,22,26h4c0-4.5,22-11.4,22-26C64,11.5,56.2,5.2,44,3L44,3z"/><path fill="#4e7ab5" d="M35.4 26l-.7-.7c.2-.2 4.8-4.5 8.7-5.8l.3 1C40 21.7 35.6 25.9 35.4 26zM38.8 32.8L38 32.2c1.8-2.7 2.8-8.1 2.8-8.3l1 .2C41.6 24.7 40.6 30 38.8 32.8z"/><path fill="none" d="M44,45h-8c-1.1,0-2,0.9-2,2v15.3h0.7h10.7H46V47C46,45.9,45.1,45,44,45z"/><g><path fill="#c2e8ff" d="M58,41c-1.7,2.3-8,6-12,6v-2H34v2c-4,0-10.3-3.7-12-6h-2c0,4.1,2,6,2,6c1.6,2.6,8,4,8,4s4,1.4,4,6v7 h12v-7c0-4.6,4-6,4-6s6.4-1.4,8-4c0,0,2-1.9,2-6H58z"/></g><g><path fill="#7496c4" d="M47,63.1V47c0-1.7-1.3-3-3-3h-8c-1.7,0-3,1.3-3,3v16.1l1,0.7V47c0-1.1,0.9-2,2-2h8c1.1,0,2,0.9,2,2 v16.8L47,63.1z"/></g><g><path fill="#4b6477" d="M32.5,46.4c-3.1-0.6-6-2.7-6-4.1c0-0.6,0.9-1.9,2.3-2.5c0.8,0.6,1.7,1.1,2.4,1.7 c1.3,0.8,2.4,1.6,3.3,2.3C33.6,44.3,32.7,45.2,32.5,46.4z"/><path fill="#36404d" d="M28.8,40.4c0.8,0.5,1.5,1,2.2,1.5c1,0.7,1.9,1.3,2.7,1.9c-0.7,0.5-1.3,1.2-1.5,2.1 c-2.9-0.7-5.1-2.6-5.1-3.5C27.1,42,27.8,41,28.8,40.4 M28.9,39.2c-1.6,0.6-2.9,2.2-2.9,3.1c0,1.8,3.5,4.3,6.9,4.7 c0-1.6,1.2-2.9,2.8-3C34.1,42.7,31.6,41.1,28.9,39.2L28.9,39.2z"/><g><path fill="#4b6477" d="M47.5,46.4c-0.2-1.2-1-2.2-2.1-2.6c1-0.7,2.1-1.5,3.4-2.4c0.8-0.5,1.5-1.1,2.4-1.6 c1.4,0.6,2.4,2,2.4,2.6C53.5,43.8,50.8,45.8,47.5,46.4z"/><path fill="#36404d" d="M51.2,40.3c1.1,0.6,1.8,1.7,1.8,2c0,1-2.2,2.8-5.2,3.5c-0.3-0.9-0.8-1.6-1.6-2.1 c0.8-0.6,1.8-1.2,2.8-1.9C49.7,41.3,50.4,40.8,51.2,40.3 M51,39.2c-2.6,1.9-5.1,3.4-6.8,4.8c1.6,0.1,2.8,1.4,2.8,3 c3.8-0.5,7-2.8,7-4.7C54,41.4,52.7,39.7,51,39.2L51,39.2z"/></g></g></svg>