<svg xmlns="http://www.w3.org/2000/svg" viewBox="0 0 80 80" width="30px" height="30px"><path fill="#8b75a1" d="M53.3 7.4H72V9.4H53.3z" transform="rotate(-45.001 62.617 8.384)"/><path fill="#dcd5f2" d="M53.4 4.4H66.5V17.5H53.4z" transform="rotate(-45.001 60 11)"/><path fill="#8b75a1" d="M60,2.4l8.6,8.6L60,19.6L51.4,11L60,2.4 M60,1L50,11l10,10l10-10L60,1L60,1z"/><path fill="#a3b7cc" d="M67,76.5c-0.9,0-1.6-0.5-2-1.2L40.8,29.5h12.9L75.2,70c0.3,0.6,0.4,1.2,0.2,1.8s-0.6,1.1-1.2,1.4 L68,76.3C67.7,76.4,67.3,76.5,67,76.5L67,76.5z"/><path fill="#788b9c" d="M53.4,30l21.4,40.2c0.2,0.4,0.3,0.9,0.1,1.4s-0.5,0.9-0.9,1.1l-6.2,3.1C67.5,75.9,67.2,76,67,76 c-0.7,0-1.3-0.4-1.6-0.9L41.7,30H53.4 M54,29H40l24.5,46.5C65,76.5,66,77,67,77c0.4,0,0.9-0.1,1.3-0.3l6.2-3.1 c1.4-0.7,2-2.4,1.2-3.8L54,29L54,29z"/><path fill="#66798f" d="M61 32.7H62V73.30000000000001H61z" transform="rotate(-27.81 61.483 52.974)"/><path fill="#212121" d="M7.8 44.8H16.3V53.3H7.8z" transform="rotate(-45.001 12 49)"/><path fill="#8bb7f0" d="M9.8,70.3c-3.3-3-5.1-6.2-5.3-9.3c-0.2-3.7,1.9-6.2,1.9-6.2l11.8-15.5L51.9,5.7L67.2,21l-7.8,7.8 v5.9l-13.6,7.8c-8.1,0.1-14,5.9-14.2,6.1L9.8,70.3z"/><path fill="#4e7ab5" d="M51.9,6.4L66.4,21l-7.3,7.3l-0.3,0.3V29v5.4L45.6,42c-8.2,0.1-14.2,6-14.4,6.3L9.8,69.6 c-8.5-8-3.3-14.2-3-14.5l0,0l0,0l11.8-15.4L51.9,6.4 M51.9,5l-34,34L6.1,54.5c0,0-6.6,7.4,3.8,16.5l22-22c0,0,6-6,14-6l14-8v-6l8-8 L51.9,5L51.9,5z"/><path fill="#c2e8ff" d="M53,25.5c-1.9,0-3.5-1.6-3.5-3.5s1.6-3.5,3.5-3.5s3.5,1.6,3.5,3.5S54.9,25.5,53,25.5z"/><path fill="#4e7ab5" d="M53,19c1.7,0,3,1.3,3,3s-1.3,3-3,3s-3-1.3-3-3S51.3,19,53,19 M53,18c-2.2,0-4,1.8-4,4s1.8,4,4,4 s4-1.8,4-4S55.2,18,53,18L53,18z"/><path fill="#ffeea3" d="M18 45A2 2 0 1 0 18 49A2 2 0 1 0 18 45Z"/><g><path fill="#839cb2" d="M14.7 37L32.3 15.4 43.9 7.6 49.4 13.1 41.6 24.7 20 42.3z"/><path fill="#66798f" d="M43.9,8.3l4.8,4.8l-7.5,11.2L20.1,41.7l-4.7-4.7l17.3-21.2L43.9,8.3 M44,7l-12,8L14,37l6,6l22-18 l8-12L44,7L44,7z"/></g><path fill="#c2e8ff" d="M7.4,65.1l8.5-8.5l-1.4-1.4l-8,8C6.7,63.8,7,64.4,7.4,65.1z"/></svg>