<svg xmlns="http://www.w3.org/2000/svg" viewBox="0 0 80 80" width="30px" height="30px"><path fill="#839cb2" d="M66.8,36.5c1-2.3,3.7-9.3,3.7-16.2c0-2.8,1.9-4.8,4.4-4.8c2.6,0,4.6,2.1,4.6,4.8 C79.5,21.9,79.1,35.9,66.8,36.5z"/><path fill="#66798f" d="M74.9,16c2.3,0,4.1,1.8,4.1,4.3c0,1.5-0.3,14.5-11.5,15.6c1.2-2.9,3.5-9.3,3.5-15.6 C71,17.8,72.7,16,74.9,16 M74.9,15C72,15,70,17.4,70,20.3c0,8.1-4,16.7-4,16.7c12.9,0,14-13.8,14-16.7C80,17.4,77.9,15,74.9,15 L74.9,15z"/><path fill="#e8d47b" d="M56.2,70.5L44.7,59L58,47.6l13.4,10.5C68.1,69.9,58.2,70.5,56.2,70.5C56.3,70.5,56.2,70.5,56.2,70.5 z"/><path fill="#ba9b48" d="M58,48.3l12.8,10.1C67.6,69.2,58.6,70,56.4,70L45.5,59.1L58,48.3 M58,47L44,59l12,12 c0,0,0.1,0,0.3,0c1.8,0,12.3-0.6,15.7-13L58,47L58,47z"/><path fill="#839cb2" d="M18,66.5C8.4,66.5,0.5,58.6,0.5,49S8.4,31.5,18,31.5S35.5,39.4,35.5,49S27.6,66.5,18,66.5z"/><path fill="#66798f" d="M18,32c9.4,0,17,7.6,17,17s-7.6,17-17,17S1,58.4,1,49S8.6,32,18,32 M18,31C8.1,31,0,39.1,0,49 s8.1,18,18,18s18-8.1,18-18S27.9,31,18,31L18,31z"/><path fill="#ffeea3" d="M24,70.5c-1.9,0-3.5-1.6-3.5-3.5s1.6-3.5,3.5-3.5s3.5,1.6,3.5,3.5S25.9,70.5,24,70.5z"/><path fill="#f5c276" d="M24,64c1.7,0,3,1.3,3,3s-1.3,3-3,3s-3-1.3-3-3S22.3,64,24,64 M24,63c-2.2,0-4,1.8-4,4s1.8,4,4,4 s4-1.8,4-4S26.2,63,24,63L24,63z"/><path fill="#ffeea3" d="M34,66.5C17.7,66.5,4.5,53.3,4.5,37S17.7,7.5,34,7.5S63.5,20.7,63.5,37S50.3,66.5,34,66.5z"/><path fill="#ba9b48" d="M34,8c16,0,29,13,29,29S50,66,34,66S5,53,5,37S18,8,34,8 M34,7C17.4,7,4,20.4,4,37s13.4,30,30,30 s30-13.4,30-30S50.6,7,34,7L34,7z"/><path fill="#839cb2" d="M66.1,45.3c-0.9-1.9-3.1-2.8-4.1-2.8c-9.3,0-15.6-6.3-15.6-15.7c0-0.6,0-1.2,0.1-1.7l0-0.4l-0.4-0.1 c-7.9-1.8-13.6-8.6-13.6-16.2c0-0.2,0-0.5,0-0.8H36c20,0,31.5,9.3,31.5,25.5C67.5,36.4,66.9,42.3,66.1,45.3z"/><path fill="#66798f" d="M36,8c19.7,0,31,9.1,31,25c0,3-0.4,7.9-1.1,11c-1.1-1.3-2.8-2-3.9-2c-9,0-15.1-6.1-15.1-15.2 c0-0.6,0-1.1,0.1-1.7l0.1-0.9L46.2,24C38.6,22.3,33,15.7,33,8.3c0-0.1,0-0.2,0-0.3H36 M36,7c-1.3,0-3.9,0-3.9,0 C32,7.3,32,8,32,8.3c0,8.2,6.3,14.9,14,16.7c-0.1,0.6-0.1,1.2-0.1,1.8C45.9,36.4,52.4,43,62,43c1.1,0,4,1.2,4,4c1.3-2,2-10.3,2-14 C68,16.1,55.8,7,36,7L36,7z"/><g><path fill="#fff9de" d="M18.1,50.5c-0.7,0-1.2-0.1-1.7-0.4c-1.1-0.7-1.7-1.9-1.9-3.4c-0.2-1.8,0.5-3.8,1.8-5 c1.4-1.4,3.7-2.2,6.1-2.2c0.9,0,1.8,0.1,2.5,0.4c1.4,0.4,2.3,1.2,2.5,2.4c0.4,1.8-0.9,4.2-3.2,6.1l0,0 C24.2,48.3,20.7,50.5,18.1,50.5L18.1,50.5z"/><path fill="#ba9b48" d="M22.4,40c0.9,0,1.7,0.1,2.4,0.3c0.9,0.2,1.9,0.8,2.2,2c0.3,1.6-0.9,3.8-3,5.6 c-1,0.6-3.8,2.1-5.9,2.1c-0.6,0-1.1-0.1-1.4-0.3c-0.9-0.6-1.5-1.7-1.7-3c-0.2-1.7,0.5-3.5,1.6-4.6C18,40.8,20.1,40,22.4,40 M22.4,39c-2.2,0-4.7,0.7-6.4,2.4c-2.4,2.4-2.8,7.2,0.2,9.1c0.6,0.4,1.2,0.5,1.9,0.5c2.9,0,6.4-2.3,6.4-2.3 c4.4-3.6,4.7-8.1,0.5-9.3C24.2,39.1,23.3,39,22.4,39L22.4,39z"/></g><path fill="#ba9b48" d="M35.2,58.6l-0.6-0.8c0.1,0,6.5-4.9,6.5-12.9c0-8.1-4.2-12.4-4.2-12.5l0.7-0.7 c0.2,0.2,4.5,4.7,4.5,13.2C42.1,53.4,35.5,58.4,35.2,58.6z"/><path fill="#ba9b48" d="M33.5,37.3L32.6,37c1.7-4.7,5.1-7,10.2-7l0.2,0v1l-0.2,0C41.1,31,35.8,30.9,33.5,37.3z"/><g><path fill="#36404d" d="M28.5,23.1c1.7,1.9,2,4.4,0.6,5.4s-3.9,0.3-5.6-1.6s-2-4.4-0.6-5.4C24.3,20.4,26.8,21.1,28.5,23.1z"/></g><g><path fill="#36404d" d="M16.5,31.1c1.7,1.9,2,4.4,0.6,5.4s-3.9,0.3-5.6-1.6s-2-4.4-0.6-5.4C12.3,28.4,14.8,29.1,16.5,31.1z"/></g><g><path fill="#ffeea3" d="M62,50.5c-1.9,0-3.5-1.6-3.5-3.5s1.6-3.5,3.5-3.5s3.5,1.6,3.5,3.5S63.9,50.5,62,50.5z"/><path fill="#f5c276" d="M62,44c1.7,0,3,1.3,3,3s-1.3,3-3,3s-3-1.3-3-3S60.3,44,62,44 M62,43c-2.2,0-4,1.8-4,4s1.8,4,4,4 s4-1.8,4-4S64.2,43,62,43L62,43z"/></g></svg>