<svg xmlns="http://www.w3.org/2000/svg" viewBox="0 0 80 80" width="30px" height="30px"><path fill="#8bb7f0" d="M32.026,77.5L10.5,55.794C10.545,37.238,16.751,2.5,40,2.5s29.455,34.738,29.5,53.294L47.974,77.5 H32.026z"/><path fill="#4e7ab5" d="M40,3c22.768,0,28.909,34.155,28.999,52.589L47.765,77h-15.53L11.001,55.589 C11.091,37.155,17.232,3,40,3 M40,2C14.773,2,10,41.009,10,56l21.818,22h16.364L70,56C70,41.009,65.227,2,40,2L40,2z"/><path fill="#839cb2" d="M32.057,77.5C30.584,75.661,18.5,60.003,18.5,42c0-20.038,8.641-33.5,21.5-33.5S61.5,21.962,61.5,42 c0,18.003-12.084,33.661-13.557,35.5H32.057z"/><path fill="#66798f" d="M40,9c5.737,0,10.956,2.977,14.696,8.381C58.82,23.34,61,31.853,61,42 c0,17.335-11.333,32.503-13.298,35H32.298C30.333,74.503,19,59.335,19,42C19,22.262,27.439,9,40,9 M40,8C27.95,8,18,20.057,18,42 c0,19.488,13.818,36,13.818,36h16.364C48.182,78,62,61.488,62,42C62,20.166,52.05,8,40,8L40,8z"/><path fill="#8bb7f0" d="M32,77c0-21.714-8-43-8-43c3.409-16.286,9.864-20,16-20s11.682,3.262,16,20c0,0-8,21.286-8,43H32z"/><path fill="#b0c1d4" d="M34.59 77.5L38.424 54.5 41.576 54.5 45.41 77.5z"/><path fill="#66798f" d="M41.153,55l3.667,22H35.18l3.667-22H41.153 M42,54h-4l-4,24h12L42,54L42,54z"/><path fill="#c2e8ff" d="M54.991,36.798C55.604,35.004,56,34,56,34c-0.85-3.294-1.749-6.049-2.688-8.376 C50.344,29.545,45.496,34,40,34c-5.605,0-10.541-4.658-13.49-8.61c-0.947,2.385-1.798,5.21-2.51,8.61c0,0,0.396,1.004,1.009,2.798 C27.536,40.612,33.293,48,40,48S52.464,40.612,54.991,36.798z"/><path fill="#36404d" d="M54,31c0,0-10.364,14-14,14S26,31,26,31s10.136,8,14,8S54,31,54,31z"/><path fill="#66798f" d="M56.968,33.75C53.166,19.012,48.25,13,40,13c-8.496,0-14.05,6.802-16.979,20.795l-0.06,0.284	l0.102,0.272C23.143,34.563,31,55.727,31,77h1c0-21.714-8-43-8-43c3.409-16.286,9.864-20,16-20s11.682,3.262,16,20	c0,0-8,21.286-8,43h1c0-21.286,7.857-42.437,7.936-42.648l0.111-0.296L56.968,33.75z"/><path fill="#7496c4" d="M34.048 15.477c1.398 1.811 3.039 5.09 3.039 10.523h1c0-5.572-1.666-9.014-3.135-10.977C34.649 15.158 34.347 15.31 34.048 15.477zM45.117 15.048C43.652 17.015 42 20.451 42 26h1c0-5.392 1.616-8.658 3.007-10.478C45.712 15.346 45.416 15.189 45.117 15.048z"/><path fill="#839cb2" d="M35.5 73.5H44.5V74.5H35.5z"/><path fill="#66798f" d="M45 73L35 73 35 75 45 75 45 73z"/><g><path fill="#839cb2" d="M36.5 69.5H43.5V70.5H36.5z"/><path fill="#66798f" d="M44 69L36 69 36 71 44 71 44 69z"/></g><g><path fill="#839cb2" d="M36.809 66.5L37.309 65.5 42.691 65.5 43.191 66.5z"/><path fill="#66798f" d="M43 65L37 65 36 67 44 67 43 65z"/></g><g><path fill="#839cb2" d="M37.5 61.5H42.5V62.5H37.5z"/><path fill="#66798f" d="M43 61L37 61 37 63 43 63 43 61z"/></g><g><path fill="#839cb2" d="M38.5 57.5H41.5V58.5H38.5z"/><path fill="#66798f" d="M42 57L38 57 38 59 42 59 42 57z"/></g></svg>