<svg xmlns="http://www.w3.org/2000/svg" viewBox="0 0 80 80" width="30px" height="30px"><path fill="#839cb2" d="M46.929,74.153c2.107-7.653,1.906-17.306,1.695-27.392c-0.06-2.831-0.12-5.756-0.124-8.602 c0.425-0.308,0.757-0.618,0.808-1.042c0.061-0.509-0.28-0.89-0.844-1.521l-0.152-0.17c-0.522-0.505-1.052-1.224-1.613-1.986 c-0.965-1.311-1.963-2.666-3.05-3.131l-0.697-0.299v0.758c0,0.716,0.488,1.528,0.779,1.948c0.122,0.177,0.285,0.375,0.448,0.571 c0.175,0.21,0.466,0.561,0.503,0.687c0.163,0.666,0.167,1.96-0.675,4.802c-0.94,4.705-2.15,9.015-3.319,11.877 c-0.035-0.464-0.076-0.863-0.341-1.118L40,49.201l-0.347,0.335c-0.264,0.253-0.306,0.65-0.341,1.111 c-1.206-3.004-2.193-7.15-3.076-10.855L36,38.803l-0.065-0.251c-0.32-1.229-0.917-3.517-0.632-4.48l0.021-0.07v-0.072 c0.037-0.14,0.435-0.678,0.647-0.967c0.11-0.149,0.215-0.291,0.299-0.413c0.365-0.526,0.779-1.124,0.779-1.947v-0.729l-0.68,0.262 c-1.253,0.483-2.342,2.017-3.303,3.37c-0.491,0.692-0.955,1.345-1.351,1.727l-0.169,0.187c-0.56,0.626-0.897,1.004-0.857,1.524 c0.031,0.42,0.309,0.757,0.811,1.189c-0.004,2.894-0.067,5.862-0.13,8.734c-0.213,9.827-0.416,19.238,1.576,26.781 c-0.122-0.283-0.238-0.559-0.349-0.825c-4.047-10.239-4.097-22.781-4.098-37.288c0.092,0.022,0.191,0.04,0.299,0.04 c0.251,0,0.479-0.097,0.678-0.288c1.129-0.887,2.252-2.24,3.339-3.548c0.719-0.865,1.397-1.682,2.01-2.272l2.244-2.163 l-2.808,1.352c-0.761,0.366-2.151,0.697-3.269,0.962c-0.976,0.231-1.59,0.381-1.908,0.535c-0.765,0.368-1.322,0.907-2.028,1.588 c-1.258,0.932-2.507,1.789-3.714,2.617c-2.313,1.586-4.496,3.084-6.778,5.174c-1.024,0.7-3.176,2.477-3.593,3.885 c-0.265,0.491-0.182,1.349-0.093,2.257c0.036,0.37,0.072,0.733,0.072,1.045c0,7.904,0.628,14.027,2.037,19.312 c-3.032-7.21-4.412-15.023-4.485-25.262c0.319,0.132,0.636,0.198,0.954,0.198c1.026,0,1.855-0.685,2.657-1.348 c3.933-2.473,8.448-5.319,12.429-9.156c0.242-0.169,0.55-0.451,0.847-0.724c0.257-0.235,0.646-0.592,0.779-0.644h0.202l0.069-0.129 c0.021-0.001,0.04-0.001,0.059-0.001c0.137,0,0.245,0.024,0.362,0.047c0.216,0.042,0.484,0.094,0.786,0.094 c1.894,0,2.879-0.032,4.55-0.748l1.545-0.662l-1.656-0.291c-0.858-0.15-1.59-0.218-2.369-0.218c-0.308,0-0.594,0.01-0.88,0.02 c-0.273,0.01-0.546,0.02-0.837,0.02c-6.928,0-11.35,0.694-14.23,2.245c-0.405-0.413-0.892-0.817-1.401-1.24 c-0.514-0.427-1.042-0.866-1.493-1.323c0.814-1.207,1.263-3.234,1.598-4.756l0.132-0.587c0.14-0.539,0.226-1.007,0.3-1.414 c0.103-0.561,0.177-0.966,0.348-1.296l0.023-0.046l0.014-0.05c0.351-1.258,0.685-2.439,1.018-3.558 c-0.747,3.425-1.104,7.148-0.964,11.424l0.022,0.662l0.631-0.203c1.477-0.475,4.993-0.725,10.171-0.725 c1.414,0,2.618,0.019,3.345,0.03c0.318,0.005,0.546,0.008,0.661,0.008h5.604l-0.542-0.784c-0.198-0.287-0.374-0.687-0.561-1.11 c-0.431-0.976-0.918-2.082-1.961-2.369c-0.195-0.103-0.501-0.166-0.88-0.166c-0.271,0-0.559,0.034-0.865,0.071 c-0.305,0.037-0.63,0.077-0.976,0.077c-0.67,0-1.347-0.014-2.005-0.027c-0.632-0.013-1.246-0.026-1.823-0.026 c-1.655,0-2.877,0.1-3.575,0.536c-0.289-0.238-0.62-0.433-0.943-0.623c-0.503-0.296-0.979-0.577-1.155-0.938 c0.047-0.389,0.338-1.659,0.657-2.582c0.086-0.25,0.173-0.511,0.259-0.771c0.249-0.75,0.506-1.524,0.747-1.989l0.023-0.044 l0.014-0.048c0.89-3.109,2.249-6.893,3.721-10.41c-1.104,4.296-1.94,9.062-1.94,14.763v0.5h8.961 c0.613,0.47,1.161,1.079,1.692,1.67c0.563,0.625,1.094,1.217,1.654,1.577l1.033,0.665l-0.275-1.197 c-0.059-0.256-0.07-0.502-0.032-0.74c-0.038,0.539,0.051,1.049,0.342,1.47l0.149,0.215h0.262c0.688,0,0.889-0.542,0.984-0.819 c0.402,0.32,0.836,0.32,1.259,0.32c0.348,0,0.825-0.122,1.235-0.387c0.006,0.018,0.013,0.035,0.018,0.05 c0.094,0.271,0.289,0.836,0.99,0.836h0.262l0.149-0.215c0.258-0.373,0.356-0.817,0.35-1.289c0.017,0.177,0.005,0.363-0.04,0.559 l-0.275,1.197l1.033-0.665c0.622-0.399,1.258-1.083,1.931-1.806c0.472-0.506,0.957-1.028,1.434-1.441h8.943v-0.5 c0-5.826-0.874-10.675-2.013-15.044c1.801,4.116,3.054,7.641,3.787,10.671l0.015,0.059l0.028,0.054 c0.241,0.465,0.498,1.24,0.747,1.989c0.086,0.26,0.173,0.521,0.259,0.771c0.314,0.906,0.601,2.147,0.654,2.561 c-0.158,0.239-0.539,0.469-0.94,0.71c-0.402,0.242-0.845,0.509-1.21,0.869c-0.762-0.433-2.027-0.532-3.645-0.532 c-0.577,0-1.186,0.013-1.804,0.026c-0.632,0.014-1.273,0.027-1.9,0.027c-0.346,0-0.671-0.041-0.976-0.077 c-0.307-0.037-0.595-0.071-0.865-0.071c-0.379,0-0.685,0.063-0.964,0.198c-0.959,0.255-1.446,1.361-1.877,2.337 c-0.187,0.423-0.362,0.823-0.561,1.11L44.224,26.4H50c0.116,0,0.343-0.003,0.66-0.008c0.718-0.011,1.903-0.03,3.294-0.03 c5.098,0,8.573,0.25,10.05,0.725l0.631,0.203l0.022-0.662c0.145-4.407-0.239-8.226-1.034-11.737 c0.356,1.163,0.713,2.394,1.089,3.708c0.195,0.398,0.273,0.841,0.364,1.354c0.079,0.441,0.168,0.94,0.327,1.479l0.123,0.556 c0.341,1.542,0.795,3.603,1.631,4.804c-0.507,0.655-1.209,1.197-1.892,1.722c-0.354,0.273-0.693,0.534-1.007,0.81 c-2.876-1.561-7.251-2.26-14.086-2.26c-1.036,0-1.885,0.092-2.958,0.208c-0.386,0.042-0.801,0.086-1.263,0.131l-1.945,0.188 l1.796,0.77c1.165,0.499,1.987,0.59,3.188,0.59l1.362-0.009c0.202,0,0.427-0.04,0.65-0.083c0.159-0.031,0.318-0.065,0.462-0.065 c0.075,0,0.1,0.012,0.101,0.012l0.145,0.14l0.196-0.004c0.222,0.077,1.118,0.94,1.549,1.355c3.65,3.679,7.631,6.47,12.482,9.528 l0.324,0.229c0.688,0.489,1.398,0.996,2.261,0.996c0.328,0,0.651-0.073,0.974-0.221c-0.085,8.854-1.387,16.099-4.235,23.225 c1.221-4.915,1.788-10.424,1.788-17.001c0-0.312,0.036-0.675,0.072-1.045c0.089-0.909,0.172-1.767-0.129-2.345 c-0.329-1.144-1.988-2.508-3.321-3.604l-0.255-0.21c-3.566-2.947-6.61-5.236-10.521-8.148c-0.264-0.191-0.496-0.404-0.724-0.611 c-0.381-0.346-0.773-0.704-1.256-0.936c-0.318-0.153-0.933-0.303-1.908-0.535c-1.117-0.265-2.508-0.596-3.269-0.962l-2.808-1.352 l2.244,2.163c0.612,0.591,1.291,1.408,2.01,2.272c1.064,1.283,2.166,2.608,3.307,3.526c0.188,0.268,0.447,0.311,0.596,0.311 c0.135,0,0.255-0.032,0.383-0.065c0.01-0.003,0.021-0.005,0.03-0.008C51.499,49.984,51.446,62.508,47.364,73 C47.23,73.386,47.085,73.771,46.929,74.153z"/><path fill="#66798f" d="M55.752,10.582c0.667,1.854,1.187,3.555,1.566,5.121l0.029,0.118l0.056,0.107 c0.222,0.429,0.473,1.183,0.715,1.913c0.088,0.264,0.175,0.528,0.263,0.781c0.269,0.778,0.503,1.757,0.595,2.239 c-0.169,0.139-0.468,0.319-0.667,0.439c-0.323,0.194-0.692,0.417-1.035,0.7c-0.845-0.349-2.039-0.435-3.561-0.435 c-0.58,0-1.192,0.013-1.815,0.026c-0.628,0.013-1.266,0.027-1.89,0.027c-0.306,0-0.616-0.037-0.915-0.074 c-0.302-0.036-0.614-0.074-0.925-0.074c-0.415,0-0.775,0.069-1.099,0.209c-1.21,0.383-1.757,1.622-2.198,2.622 c-0.177,0.401-0.344,0.78-0.516,1.028L43.269,26.9h1.907h0.775c-0.016,0.002-0.032,0.003-0.048,0.005l-2.206,0.213l-3.362-1.62 l1.834,1.767l-0.157,0.015l0.312,0.134l2.503,2.413c0.593,0.572,1.263,1.378,1.972,2.232c1.066,1.284,2.167,2.61,3.33,3.557 c0.217,0.273,0.522,0.435,0.871,0.458c-0.002,11.513-0.071,21.774-2.238,30.739c0.653-6.127,0.509-12.988,0.362-20.062 c-0.057-2.746-0.117-5.58-0.123-8.342c0.414-0.33,0.74-0.704,0.803-1.23c0.088-0.733-0.355-1.229-0.968-1.914l-0.151-0.169 l-0.026-0.029l-0.028-0.027c-0.464-0.447-0.981-1.15-1.529-1.893c-1.005-1.365-2.045-2.776-3.257-3.296l-1.394-0.597v1.516 c0,0.85,0.544,1.763,0.868,2.232c0.14,0.202,0.31,0.407,0.475,0.606c0.123,0.148,0.318,0.383,0.398,0.509l0.017,0.064 c0.111,0.43,0.171,1.58-0.681,4.454l-0.013,0.044l-0.009,0.045c-0.796,3.988-1.794,7.707-2.793,10.471 c-0.006-0.006-0.012-0.012-0.018-0.018L40,48.507l-0.694,0.669c-0.002,0.002-0.004,0.004-0.007,0.006 c-0.981-2.808-1.817-6.318-2.575-9.501l-0.242-1.014l-0.062-0.237c-0.265-1.013-0.884-3.386-0.638-4.217l0.041-0.139v-0.015 c0.102-0.193,0.389-0.582,0.551-0.801c0.113-0.153,0.22-0.298,0.307-0.423c0.387-0.559,0.868-1.255,0.868-2.232v-1.457 l-1.36,0.524c-1.393,0.537-2.529,2.136-3.531,3.547c-0.477,0.672-0.928,1.306-1.29,1.655l-0.028,0.027l-0.026,0.029l-0.141,0.158 c-0.58,0.649-1.039,1.162-0.984,1.895c0.042,0.559,0.38,0.984,0.809,1.377c-0.006,2.817-0.069,5.703-0.129,8.498 c-0.152,7.033-0.3,13.853,0.357,19.948C29.067,57.956,29.002,47.642,29,36.061c0.231-0.033,0.511-0.131,0.78-0.374 c1.196-0.951,2.326-2.312,3.42-3.63c0.709-0.854,1.379-1.66,1.972-2.232l4.491-4.329l-3.622,1.746l-1.869-0.328 c-0.029-0.005-0.058-0.01-0.087-0.015h0.738h1.908l-1.085-1.569c-0.171-0.248-0.339-0.627-0.516-1.028 c-0.441-1-0.988-2.239-2.198-2.622c-0.324-0.141-0.685-0.209-1.099-0.209c-0.312,0-0.624,0.038-0.925,0.074 c-0.299,0.036-0.609,0.074-0.915,0.074c-0.666,0-1.34-0.014-1.995-0.027c-0.635-0.013-1.254-0.026-1.834-0.026 c-1.557,0-2.728,0.087-3.528,0.444c-0.244-0.173-0.498-0.322-0.736-0.462c-0.323-0.19-0.709-0.418-0.885-0.619 c0.083-0.469,0.325-1.497,0.606-2.308c0.088-0.253,0.175-0.517,0.263-0.781c0.242-0.73,0.493-1.484,0.715-1.913l0.046-0.089 l0.028-0.096c0.408-1.426,0.916-2.995,1.488-4.615c-0.426,2.703-0.689,5.619-0.689,8.831v1h1h8.288 c0.526,0.428,1.016,0.974,1.493,1.503c0.586,0.652,1.139,1.267,1.757,1.664l2.067,1.328l-0.194-0.841 c0.455-0.032,0.815-0.242,1.076-0.628c0.371,0.133,0.736,0.133,1.043,0.133c0.326,0,0.672-0.074,0.997-0.204 c0.263,0.431,0.639,0.665,1.122,0.699l-0.194,0.841l2.067-1.328c0.675-0.434,1.332-1.139,2.027-1.886 c0.416-0.447,0.844-0.906,1.257-1.282h8.254h1v-1C56.529,16.529,56.23,13.437,55.752,10.582 M65.137,22.542 c0.309,1.38,0.718,3.04,1.403,4.209c-0.448,0.496-1.021,0.937-1.58,1.368c-0.256,0.197-0.516,0.398-0.768,0.606 c-1.761-0.889-4.03-1.487-6.993-1.824c4.039,0.105,5.846,0.404,6.652,0.663l1.262,0.405l0.044-1.325 C65.203,25.219,65.196,23.855,65.137,22.542 M14.854,22.747c-0.05,1.25-0.055,2.546-0.011,3.897l0.044,1.325l1.262-0.405 c0.945-0.304,3.288-0.663,9.065-0.699c-4.16,0.261-7.158,0.907-9.354,2c-0.359-0.339-0.76-0.672-1.175-1.017 c-0.399-0.332-0.808-0.671-1.176-1.016C14.159,25.679,14.554,24.086,14.854,22.747 M51.359,29.303l0.143,0.138h0.24 c0.316,0.203,1.015,0.877,1.352,1.201c1.146,1.155,2.322,2.222,3.544,3.235c-1.095-0.827-2.233-1.677-3.456-2.588 c-0.229-0.166-0.446-0.363-0.676-0.572c-0.406-0.369-0.827-0.752-1.373-1.015c-0.184-0.089-0.43-0.171-0.761-0.261 c0.261-0.002,0.508-0.05,0.727-0.092C51.186,29.332,51.281,29.314,51.359,29.303 M28.631,29.478 c0.045,0.008,0.093,0.017,0.134,0.025c0.124,0.024,0.263,0.051,0.418,0.072c-0.122,0.042-0.226,0.083-0.316,0.127 c-0.817,0.394-1.394,0.942-2.112,1.633c-0.729,0.542-1.441,1.048-2.138,1.535c0.754-0.636,1.498-1.302,2.224-2 c0.299-0.223,0.597-0.496,0.885-0.761c0.175-0.16,0.422-0.387,0.572-0.502h0.199L28.631,29.478 M60.123,36.555 c1.723,1.234,3.55,2.432,5.514,3.67c0.113,0.078,0.224,0.157,0.334,0.235c0.717,0.51,1.53,1.089,2.551,1.089 c0.156,0,0.311-0.013,0.465-0.04c-0.097,5.757-0.726,10.831-1.98,15.648c0.366-3.093,0.542-6.435,0.542-10.105 c0-0.278,0.034-0.627,0.07-0.997c0.088-0.901,0.178-1.83-0.138-2.531c-0.415-1.247-1.829-2.485-3.494-3.854l-0.252-0.208 C62.489,38.432,61.304,37.481,60.123,36.555 M17.426,38.108c-0.381,0.322-0.764,0.657-1.15,1.01 c-0.451,0.318-3.162,2.287-3.757,4.073c-0.316,0.701-0.225,1.631-0.138,2.531c0.036,0.37,0.07,0.719,0.07,0.997 c0,4.623,0.214,8.642,0.673,12.245c-1.36-5.156-2.028-10.817-2.114-17.532c0.148,0.024,0.298,0.035,0.448,0.035 c1.182,0,2.109-0.746,2.926-1.421C15.371,39.424,16.39,38.782,17.426,38.108 M52.078,0c1.898,6.154,3.451,12.141,3.451,19.958 c-3.451,0-4.831,0-8.627,0c-1.208,0.998-2.416,2.661-3.451,3.326c0.345-1.497-0.863-2.495-1.726-3.16 c0.345,0.665,1.208,2.495,0.518,3.493c-0.69,0-0.345-0.998-1.035-0.998c-0.345,0.333-0.863,0.499-1.208,0.499 c-0.518,0-0.863,0-1.208-0.499c-0.69,0-0.345,0.998-1.035,0.998c-0.69-0.998,0.173-2.827,0.518-3.493 c-1.035,0.665-2.071,1.663-1.725,3.16c-1.035-0.665-2.071-2.328-3.451-3.326c-3.796,0-5.176,0-8.627,0 c0-7.817,1.553-13.805,3.451-19.958l-0.69,0.998c-1.898,3.992-4.141,9.647-5.522,14.47c-0.345,0.665-0.69,1.83-1.035,2.827 c-0.345,0.998-0.69,2.495-0.69,2.827c0.345,0.998,1.898,1.331,2.588,2.162c0.414-0.599,1.822-0.719,3.59-0.719 c1.179,0,2.518,0.053,3.829,0.053c0.69,0,1.304-0.148,1.841-0.148c0.268,0,0.518,0.037,0.748,0.148 c1.208,0.333,1.553,2.283,2.243,3.28c-1.553,0-3.098,0-4.651,0c-0.378,0-1.975-0.038-4.001-0.038 c-3.527,0-8.356,0.116-10.328,0.749C15.498,16.133,18.204,9.052,22,1.9c-3.796,4.99-5.294,9.909-7.192,16.728 c-0.345,0.665-0.345,1.497-0.69,2.827c-0.345,1.497-0.863,4.324-1.898,5.489c1.035,1.164,2.588,2.162,3.451,3.16 c3.106-1.83,8.118-2.374,14.329-2.374c0.596,0,1.116-0.04,1.718-0.04c0.617,0,1.321,0.042,2.282,0.21 c-1.553,0.665-2.455,0.707-4.353,0.707c-0.46,0-0.844-0.148-1.15-0.148c-0.153,0-0.288,0.037-0.403,0.148 c-0.345,0-1.208,0.998-1.898,1.497c-3.796,3.659-7.914,6.303-12.4,9.131c-0.789,0.652-1.504,1.233-2.338,1.233 c-0.443,0-0.919-0.164-1.458-0.567c0,12.308,1.859,21.189,6,29.505c0.518,0.665,1.553,2.495,1.553,2.495 c-3.106-7.152-4.102-15.202-4.102-25.181c0-0.998-0.345-2.495,0-3.16c0.345-1.164,2.243-2.827,3.451-3.659 c3.451-3.16,6.706-4.973,10.502-7.8c0.69-0.665,1.208-1.164,1.898-1.497c0.69-0.333,3.796-0.832,5.177-1.497 c-1.553,1.497-3.451,4.324-5.349,5.821c-0.115,0.111-0.221,0.148-0.331,0.148c-0.22,0-0.453-0.148-0.798-0.148 c0,14.969-0.005,27.609,4.136,38.087c1.035,2.495,2.243,4.99,3.796,6.819C30.238,69.854,32,53.368,32,37.9 c-1.208-0.998-0.973-1.143,0.063-2.307c1.208-1.164,2.761-4.324,4.486-4.99c0,0.665-0.345,1.164-0.69,1.663 s-1.035,1.331-1.035,1.663c-0.345,1.164,0.345,3.659,0.69,4.99c1.035,4.324,2.243,9.655,3.796,12.981 c0.69,0,0.345-1.671,0.69-2.004c0.345,0.333,0,2.004,0.69,2.004c1.553-3.326,2.933-8.657,3.796-12.981 c0.345-1.164,1.035-3.659,0.69-4.99c0-0.333-0.69-0.998-1.035-1.497s-0.69-1.164-0.69-1.663c1.553,0.665,3.106,3.659,4.486,4.99 c1.035,1.164,1.271,1.31,0.063,2.141c0,15.468,1.728,32.121-3.966,42.1c1.553-1.83,2.933-4.324,3.796-6.819 C51.971,62.536,52,49.896,52,34.927c-0.46,0-0.732,0.148-0.913,0.148c-0.091,0-0.159-0.037-0.216-0.148 c-1.898-1.497-3.796-4.324-5.349-5.821c1.38,0.665,4.486,1.164,5.177,1.497c0.69,0.333,1.208,0.998,1.898,1.497 c3.796,2.827,6.878,5.139,10.502,8.133c1.208,0.998,3.106,2.495,3.451,3.659c0.345,0.665,0,2.162,0,3.16 c0,9.979-1.271,17.696-4.549,24.848c0,0,1.035-1.83,1.553-2.827C67.694,60.757,70,52.208,70,39.9 c-0.547,0.469-1.03,0.648-1.478,0.648c-0.825,0-1.535-0.609-2.318-1.147c-4.486-2.827-8.604-5.638-12.4-9.463 c-0.69-0.665-1.553-1.497-1.898-1.497c-0.115-0.111-0.268-0.148-0.441-0.148c-0.345,0-0.767,0.148-1.112,0.148 c-0.517,0-0.96,0.009-1.363,0.009c-1.075,0-1.86-0.066-2.99-0.55c1.725-0.166,2.792-0.337,4.173-0.337 c6.212,0,11.051,0.545,14.157,2.374c1.035-0.998,2.588-1.83,3.451-3.16c-1.035-1.164-1.553-3.992-1.898-5.489 c-0.345-1.164-0.345-2.162-0.69-2.827C63.294,11.809,61.796,6.89,58,1.9c3.796,7.152,6.502,14.233,6.157,24.711 c-1.972-0.634-6.732-0.749-10.208-0.749c-1.997,0-3.571,0.038-3.949,0.038c-1.553,0-3.271,0-4.824,0 c0.69-0.998,1.035-2.948,2.243-3.28c0.23-0.111,0.479-0.148,0.748-0.148c0.537,0,1.15,0.148,1.841,0.148 c1.242,0,2.54-0.053,3.705-0.053c1.748,0,3.197,0.12,3.715,0.719c0.69-0.998,2.243-1.331,2.588-2.162 c0-0.333-0.345-1.83-0.69-2.827c-0.345-0.998-0.69-2.162-1.035-2.827c-1.208-4.99-3.624-10.478-5.522-14.47L52.078,0L52.078,0z"/></svg>