<svg xmlns="http://www.w3.org/2000/svg" viewBox="0 0 80 80" width="30px" height="30px"><path fill="#8bb7f0" d="M14.505,35.5c0.268-13.831,11.602-25,25.495-25s25.228,11.169,25.495,25H14.505z"/><path fill="#4e7ab5" d="M40,11c13.45,0,24.454,10.677,24.98,24H15.02C15.546,21.677,26.55,11,40,11 M40,10 c-14.359,0-26,11.641-26,26h52C66,21.641,54.359,10,40,10L40,10z"/><path fill="#b0c1d4" d="M20.5 48.5H59.5V72.5H20.5z"/><path fill="#66798f" d="M59,49v23H21V49H59 M60,48H20v25h40V48L60,48z"/><path fill="#66798f" d="M26 64H54V66H26zM26 68H54V70H26zM26 60H54V62H26zM26 52H54V54H26zM26 56H54V58H26z"/><path fill="#c2e8ff" d="M56.379,77.5l-7.092-25.425c-0.463-1.544-1.849-2.575-3.451-2.575H34.164 c-1.602,0-2.987,1.031-3.448,2.565L23.621,77.5H10.803l7.679-27.365c0.167-0.906,0.07-1.511-0.294-1.947 C17.682,47.582,16.798,47.5,16,47.5h-3c-1.378,0-2.5-1.122-2.5-2.5V33c0-1.378,1.122-2.5,2.5-2.5h21.537l-2-28h14.926l-2,28H67 c1.378,0,2.5,1.122,2.5,2.5v12c0,1.378-1.122,2.5-2.5,2.5h-3c-0.798,0-1.681,0.082-2.188,0.688 c-0.364,0.437-0.461,1.041-0.304,1.901L69.198,77.5H56.379z"/><path fill="#7496c4" d="M46.926,3l-1.923,26.929L44.926,31H46h21c1.103,0,2,0.897,2,2v12c0,1.103-0.897,2-2,2h-3 c-0.86,0-1.929,0.099-2.571,0.868c-0.46,0.551-0.595,1.307-0.413,2.311l0.008,0.046l0.013,0.045L68.538,77H56.759l-6.996-25.078 C49.239,50.174,47.661,49,45.836,49H34.164c-1.825,0-3.403,1.174-3.932,2.94L23.241,77H11.462l7.501-26.73l0.013-0.045l0.008-0.046 c0.183-1.004,0.048-1.76-0.413-2.311C17.929,47.099,16.86,47,16,47h-3c-1.103,0-2-0.897-2-2V33c0-1.103,0.897-2,2-2h21h1.074 l-0.077-1.071L33.074,3H40H46.926 M48,2h-8h-8l2,28H13c-1.657,0-3,1.343-3,3v12c0,1.657,1.343,3,3,3h3c1.601,0,2.286,0.425,2,2 l-7.857,28H24l7.194-25.791c0.393-1.311,1.6-2.209,2.969-2.209h11.673c1.369,0,2.576,0.898,2.969,2.209L56,78h13.857L62,50 c-0.286-1.575,0.399-2,2-2h3c1.657,0,3-1.343,3-3V33c0-1.657-1.343-3-3-3H46L48,2L48,2z"/><g><path fill="#66798f" d="M64 42L52 42 48 46 32 46 28 42 16 42 16 36 64 36z"/></g><path fill="#f75252" d="M28 38H52V40H28z"/></svg>