<svg xmlns="http://www.w3.org/2000/svg" viewBox="0 0 80 80" width="30px" height="30px"><path fill="#4e7ab5" d="M64.413 53.742L68 47.857 68 56zM62 56L62 47.857 56.571 53.286zM68 36L68 46 72.597 37.286zM62.085 36.585L62 46 67.412 37.65z"/><path fill="#c2e8ff" d="M49.994,77.261c-7.157-2.131-10.56-9.574-11.372-13.365L38.537,63.5H37.61l-0.095,0.379 c-1.81,7.237-6.117,12.017-7.449,13.361C29.136,75.869,26.5,71.332,26.5,64v-1.784l-0.927,1.524 c-4.298,7.068-11.01,9.153-13.044,9.639c0.146-2.574,1.014-12.354,5.82-17.021l1.484-1.44l-1.979,0.604 c-2.199,0.672-4.389,1.013-6.51,1.013c-3.253,0-6.061-0.813-8.358-2.42c2.825-1.292,12.221-6.079,15.477-13.923l0.206-0.496 l-0.51-0.17C11.486,37.302,8.5,31.13,8.5,26c0-4.936,1.983-7.75,3.081-8.931c0.611,3.383,4.412,6.216,6.146,7.35l1.346,0.88 l-0.609-1.488c-2.852-6.962-2.512-12.536,1.187-18.385c0.374,2.494,1.664,7.718,6.052,10.976l0.798,0.593V16 c0-8.377,3.632-12.009,5.112-13.14C32.076,5.35,34.418,12.5,46,12.5c15.089,0,15.498,7.438,15.5,7.513l0.013,0.413l0.407,0.067 c5.552,0.895,14.64,3.037,15.389,4.983c0.185,0.479,0.345,1.137,0.064,1.546c-0.343,0.5-1.238,0.525-1.414,0.525l-0.508-0.029 l-0.104,0.507C75.343,28.14,74.832,39.5,70,39.5c-4.541,0-6.922-1.911-9.022-3.597C59.438,34.667,57.984,33.5,56,33.5 c-4.687,0-8.5,3.813-8.5,8.5c0,6.514,1.519,8.5,6.5,8.5c4.764,0,12.871,2.148,15.066,6.032c1.981,3.505-2.782,8.605-4.667,10.418 c-0.365-2.306-1.776-5.45-5.374-5.45l-3.398-0.006c-4.273,0-5.687,0.073-6.99,1.592C45.98,66.686,48.858,74.526,49.994,77.261z"/><path fill="#7496c4" d="M31.304,3.747C32.123,6.83,35.122,13,46,13c14.531,0,14.988,6.745,15,7.021l0.017,0.834l0.823,0.133 c6.798,1.094,14.449,3.232,15.002,4.668c0.194,0.505,0.238,0.91,0.119,1.084c-0.139,0.202-0.609,0.308-1.002,0.308l-0.049-0.001 l-1.021-0.064l-0.041,1.022C74.733,30.857,73.594,39,70,39c-4.365,0-6.673-1.853-8.709-3.487C59.681,34.221,58.16,33,56,33 c-4.963,0-9,4.037-9,9c0,5.837,1.116,9,7,9c4.745,0,12.607,2.198,14.631,5.778c1.519,2.686-1.601,6.798-3.928,9.182 C64.102,63.636,62.496,61,59.026,61l-1.961-0.003l-1.438-0.002c-4.447,0-5.923,0.08-7.369,1.765l-0.024,0.028l-0.022,0.03 c-2.528,3.426-0.427,10.189,0.903,13.614c-6.24-2.434-9.254-9.138-10.004-12.64L38.942,63h-0.809H38h-0.781l-0.189,0.757 c-1.613,6.451-5.259,10.928-6.886,12.678C29.071,74.675,27,70.442,27,64v-3.569l-1.854,3.05c-3.805,6.258-9.574,8.52-12.072,9.237 c0.247-3.259,1.298-11.8,5.623-16l2.969-2.883l-3.958,1.209c-2.15,0.657-4.291,0.99-6.363,0.99c-2.806,0-5.265-0.622-7.333-1.852 c3.554-1.734,11.858-6.441,14.912-13.798l0.412-0.992l-1.019-0.34C11.881,36.906,9,30.95,9,26c0-3.988,1.308-6.511,2.344-7.884 c1.091,3.136,4.48,5.656,6.109,6.721l2.692,1.76l-1.219-2.976c-2.598-6.343-2.484-11.503,0.475-16.8 c0.613,2.809,2.153,7.123,6.003,9.982L27,17.988V16C27,8.736,29.699,5.205,31.304,3.747 M32,2c0,0-6,3.058-6,14 c-5.678-4.215-6-12-6-12c-4.865,6.933-4.833,13.083-2,20c-2.494-1.631-6.112-4.743-6-8c0,0-4,2.875-4,10 c0,5.659,3.438,11.813,10,14C14.268,48.991,2,54,2,54c2.947,2.367,6.39,3.034,9.344,3.034c3.228,0,5.872-0.794,6.656-1.034 c-5.75,5.583-6,18-6,18s8.731-1.335,14-10c0,9.167,4,14,4,14s5.795-5.179,8-14h0.133c0.719,3.359,4.202,12.131,12.727,14 c0,0-4.86-10.5-1.843-14.589c1.116-1.3,2.179-1.416,6.61-1.416c0.963,0,2.084,0.005,3.399,0.005C63.824,62,64,68,64,68 s8.167-7,5.501-11.714C67.161,52.147,58.75,50,54,50s-6-1.893-6-8c0-4.467,3.703-8,8-8s5.857,6,14,6 c5.372,0,5.848-11.955,5.848-11.955s0.041,0.003,0.112,0.003c0.541,0,2.815-0.151,1.816-2.75C76.645,22.356,62,20,62,20 s-0.167-8-16-8C32.369,12,32,2,32,2L32,2z"/><path fill="#8bb7f0" d="M38,32.625h-1.938c-5.613-0.748-8.441-2.188-11.629-4.061l0.025,0.061l-4.314-2.028l-2.692-1.76 c-1.629-1.065-5.017-3.585-6.109-6.721C10.308,19.489,9,22.012,9,26c0,4.95,2.881,10.906,9.316,13.051l1.019,0.34l-0.412,0.992 C15.87,47.741,7.566,52.447,4.011,54.182c2.069,1.23,4.527,1.852,7.333,1.852c2.072,0,4.213-0.333,6.363-0.99l3.958-1.209 l-2.969,2.883c-4.325,4.2-5.376,12.741-5.623,16C15.572,72,21.34,69.738,25.146,63.48L27,60.431V64 c0,6.389,2.036,10.602,3.116,12.389c0.105-0.084,0.209-0.174,0.313-0.266c1.735-1.933,5.076-6.265,6.601-12.365L37.219,63L38,62 V32.625z"/><path fill="#4b6477" d="M54.001,21.5c-0.539-0.008-4.003-1.409-7.641-2.999h7.639c0.828,0,1.5,0.673,1.5,1.499 C55.5,20.827,54.828,21.5,54.001,21.5L54.001,21.5z"/><path fill="#36404d" d="M50.917,19c1.481,0,2.714,0,3.083,0.001c0.551,0,1,0.448,1,1s-0.448,1-0.965,1.001 c-0.496-0.055-2.663-0.904-5.251-2.001L50.917,19 M50.917,18c-2.964,0-6.919,0.001-6.919,0.001S52.896,22,54,22s2-0.895,2-2 s-0.895-2-2-2C53.633,18,52.399,18,50.917,18L50.917,18z"/><path fill="#4b6477" d="M74.61,26.345c-1.746-1.476-3.533-2.986-5.118-4.275c6.455,1.634,7.624,2.905,7.817,3.407 c0.185,0.479,0.345,1.137,0.064,1.546c-0.309,0.45-1.065,0.516-1.341,0.523L74.61,26.345z"/><path fill="#36404d" d="M71.611,23.168c4.661,1.386,5.182,2.358,5.232,2.488c0.194,0.505,0.238,0.91,0.119,1.084 c-0.111,0.162-0.434,0.262-0.76,0.295l-1.284-1.084C73.812,25.015,72.689,24.066,71.611,23.168 M67.427,21.065 c2.339,1.81,5.544,4.556,8.421,6.98c0,0,0.041,0.003,0.112,0.003c0.541,0,2.815-0.151,1.816-2.75 C77.107,23.558,71.724,22.028,67.427,21.065L67.427,21.065z"/><path fill="#7496c4" d="M27,64l-1-2c2.062-4.75,12-14.708,12-30h1C39,49.188,27.125,58.875,27,64z"/><path fill="#7496c4" d="M39,64l-1-1l-1,1c0,0,1-7.75,1-32h1V64z"/><path fill="#c2e8ff" d="M38,32L28,18c0,0-5.222,0.747-8.474,3.976C23.44,29.118,33.865,31.901,38,32z"/><path fill="#8bb7f0" d="M32.978,25.5c-2.503,0-4.612-1.267-6.275-3.768c1.187-0.634,2.903-1.232,4.613-1.232 c2.559,0,4.581,1.283,6.015,3.816C36.602,24.717,34.925,25.5,32.978,25.5C32.978,25.5,32.978,25.5,32.978,25.5z"/><path fill="#7496c4" d="M31.316 21c2.21 0 3.994 1.048 5.313 3.118C35.823 24.504 34.492 25 32.978 25c-2.165 0-4.021-1.034-5.53-3.077C28.345 21.508 29.761 21 31.316 21M31.316 20c-2.266 0-4.333.957-5.316 1.558C28.123 25.035 30.735 26 32.978 26 35.775 26 38 24.502 38 24.502 36.207 21.019 33.655 20 31.316 20L31.316 20zM37 32c-.875 7.25-13.125 19.563-18.583 22.875l1.042 1.042C29.667 47.375 35.875 40.125 38 33L37 32z"/><path fill="#7496c4" d="M37,32c-4.625,7.688-19,7-19,7v1c2.833,0,15.5,0.583,20-8H37z"/><g><path fill="none" d="M32.278 64.154c-.119.377-.213.757-.284 1.139.229-.668.445-1.394.641-2.181l.514-2.056.297-1.19-.35 1.283L32.278 64.154zM22.128 60.102c-.411.419-.8.957-1.161 1.599C21.369 61.212 21.759 60.68 22.128 60.102z"/><path fill="#7496c4" d="M37.891 34.572c.004.019.008.036.012.054.001-.015.003-.054.003-.054L37.891 34.572zM17 16c0 0-.313 4.156 1 8l2.062 2.594C23.25 28.469 30.25 32.083 36.958 33H38v-1C32.863 31.876 17 27.625 17 16z"/></g><path fill="#7496c4" d="M18.541,22c-0.005-0.008-0.01-0.016-0.015-0.024C21.778,18.747,27,18,27,18v-1l-0.283,0.041	c-0.24,0.034-5.256,0.712-8.935,4.366L18.541,22z"/><g><path fill="#8bb7f0" d="M25.919,17.185l-0.515-0.382c-3.85-2.858-5.39-7.173-6.003-9.982 c-2.383,4.265-2.918,8.442-1.681,13.219c0.128,0.351,0.273,0.692,0.428,1.028C20.958,18.48,24.389,17.507,25.919,17.185z"/></g></svg>