<svg xmlns="http://www.w3.org/2000/svg" viewBox="0 0 80 80" width="30px" height="30px"><path fill="#839cb2" d="M39.1,77.5c-0.313,0-0.634,0-0.813-0.02c-0.19-4.147-0.4-7.799-0.581-10.937 c-0.342-5.947-0.589-10.244-0.349-12.098l0.183-1.416l-1.027,0.993c-0.247,0.239-0.557,0.342-0.916,0.461 c-0.29,0.097-0.59,0.196-0.874,0.379l-0.531,0.341l0.87,0.84c0.008,0.145,0.022,0.342,0.041,0.592 c0.097,1.33,0.324,4.445,0.324,9.464c0,5.475,0,9.8-0.292,10.365c-0.113,0.163-0.213,0.178-0.304,0.178 c-0.141,0-0.41-0.059-0.892-0.338l-0.88-0.51l-0.378-0.365c-0.635-9.223-0.918-14.606-0.918-17.442v-0.137l-0.07-0.118 c-0.473-0.8-0.704-1.511-0.927-2.198c-0.113-0.349-0.221-0.677-0.348-0.985c-0.182-0.813-0.209-1.191-0.196-1.364 c0.03,0.009,0.068,0.021,0.114,0.039l0.68,0.263v-0.729c0-0.439-0.031-0.747-0.438-1.173l-0.336-0.974 c-0.235-0.57-0.132-0.904,0.358-1.219l0.229-0.147v-0.273c0-0.919-0.753-1.211-1.626-1.548l-0.087-0.034h-0.093 c-1.563,0-3.079,0.539-4.483,1.12l-0.062,0.025l-3.979,3.075v0.246c0,0.175,0.071,0.35,0.21,0.506l-0.65-0.251 c-0.298-0.097-0.576-0.142-0.851-0.142c-0.557,0-1.059,0.184-1.458,0.532c-0.18,0.068-0.538,0.224-0.857,0.478h-1.119 c-0.096-0.02-0.515-0.337-0.844-1.134l-0.04-0.096l-0.075-0.073c-0.775-0.749-0.969-1.503-1.29-2.754l-0.05-0.195v-0.205 l0.682-0.439l-0.533-1.287l-0.334-0.97c0.02-0.652,0.285-0.986,0.985-1.257l0.854-0.33c0.417-0.025,0.642-0.203,0.78-0.313h1.237 l-0.838-0.905c-0.239-0.23-0.496-0.557-0.822-0.971c-0.391-0.496-0.877-1.113-1.581-1.89c-0.743-1.01-1.334-2.036-1.775-3.101 c-1.85-7.351-2.166-13.391-0.914-17.884c0.732-2.828,2.359-5.023,4.975-6.72c0.827-0.343,1.813-1.321,2.952-2.45 c0.29-0.288,0.589-0.584,0.897-0.881c1.501-1.631,2.586-2.498,3.856-3.374c2.197-1.236,4.265-1.759,6.543-2.268l0.657-0.105 C33.631,2.968,36.504,2.5,39.831,2.5c0.865,0,1.737,0.032,2.592,0.096c6.553,0.373,12.138,2.46,17.081,6.383 c2.031,1.428,3.863,3.198,5.323,5.138c0.276,0.448,0.59,0.933,0.9,1.411c0.837,1.291,1.627,2.509,2.019,3.518l0.024,0.063 l0.04,0.054c1.772,2.397,2.13,6.374,1.033,11.498c-0.226,2.151-0.678,4.119-1.477,6.432l-1.348,5.758l0.031,0.119 c0.129,0.501,0.045,0.892-0.301,1.394l-0.088,0.128v0.697c0,0.501,0.571,0.688,1.628,0.84l0.008,0.005 c0.475,0.303,0.603,0.385,0.603,0.958l-0.344,1.787L67.51,48.84c-0.358,0.526-0.848,1.247-1.602,1.683l-0.5,0.318 c-0.916,0.583-1.647,1.048-2.038,1.564c-0.527,0.396-0.823,0.45-1.043,0.45c0,0,0,0,0,0c-0.22,0-0.472-0.061-0.84-0.203 L61.4,52.62h-0.093c-0.271,0-0.472-0.059-0.538-0.157c-0.044-0.065-0.05-0.179-0.02-0.322c0.319-0.076,0.463-0.276,0.493-0.66 l0.348-0.504l0.021-0.1c0.194-0.937,0.063-1.623-0.451-2.368l-0.044-0.064l-0.062-0.047c-1.117-0.863-2.175-1.282-3.236-1.282 c-0.308,0-0.617,0.037-0.919,0.11l-3.926,1.137l-0.714,1.037l0.823,0.796h0.052c0.023,0.152,0.023,0.412,0.023,0.582l-0.367,2.265 c-0.572,2.39-1.109,3.636-1.906,4.407l-0.153,0.147v0.212c0,3.286,0,7.01-0.371,11.315c-0.275,3.856-0.496,6.951-0.751,7.701 l-2.82,0.454c-0.194-0.908-0.403-3.996-0.097-10.069l0.374-7.935c0.306-1.908,0.361-3.001,0.372-3.535l0.269-0.173l1.6-0.442 v-0.953l-0.153-0.147c-0.025-0.025-0.644-0.614-2.022-1.185l-0.15-0.063l-2.145,0.519l0.127,0.492 c0.357,1.381,0.357,3.32,0.357,6.005c0,2.884,0,5.375-0.368,8.045c-0.16,5.745-0.468,8.918-0.921,9.49l-0.034-0.013l-0.043,0.008 h-1.271c-0.201-0.836-0.394-3.778-0.096-8.665c0.001-5.532,0.001-10.283,0.372-14.044l0.054-0.549h-2.607l0.287,0.691 c0.335,0.81,0.335,2.596,0.335,4.857v7.933c-0.207,6.604-0.603,9.082-0.812,9.957H39.1z M42.099,51.098l1.7-1.642l1.124-2.171 c0.425-0.461,0.514-1.132,0.249-1.901l-0.022-0.064l-0.412-0.598l-0.624-0.616L43.63,43.64l-0.858-2.155v-0.478l-0.898-0.868 l-0.551-0.364l-0.84-1.218l-0.51,1.229v-1.005l-1.221,1.178l-0.378,0.533L37.896,40.8l-0.45,0.422l-0.525,0.507v0.461 l-0.886,1.882l-0.343,0.827l-0.485,0.469l-0.526,0.745v1.179l1.243,2.401l1.385,0.804l0.756-0.73l0.379-1.834l1.858-2.284 l1.304,1.889L42.099,51.098z M18,39.258c0.327,0.394,1.59,0.882,6.476,1.556l3.919,0.541c0.776,0.19,1.3,0.275,1.701,0.275 c0.397,0,0.712-0.087,0.971-0.271h1.739l2.723-0.564l0.056-0.027c0.278-0.134,0.583-0.241,0.873-0.343 c0.457-0.161,0.891-0.314,1.196-0.55c0.496-0.121,0.772-0.21,0.865-0.55c0.096-0.351-0.145-0.583-0.377-0.809l-0.067-0.065 l-4.378-1.839c-0.622-0.301-1.266-0.579-1.867-0.838c-0.797-0.344-1.486-0.642-1.995-0.936c-3.914-2.522-6.765-3.992-7.722-4.361 c-1.418-0.865-2.964-1.799-4.893-2.358c-1.251-0.612-1.703-0.695-1.947-0.695c-0.376,0-0.535,0.226-0.586,0.323 c-0.071,0.136-0.086,0.284-0.045,0.441l-0.272,0.394l-0.393,2.088c-0.008,2.061,0.347,3.37,1.207,4.486 c-0.221,0.662,0.187,1.314,0.647,2.053l0.079,0.126C16.511,38.308,17.128,38.878,18,39.258z M49.156,41.27 c0.241,0.121,0.533,0.18,0.884,0.18c0.438,0,0.993-0.095,1.696-0.289l4.222-0.527c5.24-0.506,6.178-1.238,6.445-1.57 c0.551-0.37,1.093-0.891,1.483-1.425c0.735-0.423,1.003-1.244,1.287-2.11l0.132-0.396c0.586-0.885,0.84-2.041,1.085-3.159 c0.081-0.366,0.161-0.731,0.252-1.086l0.162-0.625h-0.333V28.96c0-0.535-0.205-0.796-0.423-0.923 c-0.107-0.383-0.378-0.627-0.73-0.627c-0.159,0-0.314,0.052-0.465,0.156c-0.782,0.054-1.376,0.447-1.561,1.011 c-2.139,0.689-3.708,1.199-4.977,1.725c-0.598,0.138-1.466,0.648-2.78,1.42l-1.012,0.592L50.6,34.661 c-0.208,0.121-0.433,0.264-0.673,0.417c-0.779,0.497-1.749,1.116-3.128,1.516l-4.493,1.446c-0.618,0.238-0.72,0.585-0.701,0.836 c0.032,0.425,0.306,0.932,3.171,1.57l2.405,0.359c0.158,0.062,0.305,0.124,0.441,0.181c0.457,0.192,0.818,0.343,1.174,0.343 C48.925,41.329,49.044,41.309,49.156,41.27z M21.49,52.8c0.232,0.062,0.504,0.098,0.815,0.098h0.84l0.056,0.022 c-0.136,0.058-0.264,0.122-0.389,0.185c-0.207,0.104-0.379,0.192-0.556,0.223L21.49,52.8z"/><path fill="#66798f" d="M39.832,3c0.852,0,1.711,0.032,2.571,0.095c6.438,0.366,11.93,2.419,16.79,6.275l0.023,0.018 l0.024,0.017c1.953,1.372,3.737,3.093,5.161,4.977c0.295,0.474,0.602,0.948,0.905,1.415c0.823,1.269,1.601,2.468,1.974,3.429 l0.048,0.125l0.08,0.108c1.685,2.279,2.012,6.116,0.946,11.095l-0.011,0.053l-0.006,0.054c-0.143,1.386-0.437,3.35-1.444,6.267 l-0.017,0.049l-0.012,0.05l-1.306,5.589l-0.056,0.24l0.062,0.238c0.092,0.355,0.034,0.604-0.228,0.984l-0.177,0.256v0.312v0.541 c0,0.97,1.067,1.193,1.951,1.321c0.11,0.071,0.229,0.151,0.253,0.186c0,0.001,0.026,0.051,0.033,0.212l-0.315,1.676 c-0.33,0.484-0.78,1.136-1.464,1.533l-0.477,0.305c-0.925,0.588-1.671,1.063-2.121,1.625c-0.373,0.272-0.559,0.312-0.691,0.312 c-0.153,0-0.356-0.052-0.66-0.17l-0.108-0.042c0.08-0.134,0.134-0.294,0.163-0.48l0.221-0.321l0.115-0.167l0.041-0.198 c0.222-1.071,0.063-1.895-0.529-2.754l-0.088-0.128l-0.123-0.095c-1.207-0.933-2.366-1.386-3.542-1.386 c-0.348,0-0.696,0.042-1.08,0.135l-1.866,0.541l-1.866,0.541l-0.342,0.099l-0.202,0.293l-0.373,0.541l-0.482,0.698l0.61,0.589 l0.373,0.361l0.065,0.063c0.002,0.072,0.003,0.15,0.003,0.221l-0.355,2.227c-0.545,2.272-1.057,3.479-1.766,4.164l-0.305,0.295 v0.424c0,3.276,0,6.988-0.371,11.287c-0.237,3.317-0.445,6.239-0.657,7.288l-1.999,0.322c-0.153-1.258-0.275-4.286-0.013-9.475 l0.371-7.878c0.263-1.665,0.343-2.719,0.367-3.33l1.143-0.315l0.734-0.203v-0.761v-0.361v-0.424l-0.305-0.295 c-0.071-0.069-0.738-0.69-2.178-1.286l-0.301-0.125l-0.316,0.076l-1.493,0.361l-0.988,0.239l0.255,0.984 c0.341,1.319,0.341,3.232,0.341,5.879c0,2.865,0,5.34-0.364,7.976l-0.008,0.054l-0.001,0.055 c-0.163,5.987-0.471,8.208-0.734,8.943h-0.611c-0.152-1.084-0.283-3.753-0.016-8.134l0.002-0.03v-0.03 c0-5.488,0-10.227,0.368-13.965l0.108-1.098h-1.103h-1.306h-1.496l0.572,1.383c0.297,0.718,0.297,2.547,0.297,4.666l0,7.901 c-0.159,5.084-0.45,8.1-0.714,9.488H39.1c-0.111,0-0.226,0-0.335-0.001c-0.184-3.947-0.383-7.414-0.56-10.489 c-0.34-5.918-0.586-10.194-0.353-12l0.366-2.831l-2.053,1.983c-0.158,0.152-0.379,0.231-0.726,0.347 c-0.305,0.101-0.65,0.216-0.987,0.433l-1.061,0.683l0.907,0.877l0.277,0.267c0.008,0.116,0.017,0.25,0.029,0.404 c0.097,1.325,0.323,4.427,0.323,9.427c0,4.799,0,8.979-0.212,10.019c-0.099-0.03-0.267-0.097-0.526-0.247l-0.828-0.48 l-0.196-0.189c-0.625-9.093-0.904-14.412-0.904-17.216v-0.274l-0.139-0.235c-0.445-0.752-0.667-1.437-0.882-2.098 c-0.106-0.325-0.206-0.633-0.328-0.939c-0.044-0.193-0.078-0.357-0.104-0.496l0.707,0.273v-1.459c0-0.472-0.041-0.912-0.499-1.433 l-0.302-0.876l-0.01-0.029l-0.012-0.028c-0.139-0.336-0.094-0.405,0.177-0.58l0.459-0.295v-0.545c0-1.263-1.034-1.662-1.946-2.015 l-0.174-0.067h-0.186c-1.651,0-3.222,0.556-4.675,1.158L24.225,48.1l-0.106,0.082l-1.866,1.442l-1.866,1.442l-0.388,0.3v0.206 c-0.261-0.068-0.527-0.102-0.791-0.102c-0.649,0-1.237,0.205-1.717,0.596c-0.194,0.079-0.481,0.213-0.764,0.413h-0.808 c-0.106-0.093-0.329-0.345-0.528-0.825l-0.08-0.192l-0.15-0.145c-0.674-0.651-0.834-1.276-1.154-2.52l-0.005-0.02l0.072-0.047 l0.702-0.452l-0.319-0.771l-0.362-0.874l-0.304-0.883c0.021-0.326,0.137-0.512,0.663-0.715l0.787-0.304 c0.425-0.043,0.706-0.211,0.896-0.35h2.298l-1.78-1.719c-0.215-0.207-0.463-0.522-0.777-0.921 c-0.389-0.494-0.872-1.107-1.569-1.879c-0.72-0.979-1.273-1.938-1.69-2.928c-1.836-7.302-2.146-13.231-0.916-17.642 c0.693-2.679,2.239-4.771,4.724-6.393c0.904-0.392,1.866-1.346,3.071-2.541c0.288-0.285,0.585-0.58,0.89-0.874l0.021-0.02 l0.02-0.022c1.436-1.56,2.489-2.406,3.713-3.254c2.153-1.206,4.164-1.717,6.377-2.21l0.659-0.107C33.694,3.464,36.546,3,39.832,3 M64.694,27.077c-0.826,0.09-1.474,0.501-1.776,1.095c-2.002,0.645-3.497,1.135-4.727,1.64c-0.725,0.196-1.56,0.686-2.91,1.48 c-0.309,0.182-0.644,0.379-1.019,0.596l-3.907,2.337c-0.22,0.128-0.451,0.274-0.698,0.432c-0.791,0.505-1.688,1.076-3.026,1.465 l-4.479,1.442l-0.027,0.009l-0.027,0.01c-0.693,0.268-0.914,0.7-0.975,1.023l-0.651-0.943v-0.062l-0.026,0.025l-0.076-0.11 l-0.126,0.304l-1.219,1.178c-0.067-0.386-0.35-0.659-0.539-0.841l-0.135-0.13l-0.173-0.073l-4.268-1.793 c-0.65-0.313-1.306-0.596-1.886-0.846c-0.751-0.324-1.46-0.63-1.903-0.885c-3.626-2.336-6.525-3.893-7.747-4.386 c-1.48-0.894-3.014-1.811-4.937-2.381c-1.352-0.648-1.842-0.739-2.168-0.739c-0.45,0-0.835,0.221-1.029,0.591 c-0.063,0.121-0.133,0.31-0.123,0.549l-0.102,0.148l-0.12,0.175l-0.039,0.208l-0.373,1.983l-0.017,0.092v0.093 c0,1.956,0.356,3.342,1.175,4.502c-0.125,0.784,0.34,1.531,0.762,2.208l0.079,0.127c0.631,1.017,1.282,1.635,2.186,2.057 c0.55,0.535,2.146,1.018,6.738,1.652l3.87,0.534c0.838,0.201,1.384,0.287,1.819,0.287c0.434,0,0.803-0.089,1.117-0.27h1.542h0.102 l0.1-0.021l2.613-0.541l0.121-0.025l0.111-0.054c0.245-0.118,0.538-0.222,0.823-0.322c0.25-0.088,0.494-0.174,0.721-0.274 l-0.247,0.239l-0.373,0.361l-0.305,0.295v0.424v0.137l-0.857,1.824l-0.294,0.709l-0.41,0.396l-0.072,0.069l-0.057,0.082 l-0.373,0.541l-0.177,0.256v0.312v0.901v0.243l0.112,0.216l0.56,1.082l0.56,1.082l0.134,0.259l0.252,0.146l0.933,0.541 l0.653,0.379l0.543-0.525l0.373-0.361l0.222-0.214l0.063-0.302l0.324-1.564l1.36-1.673l0.857,1.243l0.341,2.469l0.269,1.951 l1.416-1.368l0.373-0.361l0.56-0.541l0.118-0.114l0.075-0.146l0.56-1.082l0.497-0.961c0.508-0.594,0.62-1.438,0.306-2.349 l-0.045-0.129l-0.078-0.113l-0.373-0.541l-0.057-0.082l-0.072-0.069l-0.56-0.541l-0.405-0.391l-0.783-1.966V41.22v-0.424 l-0.305-0.295l-0.028-0.027c0.468,0.156,1.039,0.307,1.728,0.46l0.035,0.008l0.036,0.005l2.314,0.344 c0.135,0.054,0.261,0.107,0.379,0.156c0.488,0.205,0.91,0.381,1.366,0.381c0.11,0,0.218-0.011,0.322-0.032 c0.27,0.102,0.578,0.153,0.922,0.153c0.475,0,1.035-0.091,1.758-0.287l4.193-0.529c5.23-0.505,6.372-1.258,6.755-1.698 c0.547-0.379,1.08-0.89,1.481-1.418c0.829-0.527,1.129-1.442,1.42-2.33c0.035-0.108,0.072-0.219,0.11-0.332 c0.612-0.953,0.871-2.132,1.122-3.273c0.079-0.36,0.158-0.719,0.248-1.068l0.324-1.251h-0.478v-0.803 c0-0.649-0.231-1.025-0.505-1.242c-0.203-0.493-0.625-0.808-1.148-0.808C65.156,26.91,64.935,26.944,64.694,27.077 M39.832,2 c-3.671,0-6.772,0.559-9.502,0.999c-2.426,0.541-4.479,1.082-6.718,2.344c-1.306,0.901-2.426,1.803-3.919,3.426 c-1.493,1.442-2.799,2.885-3.732,3.245c-2.799,1.803-4.479,4.147-5.225,7.031c-1.306,4.688-0.933,10.818,0.933,18.209 c0.373,0.901,0.933,1.983,1.866,3.245c1.306,1.442,1.866,2.344,2.426,2.885c-0.373,0-0.373,0.361-0.933,0.361l-0.933,0.361 c-0.933,0.361-1.306,0.901-1.306,1.803l0.373,1.082l0.373,0.901l-0.56,0.361v0.541c0.373,1.442,0.56,2.344,1.493,3.245 c0.373,0.901,0.933,1.442,1.306,1.442h1.306c0.373-0.361,0.933-0.541,0.933-0.541c0.355-0.343,0.785-0.468,1.195-0.468 c0.237,0,0.467,0.042,0.671,0.108l0.933,0.361l1.306,0.901c0.56,0,0.933-0.361,1.493-0.541c0.373-0.361,0.56-0.541,0.56-0.541 l-0.933-0.361h-0.933c-0.933,0-1.306-0.361-1.306-0.541l1.866-1.442l1.866-1.442c1.306-0.541,2.799-1.082,4.292-1.082 c0.933,0.361,1.306,0.541,1.306,1.082c-0.56,0.361-0.933,0.901-0.56,1.803l0.373,1.082c0.373,0.361,0.373,0.541,0.373,0.901 c-0.158-0.061-0.289-0.091-0.396-0.091c-0.527,0-0.474,0.726-0.164,2.074c0.373,0.901,0.56,1.983,1.306,3.245 c0,3.245,0.373,9.555,0.933,17.669l0.56,0.541l0.933,0.541c0.467,0.27,0.84,0.406,1.143,0.406s0.537-0.135,0.723-0.406 c0.373-0.541,0.373-4.327,0.373-10.637c0-6.491-0.373-9.736-0.373-10.277l-0.56-0.541c0.56-0.361,1.306-0.361,1.866-0.901 c-0.373,2.885,0.373,10.998,0.933,23.258C37.794,78,38.167,78,39.1,78h1.493c0.373-1.082,0.746-4.507,0.933-10.457V59.61 c0-2.344,0-4.147-0.373-5.048h1.306c-0.373,3.786-0.373,8.474-0.373,14.063c-0.355,5.836-0.034,9.221,0.32,9.221 c0.018,0,0.036-0.009,0.054-0.026h1.493c0.044,0.017,0.088,0.026,0.13,0.026c0.839,0,1.185-3.417,1.363-9.942 c0.373-2.704,0.373-5.228,0.373-8.113c0-2.704,0-4.688-0.373-6.13l1.493-0.361c1.306,0.541,1.866,1.082,1.866,1.082v0.361 l-1.306,0.361l-0.56,0.361c0,0.361,0,1.442-0.373,3.786l-0.373,7.933c-0.356,7.055-0.032,10.662,0.322,10.662 c0.017,0,0.034-0.008,0.051-0.025l3.359-0.541c0.373-0.361,0.56-2.885,0.933-8.113c0.373-4.327,0.373-8.113,0.373-11.358 c0.933-0.901,1.493-2.344,2.053-4.688l0.373-2.344c0-0.541,0-1.082-0.373-1.082l-0.373-0.361l0.373-0.541l1.866-0.541l1.866-0.541 c0.274-0.066,0.542-0.096,0.802-0.096c1.158,0,2.169,0.589,2.93,1.178c0.373,0.541,0.56,1.082,0.373,1.983l-0.373,0.541 c0,0.361,0,0.361-0.373,0.361c-0.373,0.901,0,1.442,0.933,1.442c0.386,0.149,0.709,0.237,1.02,0.237 c0.441,0,0.859-0.175,1.406-0.597c0.373-0.541,1.306-1.082,2.426-1.803c0.933-0.541,1.493-1.442,1.866-1.983l0.373-1.983 c0-0.901-0.373-1.082-0.933-1.442c-1.306-0.18-1.306-0.361-1.306-0.361v-0.541c0.373-0.541,0.56-1.082,0.373-1.803l1.306-5.589 c0.933-2.704,1.306-4.688,1.493-6.491c1.12-5.228,0.746-9.375-1.12-11.899c-0.56-1.442-1.866-3.245-2.986-5.048 c-1.493-1.983-3.359-3.786-5.412-5.228c-5.225-4.147-11.01-6.13-17.355-6.491C41.552,2.03,40.676,2,39.832,2L39.832,2z M48.797,40.829c-0.353,0-0.826-0.255-1.485-0.51l-2.426-0.361c-2.426-0.541-3.359-1.082-2.426-1.442l4.479-1.442 c1.866-0.541,2.986-1.442,3.919-1.983l3.919-2.344c1.866-1.082,2.986-1.803,3.732-1.983c1.306-0.541,2.986-1.082,5.225-1.803 c0-0.541,0.56-0.901,1.306-0.901c0.109-0.106,0.203-0.149,0.28-0.149c0.187,0,0.28,0.255,0.28,0.51 c0.373,0,0.373,0.361,0.373,0.541v1.803h0.187c-0.373,1.442-0.56,3.065-1.306,4.147c-0.373,1.082-0.56,1.983-1.306,2.344 c-0.373,0.541-0.933,1.082-1.493,1.442c-0.373,0.541-2.426,1.082-6.158,1.442l-4.292,0.541c-0.653,0.18-1.166,0.27-1.563,0.27 c-0.397,0-0.676-0.09-0.863-0.27C49.068,40.785,48.943,40.829,48.797,40.829L48.797,40.829z M30.096,41.13 c-0.373,0-0.886-0.09-1.633-0.27l-3.919-0.541c-3.919-0.541-6.158-1.082-6.158-1.442c-0.933-0.361-1.493-0.901-2.053-1.803 c-0.56-0.901-0.933-1.442-0.56-1.983c-0.933-1.082-1.306-2.344-1.306-4.327l0.373-1.983c0.373-0.541,0.373-0.541,0.373-0.541 c-0.147-0.213-0.12-0.314,0.058-0.314c0.274,0,0.904,0.238,1.808,0.675c1.866,0.541,3.359,1.442,4.852,2.344 c0.933,0.361,3.732,1.803,7.651,4.327c0.933,0.541,2.426,1.082,3.919,1.803l4.292,1.803c0.373,0.361,0.373,0.361-0.373,0.541 c-0.373,0.361-1.306,0.541-2.053,0.901l-2.613,0.541h-1.866C30.703,41.04,30.469,41.13,30.096,41.13L30.096,41.13z M42.459,50.055 l-0.373-2.704l-1.866-2.704v-4.147l0.373-0.901l0.373,0.541l0.56,0.361l0.373,0.361l0.373,0.361v0.361l0.933,2.344l0.56,0.541 l0.56,0.541l0.373,0.541c0.187,0.541,0.187,1.082-0.187,1.442l-0.56,1.082l-0.56,1.082l-0.56,0.541L42.459,50.055L42.459,50.055z M37.234,49.874l-0.933-0.541l-0.56-1.082l-0.56-1.082v-0.901l0.373-0.541l0.56-0.541l0.373-0.901l0.933-1.983v-0.361l0.373-0.361 l0.373-0.361l0.56-0.361l0.373-0.541l0.373-0.361v5.228h0.56l-2.053,2.524l-0.373,1.803L37.234,49.874L37.234,49.874z"/></svg>