<svg xmlns="http://www.w3.org/2000/svg" viewBox="0 0 80 80" width="30px" height="30px"><path fill="#839cb2" d="M60.763,73.692c1.9-6.475,4.771-16.26,4.771-22.935c0-0.167,0.007-0.374,0.015-0.604 c0.056-1.705,0.038-3.292-0.771-3.967c-1.705-1.598-5.468-2.627-5.628-2.67l-1.424-0.384l0.897,1.171 c0.736,0.962,1.905,2.816,1.905,3.696c0,6.623-5.188,17.167-8.256,22.821C55.238,58.057,55.5,52.716,55.5,48 c0-6.093-6.409-6.496-6.474-6.5L48.5,41.474v5.312C48.5,59.311,45.136,69.5,41,69.5s-7.5-10.189-7.5-22.714v-5.321l-0.534,0.036 C32.901,41.505,26.5,42.012,26.5,48c0,4.716,0.262,10.059,3.229,22.825C25.512,63.051,21.5,53.674,21.5,48 c0-1.001,1.268-3.019,1.756-3.712l0.797-1.131l-1.336,0.36c-0.16,0.043-3.923,1.072-5.649,2.689 c-0.758,0.63-0.725,2.164-0.608,3.953C16.48,50.491,16.5,50.784,16.5,51c0,6.636,2.844,16.249,4.726,22.609 c0.131,0.444,0.258,0.873,0.379,1.284l-0.17-0.265c-4.027-6.64-7.18-14.048-9.11-21.413c-0.462-1.607-0.628-3.339-0.789-5.014 l-0.023-0.25c-0.308-2.402,0.243-3.025,2.17-3.796c3.568-1.351,19.289-5.552,19.447-5.595l0.371-0.099v-0.884L33,37.5H15.471 c-1.478-0.142-1.888-0.641-2.04-2.54c0.001-10.265,3.732-19.528,6.596-25.125c-1.912,5.606-4.126,14.198-3.088,21.77 C17.668,35.654,20.093,36.5,22,36.5h5.839l-0.21-0.653c-0.021-0.065-0.067-0.189-0.136-0.365C27,34.206,25.5,30.321,25.5,26 c0-6.323,1.331-10.146,3.523-15.691c0.286-0.819,1.025-2.315,1.81-3.792c-1.641,5.974-2.847,14.236-2.325,19.532 C29.102,31.45,33.265,36.5,34.904,36.5c1.266,0,2.938-0.896,3.432-2.343l0.104-0.303l-0.231-0.221 C36.959,32.442,35.5,29.99,35.5,27c0-5.521,2.725-8.5,5.289-8.5c0.02,0.011,0.071,0.02,0.123,0.021l0.064,0.003l0.132-0.025 c2.634,0,5.392,3.18,5.392,8.5c0,2.896-1.531,5.383-2.842,6.634l-0.231,0.221l0.103,0.303c0.494,1.447,2.166,2.343,3.433,2.343 c1.473,0,5.898-4.745,6.525-10.445c0.512-5.194-0.734-13.439-2.414-19.462c0.768,1.448,1.483,2.9,1.762,3.698 c2.272,5.747,3.661,9.57,3.661,15.71c0,4.255-1.576,8.143-2.094,9.421c-0.085,0.209-0.143,0.354-0.166,0.427L54.028,36.5H60 c2.685,0,4.342-1.64,4.925-4.874c1.039-7.579-1.17-16.167-3.081-21.776c2.862,5.604,6.589,14.872,6.589,25.15 c-0.15,1.859-0.56,2.358-2.084,2.502L48.5,37.5v0.883l0.369,0.157c0.157,0.042,15.747,4.265,19.323,5.62 c1.919,0.768,2.47,1.391,2.164,3.777l-0.025,0.265c-0.161,1.675-0.327,3.407-0.787,5.002c-2.008,7.666-5.107,15.073-8.967,21.435 l-0.17,0.265C60.521,74.515,60.64,74.11,60.763,73.692z"/><path fill="#66798f" d="M29.245,11.111c-1.033,5.18-1.632,10.944-1.233,14.999C28.605,31.511,32.863,37,34.904,37 c1.469,0,3.332-1.003,3.905-2.681l0.207-0.606l-0.463-0.442C37.283,32.06,36,29.65,36,27c0-5.142,2.416-7.941,4.716-7.999 c0.06,0.011,0.119,0.018,0.179,0.02l0.038,0.001l0.038-0.001c0.058-0.002,0.117-0.009,0.178-0.02C43.547,19.06,46,22.043,46,27 c0,2.562-1.35,4.996-2.688,6.272l-0.463,0.442l0.207,0.606C43.63,35.997,45.493,37,46.962,37c1.869,0,6.392-5.153,7.024-10.902 c0.391-3.965-0.191-9.523-1.217-14.611c2.011,5.138,3.227,8.824,3.227,14.513c0,4.16-1.549,7.98-2.058,9.235 c-0.091,0.225-0.153,0.382-0.178,0.46L53.343,37h1.37H60c2.963,0,4.785-1.778,5.423-5.327c0.674-4.919,0.029-10.184-1.025-14.812 c1.913,5.092,3.529,11.378,3.535,18.099c-0.148,1.786-0.529,1.937-1.586,2.04H49h-1v1v0.057v0.765l0.739,0.2 c0.157,0.042,15.722,4.258,19.259,5.597c1.729,0.692,2.138,1.102,1.859,3.284l-0.023,0.238c-0.158,1.656-0.322,3.368-0.777,4.946 c-1.652,6.306-4.05,12.442-6.999,17.946c1.818-6.3,3.976-14.441,3.976-20.277c0-0.163,0.007-0.363,0.014-0.587 c0.048-1.457,0.113-3.448-0.926-4.346c-1.824-1.692-5.679-2.746-5.843-2.79l-2.846-0.767l1.792,2.341 c0.867,1.133,1.803,2.752,1.803,3.392c0,4.767-2.946,12.298-6.438,19.228C55.788,57.027,56,52.26,56,48 c0-5.251-4.545-6.874-6.948-6.999L48,40.947V42v4.786C48,59.877,44.311,69,41,69s-7-9.123-7-22.214V42v-1.071l-1.068,0.073 C30.534,41.166,26,42.839,26,48c0,4.259,0.211,9.023,2.408,19.22C24.931,60.308,22,52.79,22,48c0-0.722,0.993-2.47,1.665-3.424 l1.59-2.261l-2.668,0.72c-0.164,0.044-4.019,1.098-5.843,2.79c-1.011,0.876-0.885,2.81-0.784,4.367C15.981,50.511,16,50.792,16,51 c0,5.811,2.143,13.832,3.945,20.027c-3.094-5.703-5.539-11.839-7.143-17.961c-0.448-1.555-0.612-3.266-0.77-4.922l-0.026-0.271 c-0.275-2.151,0.133-2.561,1.845-3.246c3.553-1.345,19.249-5.54,19.407-5.582L34,38.846v-0.768V38v-1h-1h-4.477l-0.417-1.305 c-0.023-0.07-0.073-0.205-0.147-0.396C27.474,34.044,26,30.225,26,26C26,20.014,27.214,16.289,29.245,11.111 M17.477,16.837 c-1.058,4.643-1.706,9.931-1.028,14.878C17.063,35.123,19.034,37,22,37h-6.481c-1.056-0.103-1.437-0.254-1.586-2.04 C13.939,28.228,15.56,21.933,17.477,16.837 M48.971,2c2.386,5.429,4.681,17.279,4.019,24c-0.597,5.429-4.87,10-6.029,10 c-1.138,0-2.555-0.822-2.959-2.005C45.519,32.549,47,29.886,47,27c0-5.586-2.911-9-5.923-9c-0.048,0-0.096,0.02-0.143,0.022 C40.885,18.02,40.837,18,40.79,18C37.777,18,35,21.414,35,27c0,2.886,1.347,5.549,2.864,6.995C37.459,35.178,36.043,36,34.904,36 c-1.159,0-5.302-4.571-5.899-10c-0.662-6.721,1.503-18.571,3.889-24c-0.497,0.517-3.674,6.229-4.336,8.125 C26.242,15.984,25,19.796,25,26c0,4.998,1.988,9.483,2.153,10c-1.49,0-3.829,0-5.153,0c-2.648,0-4.07-1.705-4.566-4.463 C15.726,19.085,22.847,4,22.847,4s-9.914,14.036-9.914,31c0.165,2.068,0.717,2.828,2.538,3C15.967,38,33,38,33,38v0.078 c0,0-15.862,4.235-19.503,5.613c-2.152,0.862-2.814,1.723-2.483,4.308c0.166,1.723,0.331,3.619,0.828,5.342 c1.986,7.583,5.2,15.007,9.173,21.556C21.676,75.932,22.338,76.966,23,78c-1.324-5.17-6-18.556-6-27 c0-1.034-0.418-3.739,0.409-4.429C19.065,45.02,22.847,44,22.847,44S21,46.621,21,48c0,7.379,6.359,19.796,9.835,25.828 c0,0,0.097,0,0.142,0.077C27.249,58.623,27,52.826,27,48c0-5.591,6-6,6-6s0,3.474,0,4.786C33,59.528,36.481,70,41,70 s8-10.472,8-23.214C49,45.474,49,42,49,42s6,0.311,6,6c0,4.826-0.249,10.623-3.977,25.904c0.046-0.077,0.142-0.077,0.142-0.077 c3.476-6.032,9.863-18.448,9.863-25.828c0-1.379-2.01-4-2.01-4s3.782,1.02,5.438,2.571c0.828,0.689,0.578,3.152,0.578,4.186 c0,8.444-4.691,22.073-6.015,27.243c0.662-1.034,1.324-2.068,1.986-3.102c3.973-6.549,7.033-13.973,9.02-21.556 c0.497-1.723,0.662-3.619,0.828-5.342c0.331-2.585-0.331-3.447-2.483-4.308C64.728,42.313,49,38.057,49,38.057V38 c0,0,16.899,0,17.395,0c1.821-0.172,2.372-0.932,2.538-3c0-16.964-9.914-31-9.914-31s7.121,15.085,5.413,27.537 C63.936,34.295,62.648,36,60,36c-1.324,0-3.797,0-5.287,0c0.165-0.517,2.283-5.002,2.283-10c0-6.204-1.372-10.016-3.689-15.875 C52.645,8.229,49.468,2.517,48.971,2L48.971,2z M30.977,73.904C30.984,73.936,30.992,73.968,31,74 C31,73.959,30.991,73.928,30.977,73.904L30.977,73.904z M51.023,73.904C51.009,73.928,51,73.959,51,74 C51.008,73.968,51.016,73.936,51.023,73.904L51.023,73.904z"/></svg>