<svg xmlns="http://www.w3.org/2000/svg" viewBox="0 0 80 80" width="30px" height="30px"><path fill="#c74343" d="M18,40.5c-1.379,0-2.5-1.121-2.5-2.5V28c0-1.379,1.121-2.5,2.5-2.5h42c1.379,0,2.5,1.121,2.5,2.5v10 c0,1.379-1.121,2.5-2.5,2.5H18z"/><path fill="#ab3434" d="M60,26c1.103,0,2,0.897,2,2v10c0,1.103-0.897,2-2,2H18c-1.103,0-2-0.897-2-2V28c0-1.103,0.897-2,2-2 H60 M60,25H18c-1.65,0-3,1.35-3,3v10c0,1.65,1.35,3,3,3h42c1.65,0,3-1.35,3-3V28C63,26.35,61.65,25,60,25L60,25z"/><path fill="#f78f8f" d="M39,76.5c-5.164,0-9.833-2.193-10.644-2.594L19.5,58.863v-12.07l-2-2V11.159 C24.302,1.657,38.854,1.5,39.002,1.5c0.144,0.001,14.702,0.166,21.498,9.659v33.634l-2,2v12.07l-8.856,15.043 C48.833,74.307,44.155,76.5,39,76.5z"/><path fill="#c74343" d="M39,2c0.3,0.003,14.355,0.222,21,9.321v33.265l-1.707,1.707L58,46.586V47v11.727l-8.711,14.795 C48.222,74.037,43.833,76,39,76c-4.817,0-9.22-1.964-10.289-2.478L20,58.727V47v-0.414l-0.293-0.293L18,44.586V11.321 C24.645,2.222,38.7,2.003,39,2 M39,1c0,0-15.01,0.048-22,10v34l2,2v12l9,15.286c0,0,5.156,2.714,11,2.714s11-2.714,11-2.714L59,59 V47l2-2V11C54.01,1.048,39,1,39,1L39,1z"/><path fill="#f78f8f" d="M60.496,36.938L60.5,16.806l-0.132-0.144c-3.387-3.688-12.848-6.049-13.249-6.147l-0.553-0.137 l-2.028,18.249L39,30.473l-5.538-1.846l-2.028-18.249l-0.553,0.137c-0.401,0.099-9.862,2.459-13.249,6.147L17.5,16.806v-5.646 C24.296,1.666,38.854,1.501,39.002,1.5c0.144,0.001,14.702,0.166,21.498,9.659v25.81L60.496,36.938z"/><path fill="#c74343" d="M39,2c0.3,0.003,14.355,0.222,21,9.321v4.294c-3.936-3.386-12.38-5.493-12.761-5.586l-1.107-0.272 l-0.126,1.133l-1.929,17.364L39,29.946l-5.077-1.692L31.994,10.89l-0.126-1.133l-1.107,0.272C30.38,10.123,21.936,12.23,18,15.615 v-4.294C24.645,2.222,38.7,2.003,39,2 M39,1c0,0-15.01,0.048-22,10v34l1-8V17c3.323-3.619,13-6,13-6l2,18l6,2l6-2l2-18 c0,0,9.677,2.381,13,6v20l1,8V11C54.01,1.048,39,1,39,1L39,1z"/><path fill="#f78f8f" d="M39,76.5c-5.164,0-9.833-2.194-10.644-2.595L28.118,73.5h5.12l3.25-4h5.023l3.25,4h5.065l4.7-7.954 l-2.539-2.015c-0.846-1.755-0.696-3.836,0.398-5.457l6.113-9.39v10.179l-8.856,15.042C48.833,74.306,44.155,76.5,39,76.5z M19.5,58.863V48.685l6.108,9.382c1.1,1.628,1.249,3.708,0.404,5.463l-2.537,1.967l2.21,3.873L19.5,58.863z"/><path fill="#c74343" d="M20,50.369l5.199,7.985c0.973,1.441,1.125,3.281,0.412,4.853L23.57,64.79L20,58.727V50.369 M58,50.369v8.359l-3.586,6.09l-2.023-1.605c-0.715-1.573-0.564-3.417,0.419-4.873L58,50.369 M41.274,70l2.95,3.631l0.3,0.369H45 h3.216c-1.845,0.768-5.401,2-9.216,2s-7.371-1.232-9.216-2H33h0.476l0.3-0.369L36.726,70H41.274 M59,47l-7.028,10.794 c-1.219,1.806-1.365,4.118-0.382,6.059l2.285,1.814L49.542,73H45l-3.25-4h-5.5L33,73h-4.667l-4.208-7.375l2.285-1.772 c0.983-1.941,0.837-4.253-0.382-6.059L19,47v12l9,15.286c0,0,5.156,2.714,11,2.714s11-2.714,11-2.714L59,59V47L59,47z"/><path fill="#ffeea3" d="M59,47l2-2l-1-8V17c-3.323-3.619-13-6-13-6l-2,18l-6,2l-6-2l-2-18c0,0-9.677,2.381-13,6v20l-1,8l2,2	l7.028,10.794c1.219,1.806,1.365,4.118,0.382,6.059l-2.285,1.772L28.375,73H33l3.25-4H39h2.75L45,73h4.583l4.292-7.333l-2.285-1.814	c-0.983-1.941-0.837-4.253,0.382-6.059L59,47z"/><g><path fill="#8bb7f0" d="M41 41L55 39 57 41 53 45 45 45z"/></g><g><path fill="#8bb7f0" d="M37 41L23 39 21 41 25 45 33 45z"/></g><path fill="#c29653" d="M60.125 38L55 38 41.481 40.026 36.25 40.053 23 38 17.875 38 17.75 39 23 39 35.981 41 41.75 41 55 39 60.25 39zM31 67.667L33.542 64h10.917L47 67.667l3.957-6.258c-.036-.831.105-1.661.413-2.443l-4.334 6.874L45 63H33l-2.035 2.839-4.334-6.874c.308.783.449 1.613.413 2.443L31 67.667z"/></svg>