<svg xmlns="http://www.w3.org/2000/svg" viewBox="0 0 80 80" width="30px" height="30px"><path fill="#c74343" d="M70.5,31.2c0.1-14.1,3.6-19.2,4.7-20.4c0.7,1.1,2.2,4.3,2.2,10.6C77.5,27.4,72.4,30.3,70.5,31.2z"/><path fill="#ab3434" d="M75.2,11.7c0.7,1.4,1.8,4.5,1.8,9.7c0,5.2-3.9,7.9-6,9.1C71.2,18.6,73.9,13.5,75.2,11.7 M75.3,10 c0,0-5.3,4-5.3,22c0,0,8-2.9,8-10.6C78,13.1,75.3,10,75.3,10L75.3,10z"/><path fill="#99c99e" d="M40,73.5c-9.2,0-17.5-3.7-21.6-9.8l-0.1-0.1l-0.2-0.1C6.3,59.6,0.5,53.9,0.5,46 c0-5.2,3.2-9.6,9.8-13.6l0.2-0.1l0-0.3C11.7,17.2,24.1,6.5,40,6.5S68.3,17.2,69.5,32l0,0.2l0.2,0.1c6.9,4.5,9.8,8.5,9.8,13.6 c0,7.8-5.8,13.6-17.7,17.5l-0.2,0.1l-0.1,0.1C57.4,69.5,48.5,73.5,40,73.5z"/><path fill="#5e9c76" d="M40,7c15.6,0,27.8,10.5,29,25.1l0,0.5l0.4,0.3C76.2,37.3,79,41.1,79,46c0,7.6-5.7,13.2-17.3,17.1 l-0.3,0.1l-0.2,0.3C57.1,69.1,48.4,73,40,73c-9.1,0-17.2-3.7-21.2-9.6l-0.2-0.3L18.3,63C6.7,59.2,1,53.7,1,46c0-5,3.1-9.3,9.5-13.1 l0.4-0.3l0-0.5C12.2,17.5,24.4,7,40,7 M40,6C24,6,11.3,16.8,10,32C3.7,35.8,0,40.3,0,46c0,8.4,6.4,14.2,18,18 c4.4,6.5,13.1,10,22,10c8.4,0,17.6-3.9,22-10c11.4-3.8,18-9.6,18-18c0-5.9-3.9-10-10-14C68.7,16.8,56,6,40,6L40,6z"/><path fill="#f78f8f" d="M70,31.4c-0.5-1-1.5-5.2-1.5-9.4c0-1.9,1.3-8.6,1.8-11c1.5,1.5,5.2,5.6,5.2,11 C75.5,28.2,71.6,30.7,70,31.4z"/><path fill="#c74343" d="M70.6,12c1.7,1.8,4.4,5.4,4.4,10c0,5.4-3.1,7.8-4.7,8.7c-0.5-1.4-1.3-5-1.3-8.7 C69,20.4,70,15.3,70.6,12 M70,10c0,0-2,9.6-2,12c0,4.8,1.3,10,1.9,10c0,0,0,0,0.1,0c0.7-0.3,6-2.7,6-10C76,14.9,70,10,70,10L70,10z"/><path fill="#f78f8f" d="M22.6,37.4c-5.5-0.6-8.5-2.9-11.2-5c-0.3-0.2-0.6-0.4-0.8-0.6c0.5-4.9,2.2-9.6,5.1-13.6 c2.8-1.2,6.1-1.7,8.3-1.7c3.3,0,6,1.6,8.6,3.2c2.4,1.5,4.7,2.8,7.4,2.8s4.9-1.4,7.4-2.8c2.6-1.6,5.3-3.2,8.6-3.2c2,0,5.6,0.7,8.5,2 c2.8,3.9,4.5,8.4,4.9,13.3c-0.3,0.2-0.6,0.4-0.8,0.6c-2.7,2-5.7,4.3-11.1,5C55.7,35,50,28.5,40,28.5C29.8,28.5,24.2,35,22.6,37.4z"/><path fill="#c74343" d="M56,17c1.9,0,5.4,0.7,8.2,1.9c2.7,3.8,4.3,8,4.7,12.7c-0.2,0.2-0.4,0.3-0.6,0.5 c-2.6,1.9-5.5,4.1-10.6,4.8c-2-2.6-7.9-8.8-17.7-8.8c-10.1,0-15.8,6.2-17.7,8.8c-5.2-0.7-8.1-2.9-10.7-4.8 c-0.2-0.2-0.4-0.3-0.6-0.5c0.5-4.7,2.2-9.2,4.9-12.9c2.7-1.2,5.9-1.6,8-1.6c3.2,0,5.8,1.6,8.4,3.1c2.5,1.5,4.9,2.9,7.6,2.9 s5.1-1.4,7.6-2.9C50.2,18.6,52.8,17,56,17 M56,16c-6.5,0-10.7,6-16,6s-9.5-6-16-6c-2.1,0-5.7,0.4-8.7,1.8c-3,4-4.9,8.8-5.3,14.2 c3,2.2,6.2,5.2,12.8,5.9C24.5,35.4,30,29,40,29c9.7,0,15.4,6.3,17.3,8.9C63.8,37.2,67,34.2,70,32c-0.4-5.3-2.3-10-5.1-13.9 C61.9,16.8,58.1,16,56,16L56,16z"/><path fill="#5e9c76" d="M40,57c-11.5,0-17.6-4.8-17.7-4.9l0.6-0.8c0.1,0,5.9,4.7,17,4.7c11.1,0,17-4.6,17-4.7l0.6,0.8 C57.6,52.2,51.5,57,40,57z"/><path fill="#fff" d="M27.4,32.5c-8-0.1-11.6-3-11.7-3.2L15.3,29l0.4-0.4c0.2-0.2,4.8-5.1,11-5.1c4.4,0,7.1,2.4,9.6,4.5 l0.8,0.7l-1,0.2c-3,0.6-5.8,1.7-8.3,3.5l-0.1,0.1L27.4,32.5z"/><path fill="#c74343" d="M26.7,24c4.3,0,6.8,2.3,9.3,4.4h0c-3.5,0.7-6.3,2.1-8.5,3.6c-7.9-0.1-11.4-3-11.4-3S20.5,24,26.7,24 M26.7,23c-6.5,0-11.2,5-11.4,5.2L14.6,29l0.8,0.7c0.2,0.1,3.9,3.2,12,3.3l0.3,0l0.3-0.2c2.5-1.7,5.2-2.9,8.1-3.4l2-0.4l-1.6-1.4 l0,0C34.1,25.4,31.3,23,26.7,23L26.7,23z"/><path d="M27 26A3 3 0 1 0 27 32A3 3 0 1 0 27 26Z"/><g><path fill="#fff" d="M52.2,32.4c-2.5-1.8-5.3-2.9-8.3-3.5l-1-0.2l0.8-0.7c2.4-2.1,5.2-4.5,9.6-4.5c6.3,0,10.8,4.9,11,5.1 l0.4,0.4l-0.4,0.3c-0.2,0.1-3.8,3-11.7,3.2l-0.2,0L52.2,32.4z"/><path fill="#c74343" d="M53.3,24c6.1,0,10.7,4.9,10.7,4.9s-3.5,2.9-11.4,3c-2.2-1.5-5-2.9-8.5-3.6h0 C46.4,26.3,49,24,53.3,24 M53.3,23c-4.6,0-7.4,2.4-9.9,4.6l0,0L41.8,29l2,0.4c2.9,0.5,5.6,1.7,8.1,3.4l0.3,0.2l0.3,0 c8.1-0.1,11.9-3.1,12-3.3l0.8-0.7l-0.7-0.8C64.5,28,59.8,23,53.3,23L53.3,23z"/></g><path d="M52.9 26A3 3 0 1 0 52.9 32A3 3 0 1 0 52.9 26Z"/><path fill="#5e9c76" d="M57.6,36.7c-1.3-2-7.5-8.7-17.6-8.7c-10.1,0-16.2,6.7-17.6,8.7c0,0-0.3,0.4-0.7,1 c0.3,0.1,0.7,0.1,1.1,0.1c0.2-0.3,0.4-0.6,0.6-0.9c0.4-0.6,1.1-1.3,1.9-2.2C28.2,32.1,33.5,29,40,29c6,0,11,2.7,13.9,5.3 c0.1,0.1,0.2,0.2,0.3,0.2c0.2,0.1,0.3,0.3,0.5,0.4c0.1,0.1,0.2,0.2,0.3,0.3c1.1,1,1.9,2,2.4,2.7c0.3,0,0.7-0.1,1-0.1 C57.9,37.2,57.6,36.7,57.6,36.7z"/></svg>