<svg xmlns="http://www.w3.org/2000/svg" viewBox="0 0 80 80" width="30px" height="30px"><path fill="#f78f8f" d="M0.679 23.657L13.543 10.5 66.457 10.5 79.321 23.657 40 69.234z"/><path fill="#c74343" d="M66.246,11l12.397,12.679L40,68.469L1.357,23.679L13.754,11H66.246 M66.667,10H13.333L0,23.636 L40,70l40-46.364L66.667,10L66.667,10z"/><g><path fill="#ffeea3" d="M57.576,16.265c-1.021-1.631-3.831-4.188-4.848-4.845l-1.422-0.92h8.364l-0.191,0.643 c-0.031,0.11-0.067,0.417-0.121,0.829c-0.158,1.207-0.422,3.226-0.907,4.243l-0.392,0.823L57.576,16.265z"/><path fill="#c74343" d="M59,11c-0.121,0.406-0.375,3.688-1,5c-1.065-1.7-3.938-4.313-5-5H59 M60.348,9.978L59,10h-6h-3.386 l2.843,1.84c0.998,0.646,3.743,3.17,4.696,4.691l0.967,1.544l0.783-1.645c0.479-1.005,0.732-2.722,0.951-4.394 c0.042-0.319,0.089-0.681,0.11-0.773L60.348,9.978L60.348,9.978z"/><path fill="#ffeea3" d="M65.437,38.312c0-0.118-0.294-11.812-23.884-11.812c-10.437,0-16.41-1.623-17.758-4.824 c-1.055-2.505,1.106-4.949,1.435-5.299c0.358-0.543,3.524-4.881,13.027-4.881l0.543,0.004c10.417,0,17.155,6.137,17.671,12H69.5 v-9.709l9.871,9.899L65.439,39.643L65.437,38.312z"/><path fill="#c74343" d="M38.257,11.995c0.176,0,0.354,0.002,0.535,0.005C48.977,12,55.827,18.037,56,24h14v-9l8.687,8.712 l-12.75,14.6C65.937,38.313,66,26,41.554,26c-25.032,0-15.929-9.313-15.929-9.313S28.501,11.995,38.257,11.995 M38.257,10.995 L38.257,10.995c-9.53,0-12.911,4.33-13.419,5.069c-0.444,0.484-2.648,3.086-1.503,5.805C24.788,25.322,30.747,27,41.554,27 c12.248,0,17.972,3.169,20.617,5.828c2.749,2.763,2.767,5.453,2.767,5.48l-0.014,2.686l1.767-2.023l12.75-14.6l0.614-0.703 l-0.659-0.661l-8.688-8.712L69,12.581V15v8H56.917c-0.835-5.945-7.681-12-18.125-12C38.623,10.997,38.438,10.995,38.257,10.995 L38.257,10.995L38.257,10.995z"/><g><path fill="#ffeea3" d="M25.496,52.461l0.041,0.091l-1.406-1.667l-1.134-1.308l0.017-0.015l-12.021-14.24l0.755-0.656 l0.207,0.238c0.48,0.557,1.025,1.188,2.098,1.57c1.931,0.508,4.072,0.636,10.43,1.018c3.08,0.185,7.135,0.429,12.617,0.805 c13.524,0.928,16.035,1.967,16.981,2.358l0.161,0.065c0.558,0.215,2.57,1.84,2.242,3.606C55.963,47.135,50.293,48.5,39.15,48.5 h-0.262l-0.148-0.215c-1.405-2.021-4.02-5.785-7.826-5.785c-2.794,0-5.463,1.233-6.642,3.068c-0.733,1.142-0.824,2.4-0.266,3.639 c2.679,2.917,5.584,3.557,5.613,3.563c2.657,0.683,4.722,0.776,6.559,0.776c0.604,0,1.204-0.011,1.812-0.022 c0.63-0.012,1.267-0.024,1.926-0.024c7.02,0,14.011-1.839,14.08-1.858l1.57-0.418L40,69.201L25.496,52.461z"/><path fill="#c74343" d="M11.375,35c0.533,0.596,1.145,1.459,2.509,1.945c2.998,0.791,6.405,0.699,23.181,1.851 c14.37,0.986,16.185,2.079,16.997,2.392C54.809,41.475,63.013,48,39.151,48c-1.684-2.423-4.331-6-8.237-6 c-4.947,0-9.13,3.551-7.351,7.438L11.375,35 M23.375,49.25c2.902,3.341,6.144,4.01,6.144,4.01c2.571,0.662,4.642,0.787,6.66,0.787 c1.231,0,2.442-0.047,3.737-0.047c7.167,0,14.209-1.875,14.209-1.875L40,68.438L23.375,49.25 M12.12,34.333l-1.509,1.312 L22.636,49.89l-0.017,0.015l1.132,1.306l3.762,4.457l-0.111-0.243l11.842,13.668L40,69.965l0.756-0.873L54.881,52.78l2.126-2.456 l-3.139,0.835C53.799,51.177,46.861,53,39.916,53c-0.662,0-1.302,0.012-1.935,0.024c-0.604,0.011-1.201,0.023-1.802,0.023 c-1.805,0-3.831-0.092-6.411-0.755c-0.07-0.016-2.796-0.629-5.337-3.362c-0.458-1.067-0.37-2.107,0.262-3.091 c1.09-1.698,3.59-2.838,6.221-2.838c3.544,0,6.063,3.624,7.416,5.571L38.628,49h0.523c11.581,0,17.245-1.456,17.825-4.582 c0.408-2.196-2.006-3.953-2.555-4.164l-0.15-0.061c-1.057-0.437-3.533-1.462-17.138-2.395c-5.484-0.376-9.608-0.624-12.62-0.805 c-6.275-0.377-8.42-0.506-10.332-1.004c-0.922-0.339-1.392-0.884-1.847-1.411C12.261,34.493,12.19,34.411,12.12,34.333 L12.12,34.333z"/></g><g><path fill="#ffeea3" d="M11.021,35.541c-0.101-0.101-0.198-0.213-0.293-0.337L0.76,23.668L13.538,10.5h11.451l-1.753,0.94 c-0.135,0.073-13.503,7.353-13.611,16.44l0,0c0.003,0,0.499,4.85,1.882,6.694l0.246,0.285L11.021,35.541z"/><path fill="#c74343" d="M23,11c0,0-13.762,7.38-13.875,16.875c0,0,0.498,5.042,1.992,7.014L1.437,23.688L13.75,11H23 M11.117,34.889l0.258,0.299C11.286,35.098,11.2,34.998,11.117,34.889 M23,10h-9.25h-0.423l-0.295,0.304L0.72,22.991l-0.638,0.657 l0.599,0.693l9.66,11.178c0.105,0.137,0.215,0.263,0.327,0.375l1.464-1.361l-0.236-0.273c-1.059-1.43-1.63-5.066-1.77-6.429 c0.158-8.765,13.215-15.88,13.347-15.951L26.974,10L23,10L23,10z"/></g></g></svg>