<svg xmlns="http://www.w3.org/2000/svg" viewBox="0 0 80 80" width="30px" height="30px"><path fill="#4e7ab5" d="M60.992,15.837L60.992,15.837c0.015,0.818,0.215,11-21,11c-25.855,0-30.623-22.697-31-25h-1	c0,0.258,3.826,26,32,26c22.714,0,21.997-11.502,22-12H60.992z"/><path fill="#4e7ab5" d="M33.992,25.837C26.937,24.641,21,14.289,21,7h-1h0c0,8.697,7.002,20,16,20v-1	C35.828,26,35.38,25.837,33.992,25.837z"/><path fill="#4e7ab5" d="M32.992,10.837h-1c0.003,0.721-0.143,16,8,16v-1C34.254,25.837,32.992,15.786,32.992,10.837z"/><path fill="#8bb7f0" d="M41.992,77.337c-18.32,0-22.759-3.32-25.003-5.289c4.751-1.487,7.894-2.475,11.353-5.853l0.696-0.68 l-0.959-0.17c-0.067-0.012-6.31-1.141-9.164-3.357c6.694-2.943,11.24-7.6,11.437-7.803l0.574-0.594l-0.792-0.233 c-0.054-0.016-5.037-1.499-7.39-3.503c3.833-3.358,6.661-8.679,9.694-15.59c1.303-2.464,3.577-3.73,6.745-3.73 c2.512,0,4.854,0.816,5.661,1.13v13.342c0.049,0.336,4.174,25.52-0.694,31.264C43.543,76.989,42.837,77.337,41.992,77.337z"/><path fill="#4e7ab5" d="M39.185,30.034v1c2.155,0,4.189,0.626,5.16,0.976v12.996v0.083l0.014,0.082 c1.164,6.993,3.328,26.154-0.589,30.777c-0.514,0.607-1.078,0.889-1.777,0.889c-16.297,0-21.572-2.719-23.976-4.587 c4.201-1.325,7.357-2.458,10.675-5.698l1.393-1.36l-1.917-0.34c-1.642-0.291-5.777-1.28-8.238-2.777 c6.337-2.988,10.591-7.345,10.782-7.543l1.147-1.188l-1.584-0.467c-1.325-0.391-4.759-1.605-6.754-3.051 c3.67-3.426,6.425-8.64,9.361-15.327c1.227-2.299,3.347-3.465,6.302-3.465L39.185,30.034 M39.184,30.034 c-2.657,0-5.534,0.869-7.203,4.03c-3.414,7.78-6.241,12.695-9.989,15.773c2.248,2.308,8,4,8,4s-4.922,5.093-12,8 c2.623,2.693,10,4,10,4c-3.573,3.49-6.837,4.376-12,6c2.074,1.761,5.481,6,26,6c8.818,0,3.352-32.83,3.352-32.83V31.328 C45.345,31.328,42.427,30.034,39.184,30.034L39.184,30.034z"/><path fill="#8bb7f0" d="M42.249,77.337c-6.406-8.979-7.757-16.639-7.757-21.5c0-11.481,7.998-22.448,9.184-24.009h3.759 c-0.33,2.457-1.464,11.943,0.107,16.092l1.947,4.021c3.689,6.317,6.644,15.097,7.951,23.592 C56.329,75.97,52.116,77.314,42.249,77.337z"/><path fill="#4e7ab5" d="M46.865,32.328c-0.396,3.134-1.299,11.789,0.209,15.769l0.016,0.042l0.02,0.04l1.93,3.979 l0.017,0.035l0.019,0.033c3.584,6.133,6.479,14.669,7.807,22.978c-1.466,0.501-5.646,1.59-14.377,1.631 c-6.2-8.78-7.514-16.25-7.514-20.999c0-10.918,7.374-21.412,8.933-23.509H46.865 M48.009,31.328h-4.58 c0,0-9.437,11.855-9.437,24.509c0,6.1,2.018,13.698,8,22c12.281,0,16-2,16-2c-1.187-8.008-3.983-17.151-8.053-24.115l-1.93-3.979 C46.261,43.126,48.009,31.328,48.009,31.328L48.009,31.328z"/><path fill="#c2e8ff" d="M61.961,57.369c-0.617-0.001-1.087-0.12-1.288-0.328c-2.375-2.115-4.339-3.689-7.422-5.552 c-0.344-0.178-0.791-0.394-1.31-0.644c-1.672-0.807-4.199-2.025-5.063-2.786c-3.436-2.727-6.386-5.067-6.386-12.223v-0.5h-0.5 c-7.496,0-10.309-3.204-12.362-5.543c-0.713-0.813-1.366-1.556-2.108-2.008c1.781-0.563,5.509-1.409,11.829-1.409 c0.27,0,0.876-0.005,1.646-0.012c1.328-0.012,3.142-0.028,4.538-0.028c0.784,0,1.436,0.005,1.791,0.019 c4.757,0.188,8.325,6.32,10.242,9.615c0.422,0.724,0.786,1.349,1.082,1.78c4.123,6.073,8.824,10.899,14.371,14.751 c0.258,0.16,0.402,0.363,0.452,0.617c0.061,0.308-0.026,0.659-0.231,0.94c-0.78,0.794-4.209,1.922-6.05,2.528 c-0.644,0.211-1.175,0.387-1.495,0.51c-0.482,0.165-1.152,0.271-1.729,0.271H61.961z"/><path fill="#7496c4" d="M43.542,26.837c0.857,0,1.451,0.006,1.763,0.019c4.483,0.177,7.962,6.155,9.831,9.367 c0.426,0.732,0.794,1.365,1.098,1.807c4.16,6.127,8.903,10.996,14.501,14.884l0.023,0.016l0.023,0.014 c0.116,0.072,0.179,0.156,0.201,0.273c0.03,0.152-0.011,0.335-0.107,0.492c-0.84,0.759-4.204,1.866-5.839,2.404 c-0.66,0.217-1.182,0.389-1.485,0.506c-0.445,0.152-1.067,0.251-1.59,0.251c-0.611-0.001-0.884-0.131-0.931-0.176l-0.025-0.026 l-0.027-0.024c-2.371-2.11-4.354-3.699-7.471-5.582l-0.03-0.018l-0.031-0.016c-0.317-0.163-0.77-0.382-1.295-0.635 c-1.546-0.746-4.133-1.994-4.944-2.708l-0.019-0.017l-0.02-0.016c-3.83-3.038-6.177-5.235-6.177-11.815v-1h-1 c-7.27,0-9.996-3.105-11.987-5.373c-0.475-0.541-0.925-1.053-1.395-1.479c1.967-0.513,5.398-1.107,10.74-1.107 c0.271,0,0.881-0.005,1.654-0.012C40.333,26.853,42.147,26.837,43.542,26.837 M43.542,25.837c-2.205,0-5.456,0.041-6.192,0.041 c-9.715,0-13.358,1.959-13.358,1.959c3.553,0,4.064,8,16,8c0,7.182,2.825,9.639,6.556,12.599c1.187,1.045,5.087,2.786,6.444,3.482 c2.883,1.741,4.779,3.21,7.323,5.473c0.338,0.347,0.97,0.478,1.645,0.479c0.003,0,0.005,0,0.008,0c0.678,0,1.399-0.131,1.908-0.305 c1.357-0.522,6.582-1.991,7.77-3.21c0.509-0.696,0.509-1.741-0.339-2.263c-5.766-4.004-10.344-8.879-14.244-14.624 c-1.663-2.418-5.641-11.372-11.717-11.611C44.986,25.842,44.331,25.837,43.542,25.837L43.542,25.837z"/><g><path fill="#4b6477" d="M53.463,41.2c-4.678-1.245-6.333-5.242-6.812-6.812C49.176,34.759,53.089,37.128,53.463,41.2z"/><path fill="#36404d" d="M47.407,35.066c2.148,0.635,4.782,2.563,5.434,5.42C49.557,39.319,48.051,36.703,47.407,35.066 M45.992,33.837c0,0,1.208,6.632,8,8C53.992,36.764,48.879,33.837,45.992,33.837L45.992,33.837z"/></g><path fill="#7496c4" d="M23.992,27.837c12.574,0,18,6,18,6v2c-7.445,0-10-2-10-2S26.539,27.837,23.992,27.837z"/></svg>