<svg xmlns="http://www.w3.org/2000/svg" viewBox="0 0 80 80" width="30px" height="30px"><path fill="#ffc49c" d="M75.495,77.216C67.37,73.578,54.507,71.5,40,71.5s-27.37,2.078-35.495,5.716 c0.12-10.04,2.522-18.718,3.97-23.058l0.691-2.075l-1.524,1.568c-1.903,1.958-3.469,3.568-5.128,6.208 c0.314-20.635,5.813-27.47,5.869-27.538l1.127-1.351l-6.866,2.288C6.186,14.824,21.098,2.5,40,2.5s33.814,12.324,37.356,30.759 l-6.81-2.27l1.064,1.325c0.057,0.071,5.559,7.165,5.874,27.816c-1.663-2.696-3.213-4.434-5.12-6.472l-1.563-1.669l0.723,2.169 C72.973,58.499,75.375,67.176,75.495,77.216z"/><path fill="#a16a4a" d="M40,3c9.517,0,18.065,3.037,24.722,8.782c6.086,5.253,10.204,12.393,11.974,20.729l-4.38-1.46 l-3.19-1.061l2.094,2.635c0.055,0.069,5.143,6.697,5.726,25.76c-1.337-1.94-2.659-3.406-4.216-5.069l-3.125-3.339l1.446,4.338 c1.4,4.2,3.701,12.489,3.93,22.131C66.766,72.975,54.154,71,40,71s-26.766,1.975-34.981,5.448c0.229-9.642,2.53-17.931,3.93-22.131 l1.38-4.146l-3.049,3.137c-1.553,1.598-2.885,2.968-4.227,4.848c0.574-19.057,5.661-25.448,5.712-25.51l2.292-2.718l-3.373,1.124 l-4.38,1.46c1.771-8.336,5.889-15.477,11.974-20.729C21.935,6.037,30.483,3,40,3 M40,2C19.8,2,5.2,15.4,2,34l6-2 c0,0-6,7.114-6,29.714c2-3.6,3.735-5.385,6-7.714c-1,3-4,12.577-4,24c8.4-4,22-6,36-6s27.6,2,36,6c0-11.423-3-21-4-24 c2.282,2.438,4,4.4,6,8c0-22.6-6-30-6-30l6,2C74.8,15.4,60.2,2,40,2L40,2z"/><path fill="#e8d47b" d="M62.515,54.5c-3.177,0-7.015-3.346-7.015-7.5c0-4.136,2.659-7.5,5.929-7.5 c2.984,0,7.071,0,7.071,4.5C68.5,48.228,65.986,54.5,62.515,54.5z"/><path fill="#a16a4a" d="M61.429,40C64.469,40,68,40,68,44s-2.446,10-5.486,10S56,50.8,56,47S58.389,40,61.429,40 M61.429,39 C57.884,39,55,42.589,55,47c0,4.505,4.039,8,7.514,8C66.277,55,69,48.43,69,44C69,39,64.444,39,61.429,39L61.429,39z"/><path fill="#e8d47b" d="M17.485,54.5c-3.472,0-5.985-6.272-5.985-10.5c0-4.5,4.087-4.5,7.071-4.5 c3.27,0,5.929,3.364,5.929,7.5C24.5,51.154,20.662,54.5,17.485,54.5z"/><path fill="#a16a4a" d="M18.571,40C21.611,40,24,43.2,24,47s-3.474,7-6.514,7S12,48,12,44S15.531,40,18.571,40 M18.571,39 C15.556,39,11,39,11,44c0,4.43,2.723,11,6.486,11C20.961,55,25,51.505,25,47C25,42.589,22.116,39,18.571,39L18.571,39z"/><path fill="#ffeea3" d="M39.8,75.445c-3.96,0-6.292,0-12.554-3.853c-12.766-8.186-10.611-18.378-10.588-18.48 c0.015-0.138,0.242-5.048,2.611-22.368c0.802-6.788,4.445-11.577,10.83-14.244H31c1.379,0,2.5,1.122,2.5,2.5 c0,1.93,1.57,3.5,3.5,3.5h6c1.93,0,3.5-1.57,3.5-3.5c0-1.378,1.121-2.5,2.5-2.5h0.9c6.385,2.667,10.028,7.456,10.829,14.235 c2.37,17.329,2.598,22.239,2.6,22.287c0.035,0.191,2.156,10.406-10.583,18.575c-5.704,3.591-8.253,3.851-11.773,3.851L39.8,75.445z"/><path fill="#ba9b48" d="M49.799,17c6.149,2.6,9.659,7.24,10.436,13.812c2.362,17.271,2.593,22.184,2.595,22.231 l0.005,0.091l0.019,0.085c0.089,0.404,2.038,9.996-10.37,17.952c-5.594,3.522-8.08,3.776-11.511,3.776l-0.566-0.001L39.8,74.945 h-0.096c-3.775,0-6.054,0-12.179-3.769c-12.415-7.961-10.466-17.552-10.378-17.953l0.02-0.089l0.004-0.091 c0.002-0.048,0.233-4.96,2.597-22.25C20.541,24.24,24.052,19.6,30.201,17H31c1.103,0,2,0.897,2,2c0,2.206,1.794,4,4,4h6 c2.206,0,4-1.794,4-4c0-1.103,0.897-2,2-2H49.799 M50,16h-1c-1.657,0-3,1.343-3,3s-1.343,3-3,3h-6c-1.657,0-3-1.343-3-3 s-1.343-3-3-3h-1c-5.006,2.067-10.225,6.201-11.226,14.676C16.371,48.246,16.171,53,16.171,53s-2.403,10.542,10.813,19.017 c6.357,3.911,8.772,3.927,12.719,3.927c0.032,0,0.064,0,0.096,0c0.403,0,0.793,0.002,1.173,0.002c3.397,0,6.1-0.188,12.043-3.93 C66.232,63.543,63.829,53,63.829,53s-0.2-4.754-2.603-22.324C60.225,22.201,55.006,18.067,50,16L50,16z"/><path fill="#fff" d="M42.011,43.006v-1.237c0-3.416,7.069-7.829,7.988-7.688c3.387,0.518,6.012,3.659,6.012,7.425v1.5	c0,1.657-1.254,3-2.8,3h-8.4C43.265,46.006,42.011,44.663,42.011,43.006z"/><path fill="#ba9b48" d="M41,45.004c0,0,1.463,2,4.295,2H53c2.125,0,4-1.001,4-4c0-6.443-1-11-1-11s-0.247-0.079-4.259,0.491	C45.428,34.014,42.712,39.184,41,42.35V45.004z M42.011,41.769c0-3.415,6.381-7.763,7-7.763c3.85,0,7,3.375,7,7.5v1.5	c0,1.657-1.254,3-2.8,3h-8.4c-1.546,0-2.8-1.343-2.8-3V41.769z"/><path fill="#f78f8f" d="M40,67.5c-5.516,0-9.429-6.617-10.345-8.32C30.821,58.491,34.65,56.5,40,56.5 c5.364,0,9.183,1.989,10.345,2.679C49.427,60.881,45.51,67.5,40,67.5z"/><path fill="#c74343" d="M40,57c4.701,0,8.198,1.574,9.667,2.37C48.466,61.478,44.857,67,40,67 c-4.859,0-8.469-5.526-9.668-7.632C31.794,58.571,35.275,57,40,57 M40,56c-6.687,0-11,3-11,3s4.313,9,11,9s11-9,11-9 S46.687,56,40,56L40,56z"/><path fill="#fff" d="M44.053 57.406C43.007 57.221 41.615 56.969 40 57c.302 1.173 1.137 4.016 2.026 4.016C42.963 61.016 43.766 58.525 44.053 57.406zM37.974 61.016c1.017 0 1.766-2.842 2.026-4.016-1.488-.031-3.028.22-4.084.406C36.244 58.547 37.149 61.016 37.974 61.016zM44.053 57.406c.267.819 1.071 3.037 1.599 3.422.998-.287 2.219-1.669 2.599-2.14C47.208 58.162 44.977 57.604 44.053 57.406zM35.881 57.406c-.267.819-1.071 3.037-1.599 3.422-.998-.287-2.262-1.638-2.642-2.109C32.683 58.193 34.957 57.604 35.881 57.406z"/><path fill="#967a44" d="M41,42.004c0,0.551,0,3,0,3l0,0l1-2c1.437-4,5.437-9.875,14-10v-1	C46.625,32.004,43.023,38.263,41,42.004z"/><path fill="#8bb7f0" d="M52.445,46.004c0.344-0.59,0.555-1.268,0.555-2c0-2.209-1.791-4-4-4s-4,1.791-4,4	c0,0.732,0.211,1.41,0.555,2H52.445z"/><path fill="#36404d" d="M49 42.004A2 2 0 1 0 49 46.004A2 2 0 1 0 49 42.004Z"/><path fill="#fff" d="M37.989,43.002v-1.237c0-3.416-7.069-7.829-7.988-7.688c-3.387,0.518-6.012,3.659-6.012,7.425v1.5	c0,1.657,1.254,3,2.8,3h8.4C36.735,46.002,37.989,44.659,37.989,43.002z"/><path fill="#ba9b48" d="M39,42.346c-1.712-3.166-4.428-8.336-10.741-9.855C24.247,31.921,24,32,24,32s-1,4.557-1,11	c0,2.999,1.875,4,4,4h7.705C37.537,47,39,45,39,45V42.346z M37.989,43.002c0,1.657-1.254,3-2.8,3h-8.4c-1.546,0-2.8-1.343-2.8-3	v-1.5c0-4.125,3.15-7.5,7-7.5c0.619,0,7,4.347,7,7.763V43.002z"/><path fill="#967a44" d="M39,42c0,0.551,0,3,0,3l0,0l-1-2c-1.438-4-5.438-9.875-14-10v-1C33.375,32,36.977,38.26,39,42z"/><path fill="#8bb7f0" d="M27.555,46C27.211,45.41,27,44.732,27,44c0-2.209,1.791-4,4-4s4,1.791,4,4	c0,0.732-0.211,1.41-0.555,2H27.555z"/><path fill="#36404d" d="M31 42A2 2 0 1 0 31 46A2 2 0 1 0 31 42Z"/><path fill="#ba9b48" d="M29,59c0,0,0.161,0.333,0.463,0.867c0.232-0.121,0.878-0.482,0.868-0.499	c1.164-0.635,3.621-1.747,6.952-2.18c0.117-0.016,0.239-0.028,0.359-0.043c0.285-0.032,0.567-0.065,0.864-0.086	C38.989,57.024,39.485,57,40,57c0.517,0,1.014,0.024,1.499,0.061c0.27,0.019,0.527,0.049,0.787,0.078	c0.155,0.018,0.312,0.034,0.463,0.055c3.301,0.437,5.753,1.545,6.917,2.176c-0.011,0.019,0.605,0.386,0.849,0.532	C50.83,59.35,51,59,51,59s-0.27-0.188-0.778-0.469c-0.127-0.07-0.269-0.146-0.426-0.227c-0.627-0.322-1.485-0.715-2.544-1.084	c-0.795-0.277-1.703-0.541-2.711-0.751c-0.672-0.141-1.389-0.258-2.147-0.34S40.836,56,40,56c-2.925,0-5.397,0.574-7.251,1.22	C30.365,58.051,29,59,29,59L29,59z"/></svg>