<svg xmlns="http://www.w3.org/2000/svg" viewBox="0 0 80 80" width="30px" height="30px"><path fill="#99c99e" d="M40,77.5C19.322,77.5,2.5,60.678,2.5,40S19.322,2.5,40,2.5S77.5,19.322,77.5,40S60.678,77.5,40,77.5 z"/><path fill="#5e9c76" d="M40,3c20.402,0,37,16.598,37,37S60.402,77,40,77S3,60.402,3,40S19.598,3,40,3 M40,2 C19.1,2,2,19.1,2,40s17.1,38,38,38s38-17.1,38-38S60.9,2,40,2L40,2z"/><path fill="#fff" d="M40,70.5C23.182,70.5,9.5,56.817,9.5,40S23.182,9.5,40,9.5S70.5,23.183,70.5,40S56.818,70.5,40,70.5 z"/><path fill="#5e9c76" d="M40,10c16.5,0,30,13.5,30,30S56.5,70,40,70S10,56.5,10,40S23.5,10,40,10 M40,9 C22.907,9,9,22.907,9,40s13.907,31,31,31s31-13.907,31-31S57.093,9,40,9L40,9z"/><path fill="#99c99e" d="M40,54.5c-7.995,0-14.5-6.505-14.5-14.5S32.005,25.5,40,25.5S54.5,32.005,54.5,40 S47.995,54.5,40,54.5z M40,32.5c-4.136,0-7.5,3.364-7.5,7.5s3.364,7.5,7.5,7.5s7.5-3.364,7.5-7.5S44.136,32.5,40,32.5z"/><path fill="#5e9c76" d="M40,26c7.72,0,14,6.28,14,14s-6.28,14-14,14s-14-6.28-14-14S32.28,26,40,26 M40,48 c4.411,0,8-3.589,8-8s-3.589-8-8-8s-8,3.589-8,8S35.589,48,40,48 M40,25c-8.25,0-15,6.75-15,15s6.75,15,15,15s15-6.75,15-15 S48.25,25,40,25L40,25z M40,47c-3.85,0-7-3.15-7-7c0-3.85,3.15-7,7-7s7,3.15,7,7C47,43.85,43.85,47,40,47L40,47z"/><g><path fill="#99c99e" d="M26.5 18.5H53.5V25.5H26.5z"/><path fill="#5e9c76" d="M53,19v6H27v-6H53 M54,18H26v8h28V18L54,18z"/></g><g><path fill="#99c99e" d="M26.5 54.5H53.5V61.5H26.5z"/><path fill="#5e9c76" d="M53,55v6H27v-6H53 M54,54H26v8h28V54L54,54z"/></g></svg>