<svg xmlns="http://www.w3.org/2000/svg" viewBox="0 0 80 80" width="30px" height="30px"><path fill="#dcd5f2" d="M14.6,75.5c0.2-2.1,0.4-3.9,0.6-5.6c0.7-6.2,1.2-10.6,2.3-16.8l0.1-0.7l-0.7,0.2c0,0-4.4,1-8.9,1 c-1.7,0-3.5-1.2-3.5-3.5c0-2.1,2.8-4,6-6.3c0.6-0.4,1.2-0.9,1.8-1.3c1.2-0.9,7.5-5.6,8.2-8.3C25.8,14,33.6,0.5,40,0.5 c4.5,0,10.2,8.4,17.5,25.7l0.1,0.3H58c1.5,0,5.1-2.4,6.5-6.3c0.6-1.8,1.5-3.7,3.5-3.7c1.7,0,3.5,1.2,3.5,3.5 c0,12.4-5.7,18.9-8.8,22.4c-0.4,0.5-0.8,0.9-1.1,1.3l-0.1,0.2l0,0.2c1.4,6.9,2,13.3,2.8,20.8c0.3,3.3,0.7,6.8,1.1,10.6L14.6,75.5 L14.6,75.5z"/><path fill="#8b75a1" d="M40,1c4.2,0,10,8.5,17.1,25.4l0.3,0.6H58c1.8,0,5.5-2.7,6.9-6.7c0.6-1.7,1.4-3.3,3.1-3.3 c1.5,0,3,1,3,3c0,12.2-5.6,18.6-8.6,22c-0.4,0.5-0.8,0.9-1.1,1.3l-0.3,0.4l0.1,0.5c1.4,6.9,2,13.3,2.8,20.7 c0.3,3.2,0.7,6.5,1.1,10.1H15.1c0.2-1.8,0.4-3.5,0.6-5.1c0.7-6.1,1.2-10.6,2.3-16.7l0.3-1.8L16.7,52c-0.6,0.1-4.5,1-8.7,1 c-1.5,0-3-1-3-3c0-1.8,2.8-3.8,5.8-5.9c0.6-0.4,1.2-0.9,1.8-1.3c1.8-1.3,7.6-5.7,8.4-8.6C26.1,14.7,34,1,40,1 M40,0 c-6.7,0-14.7,13.8-20,34c-0.6,2.2-5.5,6.2-8,8c-4,2.9-8,5.3-8,8c0,2.6,2,4,4,4c4.6,0,9-1,9-1c-1.4,8.1-1.9,13.4-3,23h52 c-1.5-12.9-1.9-21.9-4-32c2.4-3,10-9.6,10-24c0-2.5-2-4-4-4c-2.5,0-3.5,2.5-4,4c-1.3,3.7-4.7,6-6,6C48.4,3.3,43.1,0,40,0L40,0z"/><path fill="#bae0bd" d="M40,67.5c-6.3,0-11.5-3.4-11.5-7.5s5.2-7.5,11.5-7.5s11.5,3.4,11.5,7.5S46.3,67.5,40,67.5z"/><path fill="#5e9c76" d="M40,53c6.1,0,11,3.1,11,7s-4.9,7-11,7s-11-3.1-11-7S33.9,53,40,53 M40,52c-6.6,0-12,3.6-12,8 s5.4,8,12,8s12-3.6,12-8S46.6,52,40,52L40,52z"/><path fill="#bae0bd" d="M40,47.5c-5.2,0-9.5-2.9-9.5-6.5s4.3-6.5,9.5-6.5s9.5,2.9,9.5,6.5S45.2,47.5,40,47.5z"/><path fill="#5e9c76" d="M40,35c5,0,9,2.7,9,6s-4,6-9,6s-9-2.7-9-6S35,35,40,35 M40,34c-5.5,0-10,3.1-10,7s4.5,7,10,7 s10-3.1,10-7S45.5,34,40,34L40,34z"/><g><path fill="#bae0bd" d="M40 18.5A7.5 5.5 0 1 0 40 29.5A7.5 5.5 0 1 0 40 18.5Z"/><path fill="#5e9c76" d="M40,19c3.9,0,7,2.2,7,5s-3.1,5-7,5s-7-2.2-7-5S36.1,19,40,19 M40,18c-4.4,0-8,2.7-8,6s3.6,6,8,6 s8-2.7,8-6S44.4,18,40,18L40,18z"/></g><g><path fill="#bae0bd" d="M14,79.5c-1.9,0-3.5-1.6-3.5-3.5s1.6-3.5,3.5-3.5h52c1.9,0,3.5,1.6,3.5,3.5s-1.6,3.5-3.5,3.5H14z"/><path fill="#5e9c76" d="M66,73c1.7,0,3,1.3,3,3s-1.3,3-3,3H14c-1.7,0-3-1.3-3-3s1.3-3,3-3H66 M66,72H14c-2.2,0-4,1.8-4,4 s1.8,4,4,4h52c2.2,0,4-1.8,4-4S68.2,72,66,72L66,72z"/></g><g><path fill="#36404d" d="M40,20c-1.1,0-2.1-0.6-3.1-1.2c-0.6-0.4-1.3-0.8-1.6-0.8c-0.7,0-1.3,0.5-1.3,1c0,0.6-0.4,1-1,1 s-1-0.4-1-1c0-1.7,1.5-3,3.3-3c0.9,0,1.8,0.5,2.7,1.1c0.7,0.4,1.5,0.9,2,0.9c0.6,0,1,0.4,1,1S40.6,20,40,20z"/><path fill="#36404d" d="M47,20c-0.6,0-1-0.4-1-1c0-0.5-0.6-1-1.3-1c-0.3,0-1.1,0.5-1.7,0.8c-1,0.6-2,1.2-3,1.2 c-0.6,0-1-0.4-1-1s0.4-1,1-1c0.5,0,1.3-0.5,2-0.9c0.9-0.6,1.8-1.1,2.7-1.1c1.8,0,3.3,1.3,3.3,3C48,19.6,47.6,20,47,20z"/></g></svg>