<svg xmlns="http://www.w3.org/2000/svg" viewBox="0 0 80 80" width="30px" height="30px"><path fill="#7496c4" d="M27.3,72.4c1.6-2.8,0.8-5.5-0.1-8.2c-0.7-2.3-1.4-4.4-0.6-6.7l0.3-1l-1,0.3c-1.2,0.4-2,1.6-2.9,3 c-1.4,2.2-3.2,5-7.8,5.4c2.8-2.1,3.1-5.2,3.3-7.9c0.2-2.3,0.4-4.5,1.9-6l0.8-0.8h-1.2c-0.8,0-1.8,0.6-3,1.3 c-1.9,1.2-4.4,2.6-7.4,2.6c-0.9,0-1.9-0.2-2.8-0.4c4.3-0.9,5.9-3.7,7.2-6c1-1.7,1.8-3.2,3.4-3.6l0.4-0.1l-0.1-0.5 c-0.2-1-0.3-3.5-0.3-4.5c0-1,0.3-2.2,0.4-2.9C18,36.2,18,36.1,18,36v-0.1l-0.1-0.1c-0.3-0.6-1.4-1-2.9-1.6c-3-1.2-7.5-2.9-9.3-7 c1.1,0.7,2.3,1,3.7,1c1.8,0,3.6-0.5,5.4-1.1c1.6-0.5,3.1-0.9,4.4-0.9c0.7,0,1.2,0.1,1.7,0.4l0.8,0.4l-0.1-0.9 c-0.1-0.9-1-1.5-2.4-2.5c-2.3-1.6-5.7-4-6.1-8.4c1.9,2.7,4.8,3,7.6,3.2c2.4,0.2,4.7,0.3,6.4,2l0.8,0.8v-1.2c0-1.1-0.7-2.1-1.6-3.2 c-1.7-2.3-3.7-5.1-2-10c0.9,3.8,4.2,5.6,7,7.1c2,1.1,3.8,2,3.9,3.4l0,0.5l0.5-0.1c0,0,2.2-0.3,3.2-0.3c1,0,3.2,0.3,4.2,0.4 C43.8,18,44,18,44.1,18h0.1l0.1,0c1.5-0.7,2.1-2.8,2.8-5.2c0.8-2.9,1.8-6.2,4.5-7.2c-1.6,2.5-0.7,4.9,0.1,7.2 c0.9,2.5,1.9,5,0.2,8.1l-0.5,0.8l1-0.1c1.8-0.2,3.1-1.9,4.5-3.6c1.7-2.2,3.5-4.7,6.8-4.9c-1.1,1.3-1.6,3.4-2.2,5.8 c-0.7,2.8-1.4,6-3.4,8.3l-0.4,0.5l0.5,0.3c0.3,0.2,0.7,0.3,1.2,0.3l0,0c1.1,0,2.4-0.7,3.8-1.5c1.9-1,4.3-2.4,7.1-2.4 c0.5,0,1.1,0,1.6,0.1c-2.3,1.4-3.6,3.6-4.7,5.6c-1.5,2.6-2.7,4.9-6,5.3l-0.4,0.1l0,0.4c0,0,0,0.7,0.1,1.2c0.1,0.5,0.1,1.1,0.1,1.8 c0,1-0.3,3.2-0.4,4.3c-0.1,0.4-0.1,0.7-0.1,0.8v0.1l0,0.1c0.3,1.2,2.1,1.7,4.3,2.3c3.1,0.8,6.9,1.8,8.3,4.9 c-0.8-0.3-1.6-0.4-2.5-0.4c-1.8,0-3.5,0.5-5.3,1c-1.5,0.4-3,0.8-4.2,0.8c-1.1,0-1.9-0.3-2.6-1L56.8,50l0.8,2.2 c0.4,1.1,1.5,1.9,2.8,2.8c2.2,1.6,4.8,3.4,5.3,7.5c-1.4-1.6-3.8-1.9-6.2-2.2c-2.6-0.4-5.3-0.7-7.1-2.6l-0.9-0.9V58 c0,0.2,0.1,0.3,0.4,0.8c3,4.7,3.9,8.9,2.6,12.5c-0.8-3.3-3.5-4.9-5.9-6.4c-2-1.3-3.8-2.3-4.2-4.2l-0.1-0.5l-0.5,0.1 c-0.1,0-0.4,0-1.1,0c-1.8,0-5-0.1-6.2-0.2c-0.3,0-0.5,0-0.6,0h-0.2l-0.1,0.1c-0.9,0.7-1.4,2.1-1.9,3.6 C32.9,66.7,31.7,70.2,27.3,72.4z"/><path fill="#4e7ab5" d="M50.5,6.8c-0.7,2.2,0.1,4.3,0.8,6.2c0.9,2.5,1.8,4.8,0.2,7.7l-0.9,1.7l1.9-0.2c2-0.2,3.4-2,4.8-3.8 c1.5-1.9,3-3.9,5.3-4.5c-0.7,1.3-1.2,3.1-1.6,5c-0.7,2.8-1.4,5.9-3.3,8l-0.8,0.9l1.1,0.6c0.4,0.2,0.9,0.3,1.4,0.3 c1.3,0,2.6-0.7,4.1-1.5c2-1.1,4.2-2.3,6.9-2.3c0.1,0,0.1,0,0.2,0c-1.7,1.4-2.8,3.3-3.7,5c-1.4,2.6-2.6,4.7-5.6,5.1l-0.9,0.1l0,0.9 c0,0.1,0,0.7,0.1,1.2c0.1,0.7,0.1,1.2,0.1,1.7c0,1-0.3,3.2-0.4,4.2c-0.1,0.7-0.1,0.7-0.1,0.9v0.1l0,0.1c0.3,1.5,2.3,2,4.7,2.7 c2.6,0.7,5.8,1.5,7.3,3.6c-0.5-0.1-1-0.1-1.5-0.1c-1.8,0-3.6,0.5-5.4,1c-1.5,0.4-2.9,0.8-4.1,0.8c-1,0-1.7-0.3-2.2-0.8L55.5,48 l1.6,4.3c0.4,1.2,1.6,2.1,3,3.1c1.9,1.4,4,2.9,4.8,5.8c-1.5-0.9-3.4-1.2-5.3-1.4c-2.5-0.3-5.1-0.7-6.8-2.5L51,55.5V58 c0,0.3,0.1,0.5,0.5,1.1c2.5,3.9,3.5,7.4,3,10.5c-1.2-2.5-3.5-3.9-5.5-5.1c-1.9-1.2-3.6-2.2-4-3.9l-0.2-0.9l-0.9,0.2c0,0-0.2,0-1,0 c-1.8,0-5-0.1-6.2-0.2c-0.3,0-0.5,0-0.6,0h-0.4l-0.3,0.2c-1,0.8-1.5,2.2-2,3.8c-0.8,2.4-1.8,5.3-5,7.5c0.8-2.5,0-4.9-0.6-7.1 c-0.7-2.2-1.3-4.3-0.6-6.4l0.6-1.9l-1.9,0.7c-1.4,0.5-2.2,1.8-3.1,3.2c-1.2,1.9-2.6,4.1-5.8,4.9c1.8-2.1,2-4.7,2.2-7.1 c0.2-2.2,0.4-4.3,1.7-5.7l1.6-1.7h-2.3c-1,0-2,0.6-3.3,1.4c-1.9,1.1-4.3,2.6-7.1,2.6c-0.3,0-0.5,0-0.8,0c3.1-1.2,4.4-3.6,5.6-5.6 c0.9-1.7,1.7-3,3.1-3.3l0.9-0.2l-0.2-0.9c-0.2-1-0.3-3.4-0.3-4.4c0-0.9,0.3-2.1,0.4-2.8c0.1-0.4,0.1-0.5,0.1-0.7v-0.3l-0.1-0.2 c-0.4-0.7-1.5-1.1-3.1-1.8c-2.6-1-6.2-2.4-8.3-5.4c0.8,0.3,1.6,0.4,2.5,0.4c1.9,0,3.7-0.6,5.6-1.1c1.6-0.5,3-0.9,4.2-0.9 c0.6,0,1.1,0.1,1.5,0.3l1.6,0.8l-0.1-1.8C22,25,21,24.2,19.5,23.2c-2-1.4-4.7-3.2-5.6-6.3c2,1.7,4.5,1.9,6.8,2 c2.3,0.2,4.5,0.3,6.1,1.9l1.7,1.6v-2.3c0-1.2-0.8-2.3-1.7-3.5c-1.4-1.9-3.1-4.3-2.3-8c1.4,3,4.4,4.6,6.7,5.9c1.9,1,3.5,1.9,3.6,3 l0.1,1.1l1.1-0.2c0.6-0.1,2.3-0.3,3.1-0.3c1,0,3.1,0.3,4.2,0.4c0.6,0.1,0.7,0.1,0.8,0.1h0.2l0.2-0.1c1.7-0.8,2.3-3.1,3-5.5 C48.2,10.6,48.9,8.1,50.5,6.8 M52.9,4.7c-6.9,0.8-5.5,11.2-8.8,12.8c-0.2,0-3.6-0.5-5-0.5c-1,0-3.3,0.3-3.3,0.3 c-0.3-4.1-11.1-4.2-11.1-12.4c-4.4,9.1,2.8,12.2,2.8,15.2c-4.5-4.2-11.8,0.4-14.9-6.7c-0.9,8.6,8.3,10.8,8.5,12.8 c-0.6-0.3-1.2-0.4-1.9-0.4c-2.8,0-6.5,2-9.8,2c-1.7,0-3.3-0.5-4.7-2.1c1.8,7.9,11.9,8.9,12.8,10.4c0,0.2-0.5,2.1-0.5,3.4 c0,1,0.2,3.5,0.3,4.6c-4.7,1.2-3.3,9.2-12.4,9.8C6.6,54.6,8.2,55,9.7,55c5,0,8.6-4,10.4-4c-3.9,4.1,0.4,11.6-6.7,14.9 c0.2,0,0.4,0,0.6,0c9,0,9.1-7.3,12.2-8.5c-1.8,5.7,4.6,10.8-0.3,16.2c8.9-3.4,7.7-10.9,10.2-13c0.1,0,4.5,0.2,6.8,0.2 c0.6,0,1,0,1.2,0c1.1,4.7,10,4.9,10.3,12.3C58.2,65.9,52,58.3,52,58c4.2,4.4,12.7,1,14.2,6.7C66.6,55.9,59,54.9,58,52 c0.8,0.8,1.8,1.1,3,1.1c2.8,0,6.2-1.8,9.5-1.8c1.2,0,2.3,0.2,3.4,0.8c-1.5-6.7-12.4-5.7-13-8.2c0-0.2,0.5-3.7,0.5-5.1 c0-0.6-0.1-1.2-0.1-1.8c-0.1-0.4-0.1-1.1-0.1-1.1c6.8-0.8,5.7-9.1,12.1-11.6c-1.1-0.3-2.1-0.5-3-0.5c-4.9,0-8.5,3.8-10.9,3.8 c-0.3,0-0.6-0.1-0.9-0.2c4.1-4.7,3.1-13.6,6.7-14.9c-0.4,0-0.7-0.1-1.1-0.1c-6.5,0-7.9,8.1-11.7,8.5C56.1,14.3,47.8,10,52.9,4.7 L52.9,4.7z"/><path fill="#c2e8ff" d="M35 16L40 2 45 16 45 64 40 78 35 63z"/><path fill="#8bb7f0" d="M40 40v36l-5-14V40C36.7 40 38.3 40 40 40zM45 16L40 5v35c1.7 0 3.3 0 5 0V16z"/><path fill="#c2e8ff" d="M64 35L78 40 64 45 16 45 2 40 17 35z"/><path fill="#8bb7f0" d="M40 40H4l14-5h22C40 36.7 40 38.3 40 40zM64 45l11-5H40c0 1.7 0 3.3 0 5H64z"/><path fill="#4e7ab5" d="M18,35.1L18,35.1c-0.2-0.3-0.6-0.5-1-0.7l-0.4,0.1l-1,0.4L2,40l13.5,5.1l1.1,0.4 c0.3-0.2,0.7-0.4,1.1-0.5l0.2-0.1l-0.3-0.1l-1.1-0.4L4.8,40l12.1-4.5L18,35.1z"/><path fill="#4e7ab5" d="M64 35L64 34 16 34 17 35zM64 45L17 45 16 46 62 46z"/><path fill="#4e7ab5" d="M45 16L46 16 46 63 45 62zM35 16L35 63 34 64 34 16z"/><path fill="#36404d" d="M-0.1 41.6H75.10000000000001V43.6H-0.1z" transform="rotate(-45.001 37.428 42.572)"/><path fill="#4e7ab5" d="M40 2l-5.1 13.6-.4 1.1c0 0 0 0 0 0 .1.1.2.2.2.4.1.1.1.3.1.4l.1 1.1.1 0v-.3l.6-1.6L40 4.8l4.6 12.3.4 1c.1-.1.3-.2.4-.3 0 0 0 0 .1-.1.1-.1.2-.2.3-.4l0 0-.4-1.2L40 2 40 2zM45 60.7v1.1l-.2.6L40 75.2 35.1 62 35 61.8v-1.5c-.4.5-.7 1-1 1.7v0l.5 1.4L40 78l5.5-14.7.4-1C45.5 61.8 45.1 61.3 45 60.7zM63.3 34.6L63.3 34.6c-.1.1-.2.2-.4.2-.1.1-.3.1-.4.1l-1.1.1 0 .1h.3l1.6.6L75.1 40l-12.3 4.6-1 .4c.1.1.2.3.3.4 0 0 0 0 .1.1.1.1.2.2.4.3l0 0 1.2-.4L78 40 64.4 35 63.3 34.6 63.3 34.6z"/><g><path fill="#c2e8ff" d="M40,53.5c-7.4,0-13.5-6.1-13.5-13.5S32.6,26.5,40,26.5S53.5,32.6,53.5,40S47.4,53.5,40,53.5z"/><path fill="#8bb7f0" d="M40,27c7.2,0,13,5.8,13,13s-5.8,13-13,13s-13-5.8-13-13S32.8,27,40,27 M40,26c-7.7,0-14,6.3-14,14 s6.3,14,14,14s14-6.3,14-14S47.7,26,40,26L40,26z"/></g><g><path fill="#8bb7f0" d="M40,33c3.9,0,7,3.1,7,7s-3.1,7-7,7s-7-3.1-7-7S36.1,33,40,33 M40,32c-4.4,0-8,3.6-8,8s3.6,8,8,8 s8-3.6,8-8S44.4,32,40,32L40,32z"/></g><g><path fill="#4b6477" d="M62.5 17.5L62.5 10.4 73.2 6.8 69.6 17.5z"/><path fill="#36404d" d="M72.4,7.6L69.3,17H63v-6.3L72.4,7.6 M74,6l-12,4v8h8L74,6L74,6z"/></g></svg>