<svg xmlns="http://www.w3.org/2000/svg" viewBox="0 0 80 80" width="30px" height="30px"><path fill="#4e7ab5" d="M38.5,20.4c0-1.4,0-5.3,0-9.5c0-3.5,0.9-5.9,1.5-7c0.6,1.1,1.5,3.5,1.5,7v9.5H38.5z"/><path fill="#4e7ab5" d="M40 5.2c.5 1.3 1 3.2 1 5.7v9h-2c0-1.7 0-5.2 0-9C39 8.4 39.5 6.4 40 5.2M40 2.9c0 0-2 2.8-2 8s0 10 0 10h4c0 0 0-4.8 0-10S40 2.9 40 2.9L40 2.9zM19.5 67.4c.2-1.2.8-3.7 2.9-6.6l5.5-7.7 2.4 1.7c-.8 1.1-3.1 4.3-5.5 7.7C22.8 65.4 20.6 66.8 19.5 67.4z"/><path fill="#4e7ab5" d="M28 53.8l1.6 1.2c-1 1.4-3 4.3-5.2 7.3-1.5 2.1-3 3.4-4.2 4.1.3-1.3 1-3.2 2.5-5.3L28 53.8M27.8 52.4c0 0-2.8 3.9-5.8 8.1s-3 7.7-3 7.7 3.3-1.1 6.3-5.3 5.8-8.1 5.8-8.1L27.8 52.4 27.8 52.4zM21.7 35.1c-1.3-.4-5.1-1.5-9.1-2.7-3.4-1-5.4-2.6-6.3-3.4.5-.1 1.3-.2 2.3-.2 1.6 0 3.2.2 4.9.7l9.1 2.7L21.7 35.1z"/><path fill="#4e7ab5" d="M8.6 29.3L8.6 29.3c1.5 0 3.1.2 4.7.7l8.6 2.6-.6 1.9c-1.6-.5-5-1.5-8.6-2.5-2.4-.7-4.2-1.8-5.2-2.6C7.8 29.3 8.2 29.3 8.6 29.3M8.6 28.3c-2 0-3.2.4-3.2.4s2.1 2.7 7.1 4.2c5 1.5 9.6 2.8 9.6 2.8l1.1-3.8c0 0-4.6-1.4-9.6-2.8C11.6 28.5 9.9 28.3 8.6 28.3L8.6 28.3zM60.3 67.4c-1.1-.6-3.3-2-5.3-4.8-2.4-3.4-4.7-6.6-5.5-7.7l2.4-1.7 5.5 7.7C59.4 63.7 60.1 66.1 60.3 67.4z"/><path fill="#4e7ab5" d="M51.8 53.8l5.2 7.3c1.5 2.1 2.2 4 2.5 5.3-1.1-.7-2.7-2-4.2-4.1-2.2-3.1-4.3-6-5.2-7.3L51.8 53.8M52 52.4l-3.2 2.3c0 0 2.8 3.9 5.8 8.1 3 4.2 6.3 5.3 6.3 5.3s0-3.5-3-7.7C54.8 56.3 52 52.4 52 52.4L52 52.4zM57.2 32.2l9.1-2.7c1.7-.5 3.3-.7 4.9-.7 1 0 1.7.1 2.3.2-.9.9-2.9 2.4-6.3 3.4-4 1.2-7.8 2.3-9.1 2.7L57.2 32.2z"/><path fill="#4e7ab5" d="M71.2,29.3c0.4,0,0.7,0,1.1,0c-1.1,0.8-2.8,1.9-5.2,2.6c-3.6,1.1-7,2.1-8.6,2.5l-0.6-1.9l8.6-2.6 C68.1,29.5,69.7,29.3,71.2,29.3 M71.2,28.3c-1.3,0-3,0.2-5,0.8c-5,1.5-9.6,2.8-9.6,2.8l1.1,3.8c0,0,4.6-1.3,9.6-2.8 c5-1.5,7.1-4.2,7.1-4.2S73.2,28.3,71.2,28.3L71.2,28.3z"/><path fill="#c2e8ff" d="M39.7,76.4c-7.1,0-11.4-1.8-11.9-2c-1.5-1.1-2.3-2.1-2.5-3.2c-0.2-1.1,0.3-2.3,1.4-3.8 c1-1.3,1.3-2.9,1.1-4.5c-0.3-1.6-1.1-3-2.4-3.9c-1-0.8-2.3-1.1-3.6-1.1c-1.9,0-3.8,0.9-4.9,2.5c-1.3,1.8-2.5,2.6-3.7,2.6 c-0.9,0-2-0.5-3.4-1.5c-0.3-0.4-3.4-4-5.6-10.6l-0.1-0.4C2.1,44,2.4,39.5,2.4,39c0.9-2.6,2-3.6,3.9-3.6c0.7,0,1.5,0.2,2.5,0.5 c0.6,0.2,1.2,0.3,1.9,0.3c2.6,0,5-1.7,5.8-4.2c0.5-1.5,0.4-3.1-0.4-4.6c-0.7-1.4-2-2.5-3.6-3c-1.9-0.6-3-1.3-3.5-2.3 c-0.5-0.9-0.4-2.1,0.2-4c0.3-0.4,2.8-4.5,8.6-8.6c6.1-4.4,10.9-5.4,11-5.4c3.3,0,5,0.8,5,5c0,3.3,2.7,6,6.1,6s6.1-2.7,6.1-6 c0-3.7,1.4-5,5.1-5c0,0,4.8,1,10.9,5.4c5.8,4.1,8.3,8.1,8.6,8.6c0.6,1.9,0.7,3.1,0.2,4c-0.5,0.9-1.6,1.7-3.5,2.3 c-1.6,0.5-2.8,1.6-3.6,3c-0.7,1.4-0.9,3-0.4,4.6c0.8,2.5,3.1,4.2,5.8,4.2c0.6,0,1.3-0.1,1.9-0.3c1-0.3,1.8-0.5,2.5-0.5 c1.9,0,3,1.1,3.9,3.6c0,0.5,0.4,5.2-1.8,11.8l-0.1,0.4c-2.2,6.5-5.1,9.9-5.5,10.3c-1.4,1-2.5,1.5-3.4,1.5c-1.2,0-2.3-0.8-3.7-2.6 c-1.1-1.5-3-2.5-4.9-2.5c-1.3,0-2.5,0.4-3.6,1.1C53,60,52.2,61.4,51.9,63c-0.3,1.6,0.1,3.2,1.1,4.5c1.1,1.5,1.6,2.7,1.4,3.8 c-0.2,1.1-1,2.1-2.5,3.2c-0.5,0.2-4.9,2-11.9,2L39.7,76.4L39.7,76.4z"/><path fill="#7496c4" d="M28.8,4.6c3.3,0,4.5,0.7,4.5,4.5c0,3.6,3,6.5,6.6,6.5s6.6-2.9,6.6-6.5c0-3.4,1.1-4.5,4.5-4.5 C51.6,4.8,56.1,6,61.6,10c5.5,4,8,7.8,8.4,8.4c0.5,1.7,0.6,2.8,0.2,3.5c-0.4,0.8-1.5,1.5-3.2,2c-1.7,0.5-3.1,1.7-3.8,3.3 c-0.8,1.5-0.9,3.3-0.4,4.9c0.9,2.7,3.4,4.5,6.3,4.5c0.7,0,1.4-0.1,2-0.3c0.9-0.3,1.7-0.4,2.4-0.4c1.4,0,2.5,0.6,3.4,3.2 c0.1,0.7,0.3,5-1.7,11.2L75,50.8c-2.1,6.4-5,9.9-5.4,10.4c-1.3,0.9-2.3,1.3-3,1.3c-0.6,0-1.7-0.2-3.3-2.4c-1.2-1.7-3.2-2.7-5.3-2.7 c-1.4,0-2.7,0.4-3.9,1.2c-1.4,1-2.4,2.5-2.6,4.3c-0.3,1.7,0.1,3.4,1.2,4.8c1,1.4,1.4,2.5,1.3,3.4c-0.1,0.9-0.8,1.8-2.2,2.8 c-0.6,0.3-4.9,1.9-11.7,1.9h-0.1h-0.1c-6.8,0-11-1.6-11.7-1.9c-1.4-1-2.1-1.9-2.2-2.8c-0.1-0.9,0.3-2,1.3-3.4 c1-1.4,1.5-3.1,1.2-4.8c-0.3-1.7-1.2-3.2-2.6-4.3c-1.1-0.8-2.5-1.2-3.9-1.2c-2.1,0-4.1,1-5.3,2.7c-1.6,2.2-2.6,2.4-3.3,2.4 c-0.8,0-1.7-0.4-3-1.3c-0.4-0.5-3.2-3.9-5.3-10l-0.1-0.4l-0.1-0.2c-2-6.3-1.8-10.7-1.8-11.4c0.9-2.7,2-3.2,3.4-3.2 c0.7,0,1.4,0.1,2.4,0.4c0.7,0.2,1.3,0.3,2,0.3c2.9,0,5.4-1.8,6.3-4.5c0.5-1.6,0.4-3.4-0.4-4.9c-0.8-1.6-2.2-2.7-3.8-3.3 c-1.7-0.6-2.8-1.2-3.2-2c-0.4-0.8-0.3-1.9,0.2-3.5c0.4-0.6,2.9-4.4,8.4-8.4C23.7,6,28.2,4.8,28.8,4.6 M51,3.6 c-3.8,0-5.6,1.4-5.6,5.5c0,3-2.5,5.5-5.6,5.5s-5.6-2.5-5.6-5.5c0-4.5-1.8-5.5-5.6-5.5c0,0-4.9,1-11.2,5.5c-6.3,4.5-8.7,8.8-8.7,8.8 c-1.2,3.6-0.7,5.6,3.6,6.9c2.9,0.9,4.5,4,3.6,6.9c-0.8,2.3-3,3.8-5.3,3.8c-0.6,0-1.1-0.1-1.7-0.3c-1-0.3-1.9-0.5-2.7-0.5 c-2.2,0-3.5,1.4-4.4,4c0,0-0.5,4.9,1.8,12.1l0,0c0,0,0,0,0,0s0,0,0,0l0,0c2.4,7.2,5.7,10.9,5.7,10.9c1.4,1,2.6,1.6,3.7,1.6 c1.4,0,2.6-0.8,4.1-2.8c1.1-1.5,2.8-2.3,4.5-2.3c1.1,0,2.3,0.3,3.3,1.1c2.5,1.8,3,5.2,1.2,7.7c-2.5,3.3-1.9,5.5,1.2,7.7 c0,0,4.5,2,12.2,2c0,0,0.1,0,0.1,0c0,0,0.1,0,0.1,0c7.7,0,12.2-2,12.2-2c3.1-2.2,3.7-4.4,1.2-7.7c-1.8-2.5-1.3-5.9,1.2-7.7 c1-0.7,2.1-1.1,3.3-1.1c1.7,0,3.4,0.8,4.5,2.3c1.5,2,2.7,2.8,4.1,2.8c1.1,0,2.3-0.6,3.7-1.6c0,0,3.4-3.6,5.7-10.9l0,0c0,0,0,0,0,0 c0,0,0,0,0,0l0,0c2.4-7.2,1.8-12.1,1.8-12.1c-0.9-2.7-2.1-4-4.4-4c-0.8,0-1.6,0.2-2.7,0.5c-0.6,0.2-1.2,0.3-1.7,0.3 c-2.4,0-4.5-1.5-5.3-3.8c-0.9-2.9,0.7-6,3.6-6.9c4.3-1.4,4.8-3.4,3.6-6.9c0,0-2.5-4.3-8.7-8.8C56,4.6,51,3.6,51,3.6L51,3.6z"/><path fill="#8bb7f0" d="M53.5,73c-7.7-1.9-13.2-7.3-13.3-7.3l-0.3-0.3l-0.3,0.3c-0.1,0.1-5.6,5.4-13.3,7.3 c-1.3-1.6-1.2-3.2,0.5-5.5c1-1.3,1.3-2.9,1.1-4.5c-0.3-1.6-1.1-3-2.4-3.9c-1-0.8-2.3-1.1-3.6-1.1c-1.9,0-3.8,0.9-4.9,2.5 c-1.3,1.8-2.5,2.6-3.7,2.6c-0.6,0-1.3-0.2-2.1-0.7c-0.6-8.2,3.1-15.1,3.2-15.2l0.2-0.4l-0.4-0.2c-0.1,0-6.3-3.8-10.3-10.1 c0.7-0.7,1.5-1,2.5-1c0.7,0,1.5,0.1,2.5,0.5c0.6,0.2,1.2,0.3,1.9,0.3c2.6,0,5-1.7,5.8-4.2c0.5-1.5,0.4-3.1-0.4-4.6 c-0.7-1.4-2-2.5-3.6-3c-3.7-1.2-4.2-2.7-3.6-5.1c5.9-1.7,14.8-1.8,14.9-1.8l0.4,0l0.1-0.4c0-0.1,1.3-6.9,5.8-12.8 c2.6,0.3,3.6,1.8,3.6,4.9c0,3.3,2.7,6,6.1,6s6.1-2.7,6.1-6c0-3.2,1-4.6,3.6-4.9c4.5,5.9,5.8,12.7,5.8,12.8l0.1,0.4l0.4,0 c0.1,0,9,0.1,14.9,1.8c0.6,2.4,0.1,4-3.6,5.1c-1.6,0.5-2.8,1.6-3.6,3c-0.7,1.4-0.9,3-0.4,4.6c0.8,2.5,3.1,4.2,5.8,4.2 c0.6,0,1.3-0.1,1.9-0.3c1-0.3,1.8-0.5,2.5-0.5c1.1,0,1.9,0.3,2.5,1c-4.1,6.3-10.3,10-10.3,10.1l-0.4,0.2l0.2,0.4 c0,0.1,3.8,7,3.2,15.2c-0.8,0.4-1.5,0.7-2.1,0.7l0,0c-1.2,0-2.3-0.8-3.7-2.6c-1.1-1.5-3-2.5-4.9-2.5c-1.3,0-2.5,0.4-3.6,1.1 c-1.3,0.9-2.2,2.3-2.4,3.9c-0.3,1.6,0.1,3.2,1.1,4.5C54.7,69.8,54.9,71.4,53.5,73z"/><path fill="#4e7ab5" d="M30.4,4.8c1.8,0.3,2.9,1.2,2.9,4.4c0,3.6,3,6.5,6.6,6.5s6.6-2.9,6.6-6.5c0-3.1,1-4.1,2.9-4.4 c4.3,5.7,5.5,12.3,5.6,12.3l0.2,0.8l0.8,0c0.1,0,8.6,0.1,14.5,1.7c0.4,2-0.1,3.2-3.3,4.3c-1.7,0.5-3.1,1.7-3.8,3.3 c-0.8,1.5-0.9,3.3-0.4,4.9c0.9,2.7,3.4,4.5,6.3,4.5c0.7,0,1.4-0.1,2-0.3c0.9-0.3,1.7-0.4,2.3-0.4c0.8,0,1.4,0.2,1.9,0.6 c-4,6-9.9,9.5-9.9,9.6l-0.8,0.5l0.5,0.8c0,0.1,3.7,6.7,3.1,14.7c-0.6,0.3-1.2,0.5-1.6,0.5c-0.6,0-1.7-0.2-3.3-2.4 c-1.2-1.7-3.2-2.7-5.3-2.7c-1.4,0-2.7,0.4-3.9,1.2c-1.4,1-2.4,2.5-2.6,4.3c-0.3,1.7,0.1,3.4,1.2,4.8c1.6,2.2,1.5,3.5,0.7,4.7 c-7.4-1.9-12.7-7.1-12.8-7.1l-0.7-0.7l-0.7,0.7c-0.1,0.1-5.4,5.2-12.8,7.1c-0.8-1.1-0.9-2.4,0.7-4.7c1-1.4,1.5-3.1,1.2-4.8 c-0.3-1.7-1.2-3.2-2.6-4.3c-1.1-0.8-2.5-1.2-3.9-1.2c-2.1,0-4.1,1-5.3,2.7c-1.6,2.2-2.6,2.4-3.3,2.4c-0.5,0-1-0.2-1.6-0.5 c-0.5-8,3.1-14.6,3.1-14.7l0.5-0.9l-0.8-0.5c-0.1,0-5.9-3.6-9.9-9.6c0.5-0.4,1.1-0.6,1.9-0.6c0.6,0,1.4,0.1,2.3,0.4 c0.7,0.2,1.3,0.3,2,0.3c2.9,0,5.4-1.8,6.3-4.5c0.5-1.6,0.4-3.4-0.4-4.9c-0.8-1.6-2.2-2.7-3.8-3.3c-3.2-1-3.7-2.2-3.3-4.3 c5.8-1.6,14.4-1.7,14.5-1.7l0.8,0l0.1-0.8C24.9,17,26.1,10.5,30.4,4.8 M49.8,3.7c-2.9,0.3-4.3,1.8-4.3,5.4c0,3-2.5,5.5-5.6,5.5 s-5.6-2.5-5.6-5.5c0-3.6-1.4-5.1-4.3-5.4c-4.8,6.1-6.1,13.2-6.1,13.2S14.6,17,8.6,18.9c-0.8,3-0.1,4.8,3.9,6 c2.9,0.9,4.5,4,3.6,6.9c-0.8,2.3-3,3.8-5.3,3.8c-0.6,0-1.1-0.1-1.7-0.3c-1-0.3-1.9-0.5-2.6-0.5c-1.4,0-2.4,0.5-3.1,1.5 c4.2,6.7,10.7,10.5,10.7,10.5s-4,7.1-3.2,15.8c0.9,0.5,1.8,0.8,2.6,0.8c1.4,0,2.6-0.8,4.1-2.8c1.1-1.5,2.8-2.3,4.5-2.3 c1.1,0,2.3,0.3,3.3,1.1c2.5,1.8,3,5.2,1.2,7.7c-2,2.7-1.9,4.6-0.3,6.4c8.1-1.9,13.8-7.5,13.8-7.5s5.7,5.6,13.8,7.5 c1.7-1.8,1.7-3.7-0.3-6.4c-1.8-2.5-1.3-5.9,1.2-7.7c1-0.7,2.1-1.1,3.3-1.1c1.7,0,3.4,0.8,4.5,2.3c1.5,2,2.7,2.8,4.1,2.8 c0.8,0,1.7-0.3,2.6-0.8c0.8-8.6-3.2-15.8-3.2-15.8s6.5-3.9,10.7-10.5c-0.8-1-1.8-1.5-3.1-1.5c-0.8,0-1.6,0.2-2.6,0.5 c-0.6,0.2-1.2,0.3-1.7,0.3c-2.4,0-4.5-1.5-5.3-3.8c-0.9-2.9,0.7-6,3.6-6.9c3.9-1.3,4.6-3,3.9-6c-6.1-1.8-15.3-1.9-15.3-1.9 S54.6,9.8,49.8,3.7L49.8,3.7z"/><path fill="#4e7ab5" d="M51.9 29.6H52.9V57.400000000000006H51.9z" transform="rotate(-75.547 52.442 43.462)"/><g><path fill="#4e7ab5" d="M35.7 26.4H60.800000000000004V27.4H35.7z" transform="rotate(-52.676 48.281 26.914)"/></g><g><path fill="#4e7ab5" d="M13.4 43H39.5V44H13.4z" transform="rotate(-15.391 26.446 43.469)"/></g><g><path fill="#4e7ab5" d="M39.5 40H40.5V66H39.5z"/></g><g><path fill="#4e7ab5" d="M31.4 14.2H32.4V40.7H31.4z" transform="rotate(-37.411 31.94 27.464)"/></g><g><path fill="#c2e8ff" d="M39.9,42.1c-1.8,0-3.2-1.4-3.2-3.2s1.4-3.2,3.2-3.2s3.2,1.4,3.2,3.2S41.7,42.1,39.9,42.1z"/><path fill="#7496c4" d="M39.9,36.2c1.5,0,2.7,1.2,2.7,2.7s-1.2,2.7-2.7,2.7s-2.7-1.2-2.7-2.7S38.4,36.2,39.9,36.2 M39.9,35.2c-2,0-3.7,1.7-3.7,3.7s1.7,3.7,3.7,3.7s3.7-1.7,3.7-3.7S41.9,35.2,39.9,35.2L39.9,35.2z"/></g><g><path fill="#c2e8ff" d="M43.7,55.4c-0.9,0-1.5-0.2-1.9-0.7c-0.6-0.8-0.4-2-0.1-3c0.1-0.4-0.1-0.7-0.3-1 c-0.4-0.5-1-0.8-1.5-0.8s-1.2,0.3-1.5,0.8c-0.2,0.2-0.3,0.6-0.3,1c0.3,1,0.5,2.2-0.1,3c-0.4,0.5-1,0.7-1.9,0.7H36l-0.1,0 c-0.1,0-3-0.7-5.7-2.8c-2.6-2.2-4.1-4.4-4.2-4.5l0-0.1l0-0.1c-0.3-0.9-0.2-1.6,0.1-2.1c0.5-0.8,1.6-1,2.7-1.1 c0.5-0.1,0.7-0.4,0.9-0.6c0.3-0.5,0.4-1.3,0.2-1.8c-0.3-0.8-1-1.4-1.7-1.4c-0.2,0-0.4,0-0.6,0.1c-0.9,0.6-1.7,0.9-2.4,0.9l0,0 c-0.9,0-1.5-0.6-1.8-1.7c0-0.2-0.6-3.2,0.8-6.9c1.2-3.8,3.1-5.7,3.1-5.8c0.6-0.5,1.1-0.7,1.6-0.7c1.2,0,1.8,1.3,2.3,2.6 c0.2,0.5,0.6,0.8,1.2,0.8c0.4,0,0.8-0.1,1.2-0.4c0.5-0.3,0.8-0.8,0.9-1.4c0-0.3,0-0.8-0.3-1.2c-0.9-0.9-1.6-1.7-1.5-2.7 c0-0.6,0.4-1.2,1.1-1.7c0.2-0.1,1.4-0.7,6.1-0.7s5.9,0.6,6,0.7c0.8,0.5,1.2,1.1,1.2,1.7c0.1,1-0.7,1.8-1.6,2.7 c-0.3,0.3-0.4,0.6-0.3,0.9c0,0.6,0.4,1.3,0.9,1.7c0.3,0.2,0.8,0.4,1.2,0.4c0.6,0,1.1-0.3,1.3-0.8c0.4-1.3,1.1-2.6,2.3-2.6 c0.5,0,1,0.2,1.5,0.6l0,0l0,0c0.1,0.1,1.7,2,3.1,5.8c1.2,3.8,0.8,6.7,0.8,6.8c-0.4,1.2-1.1,1.8-1.9,1.8c-0.7,0-1.5-0.4-2.3-1 c-0.2-0.1-0.3-0.1-0.6-0.1c-0.8,0-1.5,0.6-1.7,1.4c-0.2,0.6,0,1.5,0.3,2c0.1,0.2,0.4,0.5,0.7,0.5c1.1,0.1,2.2,0.3,2.7,1.1 c0.3,0.5,0.4,1.2,0.1,2.1l0,0.1l0,0.1c-0.1,0.1-1.6,2.4-4.2,4.5c-2.6,2.1-5.5,2.7-5.7,2.8L43.7,55.4L43.7,55.4z"/><path fill="#4e7ab5" d="M39.9,22.9c4.7,0,5.8,0.6,5.8,0.6c1.8,1.2,0.8,2.3-0.5,3.6c-0.9,0.8-0.5,2.5,0.6,3.3 c0.4,0.3,1,0.5,1.5,0.5c0.7,0,1.5-0.4,1.7-1.1c0.4-1.2,0.9-2.2,1.8-2.2c0.3,0,0.7,0.2,1.2,0.5c0,0,1.7,1.9,3,5.6 c1.2,3.7,0.8,6.6,0.8,6.6c-0.4,1-0.8,1.3-1.4,1.3c-0.6,0-1.3-0.4-2.1-0.9c-0.3-0.1-0.5-0.2-0.8-0.2c-1,0-2,0.8-2.2,1.8 c-0.3,1.2,0.3,3,1.5,3.1c1.7,0.2,3,0.5,2.4,2.5c0,0-1.5,2.3-4.1,4.4c-2.6,2-5.4,2.7-5.4,2.7c-2,0-2-1.4-1.5-3.1 c0.3-1.2-1.1-2.3-2.3-2.3c-1.2,0-2.6,1.1-2.3,2.3c0.5,1.7,0.6,3.1-1.5,3.1c0,0-2.9-0.6-5.4-2.7c-2.6-2.2-4.1-4.4-4.1-4.4 c-0.6-2,0.8-2.3,2.4-2.5c1.4-0.2,2-1.9,1.5-3.1c-0.3-1.1-1.3-1.8-2.2-1.8c-0.3,0-0.6,0.1-0.8,0.2c-0.8,0.5-1.5,0.9-2.1,0.9 c-0.6,0-1.1-0.4-1.4-1.3c0,0-0.6-3,0.8-6.6c1.2-3.7,3-5.6,3-5.6c0.5-0.4,0.9-0.5,1.2-0.5c0.9,0,1.4,1,1.8,2.2 c0.3,0.7,1,1.1,1.7,1.1c0.5,0,1-0.2,1.5-0.5c1.1-0.6,1.5-2.3,0.6-3.3c-1.2-1.2-2.1-2.3-0.5-3.6C34.1,23.6,35.2,22.9,39.9,22.9 M39.9,21.9c-4.6,0-6,0.6-6.3,0.8l0,0l0,0c-0.8,0.6-1.2,1.3-1.3,2c-0.1,1.3,0.9,2.3,1.6,3c0.2,0.2,0.2,0.6,0.2,0.7 c-0.1,0.4-0.3,0.8-0.6,1l0,0l0,0c-0.2,0.2-0.6,0.3-0.9,0.3c-0.2,0-0.6-0.1-0.8-0.4c-0.3-0.9-1-2.9-2.8-2.9c-0.6,0-1.2,0.2-1.8,0.7 l-0.1,0l-0.1,0.1c-0.1,0.1-2,2.1-3.3,6c-1.4,3.8-0.8,7-0.8,7.1l0,0l0,0c0.5,1.7,1.5,2.1,2.3,2.1c0.9,0,1.9-0.5,2.7-1 c0.1,0,0.2-0.1,0.3-0.1c0.4,0,1,0.4,1.3,1.1c0.2,0.5,0.1,1-0.1,1.4c-0.1,0.2-0.3,0.4-0.5,0.4c-1.1,0.1-2.4,0.3-3.1,1.3 c-0.4,0.6-0.5,1.5-0.2,2.5l0,0.2l0.1,0.1c0.1,0.1,1.6,2.3,4.3,4.6c2.8,2.2,5.8,2.8,5.9,2.9l0.1,0h0.1c1.1,0,1.8-0.3,2.3-0.9 c0.7-1,0.5-2.3,0.2-3.5c0,0-0.1-0.2,0.2-0.5c0.3-0.3,0.7-0.6,1.1-0.6c0.4,0,0.9,0.2,1.1,0.6c0.2,0.3,0.2,0.5,0.2,0.5 c-0.3,1.1-0.5,2.5,0.2,3.4c0.5,0.6,1.2,0.9,2.3,0.9h0.1l0.1,0c0.1,0,3.1-0.7,5.9-2.8c2.7-2.1,4.2-4.5,4.3-4.6l0.1-0.1l0-0.1 c0.3-1,0.2-1.9-0.2-2.5c-0.7-1-1.9-1.2-3.1-1.3c-0.1,0-0.3-0.2-0.4-0.3c-0.3-0.4-0.4-1.1-0.3-1.6c0.1-0.5,0.7-1,1.2-1 c0.1,0,0.2,0,0.3,0.1c0.9,0.6,1.7,1,2.6,1c1.1,0,1.9-0.7,2.3-2l0-0.1l0-0.1c0-0.1,0.5-3.1-0.8-7c-1.4-3.9-3.2-5.9-3.2-6l-0.1-0.1 l-0.1-0.1c-0.6-0.5-1.2-0.7-1.8-0.7c-1.7,0-2.4,2-2.8,2.9c-0.1,0.4-0.5,0.4-0.8,0.4c-0.3,0-0.6-0.1-0.9-0.3 c-0.4-0.3-0.7-0.8-0.7-1.3c0-0.1,0-0.3,0.1-0.4l0,0l0,0c0.9-0.9,1.8-1.9,1.7-3.1c-0.1-0.8-0.5-1.4-1.4-2l0,0l0,0 C45.8,22.5,44.5,21.9,39.9,21.9L39.9,21.9z"/></g><g><path fill="#7496c4" d="M39.9,42.9c-2.2,0-4-1.8-4-4s1.8-4,4-4s4,1.8,4,4S42.1,42.9,39.9,42.9z"/></g></svg>