<svg xmlns="http://www.w3.org/2000/svg" viewBox="0 0 80 80" width="30px" height="30px"><path fill="#36404d" d="M6.387,19.96l56.629,0.045l0.035,0l0.029-0.002C63.094,20.002,63.143,20,63.22,20 c0.564,0,2.517,0.106,3.958,1.469c1.079,1.022,1.625,2.501,1.625,4.397c0,21.499,4.31,33.634,5.377,35.486 c2.825,4.899,3.536,8.652,2.112,11.156C75.068,74.662,71.891,76,68.021,76l-17.206-0.361c-7.714,0-19.082-7.611-30.41-20.36 C10.157,43.746,3,31.295,3,25c0-3.118,2.319-4.758,3.193-5.016L6.387,19.96 M6.326,18.96L6,19c-1.296,0.324-4,2.374-4,6 c0,13.663,30.814,51.639,48.815,51.639L68,77c4.411,0,7.791-1.585,9.161-3.998c1.612-2.834,0.899-6.923-2.115-12.149 c-1.039-1.804-5.243-13.701-5.243-34.987c0-2.182-0.652-3.905-1.938-5.123C66.16,19.13,63.901,19,63.22,19 c-0.125,0-0.197,0.004-0.202,0.005L6.326,18.96L6.326,18.96z"/><path fill="#788b9c" d="M10,76.5c-0.827,0-1.5-0.673-1.5-1.5V17c0-0.827,0.673-1.5,1.5-1.5h48c0.827,0,1.5,0.673,1.5,1.5v58 c0,0.827-0.673,1.5-1.5,1.5H10z"/><path fill="#66798f" d="M58,16c0.551,0,1,0.449,1,1v58c0,0.551-0.449,1-1,1H10c-0.551,0-1-0.449-1-1V17 c0-0.551,0.449-1,1-1H58 M58,15H10c-1.105,0-2,0.895-2,2v58c0,1.105,0.895,2,2,2h48c1.105,0,2-0.895,2-2V17 C60,15.895,59.105,15,58,15L58,15z"/><path fill="#e1ebf2" d="M12.5 3.5H55.5V48.5H12.5z"/><path fill="#a3b7cc" d="M55,4v44H13V4H55 M56,3H12v46h44V3L56,3z"/><path fill="#8bb7f0" d="M18.5 3.5H49.5V26.5H18.5z"/><path fill="#4e7ab5" d="M49,4v22H19V4H49 M50,3H18v24h32V3L50,3z"/><path fill="#4e7ab5" d="M44 19A2 2 0 1 0 44 23A2 2 0 1 0 44 19Z"/><path fill="#8bb7f0" d="M18.5 31.5H35.5V40.5H18.5z"/><path fill="#4e7ab5" d="M35,32v8H19v-8H35 M36,31H18v10h18V31L36,31z"/><path fill="#8bb7f0" d="M45,40.5c-2.565,0-4.5-1.935-4.5-4.5s1.935-4.5,4.5-4.5s4.5,1.935,4.5,4.5S47.565,40.5,45,40.5z"/><path fill="#4e7ab5" d="M45,32c2.28,0,4,1.72,4,4s-1.72,4-4,4s-4-1.72-4-4S42.72,32,45,32 M45,31c-2.833,0-5,2.167-5,5 s2.167,5,5,5s5-2.167,5-5S47.833,31,45,31L45,31z"/><path fill="#839cb2" d="M42.5 7.5H45.5V10.5H42.5z"/><path fill="#36404d" d="M45,8v2h-2V8H45 M46,7h-4v4h4V7L46,7z"/><path fill="#839cb2" d="M42.5 13.5H45.5V16.5H42.5z"/><path fill="#36404d" d="M45,14v2h-2v-2H45 M46,13h-4v4h4V13L46,13z"/><path fill="#e1ebf2" d="M17 57H18V76H17zM50 57H51V76H50z"/><path fill="#c2e8ff" d="M22 33H24V39H22zM26 33H28V39H26zM30 33H32V39H30z"/><path fill="#a3b7cc" d="M17 76H18V77H17zM50 76H51V77H50z"/><g><path fill="#839cb2" d="M24.5 7.5H39.5V20.5H24.5z"/><path fill="#66798f" d="M39,8v12H25V8H39 M40,7H24v14h16V7L40,7z"/></g><g><path fill="#a3b7cc" d="M58 57L10 57 12 45 56 45z"/></g></svg>