<svg xmlns="http://www.w3.org/2000/svg" viewBox="0 0 80 80" width="30px" height="30px"><path fill="#8bb7f0" d="M12.571,49.5C9.726,49.5,4.5,45.248,4.5,38.3c0-3.144,2.519-5.8,5.5-5.8s5.5,2.656,5.5,5.8 C15.5,48.045,13.665,49.5,12.571,49.5z"/><path fill="#4e7ab5" d="M10,33c2.71,0,5,2.427,5,5.3C15,48.484,12.977,49,12.571,49C9.972,49,5,44.833,5,38.3 C5,35.427,7.29,33,10,33 M10,32c-3.257,0-6,2.88-6,6.3C4,45.32,9.314,50,12.571,50S16,41.72,16,38.3S13.257,32,10,32L10,32z"/><path fill="#8bb7f0" d="M67.429,49.5c-1.094,0-2.929-1.455-2.929-11.2c0-3.144,2.519-5.8,5.5-5.8s5.5,2.656,5.5,5.8 C75.5,45.248,70.274,49.5,67.429,49.5z"/><path fill="#4e7ab5" d="M70,33c2.71,0,5,2.427,5,5.3c0,6.533-4.972,10.7-7.571,10.7C67.023,49,65,48.484,65,38.3 C65,35.427,67.29,33,70,33 M70,32c-3.257,0-6,2.88-6,6.3S64.171,50,67.429,50S76,45.32,76,38.3C76,34.88,73.257,32,70,32L70,32z"/><path fill="#c2e8ff" d="M40,77.5c-7.878,0-24.804-12.504-27.255-29.609C10.718,38.886,10.5,29.583,10.5,26 C10.5,12.822,23.458,2.5,40,2.5S69.5,12.822,69.5,26c0,4.37-0.291,13.021-2.238,21.854C64.804,64.996,47.878,77.5,40,77.5z"/><path fill="#8b75a1" d="M40,3c16.262,0,29,10.103,29,23c0,4.35-0.289,12.959-2.227,21.747l-0.008,0.036L66.76,47.82 C64.344,64.678,47.729,77,40,77S15.656,64.678,13.24,47.82l-0.006-0.039l-0.009-0.039C11.217,38.825,11,29.567,11,26 C11,13.103,23.738,3,40,3 M40,2C23.5,2,10,12.429,10,26c0,4.886,0.375,13.638,2.25,21.962C14.688,64.971,31.375,78,40,78 s25.313-13.029,27.75-30.038C69.625,39.457,70,30.886,70,26C70,12.429,56.5,2,40,2L40,2z"/><path fill="#4b6477" d="M50,39.5c-3.293,0-6.321-2.586-7.304-3.515C43.614,35.052,46.446,32.5,50,32.5 s6.386,2.552,7.304,3.485C56.321,36.914,53.293,39.5,50,39.5z"/><path fill="#36404d" d="M50,33c2.981,0,5.447,1.921,6.575,2.974C55.374,37.033,52.77,39,50,39 c-2.771,0-5.377-1.97-6.577-3.028C44.546,34.919,47.003,33,50,33 M50,32c-4.622,0-8,4-8,4s3.733,4,8,4s8-4,8-4S54.622,32,50,32 L50,32z"/><path fill="#4b6477" d="M30,39.5c-3.721,0-6.477-2.588-7.332-3.5c0.855-0.912,3.611-3.5,7.332-3.5s6.477,2.588,7.332,3.5 C36.477,36.912,33.721,39.5,30,39.5z"/><path fill="#36404d" d="M30,33c3.14,0,5.57,1.966,6.634,3.002C35.575,37.04,33.156,39,30,39c-3.14,0-5.57-1.966-6.634-3.002 C24.425,34.96,26.844,33,30,33 M30,32c-4.8,0-8,4-8,4s3.2,4,8,4s8-4,8-4S34.8,32,30,32L30,32z"/><path fill="#8b75a1" d="M70 26L10.286 26 11 25 69 25zM66 14L14 14 16 13 64 13zM11 35H20V36H11zM60 35H69V36H60zM12 45H68V46H12zM65 57L16 57 15 56 65 56zM57 68L24 68 22 67 58 67z"/><path fill="#8b75a1" d="M46 3H47V26H46zM34 45L33 45 33 75 34 76zM61 10L60 9 60 64 61 62zM47 45L46 45 46 76 47 75zM33 3.082H34V26H33zM20 9L19 10 19 62 20 64z"/><path fill="#fff" d="M33.5 13A.5.5 0 1 0 33.5 14 .5.5 0 1 0 33.5 13zM46.5 13A.5.5 0 1 0 46.5 14 .5.5 0 1 0 46.5 13zM46.5 25A.5.5 0 1 0 46.5 26 .5.5 0 1 0 46.5 25zM33.5 25A.5.5 0 1 0 33.5 26 .5.5 0 1 0 33.5 25zM19.5 13A.5.5 0 1 0 19.5 14 .5.5 0 1 0 19.5 13zM19.5 25A.5.5 0 1 0 19.5 26 .5.5 0 1 0 19.5 25zM60.5 13A.5.5 0 1 0 60.5 14 .5.5 0 1 0 60.5 13zM60.5 25A.5.5 0 1 0 60.5 26 .5.5 0 1 0 60.5 25zM60.5 35A.5.5 0 1 0 60.5 36 .5.5 0 1 0 60.5 35zM60.5 45A.5.5 0 1 0 60.5 46 .5.5 0 1 0 60.5 45zM46.5 45A.5.5 0 1 0 46.5 46 .5.5 0 1 0 46.5 45zM46.5 56A.5.5 0 1 0 46.5 57 .5.5 0 1 0 46.5 56zM60.5 56A.5.5 0 1 0 60.5 57 .5.5 0 1 0 60.5 56zM33.5 45A.5.5 0 1 0 33.5 46 .5.5 0 1 0 33.5 45zM33.5 56A.5.5 0 1 0 33.5 57 .5.5 0 1 0 33.5 56zM19.5 35A.5.5 0 1 0 19.5 36 .5.5 0 1 0 19.5 35zM19.5 45A.5.5 0 1 0 19.5 46 .5.5 0 1 0 19.5 45zM19.5 56A.5.5 0 1 0 19.5 57 .5.5 0 1 0 19.5 56zM33.5 67A.5.5 0 1 0 33.5 68 .5.5 0 1 0 33.5 67zM46.5 67A.5.5 0 1 0 46.5 68 .5.5 0 1 0 46.5 67z"/></svg>