<svg xmlns="http://www.w3.org/2000/svg" viewBox="0 0 80 80" width="30px" height="30px"><path fill="#a6714e" d="M60,54.5c-1.9,0-3.5-1.6-3.5-3.5c0-2.3-2.6-5.7-4.8-8.4c-0.9-1.1-1.9-2.4-2.2-3 C52,39.7,63.5,42.3,63.5,51C63.5,52.9,61.9,54.5,60,54.5z"/><path fill="#7a4f34" d="M50.5,40.1C54,40.8,63,43.5,63,51c0,1.7-1.3,3-3,3s-3-1.3-3-3c0-2.5-2.7-6-4.9-8.8 C51.6,41.6,51,40.8,50.5,40.1 M49.3,39c-2.2,0,6.7,8,6.7,12c0,2.2,1.8,4,4,4s4-1.8,4-4C64,41.7,51.5,39,49.3,39L49.3,39z"/><path fill="#a6714e" d="M20,54.5c-1.9,0-3.5-1.6-3.5-3.5c0-8.7,11.6-11.3,13.9-11.5c-0.3,0.6-1.3,1.9-2.2,3 c-2.1,2.7-4.8,6.1-4.8,8.4C23.5,52.9,21.9,54.5,20,54.5z"/><path fill="#7a4f34" d="M29.5,40.1c-0.4,0.6-1.1,1.4-1.6,2.1C25.7,45,23,48.5,23,51c0,1.7-1.3,3-3,3s-3-1.3-3-3 C17,43.5,26,40.8,29.5,40.1 M30.7,39C28.5,39,16,41.7,16,51c0,2.2,1.8,4,4,4s4-1.8,4-4C24,47,32.9,39,30.7,39L30.7,39z"/><path fill="#a6714e" d="M50.9,73.5c-7.5,0-8.4-1.4-8.4-2.1c0-2.3,1.6-6.9,6.6-6.9c6.6,0,8.4,5.9,8.4,6.7 C57.5,72.3,55.8,73.5,50.9,73.5z"/><path fill="#7a4f34" d="M49.1,65c3.2,0,5.1,1.5,6.2,2.8c1.3,1.5,1.7,3.1,1.7,3.5c0,0.5-1.1,1.8-6.1,1.8 c-7.8,0-7.9-1.5-7.9-1.6C43,69.3,44.5,65,49.1,65 M49.1,64c-5.4,0-7.1,5-7.1,7.4c0,2,4,2.6,8.9,2.6c5.6,0,7.1-1.6,7.1-2.8 C58,69.9,55.8,64,49.1,64L49.1,64z"/><path fill="#a6714e" d="M29.1,73.5c-4.9,0-6.6-1.2-6.6-2.3c0-0.8,1.8-6.7,8.4-6.7c5,0,6.6,4.7,6.6,6.9 C37.5,72.1,36.7,73.5,29.1,73.5z"/><path fill="#7a4f34" d="M30.9,65c4.6,0,6.1,4.3,6.1,6.4c0,0.1-0.1,1.6-7.9,1.6c-5,0-6.1-1.3-6.1-1.8c0-0.4,0.4-2,1.7-3.5 C25.8,66.5,27.7,65,30.9,65 M30.9,64c-6.7,0-8.9,5.9-8.9,7.2c0,1.2,1.5,2.8,7.1,2.8c4.9,0,8.9-0.6,8.9-2.6C38,69,36.3,64,30.9,64 L30.9,64z"/><path fill="#a6714e" d="M40,67.5c-6.3,0-13.5-1.7-13.5-14.9c0-11.6,5.7-20.1,13.5-20.1s13.5,8.4,13.5,20.1 C53.5,65.8,46.3,67.5,40,67.5z"/><path fill="#7a4f34" d="M40,33c7.5,0,13,8.2,13,19.6C53,65.4,46.1,67,40,67c-4.2,0-7.2-0.9-9.2-2.8 c-2.5-2.3-3.8-6.1-3.8-11.7C27,41.2,32.5,33,40,33 M40,32c-7.7,0-14,8.1-14,20.6S32.3,68,40,68s14-2.9,14-15.4S47.7,32,40,32L40,32 z"/><path fill="#f5ce85" d="M40,55.3c-4.4,0-8-1-8-8.7S37.1,34,40,34s8,4.8,8,12.6S44.4,55.3,40,55.3z"/><path fill="#a6714e" d="M13,35.5C6.1,35.5,0.5,29.9,0.5,23S6.1,10.5,13,10.5S25.5,16.1,25.5,23S19.9,35.5,13,35.5z"/><path fill="#7a4f34" d="M13,11c6.6,0,12,5.4,12,12s-5.4,12-12,12S1,29.6,1,23S6.4,11,13,11 M13,10C5.8,10,0,15.8,0,23 s5.8,13,13,13s13-5.8,13-13S20.2,10,13,10L13,10z"/><path fill="#a6714e" d="M67,35.5c-6.9,0-12.5-5.6-12.5-12.5S60.1,10.5,67,10.5S79.5,16.1,79.5,23S73.9,35.5,67,35.5z"/><path fill="#7a4f34" d="M67,11c6.6,0,12,5.4,12,12s-5.4,12-12,12s-12-5.4-12-12S60.4,11,67,11 M67,10c-7.2,0-13,5.8-13,13 s5.8,13,13,13s13-5.8,13-13S74.2,10,67,10L67,10z"/><path fill="#8f5c3b" d="M67 14A9 9 0 1 0 67 32 9 9 0 1 0 67 14zM13 14A9 9 0 1 0 13 32 9 9 0 1 0 13 14z"/><path fill="#a6714e" d="M40,41.5c-12.6,0-19.5-5.9-19.5-16.5S27.4,8.5,40,8.5S59.5,14.4,59.5,25S52.6,41.5,40,41.5z"/><path fill="#7a4f34" d="M40,9c12.3,0,19,5.7,19,16s-6.7,16-19,16s-19-5.7-19-16S27.7,9,40,9 M40,8c-14.6,0-20,7.6-20,17 s5.4,17,20,17s20-7.6,20-17S54.6,8,40,8L40,8z"/><path fill="#f5ce85" d="M40,39c-11.3,0-17-4.7-17-14s5.7-14,17-14s17,4.7,17,14S51.3,39,40,39z"/><path fill="#fff" d="M48 20A4 4 0 1 0 48 28A4 4 0 1 0 48 20Z"/><path fill="#36404d" d="M48 22A3 3 0 1 0 48 28A3 3 0 1 0 48 22Z"/><path fill="#fff" d="M49.3 21.2A1 1 0 1 0 49.3 23.2A1 1 0 1 0 49.3 21.2Z"/><g><path fill="#66798f" d="M37.5 31L40 28.5 42.5 31z"/></g><g><path fill="#c74343" d="M43.5,33.4c0,0-1.8,2.6-3.5,2.6s-3.5-2.6-3.5-2.6s1.8,1,3.5,1S43.5,33.4,43.5,33.4z"/></g><path fill="#7a4f34" d="M51.3,19c-0.2,0-0.4-0.1-0.5-0.2c0,0-1.4-0.8-3.7-0.8c-0.6,0-1-0.4-1-1s0.4-1,1-1 c3,0,4.7,1.1,4.8,1.2c0.5,0.3,0.6,0.9,0.3,1.4C51.9,18.8,51.6,19,51.3,19z"/><path fill="#fff" d="M32 20A4 4 0 1 0 32 28A4 4 0 1 0 32 20Z"/><path fill="#36404d" d="M32 22A3 3 0 1 0 32 28A3 3 0 1 0 32 22Z"/><path fill="#fff" d="M33.3 21.2A1 1 0 1 0 33.3 23.2A1 1 0 1 0 33.3 21.2Z"/><path fill="#7a4f34" d="M28.7,19c-0.3,0-0.7-0.2-0.8-0.5c-0.3-0.5-0.2-1.1,0.3-1.4c0.1,0,1.8-1.2,4.8-1.2c0.6,0,1,0.4,1,1 s-0.4,1-1,1c-2.4,0-3.7,0.8-3.7,0.8C29.1,18.9,28.9,19,28.7,19z"/></svg>