<svg xmlns="http://www.w3.org/2000/svg" viewBox="0 0 80 80" width="30px" height="30px"><path fill="#8bb7f0" d="M10,45.5c-0.017-0.001-3.5-0.274-3.5-8.5c0-8.325,3.476-8.499,3.511-8.5H70 c0,0.002,3.5,0.392,3.5,8.5c0,7.888-3.312,8.472-3.525,8.5H10z"/><path fill="#4e7ab5" d="M69.937,29C70.214,29.054,73,29.787,73,37c0,7.318-2.868,7.966-3.048,8l-59.929,0 C9.992,45,7,44.592,7,37c0-7.408,2.833-7.969,3.04-8H69.937 M70,28H10c0,0-4,0.089-4,9s4,9,4,9h60c0,0,4-0.228,4-9S70,28,70,28 L70,28z"/><path fill="#8bb7f0" d="M32.268 77.5L20.5 59.849 20.5 42.5 59.5 42.5 59.5 59.849 47.732 77.5z"/><path fill="#4e7ab5" d="M59,43v16.697L47.465,77h-14.93L21,59.697V43H59 M60,42H20v18l12,18h16l12-18V42L60,42z"/><path fill="#c2e8ff" d="M32.5,77.5v-32H26c-0.744,0.011-1.441,0.017-2.102,0.017C12.5,45.517,12.5,44.049,12.5,30 c0-13.666,9.446-27.5,27.5-27.5S67.5,16.334,67.5,30l0.003,2.066c0.017,6.333,0.026,9.821-1.677,11.529 C64.201,45.225,60.864,45.5,54,45.5h-6.5v32H32.5z"/><path fill="#7496c4" d="M40,3c8.119,0,15.017,2.813,19.947,8.135C64.495,16.044,67,22.744,67,30 c0,0.721,0.002,1.41,0.004,2.068c0.016,6.199,0.025,9.614-1.531,11.174C63.982,44.737,60.585,45,54,45h-6h-1v1v31H33V46v-1h-1 l-6.015,0c-0.734,0.011-1.427,0.017-2.085,0.017C13,45.017,13,43.883,13,30c0-7.256,2.505-13.956,7.053-18.865 C24.983,5.813,31.881,3,40,3 M40,2C22.184,2,12,15.215,12,30c0,14.005,0.003,16.017,11.9,16.017c0.663,0,1.361-0.006,2.1-0.017h6 v32h16V46h6c14.759,0,14-1.215,14-16S57.816,2,40,2L40,2z"/><path fill="#7496c4" d="M40,45.643L40,45.643c-1.1,0-2-0.9-2-2v-6c0-1.1,0.9-2,2-2l0,0c1.1,0,2,0.9,2,2v6	C42,44.743,41.1,45.643,40,45.643z"/><g><path fill="#fff" d="M42.454,39.5c-0.068-0.377-0.234-0.893-0.636-1.309C41.375,37.732,40.763,37.5,40,37.5 s-1.375,0.232-1.817,0.691c-0.402,0.416-0.568,0.932-0.636,1.309c-13.497-0.016-19.787-0.717-19.85-0.725 c-5.194-1.257-5.193-4.875-5.191-7.517v-0.116c0-7.027,1.027-8.643,5.495-8.643h44c4.416,0,5.495,1.696,5.495,8.643 c0,2.49,0,6.658-5.227,7.639C62.24,38.783,56.021,39.484,42.454,39.5z"/><path fill="#788b9c" d="M62,23c3.87,0,4.995,1.069,4.995,8.143c0,3.151-0.37,6.296-4.784,7.14 c-0.502,0.055-6.595,0.689-19.365,0.716c-0.116-0.374-0.318-0.792-0.669-1.155C41.805,37.459,41.126,37,40,37 c-1.126,0-1.805,0.459-2.177,0.844c-0.351,0.364-0.553,0.782-0.669,1.155c-12.487-0.027-18.675-0.643-19.34-0.714 c-4.811-1.188-4.809-4.424-4.808-7.027l0-0.116C13.005,24.014,14.07,23,18,23H62 M62,22H18c-4.919,0-5.995,2.009-5.995,9.143 c0,2.583-0.088,6.749,5.635,8.13c0,0,6.362,0.727,20.36,0.727c0,0-0.069-2,2-2s2,2,2,2c14.085,0,20.36-0.727,20.36-0.727 c5.632-1.056,5.635-5.63,5.635-8.13C67.995,24.226,66.919,22,62,22L62,22z"/></g><path fill="#36404d" d="M53 59.938L48 53 40 53 40 54 47.625 54 53 61.524 59 52.606 59 51zM27 59.969L32 53 40 53 40 54 32.5 54 27 61.524 21 52.606 21 50.844z"/></svg>