<svg xmlns="http://www.w3.org/2000/svg" viewBox="0 0 80 80" width="30px" height="30px"><path fill="#e8d47b" d="M62,49.5c-4.136,0-7.5-3.364-7.5-7.5s3.364-7.5,7.5-7.5c5.327,0,7.5,1.4,7.5,4.833 C69.5,43.348,66.14,49.5,62,49.5z"/><path fill="#ba9b48" d="M62,35c5.037,0,7,1.215,7,4.333C69,43.151,65.864,49,62,49c-3.86,0-7-3.14-7-7S58.14,35,62,35 M62,34c-4.418,0-8,3.582-8,8s3.582,8,8,8s8-6.248,8-10.667S66.418,34,62,34L62,34z"/><path fill="#e8d47b" d="M18,49.5c-4.14,0-7.5-6.152-7.5-10.167c0-3.433,2.173-4.833,7.5-4.833c4.136,0,7.5,3.364,7.5,7.5 S22.136,49.5,18,49.5z"/><path fill="#ba9b48" d="M18,35c3.86,0,7,3.14,7,7s-3.14,7-7,7c-3.864,0-7-5.849-7-9.667C11,36.215,12.963,35,18,35 M18,34 c-4.418,0-8,0.915-8,5.333S13.582,50,18,50s8-3.582,8-8S22.418,34,18,34L18,34z"/><path fill="#ffeea3" d="M40,75.5c-11.655,0-23.5-14.365-23.5-22.392V26.5h47v26.608C63.5,61.135,51.655,75.5,40,75.5z"/><path fill="#ba9b48" d="M63,27v26.108c0,3.852-2.866,9.302-7.3,13.885C50.775,72.082,45.053,75,40,75 s-10.775-2.918-15.7-8.007C19.866,62.411,17,56.961,17,53.108V27H63 M64,26H16v27.108C16,61.467,28.218,76,40,76 s24-14.533,24-22.892V26L64,26z"/><path fill="#839cb2" d="M40,31.357c-32.324,0-37.078-6.733-37.5-7.473V22.5h13.952l2-20h43.096l2,20H77.5v1.392 C77.129,24.575,72.603,31.357,40,31.357z"/><path fill="#66798f" d="M61.095,3l1.91,19.1l0.09,0.9H64h13v0.752c-0.617,0.934-5.89,7.105-37,7.105 c-31.117,0-36.414-6.236-37-7.102V23h13h0.905l0.09-0.9L18.905,3H40.02H61.095 M62,2c0,0-14.199,0-21.98,0S18,2,18,2l-2,20H2v2 c0,0,2.884,7.857,38,7.857C75.286,31.857,78,24,78,24v-2H64L62,2L62,2z"/><path fill="#839cb2" d="M48,47.5c-1.567,0-3.064-0.941-3.905-2.457l-2.17-6.52l-0.028-0.047 c-0.367-0.611-1.042-0.991-1.763-0.991c-0.711,0-1.326,0.383-1.646,1.025c-1.268,2.353-2.566,6.452-2.621,6.625 C35.253,46.506,33.655,47.5,32,47.5h-8.143c-1.715,0-3.195-1.093-3.684-2.72L16.5,35.901V34.5h47v1.4l-3.657,8.832 c-0.505,1.674-1.985,2.768-3.7,2.768H48z"/><path fill="#66798f" d="M63 35v.801l-3.619 8.74-.019.047-.015.048C58.916 46.072 57.659 47 56.143 47H48c-1.359 0-2.664-.811-3.425-2.123l-2.159-6.46-.035-.104-.056-.094c-.457-.761-1.296-1.233-2.192-1.233-.904 0-1.686.486-2.08 1.274-1.229 2.283-2.473 6.124-2.646 6.667C34.846 46.131 33.423 47 32 47h-8.143c-1.516 0-2.773-.928-3.204-2.364l-.015-.048-.019-.047L17 35.801V35H63M64 34H16v2l3.695 8.924C20.238 46.733 21.867 48 23.857 48H32c1.81 0 3.619-1.086 4.343-2.714 0 0 1.325-4.2 2.591-6.552.259-.518.725-.748 1.199-.748.52 0 1.05.275 1.334.748l2.19 6.552C44.562 46.914 46.19 48 48 48h8.143c1.99 0 3.619-1.267 4.162-3.076L64 36V34L64 34zM17 15H63V16H17z"/><path fill="#ba9b48" d="M30 60H50V61H30z"/><g><path fill="#e0ac89" d="M37.2,77.5c-10.557,0-10.699-9.752-10.7-10.167V62c0-4.136,3.544-7.5,7.9-7.5H45.6 c4.356,0,7.9,3.364,7.9,7.5v5.333C53.494,67.743,53.246,77.5,42.8,77.5H37.2z M41.5,70.694l7-2.333V62c0-1.776-0.725-2.5-2.5-2.5 H34c-1.775,0-2.5,0.724-2.5,2.5v6.36l7,2.333V61.5h3V70.694z"/><path fill="#b08159" d="M45.6,55c4.08,0,7.4,3.14,7.4,7l0,5.32C52.994,67.715,52.738,77,42.8,77h-5.6 c-10.041,0-10.198-9.274-10.2-9.667V62c0-3.86,3.32-7,7.4-7H45.6 M39,71.387V70v-8h2v8v1.387l1.316-0.439l6-2L49,68.721V68v-6 c0-2.075-0.925-3-3-3H34c-2.075,0-3,0.925-3,3v6v0.721l0.684,0.228l6,2L39,71.387 M45.6,54H34.4c-4.62,0-8.4,3.6-8.4,8v5.333 C26,67.333,26,78,37.2,78h5.6C53.883,78,54,67.333,54,67.333V62C54,57.6,50.22,54,45.6,54L45.6,54z M38,70l-6-2v-6 c0-1.473,0.454-2,2-2h12c1.546,0,2,0.527,2,2v6l-6,2v-9h-4V70L38,70z"/></g><path fill="#66798f" d="M16 22H64V23H16z"/><path fill="#bae0bd" d="M62.39 16L17.61 16 17.01 22 62.99 22z"/><g><path fill="#5e9c76" d="M17.61 16L16.6 16 16 22 17.01 22zM62.99 22L64 22 63.4 16 62.39 16z"/></g></svg>